<svg width="151" height="54" viewBox="0 0 151 54" fill="none" xmlns="http://www.w3.org/2000/svg">
<g clip-path="url(#clip0_1_2438)">
<path d="M26.1182 3.68393C20.0051 3.88781 14.2169 6.48566 10.0014 10.9174C5.78589 15.3492 3.48063 21.26 3.58258 27.3757C3.68454 33.4913 6.18554 39.322 10.5464 43.6108C14.9074 47.8996 20.7789 50.3031 26.8954 50.3031C33.0119 50.3031 38.8835 47.8996 43.2444 43.6108C47.6053 39.322 50.1063 33.4913 50.2082 27.3757C50.3102 21.26 48.0049 15.3492 43.7894 10.9174C39.5739 6.48566 33.7857 3.88781 27.6726 3.68393H26.1182ZM58.7607 3.68393C52.6476 3.88781 46.8594 6.48566 42.6439 10.9174C38.4284 15.3492 36.1231 21.26 36.2251 27.3757C36.327 33.4913 38.828 39.322 43.1889 43.6108C47.5498 47.8996 53.4214 50.3031 59.5379 50.3031C65.6544 50.3031 71.5259 47.8996 75.8868 43.6108C80.2477 39.322 82.7488 33.4913 82.8507 27.3757C82.9527 21.26 80.6474 15.3492 76.4319 10.9174C72.2164 6.48566 66.4282 3.88781 60.3151 3.68393H58.7607ZM91.4032 3.68393C85.2901 3.88781 79.5019 6.48566 75.2864 10.9174C71.0709 15.3492 68.7656 21.26 68.8676 27.3757C68.9695 33.4913 71.4705 39.322 75.8314 43.6108C80.1923 47.8996 86.0639 50.3031 92.1804 50.3031C98.2969 50.3031 104.168 47.8996 108.529 43.6108C112.89 39.322 115.391 33.4913 115.493 27.3757C115.595 21.26 113.29 15.3492 109.074 10.9174C104.859 6.48566 99.0707 3.88781 92.9576 3.68393H91.4032ZM124.046 3.68393C117.933 3.88781 112.144 6.48566 107.929 10.9174C103.713 15.3492 101.408 21.26 101.51 27.3757C101.612 33.4913 104.113 39.322 108.474 43.6108C112.835 47.8996 118.706 50.3031 124.823 50.3031C130.939 50.3031 136.811 47.8996 141.172 43.6108C145.533 39.322 148.034 33.4913 148.136 27.3757C148.238 21.26 145.932 15.3492 141.717 10.9174C137.501 6.48566 131.713 3.88781 125.6 3.68393H124.046Z" stroke="black" stroke-width="5.44041"/>
</g>
<defs>
<clipPath id="clip0_1_2438">
<rect width="150" height="52.057" fill="white" transform="translate(0.859131 0.971497)"/>
</clipPath>
</defs>
</svg>
