<svg width="56" height="72" viewBox="0 0 56 72" fill="none" xmlns="http://www.w3.org/2000/svg">
<g clip-path="url(#clip0_1_2393)">
<path fill-rule="evenodd" clip-rule="evenodd" d="M28.2357 42.9393H28.5258C34.3789 42.3891 39.7492 40.2214 44.1225 36.0624C47.981 32.3932 50.581 27.4037 50.6338 21.7263C50.7158 12.8375 45.3677 4.51837 33.8393 1.14587L34.6822 0.442688L34.8084 0.479785L35.1394 0.577472L35.486 0.683404L35.8421 0.797579L36.2098 0.919998L36.5869 1.05148L36.9703 1.19245L37.3701 1.34331L37.774 1.50406L38.1879 1.67553L38.6087 1.85772L39.0333 2.05144L39.4694 2.25671L39.9046 2.47393L40.3518 2.70393L40.7966 2.9463L41.2426 3.20226L41.6947 3.47142L42.1465 3.755L42.6032 4.0526L43.0595 4.36545L43.5096 4.69314L43.6728 4.81473L43.8356 4.93839L44.0038 5.06369L44.1654 5.19147L44.3286 5.32089L44.4918 5.45197L44.6505 5.58552L44.8117 5.72071L44.9749 5.85838L45.1381 5.9977L45.2993 6.1399L45.458 6.28376L45.6159 6.43008L45.7787 6.57847L45.9353 6.72933L46.0936 6.88225L46.2519 7.03764L46.4072 7.1951L46.5663 7.35544L46.7189 7.51784L46.8755 7.68271L47.0276 7.85006L47.1805 8.01988L47.3318 8.19176L47.4835 8.36694L47.6298 8.54418L47.7773 8.7243L47.9249 8.9069L48.0708 9.09238L48.2184 9.28034L48.3598 9.47077L48.5016 9.66408L48.7163 9.9658L48.9311 10.2729L49.1371 10.5853L49.3416 10.9031L49.5411 11.2271L49.7344 11.556L49.924 11.8907L50.1074 12.2312L50.2863 12.5782L50.4598 12.9311L50.6264 13.2901L50.7892 13.6553L50.9421 14.0271L51.0888 14.405L51.231 14.7896L51.3658 15.1808L51.494 15.5789L51.614 15.9837L51.729 16.3959L51.8337 16.8151L51.9276 17.2413L52.0171 17.6749L52.0966 18.1155L52.17 18.5636L52.2335 19.0194L52.285 19.4831L52.3328 19.9547L52.3637 20.4336L52.3897 20.9208L52.407 21.4159L52.4111 21.9192L52.407 22.4307L52.4012 22.6932L52.3897 22.9513L52.3794 23.2052L52.3695 23.455L52.3534 23.701L52.3328 23.9434L52.3122 24.1825L52.2908 24.4178L52.2648 24.6507L52.2384 24.8803L52.2059 25.107L52.1758 25.3308L52.1391 25.553L52.1012 25.7723L52.0604 25.9899L52.0171 26.2051L51.9759 26.4194L51.9276 26.6321L51.8823 26.8431L51.8287 27.0529L51.7772 27.2619L51.7187 27.4696L51.6614 27.6774L51.6032 27.8839L51.5394 28.0904L51.4779 28.2973L51.4095 28.5038L51.3407 28.7103L51.2723 28.9176L51.2005 29.1254L51.1259 29.3339L51.0476 29.5433L50.8374 30.0816L50.6161 30.6125L50.3749 31.1364L50.1227 31.6529L49.8605 32.1624L49.5823 32.664L49.288 33.1582L48.9846 33.6446L48.6701 34.1231L48.3392 34.5934L47.997 35.0559L47.6467 35.5097L47.2844 35.9553L46.9068 36.3918L46.5239 36.82L46.1286 37.2392L45.7251 37.6494L45.3112 38.0504L44.8855 38.442L44.4543 38.8237L44.0149 39.1963L43.5685 39.559L43.1122 39.9114L42.6502 40.254L42.1782 40.587L41.7001 40.9089L41.2182 41.2205L40.7253 41.5214L40.2311 41.8116L39.7274 42.0911L39.2225 42.3594L38.7089 42.6162L38.321 42.8046L37.9286 42.9855L37.5333 43.1599L37.1397 43.3268L36.7469 43.4871L36.3483 43.6409L35.9534 43.7872L35.5598 43.9273L35.1666 44.0605L34.7742 44.1874L34.3805 44.3074L33.9856 44.4203L33.5978 44.5271L33.2095 44.6272L32.8216 44.7212L32.4391 44.8082L32.0554 44.889L31.6729 44.9632L31.2949 45.0312L30.9169 45.0926L30.5443 45.1482L30.1771 45.1969L29.8098 45.2397L29.4458 45.2785L29.0827 45.3094L28.7311 45.3337L28.3783 45.3519L28.2357 45.3572V42.9393Z" fill="#59595B"/>
<path fill-rule="evenodd" clip-rule="evenodd" d="M21.7689 0.442688L22.6114 1.14587C11.0834 4.51837 5.73488 12.8375 5.81691 21.7263C5.86925 27.4037 8.46973 32.3932 12.3282 36.0624C16.7015 40.2214 22.0714 42.3891 27.9248 42.9393H28.215V45.3568L28.0724 45.3514L27.7196 45.3333L27.368 45.309L27.0048 45.2781L26.6429 45.2418L26.2757 45.1989L25.9084 45.1503L25.5358 45.0947L25.1578 45.0332L24.7799 44.9652L24.3978 44.891L24.014 44.8102L23.6311 44.7233L23.2432 44.6293L22.855 44.5291L22.4671 44.4224L22.0722 44.3094L21.6786 44.1895L21.2858 44.0625L20.893 43.9294L20.4993 43.7893L20.1045 43.6429L19.7059 43.4892L19.3131 43.3289L18.9194 43.1619L18.5241 42.9876L18.1313 42.8066L17.7435 42.6182L17.2295 42.3615L16.725 42.0931L16.2217 41.8137L15.7275 41.5235L15.2345 41.2226L14.7527 40.911L14.2741 40.5891L13.8026 40.256L13.3401 39.9135L12.8838 39.5611L12.4374 39.1983L11.9976 38.8257L11.5665 38.444L11.1407 38.0525L10.7268 37.6514L10.3233 37.2413L9.92845 36.8221L9.54553 36.3938L9.16797 35.9573L8.80607 35.5118L8.45571 35.058L8.11319 34.5955L7.78261 34.1252L7.46812 33.6466L7.16434 33.1603L6.87045 32.666L6.59223 32.1644L6.32966 31.655L6.07741 31.1385L5.83628 30.6146L5.61494 30.0837L5.40513 29.5454L5.32641 29.336L5.25221 29.1274L5.18049 28.9189L5.11166 28.7115L5.04282 28.505L4.9744 28.2985L4.91298 28.0916L4.84868 27.8851L4.79098 27.6786L4.7341 27.4709L4.67557 27.2631L4.62404 27.0533L4.57046 26.8435L4.52512 26.6325L4.47648 26.4198L4.43567 26.2055L4.3924 25.9903L4.35159 25.7727L4.31367 25.5534L4.2774 25.3312L4.24689 25.1074L4.21474 24.8807L4.18836 24.6511L4.1624 24.4182L4.14014 24.1829L4.11953 23.9438L4.09892 23.7014L4.08284 23.4554L4.07295 23.2056L4.06265 22.9517L4.05111 22.6936L4.04534 22.4311L4.0408 21.9196L4.04534 21.4163L4.06265 20.9213L4.08862 20.4341L4.11994 19.9551L4.16776 19.4836L4.21928 19.0198L4.28275 18.564L4.35571 18.1159L4.43567 17.6753L4.52512 17.2417L4.6191 16.8155L4.72379 16.3963L4.83879 15.9841L4.95874 15.5793L5.08693 15.1812L5.22171 14.79L5.36391 14.4054L5.51024 14.0275L5.66316 13.6557L5.82639 13.2905L5.99291 12.9315L6.16644 12.5786L6.34491 12.2316L6.52834 11.8915L6.71794 11.5568L6.91084 11.2279L7.11034 10.9039L7.3152 10.5861L7.52129 10.2737L7.73563 9.96663L7.95037 9.66491L8.09216 9.47159L8.23313 9.28116L8.38069 9.09321L8.52661 8.90772L8.67417 8.72513L8.82173 8.545L8.96806 8.36776L9.12015 8.19258L9.27184 8.0207L9.42476 7.85088L9.57685 7.68354L9.73307 7.51866L9.88599 7.35626L10.0447 7.19592L10.2001 7.03847L10.3588 6.88307L10.5166 6.73015L10.6733 6.57929L10.8361 6.43091L10.9935 6.28458L11.1522 6.14073L11.3138 5.99852L11.477 5.85921L11.6403 5.72154L11.8014 5.58634L11.9597 5.45279L12.1229 5.32172L12.2861 5.19229L12.4473 5.06451L12.6155 4.93921L12.7787 4.81555L12.9419 4.69396L13.3916 4.36627L13.8483 4.05343L14.305 3.75583L14.7568 3.47224L15.2089 3.20268L15.6549 2.94671L16.0997 2.70434L16.5469 2.47435L16.9822 2.25712L17.4183 2.05186L17.8428 1.85813L18.2636 1.67594L18.6775 1.50448L19.0818 1.34372L19.4817 1.19286L19.865 1.0519L20.2421 0.92041L20.6094 0.797991L20.9659 0.683816L21.3126 0.577885L21.6436 0.480197L21.7689 0.442688Z" fill="#808183"/>
<path fill-rule="evenodd" clip-rule="evenodd" d="M28.2357 45.391H28.2534C31.4264 45.2719 35.1525 44.3981 38.7233 42.6496C44.2115 39.9621 48.9294 35.3411 51.0765 29.5574C51.9107 27.313 52.3885 25.2583 52.442 22.4319C52.5513 16.9222 50.856 12.84 48.5316 9.64389C47.0144 7.5636 45.2725 5.95319 43.5306 4.66553C40.3028 2.27692 36.9909 1.06963 34.714 0.416316L34.7263 0.406011L35.9835 9.22578e-06C35.9963 -0.00411262 42.5121 1.37176 47.7328 6.45935C51.5427 10.1723 54.6893 16.0686 54.2272 24.1425C53.8336 31.028 50.025 37.8188 43.8435 42.3561C39.7047 45.3939 34.5149 47.4363 28.5279 47.7722H28.2361L28.2357 45.391Z" fill="#929496"/>
<path fill-rule="evenodd" clip-rule="evenodd" d="M20.4672 9.22578e-06L21.7244 0.405599L21.7367 0.415904C19.4602 1.06922 16.1483 2.27692 12.9201 4.66511C11.1786 5.95278 9.43633 7.56319 7.91907 9.64348C5.59476 12.8396 3.89986 16.9218 4.00909 22.4315C4.06267 25.2579 4.5404 27.3126 5.37466 29.5569C7.52173 35.3407 12.2388 39.963 17.7278 42.6492C21.2986 44.3989 25.0247 45.2715 28.1977 45.3906H28.2155V47.7718H27.9236C21.9366 47.4363 16.7464 45.3935 12.6081 42.3557C6.42614 37.8188 2.61756 31.028 2.22351 24.1425C1.76186 16.0686 4.90848 10.1719 8.71789 6.45935C13.939 1.37176 20.4544 -0.00411262 20.4672 9.22578e-06Z" fill="#BBBCBF"/>
<path fill-rule="evenodd" clip-rule="evenodd" d="M29.2583 36.8798L29.4772 36.8167L29.7096 36.75L29.9565 36.6799L30.2179 36.6057L30.4916 36.5278L30.7776 36.4466L31.0748 36.3617L31.3815 36.2735L31.6976 36.1828L32.0216 36.0888L32.353 35.992L32.6902 35.893L33.0331 35.7916L33.3801 35.6882L33.7309 35.5823L34.0837 35.4747L34.4378 35.3654L34.7931 35.2546L35.1476 35.1425L35.5013 35.0283L35.8524 34.9137L36.2007 34.7979L36.5449 34.6812L36.8841 34.5633L37.2172 34.4454L37.5436 34.3267L37.8631 34.2084L38.1743 34.0889L38.4752 33.9698L38.7662 33.8507L39.0469 33.7311L39.3144 33.612L39.4582 33.5461L39.5975 33.4793L39.7323 33.4121L39.863 33.3445L39.9895 33.2765L40.1119 33.2081L40.229 33.1396L40.3424 33.0712L40.4504 33.002L40.5542 32.9331L40.6536 32.8631L40.7479 32.793L40.8378 32.7225L40.9235 32.6504L41.0039 32.577L41.0777 32.5045L41.1667 32.4097L41.2512 32.3153L41.332 32.2197L41.4099 32.122L41.4849 32.0226L41.5571 31.9208L41.6259 31.8169L41.6919 31.7106L41.7541 31.6022L41.8139 31.4917L41.8703 31.3788L41.9235 31.2634L41.9738 31.1459L42.0212 31.0256L42.0649 30.9035L42.1069 30.7787L42.1457 30.6505L42.1815 30.5206L42.2149 30.3883L42.2467 30.2519L42.2755 30.113L42.3023 29.9708L42.3274 29.8253L42.3509 29.6761L42.372 29.5227L42.3917 29.3661L42.4095 29.2053L42.4264 29.0401L42.4416 28.8702L42.4556 28.6955L42.4684 28.5166L42.4804 28.3332L43.0183 19.3817L45.9951 14.323L28.2254 12.3313L10.4561 14.323L13.4329 19.3817L13.9704 28.3332L13.9819 28.5166L13.9951 28.6955L14.0091 28.8702L14.0244 29.0401L14.0409 29.2053L14.059 29.3661L14.0788 29.5227L14.1002 29.6761L14.1233 29.8253L14.148 29.9708L14.1752 30.113L14.2041 30.2523L14.2358 30.3887L14.2692 30.5206L14.3055 30.6505L14.3442 30.7787L14.3859 30.904L14.43 31.026L14.4774 31.1459L14.5272 31.2634L14.5808 31.3788L14.6369 31.4917L14.6966 31.6022L14.7589 31.7106L14.8248 31.8169L14.8941 31.9212L14.9658 32.0226L15.0408 32.1224L15.1191 32.2197L15.1999 32.3153L15.2844 32.4097L15.3734 32.5045L15.4472 32.577L15.528 32.6504L15.6133 32.7225L15.7032 32.793L15.7976 32.8631L15.8969 32.9331L16.0008 33.002L16.1092 33.0712L16.2221 33.1396L16.3392 33.2081L16.4616 33.2765L16.5882 33.3445L16.7188 33.4121L16.854 33.4793L16.9933 33.5461L17.1368 33.612L17.4043 33.7311L17.6846 33.8507L17.976 33.9698L18.2769 34.0889L18.5877 34.2084L18.9071 34.3267L19.2336 34.4454L19.567 34.5633L19.9062 34.6812L20.2504 34.7979L20.5983 34.9137L20.9495 35.0283L21.3031 35.1425L21.658 35.2546L22.0129 35.3654L22.367 35.4747L22.7202 35.5823L23.0706 35.6882L23.4176 35.7916L23.7606 35.893L24.0982 35.992L24.4291 36.0888L24.7535 36.1828L25.0693 36.2735L25.3759 36.3617L25.6735 36.4466L25.9592 36.5278L26.2333 36.6057L26.4946 36.6799L26.7415 36.75L26.9736 36.8167L27.1928 36.8798L28.2254 37.1688L29.2583 36.8798Z" fill="#A6A8AA"/>
<path fill-rule="evenodd" clip-rule="evenodd" d="M22.5541 1.16318L22.7214 1.30332C11.4189 4.62429 6.17511 12.8156 6.25631 21.568C6.30784 27.1584 8.85679 32.0713 12.6398 35.6845C16.9274 39.7795 22.1926 41.9134 27.931 42.4558H28.5201C34.2585 41.9138 39.5233 39.7795 43.8113 35.6845C47.5943 32.0713 50.1433 27.1584 50.1948 21.568C50.2756 12.8156 45.0318 4.62429 33.7292 1.30332L33.897 1.16318C45.385 4.54639 50.7162 12.8523 50.6338 21.7262C50.581 27.4037 47.9809 32.3932 44.1225 36.0624C39.7492 40.2214 34.3788 42.3891 28.5258 42.9393H27.9249C22.0714 42.3891 16.7015 40.2214 12.3282 36.0624C8.46975 32.3932 5.86969 27.4037 5.81734 21.7262C5.73531 12.8523 11.0661 4.54639 22.5541 1.16318Z" fill="#BBBCBF"/>
<path fill-rule="evenodd" clip-rule="evenodd" d="M7.10371 36.8184C10.0141 37.4898 11.1786 38.1324 13.0672 39.8516C13.0738 39.8582 9.15474 40.0829 7.10371 36.8184ZM7.09258 33.4665C6.68369 33.2765 3.63806 32.166 2.88376 27.9663C3.65125 28.7643 4.41544 29.1855 5.29463 30.3166C5.83954 31.0181 6.42979 32.0263 7.09258 33.4665ZM3.81777 23.5444C3.58365 23.1734 1.70327 20.6405 3.00989 16.6007C3.92041 18.6142 3.99048 20.8697 3.81777 23.5444ZM5.58316 13.2253C5.55761 12.8354 4.94057 10.3623 7.9017 7.45187C7.6886 9.81492 6.79292 11.1751 5.58316 13.2253ZM10.6679 6.29858C10.7994 5.96347 10.9984 3.96767 14.7914 2.23526C13.6945 4.22735 12.4003 4.85758 10.6679 6.29858Z" fill="#E6E6E7"/>
<path fill-rule="evenodd" clip-rule="evenodd" d="M15.0853 3.30201C15.0804 3.30201 18.4314 1.06343 21.1642 1.48139C20.2875 1.94551 17.1541 3.21957 15.0853 3.30201Z" fill="#434244"/>
<path fill-rule="evenodd" clip-rule="evenodd" d="M4.55774 17.2912C5.12614 16.6762 6.58528 15.764 8.01391 11.9435C4.90068 14.2468 5.05607 15.379 4.55774 17.2912ZM7.82307 9.92665C8.41744 9.62494 10.5987 8.72143 12.2775 6.47708C9.44254 7.24704 8.76821 8.61137 7.82307 9.92665Z" fill="black"/>
<path fill-rule="evenodd" clip-rule="evenodd" d="M5.1615 28.8125C5.43849 28.0038 6.2406 26.6189 5.64169 21.8651C3.94761 25.2549 4.62607 26.9379 5.1615 28.8125ZM9.12012 35.8419C9.13248 35.0377 9.45564 33.5547 7.47509 29.5507C6.93142 33.0939 8.06287 34.3601 9.12012 35.8419ZM15.6743 41.4398C15.3927 40.6632 15.0622 38.4824 11.8434 35.8436C12.5087 39.3995 14.1451 40.3059 15.6743 41.4398ZM24.0391 44.7698C23.7605 44.3663 22.3282 41.7831 18.2393 40.3669C20.0834 43.1833 21.9844 44.2212 24.0391 44.7698ZM20.4977 43.9554C20.0752 43.7369 17.0534 42.1079 13.3566 42.8218C15.5601 44.3964 17.9536 44.2769 20.4977 43.9554ZM27.9331 45.5645C27.4475 45.4635 23.7613 44.4941 20.3522 46.2813C23.7073 47.2681 25.4253 46.5348 27.9331 45.5645Z" fill="#E6E6E7"/>
<path fill-rule="evenodd" clip-rule="evenodd" d="M27.9331 45.5645C27.4475 45.4635 23.763 44.4945 20.3543 46.2801C22.3093 46.2706 26.7155 45.7991 27.9282 45.5666C27.9299 45.5661 27.9315 45.5654 27.9331 45.5645ZM20.4973 43.9554C20.074 43.7361 17.0527 42.1079 13.3566 42.8218L13.3578 42.8227C14.2383 43.0498 15.6038 43.3227 16.9125 43.5667C17.3004 43.6388 19.5357 43.8849 20.4973 43.9554ZM7.10376 36.8184C10.0138 37.4898 11.1782 38.1324 13.066 39.8508C9.84438 38.7882 7.67217 37.4358 7.10376 36.8184ZM2.88712 27.9696C3.65378 28.7651 4.41632 29.1868 5.29427 30.3162C5.80703 30.9761 6.35977 31.9068 6.97475 33.213C5.04243 31.3829 4.0977 30.427 2.88712 27.9696ZM9.12017 35.8407C9.13295 35.0361 9.45445 33.5531 7.47597 29.5532C7.50564 30.2177 7.65403 31.3817 8.05303 32.8359C8.30281 33.7427 8.66883 34.7055 9.12017 35.8407ZM5.16155 28.8117C5.43854 28.003 6.23983 26.6176 5.64175 21.868C5.45832 22.4035 5.1768 23.715 5.08901 25.5554C5.04325 26.5125 5.08901 27.5661 5.16155 28.8117ZM15.6743 41.4398C15.3928 40.6632 15.0622 38.4824 11.8439 35.8436C12.0409 36.3984 12.5866 37.5533 13.5771 38.9395C14.1332 39.7177 14.8359 40.5095 15.6743 41.4398C15.6739 41.4398 15.6739 41.4398 15.6743 41.4398ZM3.01036 16.602C3.8912 18.5504 3.98476 20.725 3.83349 23.2876C3.3331 21.143 2.91885 18.6938 3.01036 16.602Z" fill="black"/>
<path fill-rule="evenodd" clip-rule="evenodd" d="M4.55774 17.2911C5.12614 16.6762 6.58486 15.764 8.0135 11.9447C5.95298 13.9792 5.46496 15.2706 4.65625 16.8901C4.62575 17.0203 4.5936 17.1535 4.55774 17.2911ZM7.82307 9.92664C8.41702 9.62533 10.5954 8.72306 12.273 6.48325C9.84689 7.57389 9.20595 8.46668 8.07986 9.56103C7.99495 9.68345 7.91045 9.80504 7.82307 9.92664Z" fill="#E6E6E7"/>
<path fill-rule="evenodd" clip-rule="evenodd" d="M24.0391 44.7699C23.7605 44.3663 22.3282 41.7832 18.2393 40.3669L18.2434 40.3735C18.778 40.9386 19.975 41.9934 21.3777 43.0519C22.1233 43.6141 23.0157 44.1528 24.0363 44.769L24.0391 44.7699ZM5.58316 13.2254V13.2212C6.07036 11.3726 6.44998 9.97364 7.90046 7.45355L7.90211 7.45231C7.6886 9.81495 6.79292 11.1752 5.58316 13.2254ZM10.6679 6.2986C11.7313 4.93469 12.6839 3.95204 14.7893 2.23941C13.6929 4.22779 12.3995 4.85843 10.6679 6.2986Z" fill="black"/>
<path fill-rule="evenodd" clip-rule="evenodd" d="M15.0853 3.30199L15.0869 3.30075C16.8964 2.49122 18.1552 1.89397 21.1625 1.48178C20.2846 1.94673 17.1532 3.21955 15.0853 3.30199ZM49.2307 36.8184C46.3198 37.4898 45.1554 38.1324 43.2668 39.8516C43.2602 39.8582 47.1792 40.0833 49.2307 36.8184ZM49.2418 33.4665C49.6507 33.2765 52.6963 32.166 53.4506 27.9663C52.6831 28.7643 51.9189 29.1855 51.0393 30.3166C50.4944 31.0181 49.9046 32.0263 49.2418 33.4665ZM52.5166 23.5444C52.7503 23.1734 54.6311 20.6405 53.3245 16.6007C52.414 18.6142 52.3439 20.8697 52.5166 23.5444ZM50.7508 13.2253C50.7764 12.8354 51.3938 10.3623 48.4323 7.45186C48.6458 9.81492 49.541 11.1751 50.7508 13.2253ZM45.6665 6.29857C45.535 5.96346 45.3359 3.96767 41.5426 2.23525C42.6398 4.22734 43.9337 4.85757 45.6665 6.29857Z" fill="#E6E6E7"/>
<path fill-rule="evenodd" clip-rule="evenodd" d="M41.2491 3.30201C41.2545 3.30201 37.9034 1.06343 35.1706 1.48139C36.0465 1.94551 39.1803 3.21957 41.2491 3.30201Z" fill="#434244"/>
<path fill-rule="evenodd" clip-rule="evenodd" d="M51.7768 17.2912C51.2084 16.6762 49.7492 15.764 48.3206 11.9435C51.4338 14.2468 51.2784 15.379 51.7768 17.2912ZM48.5114 9.92665C47.9171 9.62494 45.7354 8.72143 44.0565 6.47708C46.892 7.24704 47.5659 8.61137 48.5114 9.92665Z" fill="black"/>
<path fill-rule="evenodd" clip-rule="evenodd" d="M51.1729 28.8125C50.8959 28.0038 50.0938 26.6189 50.6927 21.8651C52.3867 25.2549 51.7083 26.9379 51.1729 28.8125ZM47.2138 35.8419C47.2019 35.0377 46.8783 33.5547 48.8589 29.5507C49.4025 33.0939 48.2711 34.3601 47.2138 35.8419ZM40.6601 41.4398C40.9412 40.6632 41.2718 38.4824 44.4905 35.8436C43.8257 39.3995 42.1889 40.3059 40.6601 41.4398ZM32.2952 44.7698C32.5739 44.3663 34.0058 41.7831 38.0951 40.3669C36.2505 43.1833 34.3491 44.2212 32.2952 44.7698ZM35.8367 43.9554C36.2592 43.7369 39.2809 42.1079 42.9778 42.8218C40.7743 44.3964 38.3807 44.2769 35.8367 43.9554ZM28.4013 45.5645C28.8869 45.4635 32.573 44.4941 35.9822 46.2813C32.6266 47.2681 30.909 46.5348 28.4013 45.5645Z" fill="#E6E6E7"/>
<path fill-rule="evenodd" clip-rule="evenodd" d="M28.4013 45.5645C28.8864 45.4635 32.5714 44.4945 35.9801 46.2801C34.0252 46.2706 29.6189 45.7991 28.4058 45.5666L28.4013 45.5645ZM35.8371 43.9554C36.2604 43.7361 39.2817 42.1079 42.9778 42.8218L42.9766 42.8227C42.0957 43.0498 40.7306 43.3227 39.4219 43.5667C39.034 43.6388 36.7987 43.8849 35.8371 43.9554ZM49.2306 36.8184C46.3206 37.4898 45.1562 38.1324 43.268 39.8508C46.4896 38.7882 48.6618 37.4358 49.2306 36.8184ZM53.4469 27.9696C52.6806 28.7651 51.9177 29.1868 51.0393 30.3162C50.527 30.9761 49.9742 31.9068 49.3592 33.213C51.292 31.3829 52.2367 30.427 53.4469 27.9696ZM47.2138 35.8407C47.2015 35.0361 46.8795 33.5531 48.8576 29.5532C48.8284 30.2177 48.68 31.3817 48.2806 32.8359C48.0316 33.7427 47.6652 34.7055 47.2138 35.8407ZM51.1724 28.8117C50.8955 28.003 50.0946 26.6176 50.6922 21.868C50.8757 22.4035 51.1572 23.715 51.2454 25.5554C51.2912 26.5125 51.2454 27.5661 51.1724 28.8117ZM40.6601 41.4398C40.9412 40.6632 41.2718 38.4824 44.4905 35.8436C44.2935 36.3984 43.7474 37.5533 42.7573 38.9395C42.2012 39.7177 41.4981 40.5095 40.6601 41.4398ZM53.3236 16.602C52.4428 18.5504 52.3496 20.725 52.5009 23.2876C53.0009 21.143 53.4151 18.6938 53.3236 16.602Z" fill="black"/>
<path fill-rule="evenodd" clip-rule="evenodd" d="M51.7767 17.2911C51.2083 16.6762 49.7496 15.764 48.321 11.9447C50.3815 13.9792 50.8695 15.2706 51.6782 16.8901C51.7087 17.0203 51.7409 17.1535 51.7767 17.2911ZM48.5114 9.92664C47.9174 9.62533 45.7391 8.72306 44.0611 6.48325C46.4872 7.57389 47.1281 8.46668 48.2542 9.56103C48.3391 9.68345 48.424 9.80504 48.5114 9.92664Z" fill="#E6E6E7"/>
<path fill-rule="evenodd" clip-rule="evenodd" d="M32.2952 44.7699C32.5739 44.3663 34.0058 41.7832 38.0951 40.3669L38.0905 40.3735C37.5559 40.9386 36.359 41.9934 34.9563 43.0519C34.2106 43.6141 33.3179 44.1528 32.2977 44.769L32.2952 44.7699ZM50.7508 13.2254L50.7512 13.2212C50.264 11.3726 49.8844 9.97364 48.4335 7.45355L48.4323 7.45231C48.6458 9.81495 49.541 11.1752 50.7508 13.2254ZM45.6665 6.2986L45.6661 6.29819C44.6026 4.93427 43.6497 3.95204 41.5451 2.23941C42.6415 4.22779 43.9349 4.85843 45.6665 6.2986Z" fill="black"/>
<path fill-rule="evenodd" clip-rule="evenodd" d="M41.2491 3.30199L41.2475 3.30075C39.438 2.49122 38.1788 1.89397 35.1719 1.48178C36.0494 1.94673 39.1812 3.21955 41.2491 3.30199ZM28.2018 12.3927L10.5517 14.3708L13.4905 19.3644L14.0284 28.3294L14.0404 28.5129L14.0532 28.6909L14.0672 28.8653L14.0824 29.0347L14.0993 29.1991L14.1171 29.3595L14.1364 29.5153L14.1579 29.6678L14.181 29.8158L14.2053 29.9604L14.2325 30.1014L14.2613 30.2395L14.2927 30.3747L14.3256 30.5058L14.3615 30.6344L14.3998 30.7609L14.441 30.885L14.4847 31.0053L14.5313 31.1236L14.5808 31.2399L14.6331 31.3532L14.6888 31.4649L14.7477 31.5741L14.8091 31.6801L14.8742 31.7856L14.9423 31.8878L15.0132 31.988L15.0869 32.0865L15.1644 32.1825L15.244 32.2773L15.3277 32.3701L15.4154 32.4636L15.4876 32.5349L15.5663 32.6063L15.6504 32.6772L15.7386 32.7468L15.8318 32.8161L15.9299 32.8849L16.0325 32.9533L16.1397 33.0213L16.2518 33.0897L16.368 33.1573L16.4896 33.2254L16.6153 33.2925L16.7456 33.3601L16.8795 33.4269L17.018 33.4933L17.1606 33.5588L17.4277 33.6775L17.7072 33.7966L17.9982 33.9154L18.2983 34.0345L18.6086 34.1536L18.9268 34.2719L19.2533 34.3906L19.5863 34.5085L19.9252 34.626L20.2689 34.7422L20.6168 34.858L20.9676 34.973L21.3208 35.0868L21.6753 35.1989L22.0302 35.3098L22.3843 35.419L22.7371 35.5266L23.0874 35.6321L23.4345 35.736L23.777 35.837L24.1142 35.9363L24.4456 36.0323L24.7696 36.1263L25.0853 36.217L25.3924 36.3056L25.6891 36.3901L25.9752 36.4713L26.2493 36.5496L26.5102 36.6238L26.7575 36.6939L26.99 36.7607L27.2089 36.8233L28.2018 37.1015V12.3927Z" fill="#E6E6E7"/>
<path fill-rule="evenodd" clip-rule="evenodd" d="M29.2422 36.8233L29.4611 36.7607L29.6936 36.6939L29.9404 36.6238L30.2018 36.5496L30.4755 36.4713L30.7615 36.3901L31.0587 36.3056L31.3654 36.217L31.6811 36.1263L32.0051 36.0323L32.3365 35.9363L32.6736 35.837L33.0162 35.736L33.3632 35.6321L33.7136 35.5266L34.0664 35.419L34.4205 35.3098L34.7754 35.1989L35.1299 35.0868L35.4831 34.973L35.8339 34.858L36.1822 34.7422L36.5259 34.626L36.8647 34.5085L37.1978 34.3906L37.5238 34.2719L37.8424 34.1536L38.1528 34.0345L38.4533 33.9154L38.7439 33.7967L39.0234 33.6775L39.2909 33.5588L39.4331 33.4933L39.5716 33.4265L39.7059 33.3601L39.8358 33.2926L39.9615 33.2254L40.0831 33.1574L40.1993 33.0898L40.3114 33.0213L40.4186 32.9533L40.5212 32.8849L40.6193 32.8161L40.7125 32.7468L40.8011 32.6772L40.8848 32.6063L40.9635 32.535L41.0356 32.4636L41.1238 32.3701L41.2067 32.2773L41.2871 32.1825L41.3641 32.0861L41.4379 31.988L41.5088 31.8878L41.5768 31.7852L41.642 31.6801L41.7034 31.5742L41.7623 31.4649L41.818 31.3532L41.8703 31.2399L41.9198 31.1236L41.9663 31.0049L42.0096 30.8846L42.0508 30.7609L42.0896 30.6344L42.1255 30.5058L42.1584 30.3743L42.1893 30.2391L42.2182 30.1014L42.2454 29.9604L42.2697 29.8158L42.2928 29.6678L42.3142 29.5153L42.3336 29.3595L42.3517 29.1991L42.3686 29.0343L42.3835 28.8653L42.3975 28.6909L42.4103 28.5129L42.4218 28.3294L42.9605 19.3644L45.899 14.3708L28.2488 12.3927V37.1015L29.2422 36.8233ZM28.2019 12.9805L11.5121 14.851L14.0652 19.1888L14.6117 28.2928C14.7288 30.2407 15.007 31.1991 15.8334 32.0552C16.1125 32.3445 16.6706 32.6945 17.4018 33.0263C20.0905 34.2476 25.134 35.616 27.368 36.2611L28.2019 36.4944V12.9805Z" fill="#D0D1D3"/>
<path fill-rule="evenodd" clip-rule="evenodd" d="M29.0827 36.2615C31.3167 35.6169 36.3598 34.2484 39.0497 33.0267C39.7805 32.6949 40.3382 32.3449 40.6176 32.0556C41.4441 31.1995 41.7223 30.2412 41.8394 28.2932L42.3859 19.1893L44.9386 14.8514L28.2488 12.9809V36.4948L29.0827 36.2615Z" fill="#A6A8AA"/>
<path fill-rule="evenodd" clip-rule="evenodd" d="M28.2253 34.6486L27.3923 34.4743C22.3348 33.4191 22.9147 33.6689 17.7946 32.1607C15.8894 31.5997 15.6821 30.568 15.6174 28.4712L15.4154 18.9477L13.6088 15.6985H42.8418L41.0352 18.9477L40.8332 28.4712C40.7689 30.568 40.5616 31.5993 38.6565 32.1607C33.5363 33.6689 34.1162 33.4191 29.0587 34.4743L28.2253 34.6486Z" fill="#808183"/>
<path fill-rule="evenodd" clip-rule="evenodd" d="M40.7467 27.5957L40.7281 28.4683L40.7141 28.8476L40.6943 29.202L40.6671 29.5318L40.6317 29.822H28.2723V28.7552H28.7406V28.6625H28.2723V27.5957H40.7467ZM15.5696 21.2526L15.5226 19.0264H28.1787V21.2526H15.5696Z" fill="black"/>
<path fill-rule="evenodd" clip-rule="evenodd" d="M40.6164 29.9151L40.5805 30.122L40.5167 30.3834L40.4379 30.6241L40.3411 30.8442L40.224 31.0466L40.0851 31.2316L39.9211 31.4014L39.729 31.5573L39.5064 31.7007L39.25 31.8318L38.9574 31.9513L38.6251 32.0601L38.1627 32.1961L37.7307 32.3227L37.3276 32.4406L36.9521 32.549L36.6013 32.6495L36.2736 32.7427L35.967 32.8288L35.6797 32.9088L35.4089 32.983L35.1529 33.0518L34.9093 33.1157L34.6768 33.1755L34.4522 33.232L34.235 33.2851L34.0215 33.3358L33.8104 33.3849L33.5994 33.4327L33.3867 33.4797L33.1691 33.5263L32.9461 33.5733L32.7148 33.6215L32.4733 33.6709L32.2194 33.7225L31.951 33.7769L31.6662 33.8342L31.3624 33.8952L31.0385 33.9607L30.6918 34.0308L30.3204 34.1066L29.9223 34.1878L29.4953 34.276L29.0373 34.3712L28.2723 34.5312V29.9151H40.6164ZM40.811 24.5645L40.7487 27.5022H28.2723V24.5645H40.811ZM15.5205 18.9333L15.5201 18.9193L13.7877 15.8036H28.1787V18.9333H15.5205ZM15.638 24.471L15.5717 21.3458H28.1787V24.471H15.638Z" fill="#D4A950"/>
<path fill-rule="evenodd" clip-rule="evenodd" d="M28.2723 22.9978V21.6623H34.622V22.9978H28.2723ZM41.8394 17.2849L41.0971 18.6208H34.7152V17.2849H41.8394ZM28.1788 25.9449V27.2808H21.8291V25.9449H28.1788ZM16.751 31.5758L16.7217 31.5572L16.53 31.4014L16.366 31.2316L16.2271 31.0465L16.11 30.8442L16.0131 30.6241L15.934 30.3833L15.8994 30.2403H21.7355V31.5758H16.751Z" fill="#3A529A"/>
<path fill-rule="evenodd" clip-rule="evenodd" d="M28.2723 21.5688V20.1855H34.622V21.5688H28.2723ZM34.622 24.471H28.2723V23.0914H34.622V24.471ZM41.0451 18.714L40.9305 18.9193L40.9058 20.0923H34.7152V18.714H41.0451ZM34.7152 15.8036H42.6629L41.8913 17.1914H34.7152V15.8036ZM28.1787 27.3744V28.6621H21.829V27.3744H28.1787ZM21.829 24.5645H28.1787V25.8514H21.829V24.5645ZM15.8767 30.1468L15.8705 30.122L15.821 29.8384L15.7839 29.5318L15.7567 29.202L15.7369 28.8476L15.7336 28.7556H21.7355V30.1468H15.8767ZM21.7355 33.1656L21.5417 33.1157L21.2981 33.0518L21.0422 32.983L20.7714 32.9088L20.4837 32.8288L20.177 32.7427L19.8497 32.6495L19.4989 32.549L19.1234 32.4406L18.7203 32.3227L18.2884 32.1961L17.8259 32.0601L17.4933 31.9513L17.2006 31.8318L16.9446 31.7007L16.896 31.6694H21.7355V33.1656Z" fill="#BBBCBF"/>
<path fill-rule="evenodd" clip-rule="evenodd" d="M40.9041 20.1855L40.813 24.471H34.7151V20.1855H40.9041ZM28.2723 15.8036H34.622V20.0923H28.2723V15.8036ZM15.7299 28.6621L15.7229 28.4683L15.64 24.5645H21.7354V28.6621H15.7299ZM28.1787 34.5312L27.4137 34.3712L26.9557 34.276L26.5287 34.1878L26.1306 34.1066L25.7588 34.0308L25.4121 33.9607L25.0881 33.8952L24.7848 33.8342L24.5 33.7769L24.232 33.7225L23.9777 33.6709L23.7362 33.6215L23.5045 33.5733L23.2815 33.5263L23.0647 33.4797L22.8516 33.4327L22.6406 33.3849L22.4296 33.3358L22.216 33.2851L21.9984 33.232L21.829 33.1895V28.7556H28.1787V34.5312Z" fill="#C03B35"/>
<path fill-rule="evenodd" clip-rule="evenodd" d="M29.2232 36.7557L29.4417 36.6931L29.6742 36.6263L29.9211 36.5562L30.1824 36.4821L30.4565 36.4042L30.7426 36.3229L31.0393 36.238L31.346 36.1498L31.6617 36.0587L31.9857 35.9656L32.3167 35.8687L32.6538 35.7698L32.9964 35.6688L33.3434 35.5649L33.6934 35.4594L34.0458 35.3518L34.3999 35.2426L34.7543 35.1321L35.1084 35.0196L35.4617 34.9063L35.812 34.7917L36.1595 34.6759L36.5028 34.5596L36.8412 34.4422L37.1739 34.3247L37.4995 34.2064L37.8177 34.0881L38.1272 33.9694L38.4269 33.8507L38.7167 33.732L38.9953 33.6132L39.2616 33.495L39.4034 33.4298L39.541 33.3635L39.6738 33.2975L39.8032 33.2307L39.9277 33.164L40.0484 33.0964L40.1634 33.0296L40.2743 32.962L40.3803 32.8944L40.4812 32.8272L40.5785 32.7592L40.6696 32.6912L40.7566 32.6228L40.8386 32.5535L40.9153 32.4839L40.9853 32.4146L41.0719 32.3227L41.1539 32.2312L41.2331 32.138L41.3085 32.0432L41.381 31.9468L41.4511 31.8483L41.5179 31.7473L41.5818 31.6442L41.6424 31.54L41.6997 31.4328L41.7541 31.3231L41.806 31.2114L41.8546 31.0973L41.9008 30.9802L41.9433 30.8615L41.9841 30.7399L42.022 30.6146L42.0574 30.4877L42.0904 30.3578L42.1209 30.2243L42.1493 30.0878L42.1761 29.9481L42.2005 29.8047L42.2235 29.6575L42.2446 29.5058L42.2643 29.3508L42.2821 29.1917L42.2986 29.0277L42.3134 28.8595L42.3274 28.686L42.3402 28.5079L42.3521 28.3249L42.8917 19.3434L45.7828 14.431L45.0144 14.8147L42.4317 19.2033L41.8855 28.2957L41.8736 28.4762L41.8616 28.6505L41.8476 28.8195L41.8332 28.9832L41.8171 29.1423L41.8002 29.296L41.7813 29.4448L41.7615 29.5891L41.7392 29.7288L41.7161 29.8648L41.691 29.9963L41.6646 30.1241L41.6358 30.2478L41.6057 30.3677L41.5731 30.4844L41.5389 30.5981L41.5022 30.7078L41.4631 30.8153L41.4223 30.9204L41.379 31.0214L41.3332 31.1208L41.285 31.2176L41.2343 31.312L41.1807 31.4044L41.1242 31.495L41.0653 31.5841L41.0039 31.671L40.9396 31.7568L40.872 31.8409L40.8015 31.9241L40.7277 32.0066L40.6511 32.0882L40.5942 32.1442L40.5307 32.2019L40.4615 32.2609L40.386 32.3198L40.3044 32.3804L40.2179 32.4414L40.1251 32.5028L40.0274 32.5655L39.9244 32.6277L39.8168 32.6908L39.703 32.7543L39.5856 32.8173L39.4627 32.8804L39.3358 32.9439L39.2047 33.0065L39.0691 33.0692L38.809 33.185L38.537 33.3008L38.2521 33.417L37.9574 33.5337L37.6524 33.6508L37.3383 33.7678L37.0164 33.8849L36.6871 34.0011L36.3516 34.1173L36.0111 34.2328L35.6657 34.3478L35.3174 34.4615L34.9666 34.5749L34.6142 34.6862L34.2614 34.7962L33.909 34.905L33.5578 35.0122L33.2091 35.1173L32.8632 35.2208L32.5219 35.3218L32.1852 35.4203L31.8554 35.5167L31.5323 35.6103L31.217 35.701L30.9107 35.7888L30.6144 35.8733L30.3287 35.9545L30.055 36.0324L29.7937 36.107L29.546 36.1774L29.3131 36.2438L29.0955 36.3065L28.2253 36.5501L27.3556 36.3065L27.1376 36.2438L26.9051 36.1774L26.6574 36.107L26.3961 36.0324L26.1224 35.9545L25.8363 35.8733L25.54 35.7888L25.2337 35.701L24.9188 35.6103L24.5952 35.5167L24.2655 35.4203L23.9287 35.3218L23.5874 35.2208L23.2416 35.1173L22.8933 35.0122L22.5417 34.905L22.1897 34.7962L21.8369 34.6862L21.4845 34.5749L21.1333 34.4615L20.785 34.3478L20.44 34.2328L20.0995 34.1173L19.7636 34.0011L19.4347 33.8849L19.1128 33.7678L18.7983 33.6508L18.4937 33.5337L18.1985 33.417L17.9141 33.3008L17.6421 33.185L17.3824 33.0692L17.2468 33.0069L17.1153 32.9439L16.9884 32.8804L16.8655 32.8173L16.7481 32.7543L16.6343 32.6908L16.5267 32.6277L16.4237 32.5655L16.326 32.5028L16.2332 32.4414L16.1467 32.3804L16.0651 32.3198L15.9901 32.2609L15.9208 32.2019L15.8569 32.1442L15.8 32.0882L15.7234 32.0066L15.6496 31.9241L15.5791 31.8409L15.5115 31.7568L15.4472 31.671L15.3854 31.5841L15.3268 31.4954L15.2704 31.4044L15.2168 31.312L15.1661 31.2176L15.1179 31.1208L15.0717 31.0214L15.0284 30.92L14.9876 30.8158L14.9489 30.7082L14.9118 30.5981L14.8776 30.4844L14.845 30.3677L14.8149 30.2482L14.7865 30.1241L14.7597 29.9963L14.7345 29.8648L14.7115 29.7288L14.6892 29.5891L14.6694 29.4452L14.6505 29.2956L14.6336 29.1423L14.6175 28.9832L14.6026 28.8195L14.589 28.6505L14.5767 28.4762L14.5647 28.2957L14.019 19.2033L11.4371 14.8152L10.6683 14.431L13.5594 19.3434L14.0985 28.3249L14.1105 28.5079L14.1229 28.686L14.1369 28.8595L14.1521 29.0281L14.169 29.1917L14.1863 29.3508L14.2061 29.5058L14.2271 29.6575L14.2502 29.8047L14.2745 29.9481L14.3013 30.0878L14.3298 30.2247L14.3607 30.3582L14.3932 30.4877L14.4287 30.6146L14.4666 30.7399L14.5074 30.8619L14.5503 30.9806L14.596 31.0973L14.6447 31.2114L14.6966 31.3231L14.751 31.4328L14.8087 31.54L14.8693 31.6442L14.9332 31.7477L15 31.8487L15.0701 31.9468L15.1426 32.0432L15.2184 32.138L15.2972 32.2312L15.3792 32.3227L15.4658 32.4146L15.5354 32.4839L15.6125 32.5535L15.6945 32.6228L15.7811 32.6912L15.873 32.7592L15.9694 32.8272L16.0708 32.8944L16.1768 32.962L16.2876 33.0296L16.4026 33.0964L16.5234 33.164L16.6479 33.2307L16.7773 33.2975L16.91 33.3635L17.0477 33.4298L17.1899 33.495L17.4558 33.6132L17.734 33.732L18.0242 33.8507L18.3238 33.9694L18.6334 34.0881L18.9512 34.2064L19.2768 34.3247L19.6094 34.4422L19.9478 34.5596L20.2912 34.6759L20.6387 34.7917L20.989 34.9063L21.3423 35.0196L21.6963 35.1321L22.0512 35.2426L22.4049 35.3518L22.7573 35.4594L23.1077 35.5649L23.4543 35.6688L23.7968 35.7698L24.134 35.8687L24.4654 35.9656L24.789 36.0587L25.1047 36.1498L25.4114 36.238L25.7085 36.3229L25.9942 36.4042L26.2683 36.4821L26.5296 36.5562L26.7765 36.6263L27.009 36.6931L27.2279 36.7557L28.2253 37.0352L29.2232 36.7557Z" fill="#6D6E70"/>
<path fill-rule="evenodd" clip-rule="evenodd" d="M32.4968 64.1623C32.8302 64.1623 33.1996 63.901 33.3203 63.5807C33.4411 63.2608 33.2676 62.9995 32.9345 62.9995C32.6015 62.9995 32.2317 63.2608 32.111 63.5807C31.991 63.901 32.1641 64.1623 32.4968 64.1623ZM40.731 69.235C40.731 69.6283 40.956 69.8867 41.1794 70.0095C41.6749 70.282 42.6213 69.6307 43.0141 69.3587C43.2214 69.2153 43.4205 69.0562 43.5911 68.8855C44.2898 68.1869 44.4172 68.2186 44.4172 68.2186C44.4172 68.2186 44.1632 68.759 44.1632 69.2672C44.1632 69.8076 44.3854 70.0619 44.8623 70.0619C45.3071 70.0619 46.3557 69.5215 47.1186 68.759C47.8816 68.0282 48.1037 67.996 48.1037 67.996C48.1037 67.996 48.0403 68.1869 48.0403 68.5364C48.0403 68.8859 47.9772 70.3158 50.0748 70.3158C52.3628 70.3158 54.047 68.409 54.047 68.409L53.9197 68.3142C53.9197 68.3142 52.1081 69.9984 50.1696 69.9984C48.9994 69.9984 48.7876 69.2247 49.0963 68.3072C49.5996 66.8122 51.1114 65.105 52.7054 64.7389C53.2635 64.6103 53.8801 64.7142 53.693 65.4137C53.6039 65.7471 53.3323 66.208 52.712 66.6296V66.9157C52.712 66.9157 54.3644 66.3753 54.3644 65.1993C54.3644 64.659 53.8879 64.4047 53.3154 64.4047C52.7219 64.4047 51.3934 64.6775 49.8423 65.8539C49.133 66.3918 48.5683 67.0228 47.9446 67.6469C47.4838 68.1073 46.0572 69.4556 45.2498 69.7045C44.7531 69.8566 44.4901 69.6217 44.6603 69.151C44.749 68.9053 44.9732 68.5859 45.4975 67.996C46.2918 67.1378 48.2303 65.0407 48.2303 65.0407C48.2303 65.0407 47.849 64.6272 46.9591 64.6272C46.0375 64.6272 43.6859 65.1676 41.9379 66.9157C40.3167 68.5364 38.8873 69.8393 38.1561 69.7754C37.2979 69.7119 37.044 69.235 37.0753 68.6951C37.7346 68.2746 38.3752 67.8254 38.9953 67.3489C40.4775 66.1997 42.0393 64.9034 43.0067 63.267C43.4815 62.4645 43.7774 61.6084 42.923 61.6084C42.3187 61.6084 40.6345 62.4662 38.7595 64.3099C36.8845 66.1849 36.3763 67.3287 36.3763 68.5047C36.3763 68.5999 36.4076 68.6955 36.4076 68.759C35.4225 69.3628 34.4691 69.7758 33.6744 69.7758C32.6575 69.7758 32.3715 69.2676 32.4032 68.6955C34.2803 67.4923 36.3458 65.8543 37.7962 64.1359C38.0988 63.7773 39.5583 61.6084 38.2191 61.6084C37.647 61.6084 35.9307 62.4662 34.0878 64.3099C32.2128 66.1849 31.7046 67.3287 31.7046 68.5047C31.7046 68.5999 31.7046 68.6955 31.7363 68.7907C30.7508 69.3946 29.7661 69.7758 28.9714 69.7758C28.6214 69.7758 28.5262 69.6485 28.5262 69.2355C28.5262 68.7272 29.0031 68.0278 29.4478 67.5513C29.9243 67.1065 32.1493 64.7863 32.1493 64.7863H31.0698C31.0698 64.7863 30.5809 65.3069 30.0463 65.8687C29.6923 66.2426 29.3343 66.6127 28.9726 66.9792C28.1317 67.82 26.2361 69.8389 25.1591 69.8389C24.6912 69.8389 24.8252 69.2392 24.969 68.9564C25.7699 67.3802 28.0477 65.2381 29.3815 63.9607C30.3584 63.0247 31.4836 61.9575 31.4836 61.9575H30.435C28.4005 63.896 27.5427 64.7542 27.4793 64.8177C27.4793 64.8177 27.1615 64.6268 26.5576 64.6268C25.9538 64.6268 24.0474 64.8811 22.0133 66.9153C19.9791 68.949 18.9623 69.8389 18.3584 69.8389C17.9755 69.8389 18.0464 69.4696 18.2039 69.118C18.8893 67.5859 20.5933 66.2471 21.7272 65.0402C21.7272 65.0402 21.4849 64.7777 20.9362 64.6709C19.3617 64.3655 17.431 65.2566 16.11 66.3098C15.7481 66.5979 15.429 66.9301 15.0832 67.236C13.7115 68.4486 9.52779 71.8091 6.47268 71.8091C4.97892 71.8091 4.21638 71.1418 4.21638 69.5524C4.21638 68.4086 5.0424 66.8196 6.79047 64.8494C7.37028 64.8515 7.94995 64.8316 8.52824 64.7896C11.5916 64.5576 15.4942 63.6475 18.56 62.115C19.8782 61.4559 21.8105 60.383 22.5524 59.0669C23.1233 58.0541 22.5112 57.1898 21.3138 57.1898C17.5637 57.1898 9.7141 60.4633 5.64625 64.4673C3.77122 64.4356 1.7375 64.086 1.7375 62.211C1.70576 59.9543 6.60004 57.8571 11.1444 57.8571L11.0492 57.5715C11.0492 57.5715 4.4707 57.6349 1.51533 60.5903C0.974136 61.1315 0.592865 61.671 0.592865 62.3705C0.592865 63.0378 0.68808 64.4995 5.2963 64.8177C3.92991 66.2479 3.04 67.8048 3.04 69.2985C3.04 70.6971 3.80255 72 6.3449 72C9.87279 72 14.4806 68.0912 14.4806 68.0912C14.4806 68.3456 14.2263 68.7586 14.2263 69.2989C14.2263 69.8072 14.4489 70.0936 14.9253 70.0936C15.9834 70.0936 16.9591 68.9288 17.7855 68.3777C17.666 68.6679 17.5629 68.8855 17.5629 69.3628C17.5629 69.8076 17.8172 70.0936 18.3259 70.0936C18.8024 70.0936 19.7875 69.5215 20.6456 68.6633C21.0269 68.2503 21.1539 68.2186 21.1539 68.2186C20.9564 68.7614 20.7944 70.0936 21.6625 70.0936C22.139 70.0936 22.8385 69.7758 23.8553 68.759C24.3957 68.2186 24.6183 68.2186 24.6183 68.2186C24.607 68.2923 24.5894 68.3648 24.5655 68.4354C24.4369 68.8414 24.2762 69.2355 24.4279 69.6604C24.5115 69.8945 24.6978 70.0936 25.0952 70.0936C25.7308 70.0936 26.6841 69.4898 27.415 68.759C28.1458 68.0282 28.1779 68.2186 28.1779 68.2186C28.1779 68.4412 28.0188 68.5042 28.0188 68.9811C28.0188 69.4263 28.0505 70.0936 29.0678 70.0936C29.7034 70.0936 30.7203 69.6485 31.8006 69.0446C32.0549 69.8076 32.8813 70.0936 33.6443 70.0936H33.7713C34.3755 70.0936 35.3924 69.6485 36.4727 69.0446C36.727 69.7754 37.49 70.0619 38.189 70.0936C38.9833 70.1254 40.9853 68.0278 40.9853 68.3142C40.9849 68.6312 40.731 68.6629 40.731 69.235ZM21.2182 57.4762C22.7742 57.4762 22.6064 58.5669 21.7585 59.4147C21.5083 59.6649 21.1782 59.932 20.7813 60.207C18.288 61.9357 13.1699 63.9958 8.78916 64.3976C8.24066 64.4461 7.69023 64.4695 7.13959 64.4677C7.52128 64.086 7.86998 63.6924 8.28176 63.3404C11.1122 60.9184 17.5947 57.4762 21.2182 57.4762ZM17.1821 68.4408C16.6099 69.0125 15.4975 69.8389 15.021 69.8389C14.9258 69.8389 14.7984 69.7115 14.7984 69.5211C14.7984 68.7264 15.9744 67.5826 16.9595 66.5971C17.9446 65.6119 19.4066 64.9446 19.9787 64.9446C20.3283 64.9446 20.4552 64.9764 20.4552 65.135C20.4552 65.3898 17.7859 67.8365 17.1821 68.4408ZM21.8538 69.775C20.9548 69.775 22.3278 67.9235 22.5211 67.7409C23.0615 67.2005 25.1587 64.9446 26.3981 64.9446C26.7159 64.9446 26.9385 65.0716 26.9385 65.135C26.9385 65.2624 26.875 65.4211 26.4298 65.8341C26.0168 66.2793 25.6356 66.7558 25.0952 67.2961C24.5548 67.8365 22.5846 69.775 21.8538 69.775ZM35.0103 64.2773C35.805 63.4826 37.3305 61.9254 38.1569 61.9254C38.6577 61.9254 38.5922 62.7691 36.504 64.8177C35.5828 65.7389 34.0252 67.2009 32.4679 68.2817C32.7111 66.8872 34.0573 65.2303 35.0103 64.2773ZM37.2348 67.9321C37.5848 66.9153 38.7921 65.1989 39.682 64.2777C40.3897 63.57 41.677 62.2576 42.5339 61.9789C43.0013 61.8269 43.2779 62.0251 43.0293 62.5436C42.8335 62.9509 42.3435 63.6821 41.2075 64.8181C40.2858 65.7393 38.7286 67.2013 37.1396 68.2821C37.1714 68.1864 37.2031 68.0591 37.2348 67.9321ZM43.4959 66.5653C44.1946 65.8889 45.1335 65.3403 45.8132 65.079C45.988 65.0118 46.7592 64.7674 46.9492 65.0031C47.0588 65.1396 46.9204 65.2719 46.8326 65.3741C46.2444 66.0592 44.2065 67.8934 43.7181 68.4082C43.1142 68.9803 42.0339 69.8067 41.557 69.8067C41.4301 69.8067 41.3348 69.6794 41.3348 69.489C41.3348 68.7264 42.5104 67.5509 43.4959 66.5653ZM55.2226 69.0125C55.5721 69.0442 55.8582 68.7586 55.8582 68.4086C55.8582 68.0908 55.5721 67.8048 55.2226 67.8048C54.9048 67.8048 54.6187 68.0908 54.6187 68.4086C54.6187 68.7582 54.9048 69.0442 55.2226 69.0125ZM55.2226 67.9C55.5082 67.9 55.763 68.1226 55.763 68.4082C55.763 68.6943 55.5086 68.9486 55.2226 68.9486C54.9365 68.9486 54.7139 68.6947 54.7139 68.4082C54.7139 68.1226 54.9365 67.9 55.2226 67.9ZM55.0635 68.4721H55.2226C55.3813 68.4721 55.413 68.4721 55.413 68.6312V68.7586H55.5082V68.5999C55.5082 68.5364 55.4765 68.5047 55.4447 68.4412L55.413 68.409C55.4765 68.3777 55.5082 68.346 55.5082 68.2821C55.5082 68.1547 55.413 68.0912 55.2539 68.0912H54.9683V68.7586H55.0635V68.4721ZM55.0635 68.1547H55.2539C55.3491 68.1547 55.413 68.2182 55.413 68.2821C55.413 68.346 55.3495 68.3773 55.2226 68.3773H55.0635V68.1547Z" fill="black"/>
</g>
<defs>
<clipPath id="clip0_1_2393">
<rect width="55.2672" height="72" fill="white" transform="translate(0.591858)"/>
</clipPath>
</defs>
</svg>
