<svg width="69" height="68" viewBox="0 0 69 68" fill="none" xmlns="http://www.w3.org/2000/svg">
<g clip-path="url(#clip0_1_2426)">
<path fill-rule="evenodd" clip-rule="evenodd" d="M0.85907 0H68.8591V68H0.85907V0Z" fill="white"/>
<path fill-rule="evenodd" clip-rule="evenodd" d="M57.7797 8.25084V9.43229L34.8584 5.41522L11.9388 9.43229V8.25084L34.8584 4.20731L57.7797 8.25084Z" fill="white"/>
<path fill-rule="evenodd" clip-rule="evenodd" d="M57.7797 7.04242V8.25068L34.8584 4.20714L11.9388 8.25068V7.04242L34.8584 2.99994L57.7797 7.04242Z" fill="#33A457"/>
<path fill-rule="evenodd" clip-rule="evenodd" d="M57.7797 9.43221L34.8584 5.41513L11.9388 9.43221L11.9391 13.5082L12.1377 13.3957C12.2185 13.3505 20.3514 8.84131 34.9025 8.84131C49.4545 8.84131 57.4926 13.3516 57.5741 13.3964L57.7706 13.5093L57.7797 9.43221Z" fill="#CC2131"/>
<path fill-rule="evenodd" clip-rule="evenodd" d="M34.9028 9.62891C48.0431 9.62891 55.7375 13.3267 56.9846 13.9751V25.7092C56.9846 32.1065 55.4779 38.4794 52.5082 44.6544C46.0079 58.1418 36.2268 63.4377 34.8587 64.1288C33.4896 63.4377 23.7011 58.1418 17.2025 44.6544C14.2329 38.4794 12.7265 32.1065 12.7265 25.7092V13.9765C13.9849 13.3288 21.7601 9.62891 34.9028 9.62891Z" fill="#FFF22D"/>
<path fill-rule="evenodd" clip-rule="evenodd" d="M12.1381 13.3955L11.9395 13.508V25.7095C11.9395 32.2267 13.4716 38.7154 16.4935 44.9944C23.5875 59.7229 34.5857 64.8752 34.6957 64.9257L34.8587 65.0001L35.0214 64.9257C35.1325 64.8752 46.1215 59.7215 53.2152 44.9944C56.2385 38.7154 57.7709 32.2267 57.7709 25.7095V13.509L57.5744 13.3962C57.4933 13.3514 49.4549 8.84109 34.9028 8.84109C20.3518 8.84109 12.2189 13.3503 12.1381 13.3955ZM34.9028 9.6292C48.0431 9.6292 55.7375 13.327 56.9846 13.9754V25.7095C56.9846 32.1068 55.4779 38.4797 52.5082 44.6547C46.0079 58.1421 36.2268 63.438 34.8587 64.1291C33.4896 63.438 23.7011 58.1421 17.2026 44.6547C14.2329 38.4797 12.7265 32.1068 12.7265 25.7095V13.9768C13.9849 13.3291 21.7601 9.6292 34.9028 9.6292Z" fill="black"/>
<path fill-rule="evenodd" clip-rule="evenodd" d="M38.3445 52.7584C38.7262 53.0223 38.4493 53.4805 38.1667 53.5521C37.8725 53.6322 37.621 53.3055 37.4784 53.6636C37.3984 53.8559 37.6157 55.3125 39.1058 55.3125C40.4968 55.3125 41.1604 53.5267 41.2913 53.2579C41.4228 52.9898 41.5075 52.6476 41.3759 52.6476C40.7656 52.6476 40.5878 53.0099 40.5878 53.0099C40.5878 53.0099 40.5416 52.6614 40.845 52.3982C41.0951 52.1834 41.4232 52.2356 41.5417 52.2356C41.7904 52.2356 41.7513 52.0504 41.9016 51.6838C42.2441 50.8213 42.4798 50.7825 42.7024 50.3891C42.8869 50.0688 42.5383 49.9432 41.8508 49.8787C41.1611 49.813 40.7917 49.8409 40.4838 49.8857C40.1751 49.9298 39.8678 50.055 39.6762 50.5271C39.5736 50.7828 39.7616 51.0347 40.1229 50.9694C40.4838 50.9021 40.8312 50.629 40.8312 50.629C40.8312 50.629 40.6686 51.2753 40.1299 51.409C39.6304 51.5318 39.0405 51.2305 39.1199 50.725C39.2233 50.0692 39.6766 49.5887 40.5035 49.4268C41.3318 49.2599 42.1573 49.3876 42.8936 49.5686C43.6274 49.7538 44.1675 49.6416 44.8497 49.6017C46.3208 49.5231 47.2324 49.1759 47.2324 49.1759C47.2324 49.1759 46.5695 49.7139 45.6505 49.9626C44.7316 50.2134 43.912 50.1094 43.6468 50.2134C43.4326 50.3052 43.1299 50.7303 42.8805 51.216C42.6512 51.6627 42.4071 52.1774 42.5126 52.1774C43.367 52.2098 43.6799 52.0228 43.6799 52.0228C43.6799 52.0228 43.5109 52.3915 43.1038 52.5658C42.8213 52.6801 42.3418 52.6801 42.3418 52.6801C42.3418 52.6801 42.1263 53.2258 41.8836 53.7183C41.6391 54.2104 41.2387 54.9791 40.518 55.3594C39.7944 55.739 38.4108 56.2124 37.5395 54.959C36.6177 53.6442 37.459 52.1484 38.3445 52.7584ZM27.6465 52.9298C27.8166 53.3652 27.4553 53.592 27.2454 53.592C27.0348 53.592 26.7727 53.4357 26.718 53.6989C26.6679 53.9599 27.2772 55.3065 28.6946 55.3065C30.1128 55.3065 30.77 54.4859 30.6702 53.7507C30.5591 52.9302 29.2556 52.6042 28.2166 52.0578C27.7083 51.7911 26.5593 51.6126 26.5593 50.5369C26.5593 48.2404 30.0542 49.7072 30.0542 49.7072C30.0542 49.7072 30.0616 49.4201 30.2243 49.4066C30.3029 49.3992 30.461 49.3682 30.5136 49.6278C30.5654 49.8896 30.7965 51.269 30.7965 51.269C30.7965 51.269 30.2828 50.2187 28.8731 49.7601C28.6237 49.6726 27.5333 49.4652 27.5396 50.3284C27.5527 50.841 28.1775 51.0711 29.2605 51.4916C30.6839 52.0497 31.4131 52.5693 31.0769 54.0658C30.757 55.5026 29.3522 55.739 28.6692 55.739C27.9877 55.739 26.4192 55.261 26.4192 53.6844C26.4192 52.5696 27.5128 52.5958 27.6465 52.9298ZM35.1145 44.2945L35.6884 44.5665C36.0194 44.6946 36.2307 44.6381 36.3065 44.6064C36.3866 44.5718 36.6896 44.2466 36.7556 43.9696C36.7866 43.8567 36.7701 43.7587 36.7101 43.6864C36.4868 43.4218 36.0913 42.2065 35.9446 41.5496C35.8902 41.3058 35.9562 40.6331 36.0074 40.0916C36.0522 39.6266 36.0797 39.3377 36.0564 39.2632C36.0172 39.1482 35.8454 39.0371 35.6479 38.9119L35.335 38.6988C35.1681 38.5623 35.1607 38.3763 35.1515 38.1767L35.1184 37.8666C35.0457 37.578 33.5771 36.078 33.3495 36.0642C33.0197 36.0427 32.934 36.4047 32.9128 36.6223C32.8997 36.7497 33.0469 37.3184 33.1795 37.8225L33.3259 38.4303C33.4762 39.386 34.4922 41.0691 34.9254 41.7874L35.1311 42.1366C35.22 42.3391 35.1854 42.4989 35.0273 42.5885C34.8739 42.6767 33.5534 42.5388 32.9227 42.3934C32.6517 42.3313 32.3173 42.1962 31.991 42.0639C31.6174 41.9151 31.2632 41.7704 31.0586 41.7602C30.8198 41.7478 30.7065 41.7962 30.6187 41.8367L30.4755 41.8766L30.3329 41.8311C30.158 41.7538 29.8309 41.6127 28.9381 41.5319C27.6367 41.4099 27.5389 41.6716 27.486 41.8131C27.4215 41.993 28.217 42.839 28.3591 42.9522C28.5401 43.0983 29.1254 43.3209 29.4827 43.2616C29.8913 43.196 30.5573 43.1134 30.6398 43.13L30.7739 43.2119L30.8984 43.3001C31.0113 43.3463 31.7388 43.3861 31.9585 43.3978C32.2122 43.4115 32.8782 43.5495 33.3651 43.6514L33.909 43.7611C34.1221 43.8003 34.671 44.0712 35.1145 44.2945Z" fill="black"/>
<path fill-rule="evenodd" clip-rule="evenodd" d="M48.5772 27.4166C48.5483 27.381 48.5243 27.3789 48.5091 27.3827C48.4953 27.3873 48.4766 27.4004 48.4714 27.4427C48.4474 27.624 48.2198 28.09 48.0392 28.1588C47.6734 28.3003 47.4839 28.7293 47.3467 29.0418C47.2765 29.2031 47.2081 29.3569 47.1537 29.359C47.1304 29.3608 47.1047 29.3357 47.0765 29.2835C46.851 28.8947 46.9773 28.3003 47.0786 27.8212L47.1019 27.7038C47.1844 27.2998 47.6571 26.734 47.9397 26.3946L48.0646 26.2443C48.2569 26.0044 48.3052 25.1916 48.2692 25.1306C48.2576 25.1271 48.2498 25.1338 48.2452 25.1408C48.2408 25.1444 48.2371 25.1487 48.2343 25.1535L48.23 25.1528V25.1571C48.2184 25.1698 48.2085 25.1712 48.199 25.2121C48.1486 25.4661 47.6843 25.9822 46.8913 26.668C46.7286 26.8088 46.5434 27.0631 46.3917 27.2674C46.294 27.4014 46.1794 27.5559 46.149 27.5634C45.9525 26.5149 46.3081 25.9155 46.4771 25.6259L46.5558 25.4788C46.8913 24.5658 47.7552 23.8744 47.7644 23.868C47.776 23.8415 47.776 23.8133 47.7549 23.7953C47.7217 23.7699 47.661 23.7809 47.5654 23.8288L47.5132 23.855C47.2119 24.0014 46.3032 24.4441 45.7458 25.5102C45.3454 26.2778 45.1905 27.1358 45.1905 27.7828C45.1905 28.113 45.2304 28.3867 45.2981 28.5681C45.4939 29.0902 45.8368 30.3877 45.9423 30.8971C46.0079 31.2128 46.0181 32.2969 46.0181 32.9764C46.0181 33.3083 46.0167 33.5408 46.0167 33.5496C46.0146 33.5496 45.8439 34.1007 45.8439 34.1007C45.8432 34.1063 45.7606 34.5367 45.0572 35.256C44.3488 35.9796 43.56 36.2096 43.5529 36.2124C43.2361 36.2371 42.9472 36.224 42.937 36.1828C42.937 35.3559 41.5209 33.4322 40.7963 32.7975C40.0569 32.1495 39.466 31.6852 38.462 31.0742C37.4396 30.4519 36.3026 27.8431 36.2896 27.8177L36.1912 27.4653C36.1912 27.4653 36.1361 26.7615 36.121 26.5784C36.158 26.5996 36.2063 26.6296 36.2063 26.6296L36.5549 26.8324L36.9553 26.9862C36.9588 26.9873 37.4795 27.0892 37.4795 27.0892C37.4795 27.0903 37.7709 27.2395 37.7709 27.2395L38.0411 27.4152L38.4613 27.7186L38.8927 27.9454C38.9016 27.9479 39.411 27.974 39.411 27.974L39.4226 27.932C39.4226 27.932 38.8328 27.6551 38.8314 27.6551C38.8314 27.6466 38.619 27.2832 38.619 27.2832C38.5364 27.1647 38.454 27.046 38.3717 26.9273C38.3636 26.9217 38.0651 26.7435 38.0651 26.7435C37.9388 26.7243 37.8122 26.7064 37.6855 26.6899C37.6855 26.6867 37.6111 26.6228 37.5726 26.5883C37.6058 26.5689 37.6682 26.5301 37.6682 26.5301C37.6682 26.5347 38.0746 26.5816 38.0761 26.5816C38.0761 26.5858 38.4377 26.8317 38.4377 26.8317L38.8324 27.1358C38.8388 27.139 39.206 27.2815 39.206 27.2815L39.2543 27.3005L39.0931 26.8811C38.9923 26.7845 38.8908 26.6887 38.7887 26.5936L38.3413 26.2133C38.3378 26.2101 37.99 26.0309 37.99 26.0309C37.9864 26.0302 37.6153 25.9049 37.6153 25.9049C37.6153 25.9042 37.2227 25.6538 37.2227 25.6538C37.2227 25.6538 37.2269 25.627 37.2297 25.604C37.2795 25.6231 37.7734 25.8213 37.7734 25.8213C37.7762 25.8217 38.2468 25.9497 38.2468 25.9497C38.2461 25.948 38.6416 26.1007 38.6416 26.1007C38.6401 26.0993 39.2092 26.377 39.2092 26.377C39.2141 26.3794 39.6854 26.4817 39.6854 26.4817C39.6935 26.4821 40.2668 26.3794 40.2668 26.3794C40.2742 26.3759 40.8207 25.9956 40.8207 25.9956C40.827 25.9854 40.9276 25.7592 40.9276 25.7592L40.9491 25.707L40.7734 25.7797C40.772 25.7797 40.2774 26.0309 40.2767 26.0309L39.9341 26.1074C39.9341 26.1057 39.5475 26.0298 39.5468 26.0298H39.5475C39.5475 26.0252 39.2339 25.7335 39.2339 25.7335L38.7887 25.3024L38.3861 25.0964C38.3805 25.0939 37.9099 25.0177 37.9099 25.0177C37.9099 25.0167 37.6234 24.871 37.6185 24.8685C37.6199 24.8685 37.6206 24.8632 37.6206 24.8558C37.6206 24.8212 37.6118 24.7457 37.6083 24.7104L38.2002 24.7602L38.8486 24.708C38.8486 24.7097 39.2138 24.7842 39.2138 24.7842L39.5831 24.9366L39.9613 24.9877L40.0294 24.9969L39.6078 24.5937C39.6036 24.5916 39.1827 24.2875 39.1827 24.2875C39.1778 24.285 38.8299 24.1576 38.8299 24.1576C38.8236 24.1562 38.2436 24.1072 38.232 24.1061C38.2369 24.1058 38.2376 24.0959 38.2376 24.0814C38.2376 24.0462 38.232 23.9961 38.2288 23.9703L38.5029 23.9237C38.5029 23.9255 38.9418 24.0243 38.9418 24.0243C38.9418 24.0257 39.3573 24.2751 39.3573 24.2751L39.8064 24.4286C39.8195 24.4289 40.4622 24.328 40.4622 24.328L40.5007 24.3227L40.3049 24.0642C40.294 24.0557 39.9708 23.9551 39.9701 23.9551C39.9701 23.9534 39.7034 23.7562 39.7034 23.7562L39.3058 23.4768C39.3002 23.4736 39.0035 23.3727 39.0035 23.3727C38.9986 23.3709 38.5308 23.2962 38.5294 23.2958C38.5294 23.2909 38.2994 23.0792 38.2944 23.0757C38.3015 23.0743 38.3159 23.0005 38.3212 22.967L38.5685 23.0362L38.8867 23.1879L39.3386 23.3311L39.2388 23.1318L39.0631 22.9483L38.9093 22.7501L38.976 22.7335C38.976 22.7395 39.4568 22.9847 39.4568 22.9847L39.8315 23.1124C39.8315 23.1145 40.1208 23.3858 40.1208 23.3858C40.125 23.3893 40.6725 23.6983 40.6725 23.6983L40.7275 23.7294L40.6277 23.462C40.6249 23.456 40.3278 23.076 40.3278 23.076L40.0805 22.6485C40.0784 22.6435 39.6307 22.1881 39.6307 22.1881C39.6265 22.1838 39.0568 21.8794 39.0554 21.8794C39.0554 21.8769 38.8384 21.631 38.8384 21.631C38.7056 21.496 38.5731 21.3606 38.4408 21.225C38.4408 21.2197 38.4003 21.0807 38.3794 21.0102C38.4468 21.0317 38.7654 21.1375 38.7654 21.1375L39.2113 21.2635C39.2113 21.2645 39.5295 21.4628 39.5295 21.4628C39.5295 21.4649 39.7948 21.787 39.7948 21.787C39.8043 21.7944 40.2269 21.9722 40.2269 21.9722L41.304 22.1119L41.3668 22.1196L41.0711 21.8085C41.0637 21.8028 40.4929 21.5492 40.4929 21.5492L40.1504 21.2994C40.1504 21.2948 39.9588 20.9512 39.9588 20.9512L39.7592 20.5971C39.7556 20.5918 39.4332 20.288 39.4332 20.288C39.4282 20.2845 39.0314 20.0566 39.0314 20.0566L38.6387 19.7299C38.6387 19.7268 38.5442 19.531 38.4839 19.4004L38.7566 19.6633L39.2776 20.1194C39.284 20.1233 39.6815 20.3007 39.6815 20.3007L40.022 20.5759L40.4174 20.9795C40.4312 20.9858 41.0493 21.073 41.0493 21.073L41.1265 21.0842L40.4989 20.5406C40.4989 20.5307 40.3571 20.0951 40.3571 20.0951C40.2486 19.9894 40.139 19.8849 40.0283 19.7814L39.8576 19.5807C39.8576 19.5754 39.6875 19.0572 39.6875 19.0572C39.5707 18.9355 39.4528 18.8147 39.3341 18.6949C39.3341 18.6921 38.7671 18.1632 38.7657 18.1611V18.1601C38.7657 18.152 38.7456 18.0712 38.734 18.0179C38.7774 18.0398 38.8366 18.0712 38.8366 18.0712L39.357 18.3742C39.3619 18.3767 39.9814 18.5538 39.9814 18.5538L40.6277 18.7069L41.3745 18.8261L41.1988 18.4709C41.1865 18.4596 40.815 18.3082 40.815 18.3082L40.4704 18.1072C40.4668 18.1061 40.046 17.9283 40.046 17.9283L39.6752 17.7766C39.6752 17.7731 39.4346 17.4626 39.3005 17.2912C39.4293 17.3776 39.6279 17.5127 39.6279 17.5127C39.6374 17.5159 39.962 17.5416 39.962 17.5416L40.9798 17.542C40.9798 17.5448 41.3918 17.7674 41.3918 17.7681C41.3918 17.7695 41.7432 18.1484 41.7432 18.1484L41.7894 18.1982L41.7467 17.7706C41.7425 17.7583 41.5192 17.4792 41.5192 17.4792C41.5128 17.4743 40.9163 17.1448 40.9163 17.1448L40.4421 16.9663C40.4386 16.9652 39.7242 16.8389 39.7207 16.8389V16.8379C39.7207 16.8312 39.5842 16.6685 39.5842 16.6685C39.5814 16.6671 39.0614 16.1859 39.0614 16.1859C38.9773 16.142 38.893 16.0986 38.8084 16.0557C38.8084 16.0543 38.729 15.9728 38.6797 15.9213H38.9471C38.9471 15.9256 39.357 16.1718 39.357 16.1718C39.3605 16.1743 39.9077 16.3507 39.9077 16.3507L40.6058 16.4526H40.6051C40.6051 16.46 40.8641 16.75 40.8641 16.75L41.2415 16.9818C41.3847 17.0082 41.5281 17.0337 41.6716 17.0583L41.7315 17.0679L40.8482 15.9855C40.8425 15.9803 40.4203 15.7527 40.4203 15.7527C40.4167 15.7506 39.9214 15.5985 39.9214 15.5985C39.9214 15.5933 39.4854 15.0987 39.4854 15.0987C39.4805 15.0934 38.9344 14.7649 38.9344 14.7649C38.8024 14.7315 38.6701 14.6993 38.5375 14.6683C38.5622 14.6284 38.6444 14.4929 38.6444 14.4922C38.6458 14.4961 39.0818 14.2989 39.0818 14.2989C39.0818 14.3 39.7211 14.174 39.7211 14.174C39.7383 14.1592 39.7867 14.0065 39.7867 14.0065C39.7786 13.9807 39.5055 13.8036 39.5055 13.8036C39.3966 13.7682 39.2874 13.7334 39.1781 13.6992C39.158 13.7017 38.9852 13.8029 38.9852 13.8036C38.9852 13.8004 38.4503 13.8248 38.4503 13.8248C38.4503 13.8244 37.8111 13.6741 37.8111 13.6734C37.8111 13.6703 37.1525 13.1213 37.1525 13.1213C37.0517 13.0694 36.9507 13.0179 36.8494 12.9668C36.842 12.9654 35.7541 12.8381 35.7512 12.8381C35.7512 12.8243 35.4955 12.4426 35.4955 12.4426L35.1455 12.0602C35.1441 12.0581 34.7 11.6573 34.7 11.6573L34.6862 11.6866L34.5373 12.0161C34.538 12.0129 34.3906 12.2408 34.3906 12.2408V12.2465C34.3906 12.2884 34.4114 12.5086 34.4114 12.5086C34.4177 12.5223 34.5617 12.6698 34.5649 12.674C34.5574 12.674 34.5105 12.9033 34.5105 12.9051C34.5091 12.8892 33.9136 12.9136 33.9126 12.9136C33.9126 12.9107 33.4261 12.6874 33.4261 12.6874C33.4229 12.6853 33.05 12.559 33.05 12.559C33.0426 12.5565 32.1751 12.5834 32.1751 12.5834C32.1561 12.5932 32.009 12.8211 32.009 12.8211L31.9892 12.8511L32.3709 12.9062C32.3709 12.9076 32.4274 12.9435 32.4588 12.9637L32.3611 13.0434C32.3611 13.0384 31.8301 13.0141 31.8301 13.0141C31.8213 13.0155 31.4477 13.1669 31.4477 13.1669L31.4089 13.1834L31.5941 13.308C31.6058 13.3122 32.3992 13.3372 32.3992 13.3372L32.9883 13.4889V13.4896C32.9883 13.4978 33.1005 13.6579 33.1005 13.6579C33.1005 13.6579 33.1802 13.7705 33.2102 13.8146L32.958 13.9535C32.9611 13.9532 32.2411 14.2569 32.2411 14.2569L30.7527 15.0927C30.7513 15.0913 29.7727 15.2373 29.7727 15.2373C29.7653 15.2398 29.3896 15.449 29.3896 15.449C29.3815 15.4546 29.0799 15.8727 29.0799 15.8727C29.0767 15.8779 28.906 16.3983 28.906 16.3983C28.8925 17.2824 28.9278 17.3028 28.9405 17.3099C28.9698 17.3282 29.2252 17.4729 29.4228 17.367C29.6464 17.2453 30.1252 17.1257 30.3739 17.0728C30.4966 17.0478 30.5541 17.0919 30.5644 17.1374C30.5778 17.1871 30.5407 17.2548 30.449 17.2799L30.3975 17.2951C29.965 17.4125 29.5237 17.5547 29.5381 17.7216L29.6143 17.8489C29.8073 17.9897 30.3089 17.923 30.5753 17.8627L30.8533 17.7847C31.0932 17.7117 31.3659 17.6302 31.5987 17.6563C31.7331 17.6718 31.8516 17.7297 31.9917 17.7956C32.1815 17.8874 32.3984 17.9914 32.7219 18.0126C33.2613 18.05 33.6296 18.159 33.6586 18.1908C33.7309 18.3379 33.6843 18.5555 33.648 18.7305L33.6201 18.8889C33.4691 20.258 31.9405 21.806 31.2039 22.5486C31.005 22.7497 30.8734 22.8823 30.8452 22.9377L30.7605 23.1335C30.6889 23.3152 30.6307 23.4718 30.3971 23.5657C30.262 23.6182 29.947 23.8553 29.5815 24.1291C29.0538 24.5228 28.3994 25.0124 28.2191 24.9913C27.9175 24.9556 26.5088 23.9858 26.4496 23.9262C25.0776 22.5987 24.5036 22.8711 24.16 23.0333L24.1057 23.0587C23.6965 23.245 23.2668 24.4042 23.228 24.6529L23.0622 25.367L22.9348 25.8915C22.8971 26.069 22.7281 26.505 22.5669 26.9262L22.236 27.8435C22.1813 28.0558 22.0487 28.3543 21.9407 28.5956L21.7943 28.9529C21.6924 29.3724 21.6906 31.6697 21.868 31.8729L21.8758 31.8814L21.9107 31.8916C22.0889 31.8732 22.4713 31.4792 22.6547 31.289L22.6971 31.2449C22.8523 31.089 23.017 30.6727 23.017 30.4978C23.017 30.3263 22.937 29.9679 22.9052 29.8702C22.6568 29.1117 22.7507 28.3889 22.7958 28.0424L22.8138 27.8879C22.8269 27.727 22.9881 27.5489 23.1447 27.3781L23.3427 27.1492C23.4513 27.0046 23.572 26.9566 23.6796 26.9139L23.8563 26.813L23.8838 26.7844C24.0009 26.6669 24.1974 26.4687 24.2835 26.2034L24.4514 25.477L24.4881 25.283C24.4966 25.2442 24.5163 25.2227 24.5491 25.2156C24.6158 25.2008 24.7157 25.2537 24.7583 25.3105L25.9726 26.7195C26.2838 26.9844 26.6034 27.3005 26.6034 27.37L26.603 27.376C26.603 27.375 26.5956 27.3764 26.5956 27.3764C26.4256 27.394 25.5701 27.2116 25.4279 27.1711C24.2655 26.8303 23.7349 26.8903 23.3257 27.4025C22.8593 27.9892 23.0061 29.7859 23.1013 29.9827C23.1888 30.1612 23.6143 32.3502 23.6333 32.6419C23.6524 32.928 23.7632 33.4396 23.8789 33.557L23.9106 33.5895C24.0538 33.7313 24.4313 34.1106 24.498 34.4845C24.57 34.8916 25.4346 35.9817 25.7645 36.0794C25.7892 36.0866 25.8153 36.0877 25.8405 36.0828C25.8658 36.0779 25.8896 36.0671 25.9098 36.0512C26.1613 35.8727 26.2756 35.0003 26.2894 34.632C26.3056 34.173 26.1409 33.9511 25.9659 33.7137L25.8989 33.6209C25.7701 33.4452 25.5433 33.3814 25.3937 33.3394C25.3298 33.3214 25.2424 33.3002 25.2424 33.2805C25.2424 33.2738 25.2247 32.6014 25.0102 32.4715C24.8434 32.3689 24.6726 31.7201 24.6525 31.4732C24.6331 31.228 24.5382 30.636 24.4109 30.3761C24.2821 30.115 24.1738 29.6338 24.2288 29.2627C24.2518 29.1032 24.3654 29.0531 24.4578 29.0387C24.6172 29.0133 24.8014 29.0821 24.83 29.1378C24.8935 29.2655 26.1194 30.0049 26.5328 30.1637C26.7896 30.261 27.1371 30.5546 27.444 30.8163C27.6624 30.9994 27.8501 31.1571 27.9672 31.2132C28.1253 31.2894 28.5733 31.2982 28.9331 31.3053C29.124 31.3084 29.3222 31.313 29.349 31.3289C29.203 31.3875 29.2048 31.6436 29.2167 31.7261C29.366 32.7855 33.2201 35.6956 33.5182 35.8589C33.8632 36.0441 35.1007 37.3364 35.209 37.512C35.3212 37.6856 35.4302 37.8743 35.4094 38.0197C35.3798 38.2345 35.4659 38.4801 35.638 38.6804C35.8028 38.8671 36.0176 38.9796 36.2162 38.9796C36.3884 38.9796 36.5034 38.8251 36.5884 38.7136L36.6064 38.6903C36.8364 38.3859 37.1775 37.94 37.2216 37.2425C37.2685 36.5274 37.5952 36.2434 37.7018 36.2247C37.7494 36.2159 37.7843 36.2304 37.797 36.2618C37.8101 36.2942 37.7942 36.3486 37.7296 36.3913C37.5885 36.4869 37.5003 36.8033 37.4037 37.1416C37.403 37.1444 37.3677 37.487 37.3677 37.487C37.3596 37.7428 37.3497 38.0327 37.0943 38.3139C36.7119 38.7281 36.273 39.683 36.1594 40.8888C36.0906 41.6152 36.4176 42.6615 37.131 43.995L37.1807 44.0903L37.3737 44.4141C37.5688 44.7277 37.8947 45.2491 37.8796 45.3712C37.8587 45.5434 37.8425 45.6785 37.5455 46.0514C37.2188 46.4613 36.0268 47.8484 35.9104 47.8703C35.6733 47.8703 35.6334 47.9006 35.4426 48.0453L35.2415 48.1984C35.0214 48.3547 34.9829 48.4718 34.9459 48.5751C34.9187 48.6531 34.8929 48.7212 34.7906 48.7977L34.7141 48.8492C34.6982 48.863 34.6552 48.9237 34.1761 49.4031C33.6268 49.946 33.3816 50.5606 33.4663 51.1712C33.4935 51.3621 33.6579 51.4288 34.1454 51.451C34.6322 51.4736 35.7484 50.6925 35.7982 50.4382L35.8155 50.3411C35.8581 50.1118 35.9298 49.7252 36.056 49.6695C36.2084 49.6028 36.4695 49.3015 36.6611 49.0824L36.6981 49.0412C36.8001 48.9233 36.8247 48.8062 36.8491 48.6947C36.8699 48.6065 36.889 48.5176 36.9468 48.4365C36.9923 48.3772 37.059 48.3448 37.1363 48.3091C37.2844 48.2382 37.471 48.1479 37.6054 47.8103C37.7392 47.4794 38.5371 46.9069 39.1199 46.4902C39.4177 46.2786 39.6512 46.1092 39.7069 46.0348C39.7835 45.935 39.8304 45.7427 39.8304 45.5388C39.8304 45.2968 39.7655 45.0392 39.6135 44.896C39.3923 44.6907 39.1841 44.0797 39.122 43.8881V43.8839C39.122 43.8045 39.1146 43.6592 39.1026 43.3886C39.1012 43.3763 39.1012 43.3632 39.1012 43.3516C39.1012 42.6358 40.1652 41.9355 40.6245 41.6339L40.8341 41.4892C42.4995 40.0203 42.8255 38.9034 42.8872 38.5968L42.9211 38.2296C42.9313 37.9752 42.9398 37.7329 43.0933 37.7011C43.1532 37.6895 43.2531 37.7378 43.3137 37.8101C43.3483 37.8493 43.3991 37.9308 43.3652 38.025C43.2894 38.231 43.264 40.3022 43.2633 40.3882C43.2689 40.4027 43.4425 40.6073 43.4425 40.6073L43.4743 40.6443L43.4838 40.596C43.4859 40.572 43.5815 40.0076 43.5815 39.8079C43.5815 39.5846 43.9406 38.6282 44.0274 38.6116C44.0274 38.6145 44.0331 38.6226 44.0331 38.6226C44.075 38.7549 44.1287 39.0815 44.1287 39.4259C44.1287 39.7642 44.0775 40.1198 43.9131 40.3258C43.6637 40.6345 43.4651 41.1231 43.3356 41.4455L43.2157 41.7196C43.2021 41.7576 43.1963 41.7979 43.1984 41.8381C43.1984 42.1006 43.3335 42.6601 43.4224 42.7642C43.4457 42.7889 43.4644 42.7889 43.4774 42.7843C43.5064 42.7734 43.5325 42.736 43.5325 42.5162C43.5325 41.679 44.2359 41.0719 44.2444 41.0673C44.8646 40.5752 44.9997 39.6626 44.9997 38.9672C44.9997 38.4409 44.9224 38.0391 44.9203 38.0281C44.8222 37.8827 44.723 37.7381 44.6225 37.5942C44.637 37.6013 44.7178 37.535 44.7446 37.5134C44.7714 37.548 45.054 37.9227 45.054 37.9227C45.1016 37.9893 45.2223 38.1837 45.2223 38.261C45.2223 38.6917 45.2886 38.9866 45.3359 39.2029L45.3475 39.2541C45.3972 39.4834 45.7073 40.2161 45.7211 40.2475L45.7543 40.3247L45.7645 40.2408C45.7645 40.2372 45.8135 39.8541 45.7645 39.5264C45.7363 39.3426 45.7715 39.1172 45.8072 38.8738L45.8636 38.315C45.8636 37.8609 45.7987 37.5741 45.6368 37.3131L45.5542 37.1878C45.5218 37.1367 45.49 37.0866 45.4936 37.0764L45.5542 37.0502C46.8641 36.6057 47.4737 35.6413 47.722 35.1071C47.9824 34.5413 47.9962 33.6699 47.9962 33.5024C47.9962 33.284 47.9866 32.1516 47.7965 31.5698C47.685 31.2266 47.7206 30.8579 47.758 30.46L47.7986 29.7788C47.7986 29.3128 48.0438 28.9667 48.2816 28.6323L48.5648 28.1934C48.75 27.8279 48.6516 27.508 48.5772 27.4166Z" fill="black"/>
<path fill-rule="evenodd" clip-rule="evenodd" d="M33.9154 12.83C33.9373 12.8314 34.2156 12.6991 34.2156 12.6991C34.228 12.6741 34.1634 12.4105 34.1634 12.4105C33.9625 12.1723 33.7606 11.9348 33.5577 11.6983L33.5277 11.6634L33.5175 11.7071L33.4525 11.9925C33.4529 11.9897 33.2603 12.4504 33.2603 12.4504L33.2515 12.4698L33.6572 12.6772L33.9154 12.83Z" fill="black"/>
<path fill-rule="evenodd" clip-rule="evenodd" d="M34.036 14.6587C34.1002 14.6827 34.1972 14.6721 34.289 14.6312C34.4294 14.5652 34.5123 14.4523 34.4766 14.3716L34.4121 14.3133C34.3486 14.289 34.2516 14.2999 34.1613 14.3416C34.041 14.3952 33.9641 14.4844 33.9641 14.5603C33.9641 14.574 33.9679 14.5889 33.9725 14.6005L34.036 14.6587ZM36.4593 13.6586L36.575 13.721C36.5843 13.7411 36.5979 13.7587 36.615 13.7728C36.632 13.7868 36.652 13.7969 36.6734 13.8022C36.6981 13.8073 36.7236 13.8068 36.748 13.8007C36.7724 13.7946 36.7952 13.783 36.8145 13.7669C36.8455 13.7425 36.853 13.697 36.8332 13.6395C36.8022 13.5439 36.7023 13.4395 36.5947 13.4395C36.4561 13.4395 36.3294 13.4554 36.3294 13.5577C36.3298 13.6152 36.3958 13.6371 36.4593 13.6586ZM36.5979 14.0675C36.5443 14.107 36.5206 14.1602 36.5358 14.2142L36.5467 14.259C36.5605 14.3119 36.5654 14.3229 36.6141 14.3285L36.7023 14.3444C36.8152 14.3733 36.9937 14.3031 37.0343 14.2128C37.048 14.1835 37.059 14.1267 36.9821 14.0731C36.8498 13.9849 36.6868 14.004 36.5979 14.0675ZM36.9588 15.6377C36.9263 15.6221 36.9401 15.5706 36.9651 15.4959C36.9852 15.4348 37.0036 15.3763 36.9722 15.3442C36.9447 15.3177 36.8956 15.3198 36.8124 15.3509C36.5125 15.4588 36.4667 15.7643 36.4335 15.9876L36.4233 16.0564C36.406 16.1559 36.4571 16.1898 36.4889 16.2011C36.5923 16.2377 36.7789 16.1439 36.8209 16.0723C36.8678 15.995 37.1267 15.9245 37.3155 15.873L37.3878 15.8532C37.4753 15.8292 37.5201 15.7957 37.5264 15.7502C37.5359 15.6906 37.47 15.6363 37.4114 15.6013C37.3571 15.5692 37.2763 15.5922 37.1916 15.6165C37.1077 15.6394 37.0174 15.6631 36.9588 15.6377ZM33.7894 15.7523C33.8558 15.7456 33.9076 15.7199 33.9404 15.6726C34.036 15.5301 34.041 15.3283 33.9482 15.1452C33.8586 14.9706 33.7051 14.8587 33.5485 14.8531L33.5506 14.8538L33.5164 14.8492L33.2278 14.8718C33.0754 14.9057 32.934 15.0182 32.8997 15.129C32.8824 15.1851 32.8923 15.2362 32.9308 15.2747C33.1622 15.5198 33.5619 15.7696 33.7894 15.7523ZM30.9478 15.5202C30.9824 15.6052 31.1408 15.6147 31.3733 15.5456L31.4244 15.5301L31.841 15.3671L32.4446 14.9702C32.4623 14.9565 32.62 14.8379 32.5875 14.7621C32.5646 14.7123 32.4859 14.7212 32.4291 14.7317C32.2626 14.7621 32.0993 14.8422 31.9254 14.9268L31.6798 15.0408L31.5715 15.0852C31.1979 15.2397 30.8917 15.3784 30.9478 15.5202ZM29.6785 15.9619C29.5529 15.9619 29.4965 16.03 29.4506 16.0903L29.3945 16.1538C29.2979 16.2367 29.2682 16.4371 29.2802 16.5895C29.2852 16.653 29.3032 16.768 29.3656 16.8047C29.4852 16.8784 29.5423 16.8265 29.6644 16.7105L29.759 16.6293C29.8789 16.5288 30.0182 16.4148 30.0355 16.2395C30.044 16.1654 30.0264 16.1044 29.9851 16.0585C29.9117 15.9788 29.7777 15.9619 29.6785 15.9619ZM30.3728 16.0173C30.3368 16.0095 30.3153 16.0208 30.304 16.0324C30.2677 16.0681 30.2825 16.1443 30.2938 16.2053L30.3008 16.248L30.2934 16.2737C30.2853 16.2956 30.2761 16.3235 30.2934 16.3471C30.3089 16.3707 30.3467 16.381 30.4109 16.381C30.4924 16.3817 30.5005 16.3732 30.528 16.3005L30.5499 16.2444C30.5696 16.1951 30.57 16.1506 30.5513 16.1153C30.5178 16.0532 30.4345 16.0296 30.3728 16.0173ZM31.0441 17.1052C31.0867 17.1033 31.1269 17.0849 31.1564 17.0541C31.1858 17.0233 31.2023 16.9822 31.2023 16.9396C31.2023 16.8969 31.1858 16.8559 31.1564 16.8251C31.1269 16.7942 31.0867 16.7759 31.0441 16.774C31.0226 16.7741 31.0013 16.7785 30.9814 16.7869C30.9616 16.7953 30.9436 16.8076 30.9286 16.8229C30.9135 16.8383 30.9016 16.8565 30.8936 16.8765C30.8855 16.8965 30.8816 16.9179 30.8818 16.9394C30.8818 17.0308 30.9542 17.1052 31.0441 17.1052ZM34.0685 16.7016C34.0452 16.6973 34.0211 16.6994 33.9989 16.7078C33.9767 16.7161 33.9572 16.7303 33.9425 16.7489C33.8977 16.8011 33.625 16.9881 33.4257 17.125L33.1685 17.3077L33.1477 17.3278C33.1156 17.3582 33.0998 17.3769 33.1206 17.4397L33.152 17.4838L33.2197 17.47L33.3199 17.433L33.4642 17.4104C33.6063 17.392 33.7619 17.3709 33.8353 17.2957L33.9309 17.1394L34.0731 16.9112C34.1412 16.8361 34.1447 16.7846 34.1352 16.7553C34.1297 16.7413 34.1206 16.729 34.1089 16.7196C34.0972 16.7102 34.0833 16.704 34.0685 16.7016ZM34.3673 17.6238C34.3673 17.7081 34.4093 17.7413 34.4329 17.7529C34.4968 17.7868 34.5885 17.754 34.6432 17.6778L34.828 17.5169C34.9282 17.445 35.04 17.3638 35.1392 17.2379C35.2309 17.1197 35.1914 17.047 35.1586 17.016C35.0958 16.9546 34.9667 16.9405 34.9229 16.9765L34.8696 17.0128C34.7486 17.0915 34.4622 17.2774 34.3902 17.5035C34.376 17.5421 34.3683 17.5827 34.3673 17.6238ZM35.5717 17.5328C35.5339 17.4778 35.469 17.4548 35.4207 17.4785L35.2905 17.5772C35.1988 17.652 35.0845 17.7469 34.9854 17.7748C34.7448 17.8394 34.4184 17.947 34.3983 18.1121L34.398 18.1336C34.398 18.1791 34.4184 18.2062 34.4382 18.2214C34.5296 18.2959 34.7515 18.2518 34.912 18.1911C35.1582 18.1001 35.3078 17.9889 35.5011 17.8133C35.62 17.7049 35.6147 17.5966 35.5717 17.5328ZM34.6361 19.4343L34.5578 19.4254C34.3553 19.4794 34.0096 20.0749 33.7669 20.5187L33.7235 20.5956L32.996 21.9609L32.7678 22.3955C32.7424 22.435 32.7512 22.4928 32.7893 22.5306C32.8246 22.5659 32.8863 22.5853 32.9611 22.538C33.0825 22.4572 33.5252 22.018 33.7305 21.673L34.0039 21.2959C34.1793 21.0669 34.3789 20.8108 34.496 20.5056L34.5373 20.4005C34.815 19.6805 34.8584 19.5704 34.6361 19.4343ZM37.3715 16.81C37.3508 16.8095 37.3302 16.8131 37.3109 16.8206C37.2916 16.8281 37.274 16.8393 37.259 16.8536C37.244 16.8679 37.232 16.8851 37.2237 16.904C37.2153 16.923 37.2108 16.9434 37.2103 16.9641C37.2103 17.0491 37.2826 17.1183 37.3715 17.1183C37.4604 17.1183 37.5314 17.0491 37.5314 16.9641C37.531 16.9435 37.5266 16.9231 37.5184 16.9042C37.5102 16.8853 37.4983 16.8681 37.4835 16.8538C37.4686 16.8395 37.4511 16.8282 37.4319 16.8207C37.4127 16.8132 37.3922 16.8095 37.3715 16.81ZM37.295 17.4531C37.295 17.5384 37.3673 17.6076 37.4562 17.6076C37.4767 17.6078 37.4971 17.604 37.5161 17.5964C37.5351 17.5887 37.5525 17.5774 37.5671 17.563C37.5818 17.5487 37.5934 17.5316 37.6015 17.5127C37.6095 17.4938 37.6137 17.4736 37.6139 17.4531C37.6134 17.4117 37.5966 17.3722 37.567 17.3432C37.5374 17.3142 37.4976 17.2982 37.4562 17.2985C37.4144 17.2979 37.374 17.3137 37.3438 17.3427C37.3137 17.3716 37.2961 17.4113 37.295 17.4531ZM37.4432 17.7949C37.3426 17.7949 37.2594 17.8616 37.2594 17.9413C37.2594 18.0221 37.3426 18.0881 37.4432 18.0881C37.5451 18.0881 37.6277 18.0224 37.6277 17.9413C37.628 17.8616 37.5451 17.7949 37.4432 17.7949ZM37.4357 18.2225C37.32 18.2225 37.2276 18.2955 37.2276 18.3855C37.2276 18.4747 37.32 18.5477 37.4357 18.5477C37.5515 18.5477 37.6425 18.4744 37.6425 18.3855C37.6425 18.2955 37.5515 18.2225 37.4357 18.2225ZM37.4432 18.765C37.3158 18.765 37.2103 18.8409 37.2103 18.9365C37.2103 19.0307 37.3158 19.1065 37.4432 19.1065C37.5712 19.1065 37.6746 19.0307 37.6746 18.9365C37.6746 18.8409 37.5712 18.765 37.4432 18.765ZM37.3645 19.6745C37.5091 19.6618 37.6153 19.5824 37.6072 19.4907L37.5617 19.4075C37.5119 19.3655 37.4252 19.3443 37.337 19.3524C37.1973 19.3651 37.0939 19.4406 37.0939 19.527L37.0946 19.5359L37.1415 19.6188C37.1923 19.6618 37.2752 19.683 37.3645 19.6745ZM37.3564 20.2457C37.5183 20.2217 37.6326 20.1328 37.6195 20.041L37.5719 19.9648C37.5155 19.9214 37.4142 19.9042 37.3109 19.9193C37.1518 19.9416 37.0346 20.0322 37.0477 20.1239L37.0967 20.1998C37.1539 20.2435 37.253 20.2601 37.3564 20.2457ZM37.0837 20.5212C37.0837 20.621 37.205 20.7007 37.3641 20.7007C37.5225 20.7007 37.6425 20.621 37.6425 20.5212C37.6425 20.4213 37.5225 20.3427 37.3641 20.3427C37.2047 20.343 37.0837 20.4213 37.0837 20.5212ZM37.5797 21.105C37.5797 20.9992 37.435 20.9184 37.2502 20.9184C37.0674 20.9184 36.9228 20.9992 36.9228 21.105C36.9228 21.2101 37.0674 21.2923 37.2502 21.2923C37.435 21.2923 37.5797 21.2101 37.5797 21.105ZM37.3694 21.5978C37.3694 21.4945 37.2611 21.4109 37.1302 21.4109C36.9972 21.4109 36.8889 21.4945 36.8889 21.5978C36.8889 21.7012 36.9972 21.7852 37.1302 21.7852C37.2615 21.7852 37.3694 21.7012 37.3694 21.5978ZM37.2565 22.2142C37.2565 22.0981 37.1422 22.0025 37.0001 22.0025C36.8597 22.0025 36.7457 22.0981 36.7457 22.2142C36.7457 22.3313 36.8593 22.4255 37.0001 22.4255C37.1422 22.4255 37.2565 22.3313 37.2565 22.2142ZM37.0484 22.8139C37.0484 22.7095 36.9546 22.6265 36.8403 22.6265C36.7267 22.6265 36.6307 22.7091 36.6307 22.8139C36.6307 22.9165 36.7263 23.0005 36.8403 23.0005C36.9546 23.0008 37.0484 22.9165 37.0484 22.8139ZM36.6879 23.1688C36.5778 23.1688 36.4868 23.2524 36.4868 23.3561C36.4868 23.4588 36.5778 23.5424 36.6879 23.5424C36.7976 23.5424 36.8875 23.4584 36.8875 23.3561C36.8879 23.2524 36.7976 23.1688 36.6879 23.1688ZM36.5178 24.0687C36.6307 24.0687 36.7267 23.996 36.7267 23.9061C36.7267 23.8161 36.6311 23.7445 36.5178 23.7445C36.4042 23.7445 36.3111 23.8165 36.3111 23.9061C36.3111 23.9957 36.4042 24.0687 36.5178 24.0687ZM36.3263 24.4628C36.431 24.4628 36.5171 24.4017 36.5171 24.3248C36.5171 24.2483 36.4324 24.1876 36.3263 24.1876C36.2165 24.1876 36.1333 24.2479 36.1333 24.3248C36.1333 24.4017 36.2194 24.4628 36.3263 24.4628ZM36.1403 24.8416C36.2402 24.8416 36.3248 24.7799 36.3248 24.7034C36.3248 24.6275 36.2402 24.5658 36.1403 24.5658C36.0377 24.5658 35.9565 24.6275 35.9565 24.7034C35.9562 24.7799 36.0377 24.8416 36.1403 24.8416ZM30.7012 24.5061L30.7344 24.5125L30.9856 24.4673C31.2085 24.418 31.5444 24.3428 31.9575 24.3319C32.2594 24.3238 32.5868 24.4292 32.8246 24.5069C33.0405 24.5788 33.1481 24.6099 33.189 24.5654C33.2148 24.5361 33.1989 24.4934 33.1848 24.4635C33.1199 24.3234 32.8355 23.863 31.9077 23.8419C31.3048 23.8281 30.8134 24.238 30.7083 24.4112C30.6875 24.4465 30.6818 24.4726 30.6924 24.492L30.7012 24.5061ZM34.1514 26.2503C34.2103 26.2125 34.2357 26.1459 34.2318 26.0503C34.2121 25.6749 34.1115 25.6322 33.9044 25.6322C33.6945 25.6322 33.5428 25.8428 33.5428 25.9522C33.5428 26.0548 33.6183 26.1448 33.7647 26.2182C33.8476 26.2619 34.0385 26.3244 34.1514 26.2503ZM36.9979 30.8389C37.2971 30.9786 37.4022 31.0283 37.447 31.0421C37.4484 31.0421 37.4499 31.0463 37.4499 31.0463C37.4499 31.0463 37.452 31.0445 37.452 31.0438C37.4728 31.0502 37.4795 31.0477 37.4844 31.0406C37.4816 31.0385 37.47 31.0209 37.4636 31.016C37.4671 31.0131 37.4707 31.0057 37.4707 31.0057C37.4707 31.0057 37.452 30.998 37.4506 30.9962C37.2527 30.7464 36.061 29.052 35.8073 27.9369C35.7675 27.7531 35.7205 27.582 35.6006 27.5136C35.5332 27.4758 35.4482 27.473 35.3448 27.5076H35.3441C35.3201 27.5146 35.3029 27.5344 35.2919 27.5633C35.2817 27.5947 35.2772 27.6277 35.2789 27.6607C35.2789 28.059 35.7033 29.1554 35.8419 29.3808C36.6088 30.6258 36.9835 30.8304 36.9979 30.8389ZM46.7388 31.3232L46.6933 31.332C46.6947 31.3391 46.705 31.6718 46.705 32.099C46.705 32.722 46.6835 33.5528 46.5755 33.926C46.488 34.2283 46.0869 34.8073 45.7631 35.2704C45.7631 35.2704 45.3863 35.8356 45.3863 35.8363C45.3755 35.8552 45.3701 35.8766 45.3704 35.8984C45.3704 35.9541 45.3986 36.0067 45.4484 36.0395C45.4861 36.0656 45.6227 36.1326 45.8128 35.9058L46.0534 35.6514C46.3744 35.3311 46.7734 34.9335 47.0546 34.0558C47.3629 33.0924 46.7441 31.3398 46.7388 31.3232ZM36.7027 34.4622C36.7316 34.4912 36.7785 34.4993 36.8276 34.4816C36.8653 34.4686 36.8985 34.4448 36.9229 34.4132C36.9474 34.3817 36.9622 34.3437 36.9655 34.3038C36.9771 34.1832 37.0611 34.0213 37.186 33.883C37.2511 33.809 37.2849 33.7127 37.2804 33.6143C37.276 33.5158 37.2335 33.423 37.162 33.3552L37.0022 33.2914C36.8995 33.2949 36.823 33.3771 36.8187 33.3796C36.7652 33.6359 36.7128 33.8925 36.6618 34.1493V34.1486C36.6466 34.1913 36.6328 34.3952 36.7027 34.4622ZM41.8991 37.3035L41.891 37.3L41.8829 37.3035C41.8765 37.3084 41.7425 37.3709 41.7044 37.5018C41.6782 37.59 41.7269 37.6665 41.765 37.7297L41.8098 37.8136L41.8292 37.9812L41.8596 38.2278C41.8671 38.2533 41.8831 38.2755 41.9049 38.2907C41.9267 38.306 41.953 38.3134 41.9795 38.3117C42.0423 38.3096 42.1153 38.2613 42.1393 38.1636C42.1718 38.0313 42.1877 37.8521 42.1877 37.6136C42.187 37.3959 41.9114 37.3063 41.8991 37.3035ZM33.8339 35.2973C33.8159 35.2764 31.9109 33.2092 31.4992 32.6677C31.0798 32.1127 30.8794 32.0708 30.6741 32.1844C30.6589 32.193 30.6461 32.2052 30.6367 32.2199C30.6273 32.2346 30.6216 32.2513 30.6201 32.2687C30.5904 32.4941 31.0663 33.0395 31.483 33.4399C32.0654 34.0005 33.7859 35.3181 33.8035 35.3311L33.8339 35.2973ZM26.3673 29.196C25.9814 28.9564 25.3133 28.8234 25.3065 28.8206L25.2889 28.8612L26.0301 29.42C26.1522 29.5202 26.6916 29.855 26.8658 29.7181C26.8771 29.7096 26.8861 29.6984 26.8922 29.6857C26.8982 29.6729 26.901 29.6588 26.9004 29.6447C26.8948 29.5442 26.7078 29.4098 26.3673 29.196ZM26.1864 26.0333L26.2386 26.0111C26.3053 25.936 26.1518 25.7225 25.9652 25.55C25.7969 25.3948 25.6258 25.2946 25.5362 25.2995L25.4854 25.3214C25.4745 25.3347 25.469 25.3515 25.4699 25.3687C25.4699 25.4661 25.6032 25.6382 25.7581 25.7828C25.9267 25.9381 26.0992 26.039 26.1864 26.0333ZM28.1669 25.7634L28.091 25.768C27.9471 25.8284 27.7185 26.1942 27.5361 26.6574C27.4077 26.9844 27.3107 27.3411 27.3107 27.5559C27.3107 27.6579 27.3325 27.727 27.3812 27.7475L27.456 27.7429C27.6 27.6815 27.8278 27.315 28.0124 26.8532C28.1404 26.5254 28.2364 26.1688 28.2364 25.9536C28.2364 25.8523 28.2155 25.7828 28.1669 25.7634ZM24.6017 23.5043C24.4158 23.5043 24.2676 23.5925 24.2676 23.7039C24.2676 23.8147 24.4158 23.9018 24.6017 23.9018C24.7904 23.9018 24.9372 23.8147 24.9372 23.7039C24.9372 23.5925 24.7904 23.5043 24.6017 23.5043ZM23.416 25.9726L23.4739 25.9674C23.5744 25.918 23.7265 25.6446 23.8411 25.3034C23.9625 24.9404 24.0288 24.5506 23.9113 24.509L23.8545 24.515C23.7522 24.5654 23.6005 24.8381 23.4869 25.1789C23.3634 25.5423 23.301 25.9321 23.416 25.9726ZM23.7265 27.8505C23.8252 27.7182 23.845 27.5693 23.7716 27.5136L23.6862 27.4952C23.615 27.5044 23.53 27.5644 23.4665 27.6529C23.3677 27.7852 23.3479 27.9337 23.421 27.9884L23.5067 28.0085C23.5776 27.9976 23.6637 27.9383 23.7265 27.8505ZM23.6129 29.9072L23.6047 29.9022L23.5677 29.8984C23.4344 29.9294 23.5282 30.5101 23.597 30.8156C23.6947 31.2421 23.827 31.5864 23.9187 31.6435L23.9265 31.6492L23.9628 31.6531C24.0983 31.622 24.0023 31.0385 23.9339 30.7358C23.8369 30.3069 23.706 29.9647 23.6129 29.9072ZM22.2695 30.6868C22.1619 30.6868 22.0751 30.7665 22.0751 30.866C22.0751 30.9606 22.1619 31.0403 22.2695 31.0403C22.3764 31.0403 22.466 30.9606 22.466 30.866C22.4663 30.7665 22.3767 30.6868 22.2695 30.6868ZM25.5701 34.9018C25.5106 34.9015 25.4533 34.9247 25.4109 34.9664C25.3684 35.0081 25.3441 35.0649 25.3432 35.1244C25.3432 35.2443 25.4452 35.3435 25.5701 35.3435C25.6293 35.3445 25.6865 35.322 25.7293 35.281C25.772 35.2399 25.7967 35.1836 25.798 35.1244C25.7971 35.0647 25.7727 35.0078 25.73 34.9661C25.6873 34.9243 25.6298 34.9012 25.5701 34.9018ZM36.7281 40.7741C36.7351 40.7851 36.7556 40.8218 36.7866 40.8182L36.7997 40.8175L36.8237 40.7815L37.0283 40.1578L37.1881 39.7423L37.3246 39.4262C37.3666 39.32 37.3666 39.2491 37.3253 39.2078C37.2597 39.1478 37.1242 39.199 37.1077 39.205C37.0967 39.2138 36.7231 39.8375 36.7231 39.8375C36.6501 39.949 36.6226 40.0993 36.6226 40.2538C36.6226 40.4739 36.6776 40.6937 36.7281 40.7741ZM37.6615 43.8899L37.6689 43.8271C37.6739 43.79 37.7861 42.9226 37.5194 42.5874C37.4921 42.5511 37.4576 42.5209 37.418 42.4987C37.3784 42.4765 37.3345 42.4629 37.2893 42.4586C37.2093 42.4512 37.1542 42.4745 37.1239 42.525C36.9613 42.791 37.5994 43.7929 37.6277 43.8362L37.6615 43.8899ZM39.1555 45.5402C39.1251 45.5398 39.0949 45.5454 39.0666 45.5568C39.0383 45.5681 39.0126 45.5849 38.9908 45.6062C38.9691 45.6275 38.9517 45.6529 38.9398 45.6809C38.9279 45.7089 38.9216 45.739 38.9213 45.7695C38.9213 45.8982 39.0261 45.9981 39.1555 45.9981C39.2163 45.9981 39.2745 45.9739 39.3174 45.931C39.3604 45.8881 39.3845 45.8298 39.3845 45.7691C39.3845 45.7084 39.3604 45.6502 39.3174 45.6072C39.2745 45.5643 39.2163 45.5402 39.1555 45.5402ZM35.638 42.7462C35.5283 42.7462 35.4348 42.8315 35.4348 42.937C35.4348 43.0453 35.5286 43.1286 35.638 43.1286C35.7502 43.1286 35.8405 43.0453 35.8405 42.937C35.8405 42.8315 35.7502 42.7462 35.638 42.7462ZM38.2013 46.1293L38.1766 46.1237C38.0552 46.1237 37.5959 46.5255 37.2043 46.9262C37.1698 46.9629 36.3196 47.835 36.4321 47.9486L36.4384 47.9556L36.466 47.9613C36.5887 47.9613 37.0473 47.558 37.4368 47.1594C37.4735 47.1224 38.3251 46.2535 38.209 46.1356L38.2013 46.1293ZM35.6482 48.4869C35.5773 48.4869 35.4662 48.5532 35.3671 48.6524C35.2485 48.7709 35.1624 48.9349 35.2259 49.0023L35.2887 49.0249C35.3611 49.0249 35.4725 48.96 35.5713 48.8587C35.687 48.7388 35.7759 48.5783 35.71 48.5102L35.6482 48.4869ZM34.5282 50.1009C34.441 50.1009 34.3179 50.1725 34.2103 50.2815C34.0978 50.3944 34.0332 50.5193 34.0332 50.606C34.0332 50.6392 34.042 50.666 34.0628 50.6847L34.1422 50.7151C34.2279 50.7151 34.3546 50.6456 34.4601 50.5358C34.6163 50.376 34.6791 50.2049 34.6082 50.1309L34.5282 50.1009ZM28.6724 41.9718C28.5045 41.9718 28.3679 42.0674 28.3679 42.1881C28.3679 42.308 28.5048 42.4004 28.6724 42.4004C28.8417 42.4004 28.9768 42.308 28.9768 42.1881C28.9772 42.0674 28.8417 41.9718 28.6724 41.9718ZM31.1524 42.1454C31.0332 42.1454 30.9404 42.2096 30.9404 42.2943C30.9404 42.3736 31.0332 42.4389 31.1524 42.4389C31.2674 42.4389 31.3627 42.3733 31.3627 42.2943C31.3627 42.2113 31.2674 42.1454 31.1524 42.1454ZM34.1793 43.1582L34.1976 43.13C34.2318 42.9875 33.5178 42.7649 33.1361 42.6682C32.6778 42.5511 32.1331 42.4572 32.0128 42.5296L32.0044 42.5352L31.985 42.5648C31.9504 42.7088 32.6641 42.9285 33.0465 43.0284C33.5044 43.1434 34.0491 43.2344 34.1711 43.1628L34.1793 43.1582Z" fill="white"/>
</g>
<defs>
<clipPath id="clip0_1_2426">
<rect width="68" height="68" fill="white" transform="translate(0.85907)"/>
</clipPath>
</defs>
</svg>
