<svg width="126" height="64" viewBox="0 0 126 64" fill="none" xmlns="http://www.w3.org/2000/svg">
<g clip-path="url(#clip0_1_2339)">
<path d="M79.4633 56.054C78.7103 59.1765 76.3549 60.4917 72.412 60.4917C69.7359 60.4917 67.3819 59.9544 66.171 58.7402C64.8579 57.4524 64.6602 55.6757 64.6602 53.7771V44.4662H67.6563V53.6178C67.6563 55.6852 67.8263 56.9183 68.6342 57.8264C69.5514 58.8912 71.1359 59.2027 72.4722 59.2027C75.2986 59.2027 77.1815 58.2872 77.6927 55.8002C77.8108 55.2273 77.9026 54.5253 77.9026 53.4417V44.466H79.7468V52.8145C79.747 54.3734 79.6568 55.2538 79.4633 56.054Z" fill="#01422D"/>
<path d="M79.4633 56.054C78.7103 59.1765 76.3549 60.4917 72.412 60.4917C69.7359 60.4917 67.3819 59.9544 66.171 58.7402C64.8579 57.4524 64.6602 55.6757 64.6602 53.7771V44.4662H67.6563V53.6178C67.6563 55.6852 67.8263 56.9183 68.6342 57.8264C69.5514 58.8912 71.1359 59.2027 72.4722 59.2027C75.2986 59.2027 77.1815 58.2872 77.6927 55.8002C77.8108 55.2273 77.9026 54.5253 77.9026 53.4417V44.466H79.7468V52.8145C79.747 54.3734 79.6568 55.2538 79.4633 56.054Z" stroke="#01422D" stroke-width="0.0400436"/>
<path d="M94.6444 47.4386L91.1741 54.6749H97.9435L94.6444 47.4386ZM100.414 60.1444L98.4384 55.7409H90.6618L88.5456 60.1444H86.644L94.4649 44.4657H96.3284L103.981 60.1444H100.414Z" fill="#01422D"/>
<path d="M94.6444 47.4386L91.1741 54.6749H97.9435L94.6444 47.4386ZM100.414 60.1444L98.4384 55.7409H90.6618L88.5456 60.1444H86.644L94.4649 44.4657H96.3284L103.981 60.1444H100.414Z" stroke="#01422D" stroke-width="0.0400436"/>
<path d="M23.2681 47.4386L19.8006 54.6749H26.5715L23.2681 47.4386ZM29.0406 60.1444L27.0679 55.7409H19.2896L17.1705 60.1444H15.2698L23.0909 44.4657H24.953L32.6088 60.1444H29.0406Z" fill="#01422D"/>
<path d="M23.2681 47.4386L19.8006 54.6749H26.5715L23.2681 47.4386ZM29.0406 60.1444L27.0679 55.7409H19.2896L17.1705 60.1444H15.2698L23.0909 44.4657H24.953L32.6088 60.1444H29.0406Z" stroke="#01422D" stroke-width="0.0400436"/>
<path d="M48.9299 60.4904C43.7523 60.4904 38.8316 58.7092 38.8316 52.6883C38.8316 50.7316 39.7 48.7262 41.0115 47.2906C43.0672 45.0591 46.1888 44.1692 49.1366 44.1692C50.919 44.1692 52.9838 44.5735 54.5903 45.3903V47.2524C53.1343 46.1666 51.2174 45.4179 49.3481 45.4179C45.0889 45.4179 42.1516 48.0822 42.1516 52.4904C42.1516 56.4803 44.7436 59.2113 48.7307 59.2113C49.7454 59.2113 51.1497 59.0308 52.1156 58.6605V52.9365H55.1117V59.328C53.3541 60.1194 50.8597 60.4904 48.9299 60.4904Z" fill="#01422D"/>
<path d="M48.9299 60.4904C43.7523 60.4904 38.8316 58.7092 38.8316 52.6883C38.8316 50.7316 39.7 48.7262 41.0115 47.2906C43.0672 45.0591 46.1888 44.1692 49.1366 44.1692C50.919 44.1692 52.9838 44.5735 54.5903 45.3903V47.2524C53.1343 46.1666 51.2174 45.4179 49.3481 45.4179C45.0889 45.4179 42.1516 48.0822 42.1516 52.4904C42.1516 56.4803 44.7436 59.2113 48.7307 59.2113C49.7454 59.2113 51.1497 59.0308 52.1156 58.6605V52.9365H55.1117V59.328C53.3541 60.1194 50.8597 60.4904 48.9299 60.4904Z" stroke="#01422D" stroke-width="0.0400436"/>
<path d="M116.809 45.5543H114.606V53.0549H116.533C118.149 53.0549 119.115 52.7533 119.868 52.1466C120.663 51.5084 121.138 50.5296 121.138 49.2066C121.138 46.557 119.212 45.5543 116.809 45.5543ZM121.901 60.1444L117.747 54.1238H114.606V60.1444H111.608V44.466H117.279C119.58 44.466 121.882 44.7997 123.164 46.216C123.834 46.956 124.199 47.9854 124.199 49.3098C124.199 51.733 122.372 53.2009 120.745 53.7783L125.352 60.1445L121.901 60.1444Z" fill="#01422D"/>
<path d="M116.809 45.5543H114.606V53.0549H116.533C118.149 53.0549 119.115 52.7533 119.868 52.1466C120.663 51.5084 121.138 50.5296 121.138 49.2066C121.138 46.557 119.212 45.5543 116.809 45.5543ZM121.901 60.1444L117.747 54.1238H114.606V60.1444H111.608V44.466H117.279C119.58 44.466 121.882 44.7997 123.164 46.216C123.834 46.956 124.199 47.9854 124.199 49.3098C124.199 51.733 122.372 53.2009 120.745 53.7783L125.352 60.1445L121.901 60.1444Z" stroke="#01422D" stroke-width="0.0400436"/>
<path d="M2.60638 63.3674C1.81507 63.7394 0.948106 63.9858 0.0560303 63.9858C2.11019 62.5005 2.97856 60.9897 3.2754 58.488C3.44963 57.0999 3.44963 55.7116 3.44963 54.3249V44.4662H6.4475V56.332C6.44781 59.2292 5.33268 62.0307 2.60638 63.3674Z" fill="#01422D"/>
<path d="M2.60638 63.3674C1.81507 63.7394 0.948106 63.9858 0.0560303 63.9858C2.11019 62.5005 2.97856 60.9897 3.2754 58.488C3.44963 57.0999 3.44963 55.7116 3.44963 54.3249V44.4662H6.4475V56.332C6.44781 59.2292 5.33268 62.0307 2.60638 63.3674Z" stroke="#01422D" stroke-width="0.0400436"/>
<path d="M21.4531 2.61147C22.5295 2.64392 23.454 2.24226 23.4572 2.1847C23.4601 2.12714 22.2653 2.01343 22.2653 2.01343C21.171 2.05913 20.7249 2.46516 20.719 2.51258C20.7117 2.55813 21.0041 2.5965 21.4531 2.61147Z" fill="#241F20"/>
<path d="M14.1357 4.46477C14.1357 4.46477 14.2007 4.23578 14.2288 4.18571C14.2569 4.13392 14.4135 3.60529 15.1694 3.54773C15.1694 3.54773 15.5503 3.51373 15.9891 3.64959C15.9891 3.64959 15.7366 4.30083 14.703 4.40861C14.7028 4.40861 14.2965 4.46929 14.1357 4.46477ZM115.343 33.8245C115.086 34.459 113.986 35.2673 112.694 35.6996C111.329 36.1557 108.48 36.1675 107.023 35.6834C107.023 35.6834 106.716 35.3494 105.691 35.0483C103.307 34.3472 102.537 33.8583 101.327 32.7315C100.472 31.9357 99.531 30.9374 98.6188 29.9965C98.2126 29.5772 97.2246 28.5876 95.488 28.2864C93.6763 27.9734 89.2295 27.6336 87.5919 27.0548C86.4902 26.6636 85.1845 25.9208 83.5457 23.4693C82.76 22.2924 82.1648 21.9497 81.0306 21.2261C81.0306 21.2261 81.8961 21.9098 82.3512 22.7398C83.0082 23.9449 83.3228 24.8119 83.6815 25.4525C84.043 26.098 84.4613 26.6726 85.114 27.1967C85.9232 27.8465 86.4461 27.9897 87.3601 28.1743C88.2343 28.3516 91.2189 28.4831 93.7797 28.5834C96.2974 28.6809 97.374 29.4607 98.1611 30.121C98.8847 30.7321 100.038 32.478 100.847 33.1924C101.93 34.1436 101.958 34.1569 103.215 34.9454C103.85 35.3439 104.409 35.6051 104.925 35.7902C106.078 36.4678 105.601 37.6508 105.601 37.6508C105.271 38.5933 104.08 38.931 102.691 38.7344C100.591 38.5488 98.783 36.7971 97.2561 35.5403C96.4158 34.8476 96.1188 34.5019 94.4988 33.3765C92.0341 31.6668 86.2423 31.8084 86.2423 31.8084L81.998 31.7817C73.731 31.9029 70.7063 25.2516 69.881 23.8558C69.596 23.3701 69.3318 22.9787 69.0805 22.6582C68.695 22.1383 66.6204 19.4301 64.3977 18.4628C64.3977 18.4628 66.5315 20.3087 66.3175 21.3189C65.8597 21.313 65.3398 21.3425 64.7194 21.3602C56.3906 21.604 54.6598 21.1431 53.3441 20.8803C52.0267 20.6159 49.819 19.9603 47.6735 18.9723C47.6735 18.9723 47.9127 16.9197 47.0606 15.214C47.0606 15.214 53.9351 17.6417 59.4047 16.9537C59.4047 16.9537 50.5768 16.5224 45.0701 12.1337C45.0701 12.1337 46.4289 16.7723 45.3551 18.72C45.3551 18.72 43.908 22.2568 36.487 19.8969C36.487 19.8969 33.0741 18.5694 30.4203 18.5694C30.4203 18.5694 28.4223 18.652 28.1833 19.6932C28.1833 19.6932 28.0531 20.1908 28.5745 20.4271C28.5745 20.4271 29.1534 20.5926 28.8801 21.0222C28.4298 21.7326 27.8048 22.2819 27.1847 22.5919C25.1143 22.49 25.2678 20.7903 25.2678 20.7903C25.3048 20.1877 25.4998 19.7669 25.6843 19.3519C26.9852 16.4413 31.5573 16.0189 31.5573 16.0189C36.4218 15.5331 41.5211 16.7011 41.5211 16.7011C37.8734 15.8312 36.633 15.1932 35.5903 14.3235C34.1858 13.1509 32.8732 9.21107 32.8732 9.21107C32.3135 11.1426 33.0062 13.0949 33.4743 14.0976C32.783 12.9945 31.7981 12.0628 30.9195 11.3582C28.6733 9.55782 25.4124 8.97615 25.4124 8.97615C24.4701 8.81502 24.0965 7.83903 24.0965 7.83903C22.8884 5.615 21.5211 5.51018 21.5211 5.51018C22.1943 6.43314 22.1235 7.69583 22.1235 7.69583C22.1235 10.0233 19.1303 10.7957 19.1303 10.7957C16.8913 13.0211 16.5031 12.9737 16.0658 13.0063C15.6286 13.0374 15.3054 12.5839 15.3054 12.5839C15.1635 12.3712 15.3998 12.1807 15.3998 12.1807C15.7777 11.9444 16.1352 11.6358 16.1352 11.6358C18.3179 9.88289 18.6251 8.9866 18.4479 7.76369C18.0919 5.32097 16.122 5.50129 16.122 5.50129C15.1959 5.50129 14.7383 6.20711 14.7383 6.20711C14.3809 6.63248 13.5996 7.96288 13.5996 7.96288C12.9114 9.10016 12.2957 8.9331 12.2957 8.9331C11.5367 8.98192 10.9873 8.30838 10.9873 8.30838C10.9577 8.28202 10.9355 8.25082 10.9105 8.22431C10.3481 7.62018 10.8322 6.8908 10.8322 6.8908C11.7585 5.25452 13.3561 5.0937 13.5732 5.08028C13.7916 5.06702 14.5286 5.01227 14.5286 5.01227C16.3329 4.88093 17.5115 3.15606 17.5115 3.15606C16.7511 2.7884 15.3926 2.98338 15.3926 2.98338C14.0694 3.07198 13.7208 4.47631 13.718 4.47631C12.5719 4.64477 12.6295 3.76455 12.8747 3.53276C13.0681 3.30533 13.7502 2.20065 18.1378 1.54208C18.1378 1.54208 20.4652 1.08131 24.5987 1.53475C24.7507 1.55098 24.8983 1.68403 24.7035 1.91426C24.1836 2.52432 22.5578 3.87686 19.9497 3.22266C19.9497 3.22266 19.9026 4.26526 22.7468 4.78656C22.7468 4.78656 25.312 5.33282 29.5 8.69694C29.5 8.69694 27.4696 4.94161 23.9593 3.797C23.9593 3.797 23.6993 3.63165 23.9356 3.39393C23.9356 3.39393 25.5968 1.90522 28.5282 2.06183C28.5282 2.06183 38.2217 2.55957 43.671 8.24646C43.671 8.24646 43.4822 7.29838 42.6522 5.92354C42.6522 5.92354 42.4853 5.7596 42.5812 5.64011C42.5812 5.64011 42.6522 5.40223 43.6002 5.59269C43.6002 5.59269 47.0603 6.16141 55.0922 9.1C55.0922 9.1 61.1131 11.2103 64.3961 12.5719C69.3314 14.6172 81.696 19.6324 89.5055 23.9549C90.8997 24.7258 96.7078 27.5951 96.7078 27.5951C101.049 30.29 105.044 32.2409 105.044 32.2409C108.978 34.0589 111.839 33.226 111.839 33.226C112.753 32.8817 114.499 31.934 115.179 32.607C115.526 32.9516 115.547 33.4002 115.343 33.8245ZM116.322 32.2988C115.808 31.1013 114.152 31.395 114.152 31.395C113.395 31.4409 112.44 32.2336 111.112 32.5067C108.256 33.096 106.072 32.1246 106.072 32.1246C101.863 30.2403 99.0144 28.1875 97.161 27.1271C95.3079 26.0669 88.4483 22.4635 81.5871 19.0153C81.5871 19.0153 73.7277 14.9867 62.0995 10.1797C62.0995 10.1797 39.6644 0.000333101 23.528 0.000333101C23.528 0.000333101 15.1695 -0.104644 12.3387 3.11191C12.3387 3.11191 11.8396 3.52543 12.0831 4.03487C12.0831 4.03487 12.1171 4.17526 12.0123 4.26526C12.0123 4.26526 10.7674 5.0834 9.75408 6.25734C9.75408 6.25734 9.21094 6.81265 9.6477 7.64108C9.6477 7.64108 10.1882 8.58323 10.5295 8.98801C10.8736 9.39107 11.5616 10.0971 12.613 9.99224C13.0781 9.94497 13.0914 9.82845 13.0914 9.82845C13.5743 10.3157 14.4175 10.3452 14.4175 10.3452C14.3333 10.0456 14.0114 9.45175 13.9833 9.10624C13.9522 8.7194 14.1028 8.36048 14.1028 8.36048C14.2786 7.93511 14.608 7.40788 14.9434 7.14505C15.2416 6.9117 15.9813 6.66961 16.5336 7.05645C16.9769 7.3667 17.4477 8.36048 16.9163 9.66888C16.9163 9.66888 16.3182 10.7026 15.7659 10.8177L15.6125 10.825C15.2964 10.8191 14.5921 10.4309 14.5921 10.4309C14.5921 10.4309 14.5626 10.5151 14.6408 10.8711C14.6865 11.0732 14.7515 11.2978 14.8063 11.4705L14.6599 11.5886C14.6599 11.5886 14.2154 11.9461 14.4119 12.4615C14.4119 12.4615 14.8446 14.0889 16.0526 14.0889C17.1204 14.1244 18.0092 13.1113 18.0092 13.1113C20.2999 10.6407 23.528 10.3084 23.528 10.3084C27.106 10.0646 32.219 13.7285 33.6114 14.786C28.3128 14.7284 26.1744 16.7618 26.1744 16.7618C23.19 19.0849 24.3519 21.8878 24.3519 21.8878C24.5692 22.4975 25.1805 22.9421 25.5704 23.1133C26.1328 23.3584 26.5953 23.3687 27.0309 23.32C27.3455 23.286 27.6907 23.1693 27.8665 23.0483C28.2727 22.8089 28.9977 22.335 29.3478 21.8313C29.5813 21.5788 29.8159 20.9601 29.6608 20.3708C29.6608 20.3708 29.5666 19.8968 29.9932 19.8007C29.9932 19.8007 31.3974 19.4449 34.233 20.6973C34.233 20.6973 37.3136 22.493 41.3096 22.8489C41.3096 22.8489 45.8537 23.3097 46.9511 20.8494C46.9511 20.8494 49.5618 21.9171 53.3823 22.3543C53.3823 22.3543 57.1051 22.7396 63.1438 22.2849C64.3323 22.1948 65.7279 22.2938 65.7279 22.2938C67.661 22.5256 68.8897 23.5314 69.374 24.3185C71.3532 27.5318 73.7143 33.8362 83.3828 33.5868L87.7585 33.4667C90.4184 33.4667 92.5844 33.489 94.7111 34.6259C95.6398 35.1237 98.0931 37.5586 99.6035 38.3811C104.077 41.3955 106.661 39.9942 106.661 39.9942C108.183 39.1068 108.064 37.5277 107.693 36.6436C107.235 36.4984 113.235 37.5234 115.793 34.1641C116.399 33.4152 116.505 32.7287 116.322 32.2988Z" fill="#241F20"/>
</g>
<defs>
<clipPath id="clip0_1_2339">
<rect width="125.392" height="64" fill="white"/>
</clipPath>
</defs>
</svg>
