<svg width="150" height="62" viewBox="0 0 150 62" fill="none" xmlns="http://www.w3.org/2000/svg">
<g clip-path="url(#clip0_1_2314)">
<path d="M142.213 52.3933H138.999L139.226 51.9386C139.75 50.8828 140.301 50.5438 141.492 50.5438H143.13L142.213 52.3933Z" fill="#231F20"/>
<path d="M138.745 59.5411L141.696 53.6033H138.483L135.936 58.7435C135.827 59.0057 135.636 59.2261 135.393 59.3724C135.15 59.5187 134.866 59.5833 134.583 59.5566H126.773L129.928 53.2025C130.375 52.3086 130.541 52.2431 131.581 52.2431H132.514C133.423 52.2431 133.855 51.9964 134.213 51.272L134.649 50.3935H131.319L132.753 47.5112H130.653C129.74 47.5112 129.308 47.754 128.954 48.4746L127.998 50.4012H126.249L125.331 52.2508H127.081L123.856 58.7435C123.747 59.0061 123.557 59.2269 123.314 59.3732C123.07 59.5196 122.786 59.5839 122.503 59.5566H115.567L119.255 52.8133H116.708C116.466 52.8018 116.225 52.855 116.01 52.9675C115.796 53.0799 115.615 53.2475 115.486 53.453C115.486 52.9675 115.309 52.8133 114.843 52.8133H113.078C110.18 52.8133 108.558 53.7112 107.298 56.0116L105.795 58.7551C105.681 59.0116 105.489 59.2265 105.248 59.3706C105.007 59.5147 104.727 59.581 104.447 59.5604H99.9769C98.3586 59.5604 97.7228 59.3292 97.5455 58.4776C97.3529 57.5644 97.7613 56.8207 99.9307 55.395L101.156 54.582C101.726 54.1967 101.958 54.0079 101.88 53.5956C101.803 53.1833 101.591 52.8249 99.819 52.8249H91.4188C90.5287 52.8249 90.1164 53.0599 89.7118 53.7959L86.9953 58.7435C86.8799 58.9993 86.6885 59.2134 86.4473 59.3568C86.206 59.5002 85.9265 59.5659 85.6466 59.545H72.1602L72.7343 57.8534H79.4698C80.7992 57.8534 81.3502 57.5105 81.828 56.3815L82.4715 54.8671C82.5825 54.6632 82.6425 54.4355 82.6466 54.2033C82.6506 53.9712 82.5985 53.7416 82.4947 53.5339C82.1787 53.0561 81.3618 52.8018 80.1403 52.8018H73.6668C71.5976 52.8018 70.6536 53.3798 69.9292 55.0868L68.5844 58.2503C68.1258 59.3292 67.3976 59.5488 66.3726 59.5488H61.7487L62.0415 59.1096C62.9586 57.734 62.7813 56.2042 61.5599 54.9095C60.3384 53.6148 58.7662 53.191 57.3559 52.8018H53.757L51.2832 57.3255C50.2505 59.2136 49.1292 59.545 47.1486 59.545H42.7944L46.4859 52.8095H43.9312C43.6891 52.798 43.4483 52.8512 43.2336 52.9636C43.019 53.076 42.8381 53.2436 42.7097 53.4491C42.7097 52.9636 42.5324 52.8095 42.0662 52.8095H40.3206C37.423 52.8095 35.8046 53.7073 34.5407 56.0077L33.038 58.7512C32.9244 59.0084 32.7334 59.2238 32.4917 59.3675C32.25 59.5111 31.9695 59.5759 31.6893 59.5527H25.0386L30.6644 49.2645C30.739 49.1267 30.7767 48.9719 30.7736 48.8153C30.7706 48.6586 30.7269 48.5054 30.6469 48.3707C30.567 48.2359 30.4534 48.1242 30.3173 48.0465C30.1812 47.9688 30.0273 47.9278 29.8706 47.9274H3.52194C1.73402 47.9274 0.847772 48.3821 0.00390625 49.8193H11.3942L5.04398 61.4408H8.33852L14.6887 49.8348H19.251L12.8854 61.4408H16.1645L22.5108 49.8386H27.0731L21.825 59.4063C21.5861 59.8456 21.3549 60.4544 21.6053 60.8821C21.8173 61.2404 22.349 61.4292 23.1466 61.4292H31.7895C31.9619 61.4373 32.1334 61.3995 32.2864 61.3196C32.4394 61.2397 32.5684 61.1207 32.6604 60.9746C32.6604 61.3214 32.9532 61.4292 33.2846 61.4292H48.1466C51.0944 61.4292 52.6627 60.5661 53.9265 58.2503L55.884 54.6706L56.0844 54.7091C58.4272 55.1561 59.614 56.0231 59.7141 57.3641C59.7378 57.6263 59.7057 57.8906 59.62 58.1397C59.5344 58.3887 59.3971 58.6168 59.2171 58.809C58.9772 59.0525 58.6901 59.2445 58.3733 59.373C58.0566 59.5016 57.7169 59.564 57.3752 59.5566C55.8763 59.5566 55.279 60.1423 54.6779 61.4292H67.2935C67.4659 61.4373 67.6374 61.3995 67.7904 61.3196C67.9434 61.2397 68.0724 61.1207 68.1644 60.9746C68.1644 61.3214 68.4572 61.4292 68.7886 61.4292H87.3999C88.656 61.4292 89.1994 61.0979 89.8274 59.9534L92.0084 55.9692C92.5055 55.0598 93.122 54.7053 94.2086 54.7053H97.4877C96.9026 55.1037 96.3533 55.5523 95.8462 56.0462C95.1083 56.7536 94.6373 57.6942 94.513 58.7088C94.4621 59.0584 94.4862 59.4149 94.5839 59.7544C94.6816 60.094 94.8505 60.4088 95.0794 60.6779C95.3189 60.9255 95.6085 61.1192 95.9287 61.2461C96.249 61.373 96.5926 61.4302 96.9367 61.4138H104.589C104.762 61.4219 104.933 61.3841 105.086 61.3042C105.239 61.2243 105.368 61.1052 105.46 60.9591C105.46 61.3059 105.753 61.4138 106.084 61.4138H122.183C122.356 61.4219 122.527 61.3841 122.68 61.3042C122.833 61.2243 122.962 61.1052 123.054 60.9591C123.054 61.3059 123.347 61.4138 123.678 61.4138H147.488C148.921 61.4138 149.649 60.9476 149.919 59.8725L150.004 59.5373L138.745 59.5411ZM73.5204 55.5453C73.8441 54.6167 74.5955 54.5396 75.2736 54.5396H78.942L78.6876 55.2833C78.3909 56.158 77.7166 56.2312 77.1078 56.2312H73.2815L73.5204 55.5453ZM40.155 58.2773C39.6463 59.2059 39.0529 59.5488 37.9547 59.5488H36.1399L38.1012 55.9615C38.5982 55.0521 39.2148 54.6976 40.2975 54.6976H42.1086L40.155 58.2773ZM112.928 58.2773C112.419 59.2059 111.826 59.5488 110.728 59.5488H108.909L110.87 55.9615C111.367 55.0521 111.984 54.6976 113.066 54.6976H114.878L112.928 58.2773Z" fill="#231F20"/>
<path d="M72.0446 40.7218V39.0919H80.4871V40.7411H72.0446V40.7218Z" fill="#231F20"/>
<path d="M76.2639 44.1358H78.9265V41.5734H73.6051V44.1358H76.2677" fill="#231F20"/>
<path d="M73.6051 38.221C73.6051 36.8069 73.2198 35.4274 72.0985 34.4872H80.4331C79.3041 35.4274 78.9342 36.7992 78.9265 38.221H73.6051Z" fill="#231F20"/>
<path d="M66.5536 31.7706V30.553H85.978V31.7706H66.5536Z" fill="#231F20"/>
<path d="M67.4245 36.1557C68.6091 35.889 69.702 35.3133 70.5919 34.4872H67.2164L67.4245 36.1557Z" fill="#231F20"/>
<path d="M85.1072 36.1557C83.9192 35.8841 82.8247 35.3016 81.9359 34.4679H85.3114L85.1072 36.1557Z" fill="#231F20"/>
<path d="M66.2261 27.8827C65.1626 21.5787 63.1088 15.0128 60.8315 10.6971C63.2591 12.0149 65.8691 14.106 68.6614 16.9702C67.5199 16.6611 66.3621 16.4154 65.1934 16.2343C66.7768 20.0455 68.1658 23.9345 69.355 27.8865L66.2261 27.8827Z" fill="#231F20"/>
<path d="M86.3055 27.8827C87.369 21.5787 89.4228 15.0128 91.7001 10.6971C89.2725 12.0149 86.6626 14.106 83.8702 16.9702C85.0117 16.6611 86.1695 16.4154 87.3382 16.2343C85.7548 20.0455 84.3658 23.9345 83.1766 27.8865L86.3055 27.8827Z" fill="#231F20"/>
<path d="M65.5248 29.9172V28.688H87.0068V29.9211H65.5248V29.9172Z" fill="#231F20"/>
<path d="M72.6456 10.0267C74.3026 7.17139 75.7283 3.93079 76.2639 0.57074C76.8033 3.93079 78.2252 7.17524 79.8821 10.0267L77.9555 9.17124C77.3543 8.90536 77.1 9.06334 77.1193 9.67986C77.3197 15.7411 78.2098 22.6307 81.3579 27.8788H77.6318C77.0662 26.5359 76.5975 25.1542 76.2292 23.7443C75.8609 25.1542 75.3922 26.5359 74.8266 27.8788H71.1467C74.3103 22.6307 75.2004 15.7411 75.3853 9.67986C75.4046 9.05949 75.1503 8.90921 74.5492 9.17124L72.6456 10.0267Z" fill="#231F20"/>
<path d="M65.5248 33.6356V32.4026H87.0068V33.6356H65.5248Z" fill="#231F20"/>
</g>
<defs>
<clipPath id="clip0_1_2314">
<rect width="150" height="60.8585" fill="white" transform="translate(0 0.57074)"/>
</clipPath>
</defs>
</svg>
