<svg width="94" height="94" viewBox="0 0 94 94" fill="none" xmlns="http://www.w3.org/2000/svg">
<g clip-path="url(#clip0_1_2328)">
<path fill-rule="evenodd" clip-rule="evenodd" d="M0 0H94V94H0V0Z" fill="white"/>
<path fill-rule="evenodd" clip-rule="evenodd" d="M4.35143 70.1045L4.32217 70.5732H4.76058C5.08243 70.5732 5.49158 70.6019 5.49158 71.0111L5.34528 78.9356C5.34528 79.2282 5.19898 79.5501 4.61428 79.5501H4.17635L4.14709 80.0177H7.10038V79.5501H6.60345C6.22308 79.5501 5.96023 79.433 5.96023 78.9356L6.10604 71.3329L9.26463 79.5203H9.586L12.7734 71.2452L12.9197 78.9356C12.9197 79.1985 12.6563 79.5501 12.2472 79.5501H11.6332V80.0177H15.3468V79.5501H14.9079C14.5865 79.5501 14.2061 79.374 14.2061 78.9644L14.0598 71.1286C14.0598 70.8658 14.3524 70.5732 14.6445 70.5732H15.2V70.1045H12.5393L9.79033 77.2985L7.04186 70.1045H4.35143ZM16.8668 76.45H21.265C21.265 74.3716 20.3468 72.6867 18.3288 72.6867C16.4577 72.6867 15.3926 74.3716 15.3926 76.45C15.3926 78.5284 16.2816 80.2133 18.3288 80.2133C20.317 80.2133 20.9022 79.2282 21.207 77.6521L20.5218 77.6492C20.4633 78.2339 20.0834 79.5501 18.6214 79.5788C16.9551 79.612 16.8376 77.4736 16.8668 76.45ZM24.8499 80.0177V79.6378H24.5573C24.2939 79.6378 23.8263 79.5501 23.8263 79.0234V75.1928C23.8263 73.9936 24.4402 73.5557 25.0542 73.5557C25.2878 73.5557 25.4346 73.6727 25.376 74.1112C25.3175 74.5501 25.6979 74.8426 26.0193 74.8129C26.3406 74.7832 26.7503 74.7251 26.6918 73.9063C26.6332 73.088 26.1656 72.7081 25.3468 72.7081C24.7036 72.7081 24.1769 73.1168 24.0306 73.3216C23.8604 73.5596 23.6507 73.4684 23.6214 73.2056C23.5922 72.9417 23.4751 72.6789 23.183 72.7667C22.5393 72.9715 21.9546 73.0593 21.4577 73.0885V73.3811C22.6861 73.3221 22.5686 73.9366 22.5686 74.2287V79.0244C22.5686 79.551 22.1009 79.6388 21.8376 79.6388H21.4284V80.0187H24.8499V80.0177ZM31.3363 73.1524C30.9052 72.8379 30.3634 72.6579 29.7036 72.6579C27.8324 72.6579 26.7673 74.3428 26.7673 76.4212C26.7673 78.4996 27.6564 80.1738 29.7036 80.1845C31.5167 80.1933 31.9551 79.1692 32.2604 77.594L31.5747 77.5911C31.5162 78.1758 31.3114 79.5208 29.9957 79.5506C28.3293 79.5866 28.2118 77.4448 28.2411 76.4217C28.2411 75.778 28.3288 73.2051 29.7323 73.2051C30.931 73.2051 31.6625 74.0526 31.6625 75.0177H32.0424V72.5614H31.721L31.3363 73.1524ZM45.1435 78.4967V70.3386C45.1435 70.0026 44.9679 69.7241 44.6758 69.8119C44.0326 70.0167 43.4474 70.1045 42.9505 70.1338V70.4264C43.7985 70.3683 43.8863 70.6312 43.8863 70.9238V73.4382C43.5059 73.0875 43.0675 72.7364 42.278 72.7364C41.2836 72.7364 39.4417 73.526 39.4417 76.3042C39.4417 79.9587 41.5762 80.1933 42.2194 80.1933C42.8627 80.1933 43.7107 79.6676 43.8863 79.3896C43.9009 79.3306 43.9882 79.258 44.0179 79.3896C44.0472 79.6525 44.2369 80.048 44.5295 79.9592C45.0891 79.781 45.6686 79.6732 46.2549 79.6383V79.3457C45.0264 79.4033 45.1435 78.7888 45.1435 78.4967ZM62.22 75.8365V75.163H58.3606V75.8365H62.22ZM53.0675 77.5316V80.0177H53.3894L53.682 79.374C53.9746 79.6378 54.5876 80.0758 55.3776 80.0758C56.1676 80.0758 57.2785 79.6378 57.7169 78.8186C58.1558 77.9993 57.951 76.6543 56.9566 76.2452C56.0861 75.8872 55.322 75.4576 54.7343 75.163C54.2667 74.9295 54.1535 74.4618 54.2077 74.1697C54.2954 73.702 54.7051 73.2046 55.6409 73.1753C56.5762 73.1456 57.0439 73.9356 57.161 74.8422H57.4828V72.5028H57.1902L56.8684 73.0583C56.2539 72.6487 55.9911 72.5906 55.4356 72.5906C54.8792 72.5906 53.9438 72.8832 53.4172 73.702C52.8915 74.5203 53.0373 75.8068 54.2945 76.3334C55.5517 76.8591 56.1373 77.181 56.488 77.3566C56.8386 77.5321 57.0434 78.2339 56.8098 78.6435C56.5758 79.0531 56.1373 79.5208 55.4356 79.5208C54.7339 79.5208 53.622 79.0234 53.3591 77.5321H53.0675V77.5316ZM63.5362 78.526V71.3032C63.5362 70.5727 62.7759 70.4839 62.337 70.4839V70.104H66.7231C68.7698 70.104 69.0916 71.5373 69.0916 72.3853C69.0916 73.2334 68.3899 74.4901 67.6877 74.6666C69.0916 74.9592 69.5593 76.0994 69.5593 77.064C69.5013 79.9299 67.0152 80.0177 65.933 80.0177H62.3365V79.6081C63.5069 79.6081 63.5362 78.9356 63.5362 78.526ZM81.431 74.6954V79.0234C81.431 79.5501 80.9633 79.6378 80.7004 79.6378H80.5254V80.0177H83.7123V79.6378H83.4197C83.1568 79.6378 82.6891 79.5501 82.6891 79.0234V74.7251C82.6594 72.7657 80.9053 72.7077 80.2908 72.7077C79.6481 72.7077 78.9458 73.1163 78.7991 73.3211C78.6293 73.5591 78.4192 73.4679 78.3904 73.2051C78.3606 72.9412 78.2436 72.6784 77.9515 72.7662C77.3088 72.971 76.7236 73.0588 76.2266 73.088V73.3806C77.4546 73.3216 77.337 73.9361 77.337 74.2282V79.0239C77.337 79.5506 76.8694 79.6383 76.6065 79.6383H76.1969V80.0182H79.6183V79.6383H79.3257C79.0629 79.6383 78.5942 79.5506 78.5942 79.0239V75.1933C78.5942 74.5505 78.8283 73.5264 80.0275 73.4387C81.2262 73.3504 81.431 74.1399 81.431 74.6954ZM84.3555 74.8422L84.8822 72.8535H89.8529L85.5839 79.6086H87.8642C88.3909 79.6086 88.8005 79.4038 89.356 78.0588H89.5901L89.1224 80.0182H84.0341L88.2734 73.2631H86.3734C85.9058 73.2631 85.3791 73.2631 84.6476 74.8422H84.3555ZM34.4115 76.45H38.8097C38.8097 74.3716 37.8909 72.6867 35.8735 72.6867C34.0023 72.6867 32.9373 74.3716 32.9373 76.45C32.9373 78.5284 33.8268 80.2133 35.8735 80.2133C37.8622 80.2133 38.4469 79.2282 38.7522 77.6521L38.0665 77.6492C38.008 78.2339 37.6281 79.5501 36.1661 79.5788C34.4997 79.612 34.3822 77.4736 34.4115 76.45ZM47.7452 76.45H52.1439C52.1439 74.3716 51.2256 72.6867 49.2081 72.6867C47.3365 72.6867 46.2714 74.3716 46.2714 76.45C46.2714 78.5284 47.1609 80.2133 49.2081 80.2133C51.1959 80.2133 51.7806 79.2282 52.0854 77.6521L51.4007 77.6492C51.3426 78.2339 50.9628 79.5501 49.4998 79.5788C47.8339 79.612 47.7169 77.4736 47.7452 76.45ZM71.6655 76.45H76.0633C76.0633 74.3716 75.145 72.6867 73.127 72.6867C71.2564 72.6867 70.1913 74.3716 70.1913 76.45C70.1913 78.5284 71.0798 80.2133 73.127 80.2133C75.1157 80.2133 75.7004 79.2282 76.0052 77.6521L75.3205 77.6492C75.2625 78.2339 74.8817 79.5501 73.4196 79.5788C71.7533 79.612 71.6358 77.4736 71.6655 76.45Z" fill="black"/>
<path fill-rule="evenodd" clip-rule="evenodd" d="M16.896 75.8648C16.896 75.222 16.8375 73.3206 18.3873 73.3206C19.6153 73.3206 19.7908 74.8997 19.7908 75.8648H16.896ZM43.8858 77.6194C43.8565 79.2282 43.0084 79.7251 42.3067 79.7251C40.7276 79.6954 40.8447 77.298 40.8447 76.2744C40.8447 75.2513 40.9032 73.2334 42.336 73.4084C43.7687 73.5845 43.8858 75.105 43.8858 76.0116V77.6194ZM64.7933 79.5501H66.2841C67.3955 79.5501 68.2728 78.6727 68.2728 77.2098C68.2728 75.7487 67.4253 75.0753 66.4602 75.0753H64.7933V79.5501ZM64.7933 74.6076H66.2554C67.3955 74.6076 67.7754 73.6425 67.7754 72.3853C67.7754 71.3612 67.3375 70.5727 66.2554 70.5727H64.7933V74.6076ZM34.4412 75.8648C34.4412 75.222 34.3827 73.3206 35.9325 73.3206C37.1609 73.3206 37.336 74.8997 37.336 75.8648H34.4412ZM47.7749 75.8648C47.7749 75.222 47.7168 73.3206 49.2666 73.3206C50.4946 73.3206 50.6696 74.8997 50.6696 75.8648H47.7749ZM71.6943 75.8648C71.6943 75.222 71.6362 73.3206 73.186 73.3206C74.414 73.3206 74.59 74.8997 74.59 75.8648H71.6943Z" fill="white"/>
<path fill-rule="evenodd" clip-rule="evenodd" d="M46.6972 63.6791C32.7656 63.6781 21.4723 52.5077 21.4747 38.7297C21.4762 24.9523 32.7724 13.7848 46.704 13.7867C60.636 13.7887 71.9284 24.9591 71.9264 38.7366C71.9245 52.5145 60.6292 63.682 46.6972 63.6791Z" fill="black"/>
<path fill-rule="evenodd" clip-rule="evenodd" d="M26.0134 50.7018L26.4567 50.3502C25.1532 47.9617 24.0052 44.3764 23.9408 44.3013C23.9116 44.4027 24.4378 47.733 26.0134 50.7018Z" fill="black"/>
<path fill-rule="evenodd" clip-rule="evenodd" d="M47.0493 16.2655L50.4766 36.2134L46.8971 38.3157L46.7732 16.2738C46.7732 16.009 46.586 16.0114 46.5587 16.2738L44.5266 37.1824L43.0226 36.309L46.249 16.2704C33.756 16.3484 23.8906 26.3792 23.8892 38.776C23.8887 42.6915 25.1205 46.7981 26.8932 50.0069L42.633 36.9137L44.1418 37.7778L26.4626 50.4873C26.0383 50.7823 26.1656 50.9301 26.6352 50.6692L46.3704 39.2715L46.3699 43.3757L27.3165 50.6438C31.3016 57.1634 38.3776 61.3134 46.6313 61.3144C54.8733 61.3153 62.0644 57.1551 66.0554 50.6526L47.0273 43.3893V39.2842L66.0072 50.2312C66.4378 50.4741 66.568 50.3419 66.1613 50.0513L49.2559 37.788L50.7638 36.9234L66.4978 50.0289C68.2987 46.802 69.4925 42.6832 69.4935 38.7341C69.4949 26.4977 59.3179 16.5996 47.0493 16.2655Z" fill="white"/>
<path fill-rule="evenodd" clip-rule="evenodd" d="M70.8443 34.3905C69.8889 29.032 67.141 25.0732 67.141 25.0732C62.7822 18.6087 55.3541 14.39 46.7484 14.389C33.0909 14.387 22.0497 25.458 22.0477 39.1164C22.0472 42.333 22.868 45.4058 23.9847 48.2255C24.4977 49.5197 26.6747 53.2528 26.7732 53.3328C26.7629 53.2148 25.2268 50.2278 24.4187 48.2411C23.7263 46.5377 22.8641 43.1426 22.8646 39.2052C22.866 25.9554 33.6088 15.2156 46.8576 15.2175C53.7809 15.2185 60.2854 18.5985 64.2769 22.9801C65.1274 23.9135 65.8628 24.7606 66.5211 25.6218C66.5211 25.6213 68.2567 27.2457 70.8443 34.3905Z" fill="white"/>
<path fill-rule="evenodd" clip-rule="evenodd" d="M70.0718 38.6702C70.0718 42.7715 68.7868 47.0215 66.8923 50.3556C66.9981 50.6307 66.8991 50.7721 66.5777 50.8535C62.4497 57.5048 55.0777 61.8571 46.685 61.8562C38.8112 61.8552 32.5125 57.6252 30.5214 55.4395C28.9053 53.6659 27.7076 52.3394 26.7825 50.8335L26.2407 51.0422C29.783 57.8164 37.2145 62.7393 46.6933 62.7403C60.1459 62.7423 70.8872 51.864 70.8882 38.7336C70.8882 38.7336 71.3051 34.5134 67.6413 28.5073C67.6413 28.5073 70.1957 33.1577 70.0718 38.6702Z" fill="white"/>
<path fill-rule="evenodd" clip-rule="evenodd" d="M45.1279 38.3635L41.7708 41.1046C41.7708 41.1046 41.0622 41.6898 42.079 41.1661L46.1442 38.9487L45.1279 38.3635ZM45.4663 37.6861L46.4519 22.7183C46.4519 22.7183 46.544 20.9012 46.6367 22.749C46.7274 24.5651 46.4519 38.3328 46.4519 38.3328L45.4663 37.6861ZM47.2526 38.9487L48.3308 38.3328L61.0808 46.8644C61.0808 46.8644 62.0361 47.5111 60.9579 46.9566L47.2526 38.9487Z" fill="black"/>
</g>
<defs>
<clipPath id="clip0_1_2328">
<rect width="94" height="94" fill="white"/>
</clipPath>
</defs>
</svg>
