<svg width="69" height="68" viewBox="0 0 69 68" fill="none" xmlns="http://www.w3.org/2000/svg">
<g clip-path="url(#clip0_1_2354)">
<path fill-rule="evenodd" clip-rule="evenodd" d="M0.391846 0H68.3918V68H0.391846V0Z" fill="white"/>
<path fill-rule="evenodd" clip-rule="evenodd" d="M48.8938 56.8356C45.0492 60.3387 41.7391 62.2264 34.7668 65.8844C28.2761 62.9327 24.0399 60.023 20.3661 57.1559C15.2893 53.2038 11.6422 46.7857 11.3262 42.8498L8.79321 5.38512C25.952 0.924955 44.2029 1.02655 59.9904 5.68498L57.4204 42.7697C57.0934 46.1278 54.0891 52.6584 48.8938 56.8356Z" fill="#EDC95E" stroke="black" stroke-width="0.348897" stroke-miterlimit="2.613"/>
<path fill-rule="evenodd" clip-rule="evenodd" d="M54.4804 41.5417L56.7996 8.42504C43.2127 4.09787 26.9377 4.03402 11.9425 7.97031L14.3096 41.5202C14.5559 45.0067 17.0677 50.3389 21.8824 54.4248C24.7797 56.8854 30.4563 61.0146 34.649 62.5972C39.4796 60.1532 43.8717 57.1147 47.3526 54.1154C51.6695 50.184 54.2187 45.2952 54.4804 41.5417Z" fill="#EDC95E" stroke="black" stroke-width="0.348897" stroke-miterlimit="2.613"/>
<path fill-rule="evenodd" clip-rule="evenodd" d="M46.7959 53.2412C43.4589 56.1185 38.966 59.3432 34.649 61.4027C30.7935 60.21 25.0951 55.8133 22.3533 53.4493C17.5711 49.3208 15.6269 44.9992 15.3327 40.9134L13.0079 8.88823C27.2855 5.13891 42.8694 5.13891 55.8188 9.26288L53.5216 40.8605C53.1899 45.0631 51.2352 49.0802 46.7959 53.2412Z" fill="#EDC95E" stroke="black" stroke-width="0.348897" stroke-miterlimit="2.613"/>
<path d="M14.0754 9.51021L14.5358 15.0298ZM14.5358 15.0298C28.1653 11.6233 42.4426 11.9652 54.2945 15.5491ZM54.2945 15.5491L54.8028 9.93319ZM54.8028 9.93319C42.523 6.16835 27.6139 5.96444 14.0754 9.51021Z" stroke="black" stroke-width="0.348897" stroke-miterlimit="2.613"/>
<path fill-rule="evenodd" clip-rule="evenodd" d="M47.9684 11.5588L44.8947 11.0511L44.7762 12.4947L43.7753 12.3455L44.011 8.51571L45.034 8.66529L44.9264 10.1364L48.0436 10.6391L48.1448 9.168L49.1894 9.36626L48.8733 13.2062L47.8563 13.0189L47.9684 11.5588ZM33.1327 10.2598C32.7581 10.2598 32.4582 10.1582 32.26 9.82663C32.0889 9.55394 32.0889 8.666 32.26 8.37178C32.4473 8.02959 32.7845 7.93328 33.0632 7.93328L37.4222 7.93892L37.4334 8.87978L33.3098 8.87449C33.1063 8.87449 33.101 9.32922 33.3257 9.32922H36.5762C36.9565 9.32922 37.2941 9.55958 37.401 9.85838C37.5188 10.1798 37.4973 10.9072 37.401 11.2063C37.31 11.5062 36.9671 11.6713 36.5385 11.6713H32.2384L32.2328 10.7089H36.0618C36.1184 10.7044 36.1711 10.6788 36.2096 10.6372C36.2481 10.5955 36.2695 10.5409 36.2695 10.4842C36.2695 10.4275 36.2481 10.3729 36.2096 10.3312C36.1711 10.2896 36.1184 10.264 36.0618 10.2595L33.1327 10.2598ZM30.6111 10.6423C30.6101 10.5943 30.5996 10.5471 30.5801 10.5033C30.5607 10.4595 30.5327 10.42 30.4978 10.3871C30.4629 10.3543 30.4219 10.3287 30.377 10.3118C30.3321 10.295 30.2843 10.2873 30.2364 10.2891L27.3444 10.498L27.4033 11.931L26.4663 12.0273L26.268 8.24619L30.574 7.92516C31.1311 7.88283 31.4577 8.29946 31.4842 8.6473C31.5163 9.05899 31.5325 9.58851 31.2112 9.80794C31.4789 10.0058 31.5488 10.3001 31.5541 10.7118L31.565 11.6794L30.6277 11.7172L30.6111 10.6423Z" fill="black"/>
<path fill-rule="evenodd" clip-rule="evenodd" d="M29.9965 9.41491C30.3659 9.39339 30.3338 8.82119 29.9965 8.85329L27.2438 9.06178L27.2759 9.58566L29.9965 9.41491Z" fill="#EDC95E"/>
<path fill-rule="evenodd" clip-rule="evenodd" d="M20.9785 8.91255C21.8622 8.70406 23.6723 8.41549 24.6202 8.34564C25.0538 8.31389 25.3914 8.53826 25.4503 8.87551C25.5897 9.65092 25.6754 10.4528 25.5787 11.5284C25.5519 11.8385 25.2842 12.0844 24.9307 12.1595C23.715 12.4269 22.3494 12.5712 21.3369 12.6675C21.0798 12.6943 20.673 12.4911 20.6035 12.1701C20.4268 11.3891 20.3622 10.2979 20.4162 9.54896C20.4377 9.27133 20.6949 8.97711 20.9785 8.91255Z" fill="black"/>
<path fill-rule="evenodd" clip-rule="evenodd" d="M24.4182 11.2162C24.5413 11.1891 24.5949 11.0557 24.6058 10.9594C24.6485 10.6652 24.6111 9.89473 24.5413 9.63826C24.5201 9.53666 24.4344 9.4721 24.2418 9.48833C23.7168 9.52079 22.3297 9.71834 21.6443 9.86792C21.4622 9.91096 21.3924 10.0179 21.3818 10.1142C21.3493 10.3653 21.4245 11.0554 21.4887 11.4402C21.5049 11.5316 21.6227 11.5955 21.7134 11.5902C22.6402 11.5157 23.7331 11.3662 24.4182 11.2162Z" fill="#EDC95E"/>
<path fill-rule="evenodd" clip-rule="evenodd" d="M39.6044 9.07204C39.4012 9.06675 39.2619 9.18987 39.246 9.29676C39.1977 9.6125 39.1811 10.0185 39.1811 10.5481C39.1811 10.6176 39.2989 10.8102 39.4009 10.8261C40.322 10.9548 42.1109 11.1153 43.0856 11.1792L43.0264 12.1684C41.7468 12.1098 40.408 11.9063 39.0209 11.8103C38.5655 11.7778 38.2335 11.5323 38.2169 11.0938C38.1901 10.3717 38.2335 9.28053 38.3623 8.64412C38.4477 8.25395 38.8227 8.0504 39.2456 8.06133C40.5252 8.10966 41.5429 8.2222 43.2193 8.44657L43.1551 9.43081C42.342 9.36132 40.7993 9.12037 39.6044 9.07204ZM18.6484 9.3592C19.9445 9.0544 20.1424 11.3542 19.0604 11.6216L16.0399 12.3758L16.1846 13.8624L15.2367 14.1136L14.899 10.2415L18.6484 9.3592Z" fill="black"/>
<path fill-rule="evenodd" clip-rule="evenodd" d="M18.6325 10.8655C18.943 10.7957 18.9003 10.2397 18.568 10.3092L15.842 10.9671L15.9062 11.5393L18.6325 10.8655Z" fill="#EDC95E"/>
<path fill-rule="evenodd" clip-rule="evenodd" d="M50.682 12.1327L50.6178 12.7533L53.6115 13.5075L53.5311 14.3736L49.5147 13.4274L49.8625 9.52817L53.9057 10.5068L53.8151 11.4159L50.8052 10.6888L50.7459 11.3467L53.7343 12.0742L53.6591 12.8443L50.682 12.1327Z" fill="black"/>
<path d="M26.3711 29.1228V25.8766L26.3746 24.5078L26.3764 23.8446L34.0719 23.8389L34.0669 13.3244M34.0669 13.3244C28.0793 13.3244 21.5194 13.891 14.5622 15.833ZM14.5622 15.833L15.9973 35.5836H26.3707L26.3711 29.1228" stroke="black" stroke-width="0.348897" stroke-miterlimit="2.613"/>
<path fill-rule="evenodd" clip-rule="evenodd" d="M26.3602 25.5608C26.3602 25.4914 25.5086 25.4268 25.0853 25.4801C23.9606 25.6138 21.149 26.4964 19.9601 27.3149C19.9336 27.3844 19.9386 27.7745 19.8585 27.9566C19.789 28.122 19.6123 28.2935 19.4408 28.3683C19.1353 28.5016 18.7818 28.0956 18.6266 28.1545C18.4657 28.213 18.1232 28.3524 17.7535 28.0903C17.5877 27.9728 17.5023 27.6412 17.5609 27.3949C17.6145 27.2182 17.7644 27.0792 17.8826 26.967C17.9898 26.8601 17.9143 26.4484 18.2999 26.2022C18.5677 26.0315 18.9374 26.1708 19.2214 26.32C19.2856 26.2985 19.3286 26.272 19.3766 26.2294C19.4137 26.1165 19.4729 25.7743 19.5265 25.5069C19.5911 25.2179 19.6126 25.0306 19.698 24.7636C19.9121 24.1166 20.4261 23.186 20.962 22.6991C21.385 22.3248 22.0436 22.0253 22.5308 22.0574C22.4825 22.1319 21.8775 22.6723 21.7004 22.9133C21.2827 23.4689 20.8974 24.3247 20.7154 25.0521C20.6508 25.298 20.6508 25.3894 20.6939 25.5496C21.0901 25.3728 21.604 25.2021 21.9043 25.1054C22.0221 24.8437 22.0863 24.5438 22.1882 24.3035C22.3488 23.9289 22.4511 23.7684 22.6165 23.5066C23.0931 22.7686 24.1 22.0412 24.8443 22.0574C24.5977 22.2712 24.0837 22.806 23.8805 23.1267C23.7147 23.3941 23.5591 23.683 23.4413 23.9825C23.3397 24.2499 23.3076 24.4478 23.2808 24.6669C23.6664 24.5551 24.0467 24.4746 24.2929 24.4584C24.4591 24.3674 24.5123 24.191 24.6037 24.0252C24.8874 23.4957 25.444 22.902 25.7979 22.7097C26.0815 22.5545 26.4992 22.4045 26.7991 22.5012C26.4777 22.7418 26.1404 23.1263 25.9905 23.3567C25.8353 23.6026 25.5834 24.0788 25.594 24.3035C25.8568 24.3247 26.1986 24.311 26.3489 24.2736L26.3602 25.5608Z" fill="black"/>
<path fill-rule="evenodd" clip-rule="evenodd" d="M22.9499 16.8984C23.357 16.3318 24.4276 15.4764 25.2528 15.5243C24.803 15.9145 24.4065 16.3477 24.1281 16.8077C23.7637 17.4011 23.4691 18.1451 23.4053 18.717C23.678 18.6154 24.3207 18.4337 24.6905 18.3533C25.0171 17.6421 25.4458 16.8557 25.976 16.4331C26.3559 16.1283 26.902 15.8662 27.4111 15.9251C27.2932 16.0909 27.1003 16.2193 26.9556 16.3534C26.6928 16.583 26.5111 16.8935 26.3665 17.2088C26.2593 17.4441 26.0772 18.1501 26.0719 18.1825C26.4413 18.1772 27.095 18.2196 27.234 18.2626C27.6679 17.6957 28.6158 16.8723 29.7514 17.0593C29.2586 17.3267 28.359 18.1074 28.4126 18.5353C29.1513 19.0115 30.2545 20.0113 30.3028 20.9363C29.7994 20.4124 28.9693 19.8935 28.5516 19.7492C27.5501 19.3961 26.3559 19.3481 25.3597 19.5298C23.2818 19.9203 21.4449 20.8188 19.6831 21.8726C19.6404 22.1562 19.4849 22.5838 19.3565 22.7281C19.228 22.8723 19.0351 23.0117 18.8266 23.0441C18.5641 23.0865 18.2964 22.9799 18.0713 22.8621C17.9267 22.7817 17.5464 22.8836 17.3058 22.7545C17.1396 22.6691 16.8824 22.4285 16.9523 22.049C17.0112 21.7121 17.3484 21.5089 17.3964 21.1878C17.4663 20.7176 17.8085 20.5137 17.9856 20.4823C18.1782 20.4445 18.3764 20.5091 18.5532 20.5888C18.628 20.6262 18.7081 20.6908 18.7783 20.7123C18.8478 20.6908 18.9494 20.605 19.0086 20.5786C19.0245 20.5246 19.2012 19.5464 19.2975 19.1184C19.3939 18.6905 19.56 18.3264 19.6994 17.926C20.117 16.7389 21.4079 15.5406 22.4415 15.6048C22.3879 15.6799 22.0556 15.9205 21.5952 16.455C20.8508 17.327 20.6631 18.2524 20.3848 19.8406C20.9577 19.5732 21.4558 19.3809 21.9751 19.1932C22.0986 18.7014 22.2644 18.2199 22.468 17.7546C22.602 17.4551 22.7625 17.1605 22.9499 16.8984Z" fill="black"/>
<path fill-rule="evenodd" clip-rule="evenodd" d="M54.1615 18.2136L35.0212 18.2301L35.0371 23.8562L53.7329 23.8457L54.1615 18.2136Z" fill="#CA3132"/>
<path fill-rule="evenodd" clip-rule="evenodd" d="M39.4199 43.3807C39.2862 43.9201 39.2217 44.8295 39.2326 44.8518C39.5593 44.7173 39.8644 44.5995 40.1326 44.5198C40.1534 44.4873 40.5344 43.6587 40.7058 43.4339C41.1069 42.8138 41.6477 42.2839 42.3064 41.9311C42.7191 41.7223 43.2222 41.53 43.667 41.6962C43.0828 41.9738 42.6281 42.4769 42.3543 42.7654C42.1028 43.0328 41.8079 43.4283 41.6742 43.8347C41.6527 43.9042 41.6315 44.0488 41.6315 44.0488C41.9042 43.9635 42.7773 43.8347 43.1417 43.7864C43.1844 43.7807 43.2966 43.5405 43.3823 43.4226C43.4899 43.2787 43.5538 43.1877 43.7256 42.9954C44.1652 42.5192 44.9092 42.0108 45.632 42.123C45.2358 42.3745 44.8016 42.7757 44.4537 43.4068C44.4054 43.5031 44.3415 43.6368 44.3684 43.6953C44.4752 43.7172 45.0058 43.7063 45.3268 43.7444C45.6962 43.5144 46.0874 43.3105 46.5104 43.2202C46.9867 43.1126 47.6079 43.1986 47.8549 43.4226C47.5656 43.4068 47.2918 43.4604 47.0301 43.562C46.8798 43.6213 46.5803 43.7603 46.467 43.9525C46.7517 44.0326 47.2174 44.3378 47.5116 44.5836C47.7148 44.7544 47.9614 45.0006 48.1166 45.2257C48.5078 45.7549 48.5879 46.7063 48.3791 46.9903C48.3205 46.8241 48.2556 46.659 48.1657 46.5031C47.9776 46.1881 47.6827 45.8459 47.4312 45.6582C46.2158 44.7336 44.4643 44.6852 43.0352 44.9735C41.8079 45.2257 39.5963 45.6854 38.1506 46.7119C38.1877 46.8947 38.0748 47.1984 37.9093 47.317C37.6896 47.4768 37.3788 47.2577 37.2183 47.3438C36.9992 47.456 36.7258 47.3858 36.6132 47.3381C36.4203 47.2573 36.2922 47.0598 36.2756 46.8298C36.2598 46.6477 36.4361 46.4287 36.4739 46.2311C36.4905 46.1503 36.4044 45.7549 36.742 45.5517C36.8062 45.5146 36.9992 45.4448 37.1325 45.4663C37.2662 45.4931 37.3738 45.5785 37.5072 45.6C37.6891 45.5354 37.8633 45.4511 38.0268 45.3485C38.1344 44.9364 38.2141 44.4602 38.2681 44.0379L39.4199 43.3807Z" fill="black"/>
<path d="M52.4654 40.8234C52.1179 45.6261 49.8414 48.9581 46.4625 52.2481C44.3733 54.2858 39.4683 57.9973 34.9965 60.2643L34.9909 44.8779C36.0563 44.8352 37.3093 44.5142 38.2685 44.0379L39.4158 43.3684C41.7977 41.4898 42.6225 38.9198 42.6225 36.438M52.465 40.8238L52.7811 36.4493L42.6222 36.4384" stroke="black" stroke-width="0.348897" stroke-miterlimit="2.613"/>
<path fill-rule="evenodd" clip-rule="evenodd" d="M39.6045 49.0731C39.7657 48.8273 39.9587 48.4681 40.0543 48.3133C40.3919 47.7732 40.8791 47.3721 41.2118 47.2172C41.6665 46.9981 42.4003 46.8693 42.7269 47.0299C42.3678 47.1159 42.0951 47.2814 41.8429 47.4578C41.5857 47.6342 41.0823 48.0945 40.9539 48.2868C40.81 48.5009 40.7126 48.6932 40.6755 48.7945C41.0819 48.7041 41.5698 48.629 41.8214 48.629C42.0041 48.399 42.4856 47.8483 42.8444 47.5915C43.1337 47.3883 43.7497 47.1851 44.1349 47.3509C43.7655 47.4687 43.1125 47.982 42.8712 48.3507C42.8176 48.4367 42.7693 48.5278 42.7591 48.5754C42.957 48.592 43.3316 48.629 43.5355 48.6562C43.5563 48.6562 44.1137 48.3136 44.3652 48.2441C44.6926 48.1531 45.2278 48.036 45.5647 48.3944C45.3188 48.3993 45.0877 48.4205 44.9061 48.5013C44.6443 48.6191 44.5314 48.7045 44.4136 48.87C44.9276 49.1426 45.4638 49.4266 45.7799 49.9297C45.8914 50.1061 46.0632 50.5231 45.9665 50.7958C45.806 50.5926 45.5862 50.3947 45.4098 50.2927C45.1583 50.1481 44.9759 50.0094 44.6704 49.8916C43.7119 49.5332 42.4585 49.4369 41.457 49.5706C40.1616 49.7367 38.5705 50.3788 37.757 50.9348C37.8106 51.1856 37.6875 51.4798 37.5429 51.5493C37.2377 51.7042 36.9435 51.4424 36.8895 51.4583C36.8088 51.4851 36.5622 51.5705 36.3858 51.496C36.2094 51.4265 36.0972 51.1157 36.1667 50.9178C36.2196 50.7682 36.4341 50.5541 36.4341 50.5541C36.4016 50.2281 36.6161 50.0306 36.9111 49.9925C37.0772 49.9766 37.195 50.1054 37.3287 50.1318C37.4522 50.0733 37.5376 50.0306 37.6021 49.9981C37.6773 49.7307 37.7895 49.458 37.8639 49.2333C37.9874 48.8537 38.1698 48.5168 38.4001 48.164C38.7314 47.6557 39.3212 47.1745 40.0229 47.1636C39.8088 47.3297 39.6853 47.4207 39.5516 47.5865C39.3216 47.8751 39.1445 48.1372 38.984 48.447C38.8393 48.7197 38.7056 49.1264 38.6834 49.4845C38.9409 49.3621 39.3371 49.18 39.6045 49.0731ZM39.5012 51.9659C39.6832 51.8915 39.8758 51.8379 40.0688 51.859C39.619 52.1476 39.2062 52.5702 39.0937 53.0722C39.0835 53.1266 39.0835 53.2328 39.1314 53.2652C39.2595 53.2328 39.5862 53.1633 39.6722 53.1213C39.7259 53.0091 39.8596 52.8327 39.9506 52.7149C40.2716 52.2869 40.7327 51.859 41.3691 52.0195C40.9521 52.2062 40.7112 52.4686 40.5284 52.8002C40.4967 52.8595 40.4748 52.971 40.5175 52.971C40.6251 52.971 41.0322 52.9551 41.0908 52.9551C41.2781 52.789 41.8245 52.4736 42.1995 52.5914C42.0126 52.6795 41.841 52.7969 41.6912 52.9392C41.6542 52.9819 41.6051 53.0355 41.5949 53.0998C41.9268 53.2652 42.2211 53.4525 42.4948 53.6882C42.6395 53.8109 42.8483 54.041 42.9764 54.4364C42.6553 54.1588 41.6051 53.6614 41.0326 53.6346C40.6579 53.6187 40.1919 53.6882 39.9562 53.7415C39.051 53.9447 38.1186 54.3514 37.3213 54.8061C37.3263 54.961 37.2998 55.1487 37.1231 55.2926C37.0053 55.3889 36.7484 55.4373 36.6518 55.2983C36.5988 55.2231 36.25 55.3032 36.1748 55.2072C36.1748 55.2072 36.0838 55.0679 36.0729 54.9021C36.0626 54.7257 36.1805 54.6188 36.2768 54.5278C36.3036 54.496 36.2983 54.1965 36.5226 54.0942C36.662 54.03 36.8017 54.0522 36.9195 54.1267C36.9679 54.0999 37.0049 54.0731 37.0366 54.0522C37.0635 53.7044 37.1284 53.3834 37.2564 53.0359C37.4335 52.5434 38.0117 51.9444 38.5098 51.9659C38.1729 52.3296 37.8995 52.8327 37.8085 53.2497C37.7817 53.3834 37.7715 53.6451 37.7715 53.7686C37.8906 53.6956 38.0159 53.6329 38.1458 53.5813C38.1994 53.4532 38.3546 53.1322 38.4351 52.9872C38.6393 52.6129 39.094 52.1317 39.5012 51.9659Z" fill="black"/>
<path fill-rule="evenodd" clip-rule="evenodd" d="M16.5095 41.39C16.5737 43.2509 17.3343 45.4974 18.3785 47.0538H33.9576L33.9254 44.8821C31.9224 44.8821 28.8645 43.5613 27.6541 41.4013L16.5095 41.39Z" fill="#CA3132"/>
<path d="M27.2192 36.5358C27.2192 46.4301 41.711 46.4301 41.711 36.6377L41.7166 24.7325L27.2196 24.7272V36.5354" stroke="black" stroke-width="0.348897" stroke-miterlimit="2.613"/>
<path fill-rule="evenodd" clip-rule="evenodd" d="M31.8878 31.7944C32.0593 31.6071 32.2096 31.3609 32.2413 31.1524C32.2678 30.9813 31.7862 30.9922 31.6091 31.0991C31.5128 31.158 31.4215 31.2755 31.3467 31.3827C31.2931 31.4628 31.1004 31.527 31.0041 31.436C30.9022 31.3397 31.0846 31.1739 31.0793 31.0723C31.0793 30.9015 30.7523 31.158 30.6023 31.0885C30.5007 31.0402 30.4951 30.8857 30.5649 30.7946C30.6023 30.746 30.7096 30.7678 30.7579 30.7142C30.8062 30.6606 30.8062 30.5809 30.8225 30.511C30.844 30.4306 30.9293 30.3935 30.983 30.3346C31.1865 30.1367 31.5721 29.7998 31.6469 29.8051C31.8233 29.8213 32.0752 29.912 32.2304 29.8316C32.2625 29.816 32.3214 29.7628 32.2678 29.7303L31.8501 29.4576C31.8481 29.4146 31.8557 29.3716 31.8723 29.3319C31.8889 29.2921 31.9141 29.2565 31.946 29.2276C32.139 29.0565 32.4389 29.174 32.6908 29.1366C32.8672 29.1098 33.0337 29.0403 33.1617 28.9172C33.1938 29.0456 33.1134 29.174 33.1134 29.3077C33.2743 29.4576 33.4404 29.5857 33.5956 29.7303C34.056 30.1903 34.2543 30.8585 34.2864 31.4469C34.3132 31.7196 34.3132 31.998 34.3132 32.4527C34.3883 32.2604 34.4363 31.9764 34.4525 31.7306C34.522 31.0031 34.4095 30.3561 33.9975 29.8051C33.8298 29.573 33.6396 29.3582 33.4295 29.1638C33.451 28.95 33.6334 28.5859 33.8045 28.7196C33.917 28.8053 33.7512 28.9334 33.869 29.0085C33.9978 29.089 34.1851 29.078 34.2652 29.0618C34.4529 29.0138 34.6349 28.9658 34.8057 28.95C34.8865 28.9443 35.0198 28.9069 35.047 28.9874C35.0688 29.0406 35.0099 29.078 34.9507 29.0995C34.8812 29.1211 34.7743 29.1052 34.715 29.1641C34.6667 29.2121 34.6187 29.2654 34.6349 29.3348C34.6557 29.4153 34.7418 29.458 34.8272 29.4312C35.1504 29.342 35.483 29.2917 35.8181 29.2812C35.9952 29.2812 35.9575 29.4096 35.8718 29.458C35.8132 29.4897 35.7215 29.5169 35.6629 29.5222C35.3468 29.5596 35.1112 29.5811 35.1489 29.7631C35.1757 29.8859 35.3736 29.7681 35.4163 29.8587C35.4647 29.955 35.331 30.0087 35.3419 30.0729C35.3736 30.2757 35.7649 30.2334 35.9469 30.1903C36.0806 30.1582 36.2947 30.0513 36.3597 30.1371C36.4182 30.2115 36.3699 30.3293 36.2947 30.3508C36.1018 30.4045 35.7698 30.5004 35.6788 30.6077C35.5934 30.7093 35.6954 30.9178 35.7966 30.9283C36.0266 30.9552 36.2789 30.9552 36.4609 31.0088C36.5304 31.0299 36.5897 31.0783 36.5897 31.1531C36.5897 31.2335 36.5089 31.2603 36.445 31.2815C36.3215 31.3189 36.1131 31.3189 35.9998 31.3668C35.9628 31.3831 35.8876 31.4099 35.8986 31.4526C35.9303 31.533 36.0915 31.5115 36.2252 31.5274C36.3004 31.533 36.445 31.5916 36.445 31.6716C36.445 31.7574 36.3699 31.7838 36.2355 31.7736C36.0266 31.7574 35.8344 31.7838 35.7433 31.8216C35.7158 31.8322 35.556 31.8533 35.5606 31.9288C35.5715 32.0191 35.7433 31.9606 35.7853 32.0516C35.8231 32.137 35.7052 32.1853 35.695 32.2922C35.695 32.3352 35.7158 32.3564 35.7592 32.3726C35.8986 32.4315 36.0591 32.4259 36.1981 32.3994C36.3427 32.3726 36.3963 32.5652 36.3593 32.5868C36.1713 32.6884 35.7536 32.5815 35.6573 32.64C35.5236 32.7257 35.882 32.9184 35.8714 32.9614C35.8605 33.0094 35.8178 33.0574 35.7853 33.0683C35.604 33.1378 35.3683 33.0041 35.2343 33.0789C35.1221 33.1484 35.1701 33.3248 35.1006 33.4161C35.0145 33.5283 34.8215 33.4803 34.7362 33.5445C34.624 33.6246 34.6183 33.8169 34.7418 33.9347C34.8381 34.0257 34.9291 34.0896 35.0526 34.1481C35.61 34.4265 36.1882 34.7048 36.729 34.6671C37.0073 34.6512 37.4621 34.6353 37.7143 34.6995C38.041 34.7796 38.3722 35.0308 38.5448 35.1377C38.6834 35.2231 38.9085 35.2453 39.0856 35.1811C39.2136 35.1377 39.299 34.9881 39.2729 34.8601C39.1921 34.4321 38.4855 34.2984 38.4742 33.8705C38.464 33.3787 38.4213 33.1113 38.2601 32.8005C38.2015 32.6831 38.1906 32.4104 38.3303 32.373C38.4424 32.3462 38.4798 32.5017 38.5709 32.464C38.9836 32.3031 38.9995 31.6508 39.4281 31.5277C39.6796 31.4582 40.5256 31.4473 40.4561 31.3404C40.2797 31.0892 40.3598 30.8003 40.4561 30.6666C40.5203 30.5812 40.6974 30.4951 40.7669 30.5812C40.8632 30.693 40.6223 30.8267 40.6388 30.9929C40.6547 31.1478 40.8794 31.4473 40.7083 31.6078C40.6064 31.7038 39.8402 31.7362 39.6154 32.0784C39.4761 32.2869 39.4606 32.4531 39.6264 32.4368C39.7601 32.4209 39.8723 32.2604 39.995 32.1694C40.2148 32.0093 40.3919 31.9447 40.5154 32.0622C40.5796 32.1211 40.4939 32.2336 40.376 32.2654C40.2797 32.2975 40.0441 32.5494 40.1079 32.6129C40.2042 32.7145 40.7397 32.2495 40.8741 32.3458C40.9436 32.3991 40.611 32.7416 40.6702 32.8326C40.7397 32.9448 40.9652 32.7684 41.0347 32.8542C41.1359 32.9826 40.8576 33.2337 40.6971 33.3459C40.5743 33.4264 40.6219 33.7255 40.4455 33.8165C40.2473 33.9128 40.1562 34.0836 40.1774 34.1104C40.1989 34.1531 40.2469 34.1848 40.322 34.1372C40.5411 33.9979 40.8145 33.8324 40.9271 33.8755C40.9913 33.9023 40.901 34.2067 40.8202 34.351C40.7394 34.4956 41.1468 34.4159 41.0876 34.5383C41.0371 34.6506 41.0222 34.7757 41.0449 34.8967C41.0773 35.0629 40.606 35.0999 40.5633 35.2125C40.515 35.3412 40.611 35.373 40.6597 35.3786C40.9436 35.4213 40.9055 35.6831 40.7934 35.7956C40.6438 35.9459 40.3863 36.0045 40.1615 35.9671C39.9686 35.9346 39.5346 35.8542 39.2782 35.6619C39.1974 35.6034 39.0799 35.646 39.0633 35.7261C39.0475 35.8171 39.1441 35.9833 39.1868 36.1223C39.2461 36.3304 39.2136 36.5929 39.1441 36.7961C38.9945 37.2184 38.5924 37.5711 38.4798 38.0791C38.453 38.2136 38.4908 38.379 38.5448 38.5078C38.6619 38.7854 38.8333 39.0479 39.0263 39.2828C39.0531 39.358 39.0905 39.4433 39.0588 39.5128C39.0161 39.6197 38.6834 39.8497 38.5874 39.9408C38.2823 40.224 38.0198 40.5934 37.9606 40.9941C37.939 41.1381 37.6293 41.2827 37.4197 41.342C37.2649 41.384 37.104 41.4274 36.9752 41.5286C36.9594 41.6464 37.0289 41.7484 37.0447 41.8655C37.0716 42.0687 36.8147 42.1707 36.6161 42.2349C36.5221 42.2711 36.4226 42.2909 36.3219 42.2934C36.2849 42.2934 36.2736 42.2292 36.2792 42.1978C36.3378 41.9195 36.3914 41.6948 36.4983 41.4655C36.5417 41.3794 36.6112 41.3099 36.681 41.2513L37.4466 40.6093L38.0466 39.7481C38.0995 39.6681 38.1211 39.5986 38.1211 39.54C38.1211 39.3738 38.0516 39.219 37.9337 39.1121C37.7842 38.9784 37.5644 38.9572 37.3982 38.8708C37.1841 38.7646 36.8733 38.4644 36.8306 38.4429C36.7128 38.3843 36.6433 38.5977 36.6274 38.7212C36.6006 38.9085 36.6592 39.0849 36.6542 39.2719C36.6542 39.358 36.6433 39.4063 36.6006 39.4592C36.0975 39.7478 35.4707 39.8547 35.1013 40.3151C35.0364 40.3951 34.9785 40.4812 34.8924 40.5398C34.6829 40.6844 34.3354 40.5183 34.1798 40.743C34.1103 40.8449 34.1908 40.9786 34.164 41.0908C34.1477 41.155 34.0246 41.2404 33.9287 41.2887C33.8 41.3462 33.6622 41.3805 33.5216 41.39C33.3663 41.3155 33.4626 41.0965 33.5159 40.9409C33.5695 40.7804 33.6447 40.6206 33.7678 40.513C33.9502 40.3532 34.1798 40.15 34.3252 40.0794C34.4479 40.0208 34.6356 40.0208 34.7852 39.9623C34.9434 39.9138 35.0932 39.8416 35.2297 39.7481C35.4495 39.6095 35.6527 39.438 35.7762 39.2024C35.9155 38.9357 35.8996 38.5776 35.7225 38.3473C35.562 38.1384 35.3747 37.9352 35.2678 37.6996C35.2085 37.5715 35.2512 37.3951 35.3429 37.2773C35.3373 37.2723 35.2734 37.229 35.2353 37.2402C34.4698 37.2727 33.6934 37.1873 32.9811 36.9033C32.7934 36.8282 32.6008 36.5876 32.4667 36.5721C32.3436 36.5555 32.2685 36.7107 32.1454 36.7428C31.9471 36.7964 31.6899 36.7643 31.4599 36.7428C31.1922 36.716 30.6351 36.5982 30.2333 36.4701C30.1691 36.4811 30.0996 36.4916 30.0407 36.5294C29.955 36.588 29.9391 36.716 29.9335 36.8236C29.9229 36.9675 29.9656 37.1012 29.9493 37.2508C29.9444 37.326 29.9017 37.4064 29.9229 37.4763C29.9444 37.5616 30.0298 37.599 30.0887 37.6526C30.185 37.7437 30.2012 37.9303 30.2012 38.0799C30.2012 38.246 30.1423 38.4651 30.2816 38.578C30.3674 38.6475 30.4852 38.5561 30.5924 38.578C30.7103 38.5988 30.7473 38.7434 30.753 38.8556C30.7586 38.9837 30.6514 39.2567 30.5815 39.3262C30.5332 39.3745 30.4527 39.3372 30.3942 39.3103C30.2393 39.2408 30.0943 39.1283 30.0089 38.9791C29.9716 38.9142 29.9716 38.8344 29.9338 38.7657C29.8749 38.6478 29.7676 38.5783 29.6608 38.4975C29.5323 38.4012 29.5055 38.2256 29.484 38.0696C29.4681 37.9257 29.495 37.7856 29.5055 37.6417C29.5331 37.3554 29.515 37.0665 29.4519 36.7859C29.4036 36.5724 29.2861 36.3579 29.3394 36.1445C29.3662 36.0426 29.4357 35.9466 29.5323 35.9039C30.0516 35.8771 30.566 35.791 31.0585 35.6358L30.7374 35.3201C30.6566 35.3201 30.5928 35.4009 30.5124 35.4009C30.4266 35.4009 30.3088 35.2781 30.2771 35.2347C30.1109 34.9888 30.004 34.7055 29.9289 34.417C29.859 34.3048 29.7736 34.1915 29.6449 34.1386C29.5556 34.0995 29.4586 34.0812 29.3612 34.085C29.0931 34.2028 28.8469 34.4328 28.8254 34.7271C28.8201 34.8022 28.8628 34.8664 28.8522 34.9405C28.8363 35.0692 28.7397 35.1546 28.6486 35.2456C28.5576 35.3367 28.4719 35.4277 28.4345 35.5557C28.4024 35.6626 28.4401 35.7748 28.4878 35.8768C28.5202 35.9463 28.5576 36.0154 28.5308 36.0902C28.4663 36.2666 28.0436 36.4486 27.9205 36.4486C27.8778 36.4486 27.8401 36.39 27.8242 36.3417C27.7759 36.1812 27.7868 36.0105 27.8189 35.8492C27.9314 35.7265 28.0172 35.5825 28.0651 35.422C28.1293 35.2086 28.0972 34.9782 28.1992 34.78C28.4666 34.3259 29.1521 33.4168 29.2865 33.2828C29.3454 33.2239 29.4897 33.1918 29.5489 33.2292C29.8382 33.4165 30.0097 33.6465 30.2876 33.7908C30.4379 33.8656 30.6253 33.9781 30.7593 33.8709C30.893 33.764 30.9145 33.0475 31.0003 32.8654C31.1544 32.5487 31.5883 32.1313 31.8878 31.7944ZM37.2187 27.3395L37.1008 27.7886H36.6722L37.2296 25.6811H37.7168L38.2519 27.7728H37.824L37.7168 27.3395H37.2187ZM36.0933 26.2869C36.0989 26.1479 36.0563 25.9662 35.9437 25.9231C35.8252 25.8805 35.7024 25.9175 35.6495 25.9979C35.5578 26.1479 35.5578 26.3511 35.5634 26.6608C35.5634 26.8481 35.5691 27.1106 35.6061 27.2334C35.6971 27.517 35.9381 27.5332 36.0559 27.3565C36.1152 27.2711 36.1152 27.1053 36.1095 26.9557H35.8629V26.6453H36.5004V27.7791H36.1953V27.6239C36.1896 27.6348 36.0559 27.7361 35.9914 27.7685C35.8845 27.8165 35.6813 27.8165 35.5151 27.7466C35.3758 27.6881 35.2424 27.5011 35.1831 27.2605C35.1246 27.0086 35.1507 26.6823 35.1507 26.4043C35.1563 26.1105 35.3112 25.7838 35.5253 25.661C35.6756 25.5753 35.954 25.5753 36.1311 25.6395C36.3452 25.7146 36.5106 26.0247 36.4789 26.2865L36.0933 26.2869ZM28.9192 25.7132C29.0907 25.8201 29.1817 26.018 29.1499 26.2484H28.812C28.812 26.0346 28.721 25.9323 28.5393 25.9274C28.4267 25.9217 28.2874 26.0505 28.2874 26.1468C28.2817 26.4297 28.534 26.489 28.7051 26.5423C28.8335 26.58 28.9887 26.6601 29.0639 26.7723C29.2032 26.9751 29.2191 27.1896 29.1069 27.4676C29.0536 27.6009 28.8497 27.7615 28.6786 27.7989C28.4857 27.8419 28.25 27.8204 28.0574 27.6757C27.9022 27.5579 27.8323 27.3279 27.8644 27.1194H28.2447C28.2447 27.2214 28.2606 27.2958 28.3036 27.3604C28.3357 27.4034 28.3946 27.4725 28.4966 27.4782C28.5369 27.4812 28.5774 27.4753 28.6152 27.461C28.653 27.4466 28.6872 27.424 28.7153 27.3949C28.7434 27.3658 28.7647 27.3309 28.7778 27.2926C28.7908 27.2543 28.7953 27.2136 28.7908 27.1734C28.7693 26.8471 28.2232 26.8255 28.0355 26.6167C27.8104 26.3602 27.8806 25.9482 28.0627 25.7824C28.3142 25.5478 28.6571 25.5478 28.9192 25.7132ZM39.7329 27.1078C39.7378 27.1882 39.7438 27.4715 39.7544 27.6535C39.7601 27.7068 39.813 27.7763 39.813 27.7816H39.4112C39.3583 27.7816 39.3526 27.6853 39.347 27.6052C39.3367 27.3914 39.3579 26.883 39.1491 26.883H38.8915V27.7763H38.4897V25.6903H39.2133C39.577 25.6903 39.7597 25.8992 39.7597 26.1824C39.7597 26.3698 39.7541 26.5888 39.5399 26.6798C39.6521 26.7871 39.7163 26.9476 39.7329 27.1078Z" fill="black"/>
<path fill-rule="evenodd" clip-rule="evenodd" d="M39.1822 25.9919H38.8816V26.5539H39.1014C39.4662 26.5539 39.4605 25.9919 39.1822 25.9919Z" fill="#EDC95E"/>
<path fill-rule="evenodd" clip-rule="evenodd" d="M30.1405 27.7855H29.7387V26.0258H29.2779V25.673H30.6061V26.0258H30.1405V27.7855ZM32.726 27.7855V26.0258H32.2652V25.673H33.5987V26.0258H33.1278V27.7855H32.726ZM33.7794 25.6734H35.1129V26.0322H34.6416V27.7862H34.2397V26.0322H33.7794V25.6734ZM40.7464 26.0322V27.7918H40.3446V26.0322H39.8835V25.6741H41.212V26.0322H40.7464ZM31.6567 27.1797V25.6769H32.0472V27.1424C32.0472 28.0194 30.7726 28.0194 30.7726 27.1692V25.6769H31.1632V27.185C31.1635 27.5117 31.6567 27.5117 31.6567 27.1797Z" fill="black"/>
<path d="M32.5585 28.7577C32.6763 28.6565 32.8421 28.5168 33.0351 28.3944C33.2065 28.2818 33.0136 28.5386 33.003 28.6455C32.9705 28.9341 32.7511 28.9662 32.5102 28.9129C32.4675 28.9024 32.4837 28.8219 32.5585 28.7577Z" stroke="black" stroke-width="0.348897" stroke-miterlimit="2.613"/>
<path fill-rule="evenodd" clip-rule="evenodd" d="M42.6296 35.5003L52.8587 35.4947L53.3134 29.8474L42.6296 29.8527V35.5003ZM34.0027 53.0895L23.4526 53.0679C25.6267 55.0199 30.6609 58.6732 33.9706 60.1545L34.0027 53.0895Z" fill="#CA3132"/>
<path fill-rule="evenodd" clip-rule="evenodd" d="M26.3711 30.818V31.7221C25.9534 31.4121 24.0146 31.1873 22.8204 31.6527C22.5315 31.7645 21.5889 32.1712 21.1602 32.5081L19.9555 33.4603C19.8373 33.5559 19.8271 33.7651 19.8271 33.9256C19.8271 34.2784 19.4147 34.5458 19.1843 34.4706C18.997 34.4064 18.7398 34.3694 18.5042 34.4223C18.2523 34.4759 18.0276 34.1606 18.0061 33.9785C17.9739 33.7542 18.151 33.4603 18.1613 33.3636C18.1719 33.2726 18.1129 32.9145 18.4449 32.6951C18.5948 32.5988 18.804 32.6041 18.9536 32.6845C18.9972 32.7102 19.0491 32.7178 19.0983 32.7057C19.1519 32.6845 19.2965 32.5561 19.3339 32.524C19.3501 32.3106 19.318 31.9733 19.3396 31.7864C19.3875 31.4223 19.409 31.2141 19.5216 30.8607C19.6179 30.5559 19.8271 30.1121 19.982 29.8609C20.2607 29.4062 20.8124 28.9677 21.2244 29.0051C21.0636 29.2188 21.0103 29.3314 20.8925 29.5508C20.6731 29.9519 20.4695 30.6151 20.3732 31.0639C20.3086 31.3528 20.2765 31.5775 20.2924 31.8823C20.6085 31.647 20.9405 31.4547 21.1599 31.3313C21.2659 30.8006 21.4462 30.2876 21.6954 29.8073C21.9632 29.2993 22.686 28.7482 23.1573 28.7909C22.7128 29.2725 22.3971 29.941 22.2792 30.3689C22.2309 30.5396 22.172 30.7375 22.1988 30.8448C22.3752 30.7488 22.74 30.6525 22.9164 30.6363C23.0342 30.3421 23.1947 29.989 23.3288 29.7808C23.7464 29.1388 24.4051 28.7482 24.7804 28.7645C24.4859 29.1599 24.2336 29.5187 24.052 30.0479C23.998 30.2027 23.9715 30.3689 23.9715 30.449C24.2015 30.4112 24.5603 30.4112 24.7053 30.4112C25.0955 30.0609 25.057 29.965 25.4874 29.6362C25.7552 29.4273 26.2529 29.1437 26.3708 29.1222V29.7544C26.1669 29.9367 25.7548 30.3283 25.674 30.5319C25.8515 30.5968 26.205 30.7058 26.3711 30.818Z" fill="black"/>
<path fill-rule="evenodd" clip-rule="evenodd" d="M37.6576 26.9564L37.4653 26.1112L37.2833 26.9564H37.6576Z" fill="#EDC95E"/>
<path fill-rule="evenodd" clip-rule="evenodd" d="M53.6764 24.4062L42.668 24.4108V29.2848L53.3388 29.2978L53.6634 24.5988L53.6764 24.4062ZM54.183 17.6766L54.2807 16.0877C47.3726 13.9559 40.9852 13.317 34.9986 13.317L34.9958 17.6502L54.183 17.6766ZM27.3906 40.8181C26.6424 39.4367 26.3471 37.9194 26.3471 36.4338L16.1878 36.4448L16.5039 40.8192L27.3906 40.8181ZM33.9646 52.3522L33.9664 47.7929L18.7631 47.7763C19.7502 49.3515 21.0177 50.7982 22.4962 52.2376C22.5367 52.2774 22.5787 52.3183 22.6218 52.3596L33.9646 52.3522Z" fill="black"/>
</g>
<defs>
<clipPath id="clip0_1_2354">
<rect width="68" height="68" fill="white" transform="translate(0.391846)"/>
</clipPath>
</defs>
</svg>
