<svg width="48" height="80" viewBox="0 0 48 80" fill="none" xmlns="http://www.w3.org/2000/svg">
<path d="M41.8454 0.546703L6.28001 0.546021C3.52535 0.546021 1.28626 2.7858 1.28626 5.54046V74.1481C1.28608 74.8041 1.4151 75.4537 1.66596 76.0598C1.91683 76.6659 2.28461 77.2167 2.74833 77.6806C3.21204 78.1446 3.7626 78.5127 4.36857 78.7639C4.97453 79.0151 5.62404 79.1445 6.28001 79.1446H41.8796C43.2077 79.1446 44.4362 78.6216 45.3751 77.684C46.3189 76.7382 46.8064 75.479 46.8064 74.1481V5.53978C46.8064 2.78922 44.6049 0.546703 41.8454 0.546703ZM45.0201 74.1481C45.0201 75.0017 44.721 75.8095 44.1132 76.4193C43.5089 77.0223 42.7332 77.3569 41.8796 77.3569H6.28001C5.85879 77.3576 5.44158 77.275 5.05239 77.1138C4.6632 76.9527 4.3097 76.7162 4.01223 76.418C3.71396 76.1201 3.47747 75.7662 3.31635 75.3767C3.15522 74.9872 3.07262 74.5697 3.0733 74.1481V5.54046C3.0742 4.69002 3.41239 3.87466 4.01368 3.27325C4.61497 2.67183 5.43026 2.33347 6.2807 2.33238L41.8461 2.33307C43.6216 2.33307 45.0201 3.77527 45.0201 5.53978V74.1481Z" fill="url(#paint0_linear_1_2384)"/>
<path d="M42.7962 75.1547C43.0666 74.8843 43.1793 74.5264 43.1793 74.1468V5.53978C43.1793 4.762 42.579 4.11943 41.7924 4.11943L6.2256 4.11874C5.84888 4.11965 5.48786 4.26975 5.22154 4.53619C4.95522 4.80264 4.80529 5.16374 4.80457 5.54046V74.1481C4.80403 74.3349 4.84039 74.5199 4.91156 74.6925C4.98273 74.8652 5.08731 75.0221 5.21929 75.1542C5.35128 75.2863 5.50806 75.391 5.68063 75.4623C5.85321 75.5337 6.03818 75.5702 6.22492 75.5699H41.8231C42.2062 75.5699 42.5278 75.4224 42.7962 75.1547Z" fill="url(#paint1_linear_1_2384)"/>
<path d="M44.9621 77.2709C44.1324 78.0979 43.0535 78.5595 41.8789 78.5595H6.28007C5.70079 78.5599 5.12714 78.4458 4.59206 78.2239C4.05699 78.0019 3.57104 77.6765 3.16213 77.2661C2.75276 76.8568 2.42806 76.3708 2.20661 75.8359C1.98516 75.3011 1.8713 74.7278 1.87152 74.1489V5.54052C1.87261 4.37157 2.3374 3.2508 3.16391 2.42416C3.99042 1.59752 5.11112 1.13255 6.28007 1.13129L41.8455 1.13197C44.2812 1.13197 46.2192 3.11226 46.2192 5.53983V74.1482C46.2206 75.3234 45.7965 76.4344 44.9621 77.2709Z" stroke="#EC008C" stroke-width="0.147498" stroke-miterlimit="22.926"/>
<path d="M7.44382 73.4468L8.58693 73.4454C8.50765 73.2374 8.46469 73.0173 8.45991 72.7947V69.0813C8.45991 68.7958 8.63404 68.8116 8.76174 68.9707L12.5537 73.4461H13.7125L9.77715 68.8129C9.68223 68.7023 9.69657 68.5275 9.83929 68.5275H10.2538C10.7713 68.5274 11.2676 68.3217 11.6334 67.9557C11.9993 67.5897 12.2048 67.0934 12.2047 66.5759C12.2046 66.0584 11.999 65.5621 11.633 65.1962C11.267 64.8303 10.7706 64.6248 10.2531 64.6249H7.4445C7.50732 64.7997 7.55444 64.9582 7.57151 65.2771V72.7981C7.56597 73.02 7.52279 73.2393 7.44382 73.4468ZM8.45718 65.4949H10.2497C10.3897 65.4949 10.5284 65.5224 10.6578 65.5759C10.7872 65.6295 10.9047 65.708 11.0038 65.807C11.1028 65.9059 11.1814 66.0235 11.235 66.1528C11.2886 66.2822 11.3163 66.4208 11.3163 66.5608C11.3164 66.7009 11.2888 66.8395 11.2353 66.9689C11.1817 67.0983 11.1032 67.2159 11.0043 67.3149C10.9053 67.414 10.7877 67.4925 10.6584 67.5462C10.529 67.5998 10.3904 67.6274 10.2504 67.6275L8.45718 67.6247V65.4949ZM32.9302 35.5002C31.3617 39.4424 27.733 40.6968 27.733 40.6968L29.0318 43.3852C29.0318 43.3852 29.2161 43.3402 29.5296 43.2289C30.3326 44.1357 33.4922 48.1024 33.6479 54.3199C33.6479 54.3185 33.8705 56.8738 31.5857 58.6649H38.5317C38.5317 58.6649 37.6344 58.0824 37.2766 56.4695C36.9181 54.8573 37.0062 52.0337 35.4841 48.6276C34.2563 45.8866 32.5663 43.0581 31.9537 42.0605C33.8063 40.9269 36.0789 38.9323 37.321 35.5883C39.6496 29.3163 35.1707 24.6557 30.9588 23.8493C30.9588 23.8493 32.1224 25.9566 32.3034 27.4794C32.3034 27.4787 34.9576 30.4027 32.9302 35.5002ZM39.2439 10.3573C38.9442 10.1347 37.9492 9.26748 37.5784 8.97522C37.293 8.75397 36.8314 7.18271 38.247 7.15061C38.9606 7.13354 39.5963 7.67437 39.8326 7.81709L40.23 6.81738C39.9899 6.76815 39.7557 6.69352 39.5314 6.59477C39.2501 6.47595 38.7379 6.26085 38.247 6.26085C37.7546 6.26085 36.4026 6.54833 36.3261 8.00624C36.2626 9.21422 37.0718 9.79943 37.3743 10.0398C37.8024 10.3566 38.8964 11.1972 39.3887 11.8801C39.8817 12.5623 40.1351 13.9908 38.3733 14.1971C37.7696 14.1964 37.1059 13.8966 36.7385 13.6576L36.8812 14.8956C37.2466 14.8307 37.4535 14.9093 37.6105 14.9277C37.881 14.9578 38.247 15.039 38.5932 15.0226C38.9442 15.0069 40.738 14.7058 40.738 12.9747C40.7374 11.452 39.6721 10.7063 39.2439 10.3573ZM32.5608 73.7493C33.5079 73.7493 34.3854 73.7363 35.1044 73.2256L35.0683 72.1439C34.4277 72.7851 33.5414 72.8971 32.5608 72.8971C30.603 72.8971 29.0147 71.1189 29.0147 69.1612C29.0147 67.2034 30.603 65.486 32.5608 65.486C33.4506 65.486 34.2761 65.7325 34.9508 66.2617L34.832 65.1965C34.1478 64.7615 33.4308 64.6345 32.5608 64.6345C30.1319 64.6345 28.1625 66.7316 28.1625 69.1612C28.1618 71.5915 30.1319 73.7493 32.5608 73.7493ZM17.7967 73.5602C18.9631 73.5602 20.0817 73.0968 20.9065 72.272C21.7313 71.4473 22.1946 70.3286 22.1946 69.1622C22.1946 67.9958 21.7313 66.8771 20.9065 66.0524C20.0817 65.2276 18.9631 64.7642 17.7967 64.7642C16.6303 64.7642 15.5116 65.2276 14.6868 66.0524C13.8621 66.8771 13.3987 67.9958 13.3987 69.1622C13.3987 70.3286 13.8621 71.4473 14.6868 72.272C15.5116 73.0968 16.6303 73.5602 17.7967 73.5602ZM17.7967 65.6164C18.7219 65.6387 19.6018 66.0219 20.2484 66.6842C20.8949 67.3464 21.2569 68.2353 21.2569 69.1608C21.2569 70.0864 20.8949 70.9752 20.2484 71.6375C19.6018 72.2998 18.7219 72.683 17.7967 72.7052C16.8564 72.7054 15.9546 72.3322 15.2895 71.6676C14.6244 71.003 14.2504 70.1014 14.2499 69.1612C14.2502 68.2208 14.6241 67.3191 15.2892 66.6543C15.9544 65.9896 16.8563 65.6163 17.7967 65.6164ZM40.1016 73.5738L40.7524 72.527C40.3113 72.7646 39.3723 72.7646 38.7837 72.7646C38.1999 72.7646 37.9274 72.4649 37.9274 72.2102V69.3216C37.9274 68.9707 38.1493 68.8614 38.4197 68.8614H39.9739V67.9696H38.4211C38.1507 67.9696 37.9288 67.8617 37.9288 67.5107V66.1122C37.9288 65.8595 38.1992 65.5584 38.7851 65.5584C39.3737 65.5584 39.8974 65.5584 40.3406 65.796L40.1009 64.7499H36.912C36.9768 64.9247 37.0226 65.0825 37.0383 65.4L37.0397 72.9231C37.035 73.1462 36.9918 73.3668 36.912 73.5752L40.1016 73.5738ZM24.7844 72.9224C24.7799 73.1445 24.7372 73.3642 24.658 73.5718L25.7998 73.5731C25.7215 73.3643 25.6783 73.144 25.6721 72.921H25.6735V68.9229L28.0846 64.7499H27.0535L25.2617 67.9081L23.4685 64.7499H22.4367L24.7851 68.9229L24.7844 72.9224ZM24.953 44.5092C24.7618 43.8639 24.0619 42.4675 23.7123 41.8911C22.4155 42.1097 21.2076 42.182 20.2536 42.182L20.2543 41.4848C19.8104 41.6419 17.8404 41.9273 17.0162 42.025V55.9581C17.0162 57.4187 16.3804 58.1145 15.9359 58.751H21.3318C20.8873 58.1145 20.2529 57.4187 20.2529 55.9594L20.2543 44.9121C21.9259 44.8862 23.5334 44.7462 24.953 44.5092ZM25.6161 13.5128V6.70334C25.6311 6.38581 25.6803 6.22807 25.7445 6.05394L24.6014 6.05462C24.6642 6.22944 24.7106 6.38649 24.7297 6.70334V14.2271C24.7229 14.4496 24.6796 14.6694 24.6014 14.8779H27.7903L28.4411 13.8297C27.9972 14.0673 27.061 14.0666 26.4738 14.0673C25.8851 14.0673 25.6161 13.7668 25.6161 13.5128ZM18.3703 6.0676C17.7861 6.0574 17.2059 6.16364 16.6632 6.38014C16.1206 6.59664 15.6266 6.91905 15.2099 7.32856C14.7933 7.73806 14.4624 8.22646 14.2365 8.76524C14.0106 9.30402 13.8944 9.88239 13.8945 10.4666C13.8945 11.0508 14.011 11.6291 14.237 12.1678C14.4631 12.7066 14.7941 13.1949 15.2109 13.6042C15.6277 14.0136 16.1218 14.3359 16.6645 14.5522C17.2072 14.7685 17.7875 14.8746 18.3716 14.8642C19.5247 14.8437 20.6236 14.3712 21.4318 13.5485C22.2399 12.7257 22.6926 11.6185 22.6924 10.4652C22.6923 9.31197 22.2392 8.2049 21.4308 7.3824C20.6224 6.55989 19.5234 6.08774 18.3703 6.0676ZM18.371 14.0113C17.8982 14.0227 17.428 13.9394 16.988 13.7663C16.5479 13.5933 16.1469 13.334 15.8086 13.0037C15.4702 12.6733 15.2013 12.2787 15.0178 11.8429C14.8342 11.4072 14.7396 10.9391 14.7396 10.4662C14.7396 9.99339 14.8342 9.52531 15.0178 9.08955C15.2013 8.65379 15.4702 8.25914 15.8086 7.92882C16.1469 7.59851 16.5479 7.3392 16.988 7.16615C17.428 6.9931 17.8982 6.90981 18.371 6.92117C19.2964 6.94342 20.1765 7.32669 20.8231 7.98909C21.4698 8.6515 21.8318 9.54052 21.8318 10.4662C21.8318 11.392 21.4698 12.281 20.8231 12.9434C20.1765 13.6058 19.2964 13.9891 18.371 14.0113ZM31.6779 13.5128L31.6765 6.70334C31.6915 6.38649 31.742 6.22875 31.8049 6.05394L30.6618 6.05462C30.7246 6.22944 30.7737 6.38649 30.7901 6.70334V14.2271C30.7843 14.4497 30.7409 14.6697 30.6618 14.8779H33.8521L34.5015 13.8297C34.0576 14.0673 33.1214 14.0666 32.5342 14.0673C31.9469 14.0673 31.6779 13.7668 31.6779 13.5128ZM10.4149 9.95649L10.8267 9.95854C11.3359 9.94507 11.8197 9.73333 12.1751 9.36842C12.5305 9.0035 12.7294 8.51425 12.7294 8.00487C12.7294 7.49549 12.5305 7.00624 12.1751 6.64133C11.8197 6.27641 11.3359 6.06467 10.8267 6.05121L8.01947 6.05462C8.08297 6.22875 8.13009 6.38649 8.14512 6.70402V14.2278C8.14042 14.4505 8.0977 14.6709 8.01879 14.8792H9.16189V14.8779C9.0827 14.6697 9.0393 14.4497 9.03352 14.2271V10.513C9.03352 10.2276 9.20833 10.2426 9.33602 10.4017L13.1293 14.8772H14.2861L10.3508 10.2419C10.2558 10.1306 10.2722 9.95649 10.4149 9.95649ZM9.03215 9.05648V6.92664H10.8247C11.1009 6.93652 11.3626 7.05323 11.5546 7.25218C11.7465 7.45113 11.8538 7.7168 11.8538 7.99326C11.8538 8.26972 11.7465 8.5354 11.5546 8.73435C11.3626 8.9333 11.1009 9.05 10.8247 9.05989L9.03215 9.05648Z" fill="black" stroke="black" stroke-width="0.147498" stroke-miterlimit="22.926"/>
<path d="M9.59158 55.26L14.9869 55.2587C14.543 54.6222 13.9079 53.9264 13.9079 52.4658L13.9086 41.4198C17.5455 41.359 20.5836 40.7588 23.0194 39.7912C26.7314 43.7668 27.1752 49.5459 27.2394 51.1301C27.3023 52.7198 26.478 54.1162 25.2072 55.2593H32.2544C31.1741 54.6871 30.7937 53.1643 30.7316 51.7037C30.033 45.1018 26.3517 39.9605 25.4606 38.6262C29.6431 36.1181 31.4916 32.2743 31.4916 28.7248C31.4916 22.8207 26.2862 20.0272 21.7793 20.0272H9.90911C10.353 20.6615 10.6698 20.9156 10.6698 22.3755V52.4651C10.6698 53.9264 10.0361 54.6243 9.59158 55.26ZM13.9086 22.1222H20.8909C25.7146 22.1222 27.3023 25.1705 27.2394 28.4065C26.9219 37.3582 18.0338 38.6925 13.9086 38.6925V22.1222Z" fill="black" stroke="black" stroke-width="0.147498" stroke-miterlimit="22.926"/>
<path d="M41.8462 3.5343H6.28011C5.7483 3.5352 5.23853 3.74687 4.86248 4.12291C4.48643 4.49896 4.27477 5.00873 4.27386 5.54055V74.1482C4.27386 74.6856 4.48282 75.1875 4.86249 75.5686C5.04822 75.7552 5.26918 75.9031 5.51253 76.0037C5.75589 76.1043 6.01679 76.1555 6.28011 76.1545H41.879C42.415 76.1545 42.8855 75.9462 43.2645 75.5686C43.6435 75.1875 43.819 74.6856 43.819 74.1482V5.53986C43.819 4.43499 42.9531 3.5343 41.8462 3.5343ZM42.6165 74.2964C42.6165 74.702 42.2867 75.0339 41.879 75.0339H6.28011C6.18332 75.034 6.08747 75.0148 5.99815 74.9775C5.90882 74.9403 5.82779 74.8856 5.75977 74.8167C5.69094 74.7487 5.63636 74.6677 5.59919 74.5784C5.56202 74.489 5.54303 74.3932 5.5433 74.2964L5.54399 63.0811H42.6172L42.6165 74.2964ZM42.6165 61.6649H5.54399V17.393L42.6172 17.3588L42.6165 61.6649ZM42.6165 15.9419H5.54399V5.39305C5.54399 5.19638 5.62047 5.01065 5.75977 4.87203C5.89907 4.7334 6.08345 4.65556 6.28011 4.65556H41.879C42.0746 4.65592 42.2621 4.73383 42.4003 4.8722C42.5386 5.01058 42.6163 5.19813 42.6165 5.39373V15.9419Z" fill="black" stroke="black" stroke-width="0.147498" stroke-miterlimit="22.926"/>
<path d="M24.1616 23.4204L16.2568 23.4211C16.7027 24.0548 17.0196 24.3088 17.0196 25.7687V37.7024C18.0657 37.6082 19.525 37.1315 20.2543 36.8775V25.5154H25.9712C25.6523 24.7233 24.796 23.8021 24.1616 23.4204Z" fill="black" stroke="black" stroke-width="0.147498" stroke-miterlimit="22.926"/>
<defs>
<linearGradient id="paint0_linear_1_2384" x1="24.046" y1="-0.13684" x2="24.046" y2="79.988" gradientUnits="userSpaceOnUse">
<stop stop-color="#E8E8E8"/>
<stop offset="1" stop-color="#9C9C9C"/>
</linearGradient>
<linearGradient id="paint1_linear_1_2384" x1="6.19078" y1="2.58162" x2="45.3419" y2="84.5269" gradientUnits="userSpaceOnUse">
<stop offset="0.083" stop-color="white"/>
<stop offset="0.611" stop-color="#A8A8A8"/>
<stop offset="1" stop-color="white"/>
</linearGradient>
</defs>
</svg>
