<svg width="52" height="66" viewBox="0 0 52 66" fill="none" xmlns="http://www.w3.org/2000/svg">
<g clip-path="url(#clip0_1_2440)">
<path d="M43.7947 61.5408V65.4923H45.0619V62.8614H49.674V65.4923H50.9403V61.5476L43.7947 61.5408ZM44.9207 60.2625H49.7934C50.4702 60.128 50.9735 59.5307 51.1154 58.9529H43.5989C43.7393 59.5309 44.25 60.128 44.9207 60.2625ZM39.9568 65.4948C40.5957 65.2239 40.9394 64.7554 41.0711 64.2072H35.3874L35.391 58.9562L34.117 58.9598V65.4948H39.9568ZM24.6425 60.2449H29.1426C29.821 60.0477 30.3907 59.5309 30.5295 58.958H23.381V62.8199H29.2318V64.1751L24.6425 64.1787C23.9233 64.3792 23.3134 64.8622 23.0092 65.5L23.381 65.4932H30.489V61.5359H24.6425V60.2449ZM13.5332 60.2573H18.4043C19.082 60.1222 19.5857 59.5255 19.7269 58.9472H12.2106C12.3509 59.5255 12.862 60.1222 13.5332 60.2573ZM13.5332 62.8401H18.4043C19.082 62.7064 19.5857 62.1092 19.7269 61.5305H12.2106C12.3509 62.1093 12.862 62.7064 13.5332 62.8401ZM13.5332 65.4941H18.4043C19.082 65.3594 19.5857 64.7623 19.7269 64.1843H12.2106C12.3509 64.7625 12.862 65.3594 13.5332 65.4941ZM0.860809 58.963C1.00724 59.5341 1.50172 60.1179 2.18015 60.2641H4.23057L4.33517 60.3054V65.4795H5.61555V60.3054L5.73187 60.2641H7.78409C8.47009 60.0874 8.95394 59.5341 9.09784 58.963V58.9504H0.860809V58.963Z" fill="#E82127"/>
<path d="M25.9908 46.0352L32.3884 10.0547C38.4865 10.0547 40.41 10.7234 40.6877 13.4528C40.6877 13.4528 44.7784 11.9275 46.8416 8.82967C38.7904 5.09887 30.7007 4.93062 30.7007 4.93062L25.9802 10.6801L25.9908 10.6794L21.2703 4.92972C21.2703 4.92972 13.1805 5.09815 5.13025 8.82895C7.19167 11.9268 11.284 13.452 11.284 13.452C11.5634 10.7225 13.4845 10.0538 19.5416 10.0495L25.9908 46.0352Z" fill="#E82127"/>
<path d="M25.9883 3.26996C32.4966 3.22019 39.9461 4.27678 47.5722 7.60056C48.5914 5.766 48.8535 4.9552 48.8535 4.9552C40.5171 1.65704 32.7101 0.528313 25.9874 0.5C19.265 0.528313 11.4584 1.65722 3.12311 4.9552C3.12311 4.9552 3.49496 5.95391 4.40349 7.60056C12.0281 4.27678 19.4789 3.22019 25.9874 3.26996H25.9883Z" fill="#E82127"/>
</g>
<defs>
<clipPath id="clip0_1_2440">
<rect width="50.258" height="65" fill="white" transform="translate(0.859131 0.5)"/>
</clipPath>
</defs>
</svg>
