<svg width="65" height="64" viewBox="0 0 65 64" fill="none" xmlns="http://www.w3.org/2000/svg">
<g clip-path="url(#clip0_1001_4207)">
<path d="M28.5893 63.9995C26.44 63.9995 24.4907 62.9995 23.24 61.2556C21.9867 59.5116 21.664 57.3435 22.352 55.3089L27.7973 39.9995H15.0346L11.76 44.9915C10.5226 46.8769 8.43731 47.9995 6.18398 47.9995C4.38131 47.9995 2.70131 47.1249 1.67998 45.6609C0.653314 44.1942 0.40798 42.3169 1.02398 40.6342L4.03465 32.0209L0.845314 23.6662C0.42398 21.5089 0.930647 19.4956 2.13598 18.0449C3.23198 16.7276 4.75465 16.0022 6.42398 16.0022C8.66931 16.0022 10.7466 17.1169 11.984 18.9889L15.304 24.0022H27.7947L22.3573 8.71422C21.6613 6.65822 21.984 4.49288 23.2373 2.74888C24.488 1.00488 26.4373 0.00488281 28.5867 0.00488281C31.352 0.00488281 33.8933 1.51155 35.2187 3.94088L46.704 24.0049H56.3093C60.392 24.0049 63.9387 26.8716 64.5573 30.6716C64.9413 33.0209 64.2853 35.3942 62.7627 37.1862C61.24 38.9782 59.0187 40.0049 56.6667 40.0049H46.7066L35.208 60.0929C33.896 62.4982 31.3547 64.0049 28.5893 64.0049V63.9995ZM14.3146 37.3329H29.688C30.12 37.3329 30.5253 37.5435 30.776 37.8982C31.0267 38.2529 31.088 38.7062 30.9413 39.1142L24.8693 56.1835C24.4693 57.3755 24.6613 58.6635 25.4053 59.7009C26.1493 60.7382 27.3093 61.3329 28.5867 61.3329C30.376 61.3329 32.0213 60.3569 32.88 58.7836L44.7733 38.0022C45.0107 37.5889 45.4507 37.3329 45.9307 37.3329H56.664C58.232 37.3329 59.7147 36.6476 60.728 35.4529C61.76 34.2396 62.184 32.6929 61.9227 31.0956C61.512 28.5702 59.096 26.6662 56.3067 26.6662H45.928C45.448 26.6662 45.008 26.4102 44.7706 25.9969L32.896 5.23688C32.024 3.64222 30.3787 2.66622 28.5893 2.66622C27.312 2.66622 26.152 3.26088 25.408 4.29822C24.664 5.33555 24.4693 6.62622 24.88 7.83688L30.944 24.8876C31.0907 25.2956 31.0266 25.7489 30.7787 26.1035C30.5306 26.4582 30.1227 26.6689 29.6907 26.6689H14.592C14.144 26.6689 13.728 26.4449 13.48 26.0716L9.76265 20.4609C8.54398 18.6209 5.67465 17.9676 4.18665 19.7516C3.47998 20.5996 3.18665 21.7969 3.39998 22.9516L6.69598 31.5275C6.80798 31.8209 6.81331 32.1462 6.70931 32.4422L3.53331 41.5356C3.20798 42.4289 3.33065 43.3702 3.86398 44.1356C4.39731 44.9009 5.23998 45.3382 6.17065 45.3382C7.53598 45.3382 8.78665 44.6636 9.53065 43.5329L13.2 37.9409C13.448 37.5649 13.864 37.3382 14.3146 37.3382V37.3329Z" fill="#FF9E52"/>
</g>
<defs>
<clipPath id="clip0_1001_4207">
<rect width="64" height="64" fill="white" transform="translate(0.666626)"/>
</clipPath>
</defs>
</svg>
