<svg width="17" height="16" viewBox="0 0 17 16" fill="none" xmlns="http://www.w3.org/2000/svg">
<path d="M14.2136 6.35403L9.21359 11.354C9.16715 11.4005 9.11201 11.4374 9.05131 11.4626C8.99061 11.4877 8.92554 11.5007 8.85984 11.5007C8.79413 11.5007 8.72906 11.4877 8.66837 11.4626C8.60767 11.4374 8.55252 11.4005 8.50609 11.354L3.50609 6.35403C3.41227 6.26021 3.35956 6.13296 3.35956 6.00028C3.35956 5.8676 3.41227 5.74035 3.50609 5.64653C3.59991 5.55271 3.72715 5.5 3.85984 5.5C3.99252 5.5 4.11977 5.55271 4.21359 5.64653L8.85984 10.2934L13.5061 5.64653C13.5525 5.60007 13.6077 5.56322 13.6684 5.53808C13.7291 5.51294 13.7941 5.5 13.8598 5.5C13.9255 5.5 13.9906 5.51294 14.0513 5.53808C14.112 5.56322 14.1671 5.60007 14.2136 5.64653C14.26 5.69298 14.2969 5.74813 14.322 5.80883C14.3472 5.86953 14.3601 5.93458 14.3601 6.00028C14.3601 6.06598 14.3472 6.13103 14.322 6.19173C14.2969 6.25242 14.26 6.30757 14.2136 6.35403Z" fill="#FCFCFC"/>
</svg>
