<svg width="10" height="18" viewBox="0 0 10 18" fill="none" xmlns="http://www.w3.org/2000/svg">
<path d="M9.03062 9.53104L1.53062 17.031C1.46093 17.1007 1.37821 17.156 1.28716 17.1937C1.19612 17.2314 1.09854 17.2508 0.99999 17.2508C0.901444 17.2508 0.803862 17.2314 0.712817 17.1937C0.621773 17.156 0.539047 17.1007 0.469364 17.031C0.399682 16.9614 0.344406 16.8786 0.306695 16.7876C0.268983 16.6965 0.249573 16.599 0.249573 16.5004C0.249573 16.4019 0.268983 16.3043 0.306695 16.2132C0.344406 16.1222 0.399682 16.0395 0.469364 15.9698L7.43968 9.00042L0.469364 2.03104C0.328634 1.89031 0.249573 1.69944 0.249573 1.50042C0.249573 1.30139 0.328634 1.11052 0.469364 0.969792C0.610095 0.829062 0.800967 0.75 0.99999 0.75C1.19901 0.75 1.38988 0.829062 1.53062 0.969792L9.03062 8.46979C9.10035 8.53945 9.15567 8.62216 9.19341 8.71321C9.23115 8.80426 9.25058 8.90186 9.25058 9.00042C9.25058 9.09898 9.23115 9.19657 9.19341 9.28762C9.15567 9.37867 9.10035 9.46139 9.03062 9.53104Z" fill="#424242"/>
</svg>
