<svg width="16" height="16" viewBox="0 0 16 16" fill="none" xmlns="http://www.w3.org/2000/svg">
<path d="M2.64622 5.64625C2.69265 5.59976 2.7478 5.56288 2.8085 5.53772C2.8692 5.51256 2.93426 5.49961 2.99997 5.49961C3.06567 5.49961 3.13074 5.51256 3.19144 5.53772C3.25214 5.56288 3.30728 5.59976 3.35372 5.64625L7.99997 10.2931L12.6462 5.64625C12.74 5.55243 12.8673 5.49972 13 5.49972C13.1326 5.49972 13.2599 5.55243 13.3537 5.64625C13.4475 5.74007 13.5002 5.86732 13.5002 6C13.5002 6.13268 13.4475 6.25993 13.3537 6.35375L8.35372 11.3538C8.30728 11.4002 8.25214 11.4371 8.19144 11.4623C8.13074 11.4874 8.06567 11.5004 7.99997 11.5004C7.93426 11.5004 7.8692 11.4874 7.8085 11.4623C7.7478 11.4371 7.69265 11.4002 7.64622 11.3538L2.64622 6.35375C2.59973 6.30732 2.56285 6.25217 2.53769 6.19147C2.51252 6.13077 2.49957 6.06571 2.49957 6C2.49957 5.93429 2.51252 5.86923 2.53769 5.80853C2.56285 5.74783 2.59973 5.69269 2.64622 5.64625Z" fill="#F78B36"/>
</svg>
