<svg width="64" height="64" viewBox="0 0 64 64" fill="none" xmlns="http://www.w3.org/2000/svg">
<g clip-path="url(#clip0_707_815)">
<path d="M41.0781 -0.000486743C40.5858 0.0192056 40.1107 0.107821 39.6159 0.230898L6.1538 8.38351C2.19564 9.35336 -0.280664 13.346 0.691643 17.3066L5.38334 36.4623C5.66764 37.6033 6.2212 38.6596 6.99765 39.5427C7.77411 40.4258 8.75086 41.11 9.8461 41.538V36.9226C9.8461 30.1361 15.3673 24.6149 22.1538 24.6149H53.1544L48.539 5.61428C48.1308 3.96264 47.1655 2.50228 45.806 1.47947C44.4464 0.456655 42.7782 -0.0660434 41.0781 -0.000486743ZM44.0763 10.6161L46.0775 19.0001L37.7698 20.9989L35.6923 12.6912L44.0763 10.6161ZM22.1538 29.538C18.0775 29.538 14.7692 32.8463 14.7692 36.9226V56.6149C14.7692 60.6912 18.0775 63.9995 22.1538 63.9995H56.6153C60.6916 63.9995 63.9999 60.6912 63.9999 56.6149V36.9226C63.9999 32.8463 60.6916 29.538 56.6153 29.538H22.1538ZM22.1538 33.4617H56.6153C58.5132 33.4617 60.0763 35.0247 60.0763 36.9226V39.3841H18.6929V36.9226C18.6929 35.0247 20.256 33.4617 22.1538 33.4617ZM18.6929 46.7687H60.0763V56.6149C60.0763 58.5127 58.5132 60.0758 56.6153 60.0758H22.1538C21.2375 60.0707 20.3602 59.7044 19.7123 59.0564C19.0643 58.4085 18.698 57.5312 18.6929 56.6149V46.7687Z" fill="#FF9E52"/>
</g>
<defs>
<clipPath id="clip0_707_815">
<rect width="64" height="64" fill="white"/>
</clipPath>
</defs>
</svg>
