<svg width="64" height="64" viewBox="0 0 64 64" fill="none" xmlns="http://www.w3.org/2000/svg">
<path d="M52 5.33301H25.3333C18.72 5.33301 13.3333 10.7197 13.3333 17.333V35.9997C13.3333 42.613 18.72 47.9997 25.3333 47.9997H52C58.6133 47.9997 64 42.613 64 35.9997V17.333C64 10.7197 58.6133 5.33301 52 5.33301ZM25.3333 7.99967H52C56.6933 7.99967 60.5333 11.493 61.2 15.9997H16.1333C16.8 11.493 20.64 7.99967 25.3333 7.99967ZM52 45.333H25.3333C20.1867 45.333 16 41.1463 16 35.9997V18.6663H61.3333V35.9997C61.3333 41.1463 57.1467 45.333 52 45.333ZM47.68 53.7863C48.16 54.3463 48.1067 55.173 47.5733 55.6797C45.3867 57.6263 42.56 58.6663 39.6267 58.6663H12C5.38667 58.6663 0 53.2797 0 46.6663V26.5597C0 22.293 2.29333 18.293 6 16.1597C6.64 15.7863 7.44 15.9997 7.81333 16.6397C8.18667 17.2797 7.97333 18.0797 7.33333 18.453C4.45333 20.1063 2.66667 23.2263 2.66667 26.533V46.6397C2.66667 51.7863 6.85333 55.973 12 55.973H39.6C41.8667 55.973 44.0533 55.1463 45.76 53.6263C46.32 53.1463 47.1467 53.1997 47.6533 53.733L47.68 53.7863Z" fill="#FF9E52"/>
</svg>
