<svg width="80" height="76" viewBox="0 0 80 76" fill="none" xmlns="http://www.w3.org/2000/svg">
<path d="M45.5552 71.8956V58.5473C45.5552 56.7361 47.0233 55.2692 48.8333 55.2692C55.2922 55.2692 58.8059 48.6451 59.2936 35.5691H48.8333C47.0235 35.5691 45.5552 34.1001 45.5552 32.2909V4.10538C45.5552 2.2949 47.0233 0.827945 48.8333 0.827945H76.7216C78.5312 0.827945 80 2.2965 80 4.10538V32.2912C80 38.5589 79.3672 44.3105 78.1251 49.3902C76.8491 54.5975 74.8903 59.15 72.3045 62.9227C69.6452 66.7997 66.3157 69.842 62.4145 71.9607C58.4837 74.0929 53.9144 75.1751 48.832 75.1751C47.0235 75.1737 45.5552 73.7054 45.5552 71.8956ZM3.27743 55.268C1.46764 55.268 0 56.7361 0 58.5448V71.8958C0 73.7054 1.46764 75.1726 3.27743 75.1726C8.35733 75.1726 12.9289 74.0902 16.8572 71.9582C20.7605 69.8397 24.0895 66.7999 26.7486 62.9202C29.336 59.1475 31.2946 54.5947 32.5706 49.3849C33.8134 44.3052 34.4448 38.5534 34.4448 32.2884V4.10263C34.4448 2.29215 32.9758 0.825195 31.1667 0.825195H3.27743C1.46764 0.825195 0 2.29352 0 4.10263V32.2884C0 34.0987 1.46764 35.5665 3.27743 35.5665H13.5908C13.109 48.6437 9.64598 55.268 3.27743 55.268Z" fill="#1C1C1C"/>
</svg>
