<svg width="64" height="60" viewBox="0 0 64 60" fill="none" xmlns="http://www.w3.org/2000/svg">
<path d="M36.4442 57.1161V46.4375C36.4442 44.9885 37.6186 43.815 39.0667 43.815C44.2337 43.815 47.0447 38.5157 47.4349 28.0549H39.0667C37.6188 28.0549 36.4442 26.8797 36.4442 25.4324V2.88391C36.4442 1.43553 37.6186 0.261966 39.0667 0.261966H61.3773C62.825 0.261966 64 1.43681 64 2.88391V25.4325C64 30.4467 63.4938 35.048 62.5001 39.1117C61.4793 43.2776 59.9122 46.9196 57.8436 49.9378C55.7161 53.0393 53.0526 55.4732 49.9316 57.1682C46.7869 58.874 43.1315 59.7397 39.0656 59.7397C37.6188 59.7386 36.4442 58.5639 36.4442 57.1161ZM2.62195 43.814C1.17411 43.814 0 44.9885 0 46.4354V57.1163C0 58.5639 1.17411 59.7377 2.62195 59.7377C6.68586 59.7377 10.3431 58.8718 13.4858 57.1661C16.6084 55.4714 19.2716 53.0395 21.3989 49.9358C23.4688 46.9176 25.0356 43.2754 26.0565 39.1075C27.0507 35.0438 27.5558 30.4423 27.5558 25.4303V2.88171C27.5558 1.43333 26.3806 0.259766 24.9333 0.259766H2.62195C1.17411 0.259766 0 1.43443 0 2.88171V25.4303C0 26.8785 1.17411 28.0528 2.62195 28.0528H10.8726C10.4872 38.5146 7.71678 43.814 2.62195 43.814Z" fill="#FF9E52"/>
</svg>
