<svg width="80" height="80" viewBox="0 0 80 80" fill="none" xmlns="http://www.w3.org/2000/svg">
<g clip-path="url(#clip0_1001_2522)">
<path d="M45.5552 73.8956V60.5473C45.5552 58.7361 47.0233 57.2692 48.8333 57.2692C55.2922 57.2692 58.8059 50.6451 59.2936 37.5691H48.8333C47.0235 37.5691 45.5552 36.1001 45.5552 34.2909V6.10538C45.5552 4.2949 47.0233 2.82795 48.8333 2.82795H76.7216C78.5312 2.82795 80 4.2965 80 6.10538V34.2912C80 40.5589 79.3672 46.3105 78.1251 51.3902C76.8491 56.5975 74.8903 61.15 72.3045 64.9227C69.6452 68.7997 66.3157 71.842 62.4145 73.9607C58.4837 76.0929 53.9144 77.1751 48.832 77.1751C47.0235 77.1737 45.5552 75.7054 45.5552 73.8956ZM3.27743 57.268C1.46764 57.268 0 58.7361 0 60.5448V73.8958C0 75.7054 1.46764 77.1726 3.27743 77.1726C8.35733 77.1726 12.9289 76.0902 16.8572 73.9582C20.7605 71.8397 24.0895 68.7999 26.7486 64.9202C29.336 61.1475 31.2946 56.5947 32.5706 51.3849C33.8134 46.3052 34.4448 40.5534 34.4448 34.2884V6.10263C34.4448 4.29215 32.9758 2.8252 31.1667 2.8252H3.27743C1.46764 2.8252 0 4.29352 0 6.10263V34.2884C0 36.0987 1.46764 37.5665 3.27743 37.5665H13.5908C13.109 50.6437 9.64598 57.268 3.27743 57.268Z" fill="#0A0A0A"/>
</g>
<defs>
<clipPath id="clip0_1001_2522">
<rect width="80" height="80" fill="white"/>
</clipPath>
</defs>
</svg>
