<svg width="65" height="64" viewBox="0 0 65 64" fill="none" xmlns="http://www.w3.org/2000/svg">
<g clip-path="url(#clip0_1001_5519)">
<path d="M40.5 18.667V6.667C40.5 5.931 41.0973 5.33367 41.8333 5.33367C42.5693 5.33367 43.1667 5.931 43.1667 6.667V18.667C43.1667 18.9257 43.204 19.1763 43.2733 19.4137L62.2227 0.392334C62.7427 -0.130333 63.588 -0.130333 64.108 0.389667C64.6307 0.909667 64.6307 1.755 64.1133 2.27767L45.204 21.2617C45.4067 21.3097 45.6173 21.3363 45.8333 21.3363H57.8333C58.5693 21.3363 59.1667 21.9337 59.1667 22.6697C59.1667 23.4057 58.5693 24.003 57.8333 24.003H45.8333C42.892 24.003 40.5 21.6083 40.5 18.667ZM62.268 46.1283C63.7533 47.5977 64.5 49.4003 64.5 51.315C64.5 53.2297 63.7533 55.035 62.3987 56.387L59.7907 59.387C56.8013 62.3843 52.836 63.9977 48.5613 63.9977C27.9 64.0003 0.5 36.6003 0.5 15.9363C0.5 11.6617 2.11333 7.69633 5.04667 4.771L8.17733 2.04033C10.756 -0.546333 15.5453 -0.607666 18.2573 2.10167L23.4813 8.883C26.164 11.5497 26.164 16.1017 23.3667 18.899L19.3987 22.9657C23.7107 33.107 31.7027 41.1097 41.5187 45.107L45.604 41.123C48.396 38.331 52.9453 38.3337 55.7427 41.131L62.2653 46.1257L62.268 46.1283ZM60.5133 48.1283L53.9907 43.1337C52.028 41.2003 49.188 41.315 47.4867 43.019C47.4867 43.0243 42.764 47.6243 42.764 47.6243C42.3933 47.987 41.8467 48.1043 41.3587 47.9123C30.2333 43.6643 21.2067 34.6457 16.5987 23.1657C16.4013 22.675 16.5133 22.115 16.8813 21.7363L21.4733 17.027C23.244 15.2563 23.244 12.3977 21.484 10.6377L16.26 3.85633C15.4547 3.059 14.356 2.651 13.2387 2.651C12.076 2.651 10.8947 3.091 9.99867 3.98433L6.86533 6.71767C4.50267 9.07767 3.16667 12.3737 3.16667 15.9337C3.16667 35.027 29.4707 61.331 48.5613 61.331C52.1213 61.331 55.4173 59.995 57.8413 57.5683L60.4493 54.5683C62.2707 52.7417 62.2707 49.883 60.5107 48.1257L60.5133 48.1283Z" fill="#FF9E52"/>
</g>
<defs>
<clipPath id="clip0_1001_5519">
<rect width="64" height="64" fill="white" transform="translate(0.5)"/>
</clipPath>
</defs>
</svg>
