<svg width="65" height="64" viewBox="0 0 65 64" fill="none" xmlns="http://www.w3.org/2000/svg">
<path d="M62.1159 34.5275C61.6659 29.4762 60.9246 28.4925 60.6446 28.1225C60.0009 27.2675 58.9709 26.7087 57.8809 26.1225C57.8192 26.0899 57.766 26.0434 57.7254 25.9868C57.6848 25.9301 57.6579 25.8647 57.6469 25.7959C57.6358 25.727 57.641 25.6566 57.6618 25.59C57.6827 25.5235 57.7187 25.4627 57.7671 25.4125C57.969 25.2078 58.1241 24.9618 58.2219 24.6914C58.3196 24.4211 58.3576 24.1327 58.3334 23.8463C58.2864 23.3383 58.0501 22.8665 57.6716 22.5245C57.293 22.1825 56.7997 21.9953 56.2896 22H54.3396C54.256 22.0005 54.1726 22.0059 54.0896 22.0163C54.0327 21.9916 53.9737 21.9719 53.9134 21.9575C52.7584 19.5163 51.1771 16.1737 47.8996 14.5425C43.0384 12.125 34.0834 12 32.3334 12C30.5834 12 21.6284 12.125 16.7734 14.5387C13.4959 16.17 11.9146 19.5125 10.7596 21.9538L10.7496 21.9737C10.692 21.9819 10.6354 21.9961 10.5809 22.0163C10.4979 22.0059 10.4144 22.0005 10.3309 22H8.37711C7.86698 21.9953 7.37371 22.1825 6.99515 22.5245C6.61659 22.8665 6.38037 23.3383 6.33336 23.8463C6.31116 24.1321 6.35093 24.4193 6.44995 24.6883C6.54897 24.9573 6.70491 25.2018 6.90711 25.405C6.95549 25.4552 6.99153 25.516 7.01239 25.5825C7.03326 25.6491 7.03838 25.7195 7.02735 25.7884C7.01632 25.8572 6.98944 25.9226 6.94883 25.9793C6.90823 26.0359 6.855 26.0824 6.79336 26.115C5.70336 26.705 4.66836 27.2638 4.02961 28.115C3.74961 28.49 3.00961 29.4688 2.55836 34.52C2.30836 37.3625 2.27086 40.305 2.46711 42.2C2.87836 46.1375 3.64961 48.5175 3.68211 48.6162C3.80046 48.9756 4.01831 49.294 4.31037 49.5345C4.60244 49.775 4.95673 49.9278 5.33211 49.975V50C5.33211 50.5304 5.54283 51.0391 5.9179 51.4142C6.29297 51.7893 6.80168 52 7.33211 52H14.3321C14.8625 52 15.3713 51.7893 15.7463 51.4142C16.1214 51.0391 16.3321 50.5304 16.3321 50C17.4084 50 18.1571 49.8075 18.9509 49.6025C20.0968 49.2937 21.2682 49.0883 22.4509 48.9888C26.2646 48.625 30.0571 48.5 32.3334 48.5C34.5634 48.5 38.5234 48.625 42.3434 48.9888C43.5307 49.0885 44.7067 49.2948 45.8571 49.605C46.6171 49.8 47.3384 49.98 48.3371 49.9987C48.3371 50.5292 48.5478 51.0379 48.9229 51.413C49.298 51.788 49.8067 51.9987 50.3371 51.9987H57.3371C57.8675 51.9987 58.3763 51.788 58.7513 51.413C59.1264 51.0379 59.3371 50.5292 59.3371 49.9987V49.9837C59.7134 49.9374 60.0688 49.7851 60.3618 49.5445C60.6548 49.304 60.8734 48.9851 60.9921 48.625C61.0246 48.5262 61.7959 46.1463 62.2071 42.2088C62.4034 40.3125 62.3684 37.375 62.1159 34.5275ZM14.3746 23.6637C15.3746 21.5387 16.5184 19.1338 18.5546 18.12C21.4971 16.655 27.5959 15.995 32.3334 15.995C37.0709 15.995 43.1696 16.65 46.1121 18.12C48.1484 19.1338 49.2871 21.54 50.2921 23.6637L50.4171 23.935C50.4902 24.0894 50.5225 24.26 50.511 24.4304C50.4994 24.6009 50.4444 24.7656 50.3511 24.9087C50.2579 25.0519 50.1295 25.1687 49.9782 25.2482C49.827 25.3276 49.6579 25.367 49.4871 25.3625C45.3334 25.25 36.5834 24.89 32.3334 24.89C28.0834 24.89 19.3334 25.2587 15.1734 25.3713C15.0026 25.3757 14.8335 25.3364 14.6822 25.2569C14.531 25.1775 14.4026 25.0606 14.3093 24.9175C14.2161 24.7743 14.1611 24.6097 14.1495 24.4392C14.138 24.2687 14.1703 24.0982 14.2434 23.9438C14.2871 23.8513 14.3334 23.7575 14.3746 23.6637ZM15.8659 33.6175C13.7156 33.8763 11.5516 34.004 9.38586 34C8.06086 34 6.69461 33.625 6.44086 32.445C6.26711 31.6512 6.28586 31.205 6.37961 30.7563C6.45836 30.375 6.58336 30.0975 7.20836 30C8.83336 29.75 9.74211 30.0637 12.4021 30.8475C14.1659 31.3662 15.4384 32.0575 16.1634 32.605C16.5271 32.875 16.3334 33.58 15.8659 33.6175ZM43.5384 43.8675C41.8934 44.055 38.6034 43.9863 32.3709 43.9863C26.1384 43.9863 22.8496 44.055 21.2046 43.8675C19.5071 43.6788 17.3434 42.0737 18.8209 40.6437C19.8046 39.7013 22.0996 38.9962 25.1559 38.6C28.2121 38.2037 29.5059 38 32.3584 38C35.2109 38 36.3734 38.125 39.5609 38.6012C42.7484 39.0775 45.1571 39.7913 45.8959 40.645C47.2434 42.175 45.2346 43.6688 43.5384 43.875V43.8675ZM58.2259 32.4437C57.9759 33.6287 56.6009 33.9987 55.2809 33.9987C53.0736 33.9993 50.8683 33.8715 48.6759 33.6162C48.2934 33.58 48.1159 32.9087 48.5034 32.6037C49.2171 32.0425 50.5034 31.365 52.2646 30.8463C54.9246 30.0625 56.4584 29.7488 57.7759 30.01C58.0971 30.0737 58.2671 30.4188 58.2871 30.635C58.3753 31.2371 58.3545 31.8502 58.2259 32.445V32.4437Z" fill="#FF9E52"/>
</svg>
