<svg width="17" height="12" viewBox="0 0 17 12" fill="none" xmlns="http://www.w3.org/2000/svg">
<path d="M15.9422 1.06705L5.94223 11.067C5.88418 11.1252 5.81525 11.1713 5.73938 11.2027C5.66351 11.2342 5.58218 11.2504 5.50004 11.2504C5.41791 11.2504 5.33658 11.2342 5.2607 11.2027C5.18483 11.1713 5.1159 11.1252 5.05785 11.067L0.682855 6.69205C0.565579 6.57477 0.499695 6.41571 0.499695 6.24986C0.499695 6.08401 0.565579 5.92495 0.682855 5.80767C0.80013 5.6904 0.95919 5.62451 1.12504 5.62451C1.29089 5.62451 1.44995 5.6904 1.56723 5.80767L5.50004 9.74127L15.0579 0.182671C15.1751 0.065396 15.3342 -0.000488282 15.5 -0.000488281C15.6659 -0.00048828 15.825 0.065396 15.9422 0.182671C16.0595 0.299947 16.1254 0.459007 16.1254 0.624859C16.1254 0.790712 16.0595 0.949772 15.9422 1.06705Z" fill="#424242"/>
</svg>
