<svg width="16" height="16" viewBox="0 0 16 16" fill="none" xmlns="http://www.w3.org/2000/svg">
<path d="M8.87985 13.7842C10.9962 13.7842 12.7119 12.0775 12.7119 9.97216C12.7119 7.86685 10.9962 6.16016 8.87985 6.16016C6.7635 6.16016 5.04785 7.86685 5.04785 9.97216C5.04785 12.0775 6.7635 13.7842 8.87985 13.7842Z" fill="#424242"/>
<path d="M9.81573 4.89978V5.75978C11.7317 6.19578 13.1677 7.91178 13.1677 9.95578C13.1677 12.3278 11.2357 14.2598 8.86373 14.2598C6.49173 14.2598 4.55973 12.3278 4.55973 9.95578C4.55973 7.91178 5.99573 6.19578 7.91173 5.75978V4.90378C5.52773 5.35178 3.71973 7.44778 3.71973 9.95978C3.71973 12.7958 6.02773 15.1038 8.86373 15.1038C11.6997 15.1038 14.0077 12.7958 14.0077 9.95978C14.0037 7.44378 12.1957 5.35178 9.81573 4.89978Z" fill="#424242"/>
<path d="M9.49587 6.43595H8.41188C8.00388 6.43595 7.67188 6.10395 7.67188 5.69595V4.61195C7.67188 4.20395 8.00388 3.87195 8.41188 3.87195H9.49587C9.90387 3.87195 10.2359 4.20395 10.2359 4.61195V5.69595C10.2359 6.10395 9.90387 6.43595 9.49587 6.43595ZM8.41188 4.52795C8.36388 4.52795 8.32787 4.56795 8.32787 4.61195V5.69595C8.32787 5.74395 8.36788 5.77995 8.41188 5.77995H9.49587C9.54387 5.77995 9.57987 5.73995 9.57987 5.69595V4.61195C9.57987 4.56395 9.53987 4.52795 9.49587 4.52795H8.41188Z" fill="#424242"/>
<path d="M2.55585 9.34787L1.99585 9.32787C1.89185 5.39987 3.76385 3.32387 5.34785 2.27187C7.05985 1.13987 8.77185 0.939874 8.84785 0.931874L9.15985 0.895874V3.16787L8.89185 3.17987C6.51185 3.27587 4.72385 4.33187 3.57985 6.31987C2.71585 7.82787 2.55985 9.33187 2.55585 9.34787ZM8.59985 1.53987C8.04385 1.64787 6.82785 1.95987 5.63985 2.75187C4.30385 3.63987 3.39985 4.84387 2.92785 6.34387C2.97585 6.25187 3.02785 6.15587 3.07985 6.06387C3.91585 4.60787 5.54385 2.85587 8.59985 2.63987V1.53987Z" fill="#424242"/>
<path d="M6.66016 11.4476L7.24416 8.70764H7.61216L8.19616 11.4476H7.83216L7.70816 10.7556H7.15216L7.02016 11.4476H6.66016ZM7.20416 10.4836H7.66016L7.43216 9.24764L7.20416 10.4836Z" fill="white"/>
<path d="M8.36035 11.4476L9.10035 8.70764H9.41235L8.67235 11.4476H8.36035Z" fill="white"/>
<path d="M10.4084 11.4755C10.2964 11.4755 10.1964 11.4595 10.1084 11.4275C10.0244 11.3955 9.95236 11.3555 9.89636 11.3035C9.84036 11.2515 9.79636 11.1835 9.76436 11.1075C9.72836 11.0275 9.70436 10.9475 9.69236 10.8595C9.68036 10.7715 9.67236 10.6755 9.67236 10.5675V9.59947C9.67236 9.48347 9.68036 9.37947 9.69236 9.29147C9.70436 9.19947 9.72836 9.11547 9.76436 9.03947C9.80036 8.95947 9.84436 8.89547 9.89636 8.84747C9.95236 8.79547 10.0204 8.75547 10.1084 8.72747C10.1924 8.69947 10.2924 8.68347 10.4084 8.68347C10.6564 8.68347 10.8324 8.75147 10.9404 8.88347C11.0484 9.01547 11.1004 9.21147 11.1004 9.47147V9.69147H10.7404V9.49947C10.7404 9.45947 10.7404 9.42347 10.7404 9.39947C10.7404 9.37547 10.7404 9.34747 10.7364 9.31147C10.7364 9.27547 10.7324 9.24747 10.7284 9.22747C10.7244 9.20747 10.7164 9.18347 10.7124 9.15947C10.7044 9.13147 10.6964 9.11147 10.6844 9.09947C10.6724 9.08347 10.6604 9.06747 10.6444 9.05147C10.6284 9.03547 10.6084 9.02347 10.5884 9.01547C10.5684 9.00747 10.5444 8.99947 10.5124 8.99547C10.4844 8.99147 10.4524 8.98747 10.4164 8.98747C10.3644 8.98747 10.3164 8.99147 10.2764 9.00347C10.2364 9.01547 10.2044 9.03147 10.1804 9.05947C10.1564 9.08347 10.1324 9.11147 10.1204 9.13947C10.1044 9.16747 10.0924 9.20747 10.0844 9.25547C10.0764 9.30347 10.0724 9.34747 10.0684 9.39147C10.0644 9.43547 10.0644 9.48747 10.0644 9.55147V10.6355C10.0644 10.8395 10.0884 10.9835 10.1404 11.0635C10.1924 11.1435 10.2844 11.1835 10.4164 11.1835C10.4684 11.1835 10.5124 11.1795 10.5484 11.1675C10.5844 11.1555 10.6164 11.1395 10.6404 11.1115C10.6644 11.0875 10.6844 11.0595 10.6964 11.0315C10.7124 11.0035 10.7204 10.9675 10.7284 10.9195C10.7364 10.8715 10.7404 10.8275 10.7404 10.7915C10.7404 10.7555 10.7444 10.6995 10.7444 10.6355V10.4355H11.1044V10.6395C11.1044 10.7435 11.0964 10.8395 11.0844 10.9195C11.0724 11.0035 11.0484 11.0795 11.0164 11.1515C10.9844 11.2235 10.9444 11.2835 10.8924 11.3315C10.8404 11.3795 10.7764 11.4155 10.6924 11.4435C10.6084 11.4635 10.5164 11.4755 10.4084 11.4755Z" fill="white"/>
</svg>
