<svg width="32" height="32" viewBox="0 0 32 32" fill="none" xmlns="http://www.w3.org/2000/svg">
<path fill-rule="evenodd" clip-rule="evenodd" d="M2 8C2 6.89544 2.89544 6 4 6H28C29.1046 6 30 6.89545 30 8V24C30 25.1046 29.1046 26 28 26H4C2.89545 26 2 25.1046 2 24V8ZM28 8H4V24H28V8Z" fill="#FF9E52"/>
<path fill-rule="evenodd" clip-rule="evenodd" d="M19.9995 21C19.9995 20.4477 20.4472 20 20.9995 20H24.9995C25.5518 20 25.9995 20.4477 25.9995 21C25.9995 21.5523 25.5518 22 24.9995 22H20.9995C20.4472 22 19.9995 21.5523 19.9995 21Z" fill="#FF9E52"/>
<path fill-rule="evenodd" clip-rule="evenodd" d="M13.9995 21C13.9995 20.4477 14.4472 20 14.9995 20H16.9995C17.5518 20 17.9995 20.4477 17.9995 21C17.9995 21.5523 17.5518 22 16.9995 22H14.9995C14.4472 22 13.9995 21.5523 13.9995 21Z" fill="#FF9E52"/>
<path fill-rule="evenodd" clip-rule="evenodd" d="M1.99951 12.1066C1.99951 11.5543 2.44723 11.1066 2.99951 11.1066H28.9995C29.5518 11.1066 29.9995 11.5543 29.9995 12.1066C29.9995 12.6589 29.5518 13.1066 28.9995 13.1066H2.99951C2.44723 13.1066 1.99951 12.6589 1.99951 12.1066Z" fill="#FF9E52"/>
</svg>
