<svg width="64" height="64" viewBox="0 0 64 64" fill="none" xmlns="http://www.w3.org/2000/svg">
<g clip-path="url(#clip0_1001_4708)">
<path d="M55.2453 11.8134L38.4453 1.77605C34.4693 -0.59462 29.5307 -0.59462 25.5547 1.77605L8.75466 11.8134C5 14.0587 2.66666 18.16 2.66666 22.5227V41.4801C2.66666 45.8427 5 49.944 8.75466 52.1894L25.5547 62.2267C27.544 63.4107 29.7707 64.0054 32 64.0054C34.2293 64.0054 36.456 63.4107 38.4453 62.2267L55.2453 52.1894C59 49.944 61.3333 45.8427 61.3333 41.4801V22.5227C61.3333 18.16 59 14.0587 55.2453 11.8134ZM37.0773 4.06671L53.8773 14.104C55.2053 14.896 56.3067 15.9867 57.1173 17.2587L45.584 23.0454L34.4347 2.97071C35.3493 3.20271 36.2427 3.56805 37.0773 4.06938V4.06671ZM32 4.07738L43.0747 23.9974H20.9333L32 4.07738ZM10.12 14.104L26.9227 4.06671C27.76 3.56538 28.6507 3.20005 29.568 2.96805L18.4213 23.0454L6.88533 17.2534C7.696 15.984 8.792 14.896 10.12 14.104ZM5.384 42.472C5.34933 42.1441 5.33066 41.8107 5.33066 41.4774V22.52C5.33066 21.5467 5.48 20.5894 5.76 19.6747L17.0453 25.3414L5.384 42.472ZM18.5787 27.8187L29.552 46.4747L7.05333 44.7547L18.5787 27.8187ZM30.664 61.2481C29.3627 61.0694 28.088 60.6321 26.92 59.9334L10.12 49.8961C9.048 49.2561 8.12266 48.4214 7.38133 47.4561L30.6667 49.2214V61.2481H30.664ZM20.9973 26.6667H43L32 45.3707L20.9973 26.6667ZM53.8773 49.8961L37.0773 59.9334C35.9093 60.6347 34.6347 61.0721 33.3333 61.2507V49.2401L56.5947 47.4881C55.856 48.4401 54.9387 49.2641 53.8773 49.8961ZM34.432 46.4934L45.4267 27.8027L57.2453 44.7627L34.432 46.4934ZM58.664 41.4801C58.664 41.6881 58.656 41.8987 58.6427 42.104L46.9547 25.3414L58.2373 19.68C58.5173 20.5921 58.664 21.5467 58.664 22.52V41.4774V41.4801Z" fill="#FF9E52"/>
</g>
<defs>
<clipPath id="clip0_1001_4708">
<rect width="64" height="64" fill="white"/>
</clipPath>
</defs>
</svg>
