<svg width="64" height="64" viewBox="0 0 64 64" fill="none" xmlns="http://www.w3.org/2000/svg">
<path d="M6.00001 22H58M4.42751 23.5262L30.3963 57.2087C30.585 57.4548 30.8278 57.6541 31.1059 57.7913C31.384 57.9284 31.6899 57.9998 32 57.9998C32.3101 57.9998 32.616 57.9284 32.8941 57.7913C33.1722 57.6541 33.415 57.4548 33.6038 57.2087L59.5725 23.5262C59.8278 23.1938 59.976 22.7915 59.9972 22.3729C60.0184 21.9542 59.9117 21.539 59.6913 21.1825L50.8825 6.96375C50.7012 6.6695 50.4476 6.42649 50.1459 6.25781C49.8442 6.08914 49.5044 6.00039 49.1588 6H14.8413C14.4956 6.00039 14.1558 6.08914 13.8541 6.25781C13.5524 6.42649 13.2989 6.6695 13.1175 6.96375L4.30876 21.1825C4.08833 21.539 3.98163 21.9542 4.00284 22.3729C4.02406 22.7915 4.17217 23.1938 4.42751 23.5262Z" stroke="#FF9E52" stroke-width="4" stroke-linecap="round" stroke-linejoin="round"/>
<path d="M50 8L44 22M44 22L32 6L20 22M44 22L32 56L20 22M14 8L20 22" stroke="#FF9E52" stroke-width="4" stroke-linecap="round" stroke-linejoin="round"/>
</svg>
