<svg width="64" height="64" viewBox="0 0 64 64" fill="none" xmlns="http://www.w3.org/2000/svg">
<path d="M8 20C3.568 20 0 23.568 0 28V56C0 60.432 3.568 64 8 64H44C48.432 64 52 60.432 52 56V40.8L64 28H52C52 23.568 48.432 20 44 20H8ZM25.752 28C31 27.704 35.704 31.744 36 37C36 41.484 34.768 43.176 30.876 46.124C30.4651 46.4142 30.0881 46.7496 29.752 47.124C29.592 47.324 29.624 47.256 29.624 47.248C29.648 48.94 28.064 50.376 26.376 50.376C25.5497 50.3666 24.7599 50.0339 24.176 49.4492C23.592 48.8645 23.2603 48.0743 23.252 47.248C23.252 45.644 23.968 44.232 24.752 43.248C25.4031 42.4065 26.1585 41.6511 27 41C27.8201 40.3694 28.5746 39.6578 29.252 38.876C29.548 38.516 29.64 37.916 29.624 37.5V37.376C29.6064 36.9553 29.5044 36.5424 29.324 36.1619C29.1436 35.7815 28.8885 35.4412 28.5739 35.1613C28.2593 34.8814 27.8916 34.6676 27.4927 34.5327C27.0938 34.3978 26.6719 34.3445 26.252 34.376C24.448 34.476 23 35.824 22.848 37.408C22.7977 38.1277 22.4703 38.7998 21.9347 39.2832C21.3992 39.7666 20.6971 40.0235 19.976 40C19.268 39.9963 18.5805 39.7626 18.017 39.334C17.4535 38.9054 17.0446 38.3053 16.852 37.624C16.7548 36.9156 16.7683 36.1963 16.892 35.492C16.912 35.436 16.916 35.372 16.94 35.32C17.748 31.224 21.3 28.248 25.752 28ZM26.376 53.624C27.2355 53.6324 28.0574 53.9778 28.6649 54.586C29.2723 55.1941 29.6167 56.0165 29.624 56.876C29.624 58.644 28.144 60 26.376 60C25.9638 60.007 25.5544 59.931 25.1722 59.7765C24.79 59.622 24.4428 59.3922 24.1513 59.1007C23.8598 58.8092 23.63 58.462 23.4755 58.0798C23.321 57.6976 23.245 57.2882 23.252 56.876C23.252 55.108 24.612 53.624 26.376 53.624ZM8 4C3.568 4 0 7.568 0 12V14.272C2.4134 12.808 5.17739 12.0231 8 12H44C49.504 12 54.2 15.052 57.072 19.392L64 12H52C52 7.568 48.432 4 44 4H8Z" fill="#FF9E52"/>
</svg>
