<svg width="18" height="20" viewBox="0 0 18 20" fill="none" xmlns="http://www.w3.org/2000/svg">
<path fill-rule="evenodd" clip-rule="evenodd" d="M0.461275 2.60449C-0.0720281 1.79826 0.4525 0.625 1.49402 0.625H16.506C17.5475 0.625 18.072 1.79826 17.5387 2.60449L11.4918 11.7461C11.4892 11.75 11.4863 11.7572 11.4863 11.7667V16.3797C11.4863 16.7936 11.2875 17.1897 10.9411 17.4297L8.45956 19.1492C7.59516 19.7481 6.51366 19.0722 6.51366 18.0992V11.7667C6.51366 11.7572 6.51078 11.75 6.50816 11.7461L0.461275 2.60449ZM1.49895 1.90475C1.49957 1.9067 1.50092 1.91019 1.50432 1.91533L7.55122 11.0569C7.69081 11.2679 7.76403 11.5154 7.76403 11.7667V18.0992C7.76403 18.1038 7.76438 18.1074 7.76478 18.11L10.2285 16.4028L10.2288 16.4026C10.2294 16.402 10.2305 16.4007 10.2318 16.3981C10.2341 16.3937 10.236 16.3874 10.236 16.3797V11.7667C10.236 11.5154 10.3092 11.2679 10.4488 11.0569L16.4957 1.91533C16.4991 1.91019 16.5004 1.9067 16.5011 1.90475C16.5017 1.90264 16.5021 1.90045 16.5022 1.89788C16.5024 1.89205 16.501 1.88409 16.4972 1.87647C16.4968 1.87582 16.4965 1.87522 16.4962 1.87466H1.50381C1.5035 1.87522 1.50317 1.87582 1.50284 1.87647C1.49898 1.88409 1.49756 1.89205 1.49778 1.89788C1.49788 1.90045 1.49828 1.90264 1.49895 1.90475Z" fill="#0A0A0A"/>
</svg>
