<svg width="65" height="64" viewBox="0 0 65 64" fill="none" xmlns="http://www.w3.org/2000/svg">
<g clip-path="url(#clip0_1001_3973)">
<path d="M64.6666 41.333C64.6666 42.069 64.0693 42.6663 63.3333 42.6663H60.2213C58.216 42.6663 56.2266 43.3277 54.6213 44.533L38.376 56.7143C36.7013 58.0157 34.688 58.669 32.6693 58.669C30.6506 58.669 28.6213 58.013 26.936 56.6983L10.7093 44.533C9.10396 43.3277 7.11463 42.6663 5.10929 42.6663H1.99996C1.26396 42.6663 0.666626 42.069 0.666626 41.333C0.666626 40.597 1.26396 39.9997 1.99996 39.9997H5.11196C7.69329 39.9997 10.248 40.8503 12.3093 42.397L28.5546 54.5783C30.9813 56.4717 34.3493 56.4637 36.76 54.5943L53.024 42.397C53.5973 41.9677 54.208 41.5943 54.848 41.2743L35.4373 26.7197L31.9413 30.0663C30.704 31.3037 29.0133 31.9997 27.2506 31.9997C24.976 31.9997 22.9733 30.8077 21.8133 29.197C19.9386 26.5943 20.3333 22.8183 22.7386 20.4157L30.816 12.8103L28.1866 10.4157C25.344 7.82901 20.904 7.36767 17.6906 8.97834L11.5173 12.0663C9.85863 12.8957 8.00263 13.333 6.14929 13.333H1.99996C1.26396 13.333 0.666626 12.7357 0.666626 11.9997C0.666626 11.2637 1.26396 10.6663 1.99996 10.6663H6.14929C7.58929 10.6663 9.03463 10.325 10.3226 9.68234L16.496 6.59434C18.1413 5.76767 19.9893 5.33301 21.8373 5.33301C24.9173 5.33301 27.776 6.43967 29.9813 8.44501L32.76 10.9783L35.3066 8.58101C38.8773 5.22101 44.472 4.40767 48.8346 6.59434L55.008 9.68234C56.296 10.325 57.7413 10.6663 59.1813 10.6663H63.3306C64.0666 10.6663 64.664 11.2637 64.664 11.9997C64.664 12.7357 64.0666 13.333 63.3306 13.333H59.1813C57.3306 13.333 55.472 12.8957 53.8133 12.0663L47.64 8.97834C44.248 7.27701 39.904 7.91167 37.1333 10.5223L24.592 22.3303C23.1306 23.7917 22.856 26.085 23.976 27.6397C24.688 28.6263 25.7333 29.2237 26.9226 29.3197C28.0853 29.405 29.2426 28.9943 30.0746 28.1597L41.1813 17.5277C41.712 17.0183 42.5573 17.037 43.0666 17.5703C43.5733 18.101 43.5573 18.9463 43.024 19.4557L37.3893 24.8503L57.8986 40.2317C58.6613 40.0797 59.44 39.9997 60.2213 39.9997H63.3333C64.0693 39.9997 64.6666 40.597 64.6666 41.333Z" fill="#FF9E52"/>
</g>
<defs>
<clipPath id="clip0_1001_3973">
<rect width="64" height="64" fill="white" transform="translate(0.666626)"/>
</clipPath>
</defs>
</svg>
