<svg width="65" height="64" viewBox="0 0 65 64" fill="none" xmlns="http://www.w3.org/2000/svg">
<g clip-path="url(#clip0_1001_3960)">
<path d="M14.2213 14.944L16.3333 16V21.336C16.3333 30.16 23.5093 37.336 32.3333 37.336C41.1573 37.336 48.3333 30.16 48.3333 21.336V16L50.4427 14.944C52.432 13.9547 53.6667 11.9573 53.6667 9.73599C53.6667 7.14666 51.928 4.84266 49.4347 4.12799L36.7733 0.533325C33.8587 -0.189342 30.7467 -0.184009 27.7227 0.581325L15.2267 4.13333C12.736 4.84266 10.9973 7.14666 10.9973 9.73599C10.9973 11.9573 12.232 13.9547 14.2187 14.944H14.2213ZM32.3333 34.6667C24.9813 34.6667 19 28.6853 19 21.3333V19.6293C21.4747 20.3627 25.9627 21.3333 32.3333 21.3333C38.704 21.3333 43.192 20.36 45.6667 19.6293V21.3333C45.6667 28.6853 39.6853 34.6667 32.3333 34.6667ZM15.9573 6.69599L28.4107 3.15733C30.9653 2.51733 33.6347 2.50666 36.088 3.11199L48.7013 6.69333C50.0533 7.08266 50.9973 8.33066 50.9973 9.73599C50.9973 10.9387 50.328 12.0213 49.2507 12.56L46.4027 13.984C45.952 14.2107 45.6667 14.672 45.6667 15.176V16.84C43.5973 17.5227 39.1147 18.6693 32.3333 18.6693C25.552 18.6693 21.0693 17.5227 19 16.84V15.176C19 14.672 18.7147 14.2107 18.264 13.984L15.4133 12.56C14.3387 12.024 13.6693 10.9413 13.6693 9.73599C13.6693 8.33333 14.6107 7.08266 15.9573 6.69599ZM24.5227 9.98133C24.904 9.34933 25.728 9.14666 26.352 9.52266L32.3333 13.112L38.3147 9.52266C38.9387 9.14399 39.7653 9.34933 40.144 9.98133C40.5253 10.6107 40.3173 11.432 39.6853 11.8107L33.0187 15.8107C32.808 15.9387 32.5707 16 32.3333 16C32.096 16 31.8587 15.9387 31.648 15.8107L24.9813 11.8107C24.3493 11.432 24.144 10.6133 24.5227 9.98133ZM40.3973 41.4C38.7093 40.8027 36.8347 41.4587 35.9333 42.9627L32.5227 48.648C32.3973 48.856 32.3333 49.0907 32.3333 49.3307C32.3333 49.0907 32.2693 48.856 32.144 48.648L28.7467 42.9813C27.8373 41.4773 25.9493 40.824 24.272 41.4267C15.1973 44.6827 8.97334 52.9893 8.41601 62.5893C8.37068 63.3253 8.93334 63.9573 9.66934 63.9973C10.4053 64.0693 11.0373 63.48 11.0773 62.744C11.5733 54.2133 17.1067 46.8293 25.1733 43.936C25.6773 43.76 26.2053 43.928 26.4587 44.352L29.5333 49.4773L25.8933 59.712C25.504 60.6747 25.6213 61.7653 26.2053 62.624C26.7893 63.4853 27.7547 64 28.7947 64H35.872C36.912 64 37.8773 63.488 38.4613 62.624C39.0453 61.7653 39.1627 60.6773 38.792 59.76L35.1333 49.48L38.2213 44.336C38.4773 43.9067 39.0027 43.7387 39.5067 43.9173C47.6107 46.792 53.1707 54.184 53.6693 62.7467C53.712 63.456 54.296 64.0027 55 64.0027C55.0267 64.0027 55.0533 64.0027 55.0773 64.0027C55.8107 63.96 56.3733 63.3307 56.3307 62.5947C55.7707 52.96 49.5173 44.6453 40.3973 41.408V41.4ZM36.2987 60.7013C36.376 60.8987 36.304 61.056 36.2507 61.128C36.1973 61.2027 36.0827 61.3307 35.8693 61.3307H28.792C28.5813 61.3307 28.464 61.2027 28.4107 61.128C28.3573 61.056 28.2853 60.8987 28.3813 60.6533L32.2507 49.7787C32.304 49.632 32.328 49.4853 32.328 49.3333C32.328 49.4853 32.3547 49.632 32.4053 49.7787L36.2933 60.7013H36.2987Z" fill="#FF9E52"/>
</g>
<defs>
<clipPath id="clip0_1001_3960">
<rect width="64" height="64" fill="white" transform="translate(0.333374)"/>
</clipPath>
</defs>
</svg>
