<svg width="65" height="64" viewBox="0 0 65 64" fill="none" xmlns="http://www.w3.org/2000/svg">
<g clip-path="url(#clip0_1001_2081)">
<path d="M48.3147 0C41.536 0 35.528 4.352 33.28 10.6667H6.63203C4.02936 10.6667 1.72803 12.256 0.768031 14.712C-0.157302 17.0747 0.402698 19.5893 2.33336 21.3733L21.0587 37.472C22.3947 38.688 24.0027 39.4053 25.6667 39.6613V61.3333H15C14.264 61.3333 13.6667 61.9307 13.6667 62.6667C13.6667 63.4027 14.264 64 15 64H39C39.736 64 40.3334 63.4027 40.3334 62.6667C40.3334 61.9307 39.736 61.3333 39 61.3333H28.3334V39.664C29.9894 39.4107 31.5894 38.7013 32.9147 37.496L41.24 30.336C43.448 31.4293 45.8214 31.9973 48.3067 32.0027H48.3147C48.3147 32.0027 48.3254 32.0027 48.3334 32.0027H48.3414C57.152 31.9893 64.3147 24.816 64.3147 16.0027C64.3147 7.18933 57.1387 0 48.3147 0ZM31.1467 35.4987C30.056 36.488 29.0507 37.0053 26.9974 37.0053C24.944 37.0053 23.9254 36.4773 22.824 35.4747L4.04003 19.32C3.02403 18.3813 2.7307 17.0213 3.25336 15.6853C3.67736 14.6 4.81603 13.3333 6.6347 13.3333H47.368C49.1867 13.3333 50.3227 14.6 50.7494 15.6853C51.272 17.0213 50.9787 18.3813 49.928 19.352L31.1467 35.4987ZM48.3227 29.3333C46.6374 29.3333 45.0134 29.0133 43.4747 28.4107L51.7707 21.2773C53.5947 19.5893 54.1547 17.0747 53.2294 14.712C52.2694 12.256 49.9654 10.6667 47.3654 10.6667H36.12C38.216 5.88533 42.9867 2.66667 48.3147 2.66667C55.6667 2.66667 61.648 8.648 61.648 16C61.648 23.352 55.6694 29.328 48.3227 29.3333Z" fill="#FF9E52"/>
</g>
<defs>
<clipPath id="clip0_1001_2081">
<rect width="64" height="64" fill="white" transform="translate(0.333374)"/>
</clipPath>
</defs>
</svg>
