<svg width="65" height="64" viewBox="0 0 65 64" fill="none" xmlns="http://www.w3.org/2000/svg">
<g clip-path="url(#clip0_1001_6366)">
<path d="M52.5 5.33301H12.5C5.88667 5.33301 0.5 10.7197 0.5 17.333V46.6663C0.5 53.2797 5.88667 58.6663 12.5 58.6663H39.1667C39.9133 58.6663 40.5 58.0797 40.5 57.333C40.5 56.5863 39.9133 55.9997 39.1667 55.9997H12.5C7.35333 55.9997 3.16667 51.813 3.16667 46.6663V21.333H61.8333V43.9997C61.8333 44.7463 62.42 45.333 63.1667 45.333C63.9133 45.333 64.5 44.7463 64.5 43.9997V17.333C64.5 10.7197 59.1133 5.33301 52.5 5.33301ZM3.16667 18.6663V17.333C3.16667 12.1863 7.35333 7.99967 12.5 7.99967H52.5C57.6467 7.99967 61.8333 12.1863 61.8333 17.333V18.6663H3.16667ZM41.9933 32.0797C40.2333 30.3197 37.8867 29.333 35.4067 29.333H31.1667C30.42 29.333 29.8333 29.9197 29.8333 30.6663V34.9063C29.8333 37.413 30.7933 39.733 32.58 41.493L53.14 62.053C54.3933 63.3063 56.0733 63.9997 57.86 63.9997C59.6467 63.9997 61.3267 63.3063 62.58 62.053C63.8333 60.7997 64.5267 59.1197 64.5267 57.333C64.5267 55.5463 63.8333 53.8663 62.58 52.613L42.02 32.053L41.9933 32.0797ZM60.66 60.1863C59.14 61.7063 56.5267 61.7063 55.0067 60.1863L34.4467 39.6263C33.1933 38.373 32.5 36.693 32.5 34.9063V31.9997H35.4067C37.1933 31.9997 38.8733 32.693 40.1267 33.9463L60.6867 54.5063C61.4333 55.253 61.86 56.2663 61.86 57.333C61.86 58.3997 61.4333 59.413 60.6867 60.1597L60.66 60.1863Z" fill="#FF9E52"/>
</g>
<defs>
<clipPath id="clip0_1001_6366">
<rect width="64" height="64" fill="white" transform="translate(0.5)"/>
</clipPath>
</defs>
</svg>
