<svg width="16" height="16" viewBox="0 0 16 16" fill="none" xmlns="http://www.w3.org/2000/svg">
<path d="M15.3601 10.7877C15.3321 10.6917 15.3001 10.5997 15.2561 10.5117L11.2281 2.41973C10.9041 1.70373 10.1561 1.64773 9.77215 1.67173C9.65215 1.67973 9.53615 1.69973 9.42015 1.73573C7.07615 2.45173 6.04815 3.28373 5.44415 3.86773C5.18415 4.12373 5.09215 4.41573 5.07215 4.67173C5.05215 4.93973 5.11215 5.20373 5.23215 5.44373C5.82015 6.60373 9.25215 13.4037 9.55615 13.9437C9.88815 14.5357 10.7961 14.3517 10.7961 14.3517C13.8721 13.6477 14.7041 12.4077 15.1841 11.9797C15.5441 11.6717 15.4401 11.0837 15.3601 10.7877ZM6.86415 6.82373C6.90015 6.75973 6.94815 6.70773 7.00415 6.65973C7.99615 5.84373 10.7041 4.64373 11.2121 4.53573C11.5361 4.46773 11.7641 4.67573 11.8921 4.84373C11.9681 4.94773 12.0081 5.07173 12.0081 5.19973L12.0001 5.69973C11.9961 5.91573 11.8721 6.11173 11.6761 6.20773L7.91215 8.01973C7.72415 8.11173 7.50015 8.09173 7.32815 7.96773L6.94015 7.69173C6.89215 7.65573 6.84815 7.61573 6.81615 7.56773C6.63215 7.30373 6.77215 6.98373 6.86415 6.82373ZM8.91615 12.2477L6.72815 7.99573L7.45615 8.48773L9.20015 11.7477L8.91615 12.2477ZM14.5441 10.0877C14.5441 10.0877 14.5081 10.6437 13.0081 11.5957C11.5001 12.5517 10.1521 12.7757 9.65215 12.7197C9.16415 12.6637 9.30415 12.4557 9.30415 12.4557C12.2681 12.1397 14.3681 9.89973 14.3681 9.89973C14.5921 9.81173 14.5441 10.0877 14.5441 10.0877ZM14.0041 9.47573L12.3921 6.15173L12.4201 5.27173L14.5721 9.54373L14.0041 9.47573Z" fill="#424242"/>
<path d="M1.94806 1.19995H0.560059V14.796H1.94806V1.19995Z" fill="#424242"/>
<path d="M4.61628 12.5434C4.74828 12.6914 4.97228 12.7034 5.12028 12.5714C5.26828 12.4394 5.28028 12.2154 5.14828 12.0674C4.24028 11.0514 4.32828 9.48744 5.34828 8.57944C5.42428 8.51144 5.46028 8.42344 5.46828 8.33144C5.47228 8.23944 5.44428 8.14744 5.37628 8.07144C5.24428 7.92344 5.02028 7.91144 4.87228 8.04344C3.56428 9.21144 3.44828 11.2354 4.61628 12.5434Z" fill="#424242"/>
<path d="M5.63626 11.6357C5.76826 11.7837 5.99226 11.7957 6.14026 11.6637C6.28826 11.5317 6.30026 11.3077 6.16826 11.1597C5.76026 10.7037 5.80026 10.0037 6.25626 9.5997C6.33226 9.5317 6.36826 9.4437 6.37626 9.3517C6.38026 9.2597 6.35226 9.1677 6.28426 9.0917C6.15226 8.9437 5.92826 8.9317 5.78026 9.0637C5.03626 9.7277 4.96826 10.8877 5.63626 11.6357Z" fill="#424242"/>
<path d="M3.95234 7.00767C2.07234 8.68767 1.90434 11.5837 3.58434 13.4677C3.71634 13.6157 3.94034 13.6277 4.08834 13.4957C4.23634 13.3637 4.24834 13.1397 4.11634 12.9917C2.70034 11.4037 2.84034 8.95967 4.42834 7.54367C4.50434 7.47567 4.54034 7.38767 4.54834 7.29567C4.55634 7.20367 4.52434 7.11167 4.45634 7.03567C4.32434 6.88767 4.10034 6.87567 3.95234 7.00767Z" fill="#424242"/>
</svg>
