<svg width="32" height="32" viewBox="0 0 32 32" fill="none" xmlns="http://www.w3.org/2000/svg">
<g clip-path="url(#clip0_2097_4477)">
<path d="M31.8052 30.862L23.2345 22.2914C25.3772 19.9247 26.6958 16.798 26.6958 13.362C26.6945 6.01135 20.7132 0.0286865 13.3612 0.0286865C6.00917 0.0286865 0.027832 6.01135 0.027832 13.362C0.027832 20.7127 6.00917 26.6954 13.3612 26.6954C16.7972 26.6954 19.9238 25.3767 22.2905 23.234L30.8612 31.8047C30.9918 31.9354 31.1625 31.9994 31.3332 31.9994C31.5038 31.9994 31.6745 31.934 31.8052 31.8047C32.0652 31.5447 32.0652 31.122 31.8052 30.862ZM1.36117 13.362C1.36117 6.74602 6.74517 1.36202 13.3612 1.36202C19.9772 1.36202 25.3612 6.74469 25.3612 13.362C25.3612 19.9794 19.9785 25.362 13.3612 25.362C6.74383 25.362 1.36117 19.9794 1.36117 13.362ZM13.3332 5.34469C11.5545 5.34469 9.88117 6.02869 8.62383 7.26869C7.3625 8.51269 6.6665 10.166 6.6665 11.9247C6.6665 13.6834 7.36117 15.3407 8.62917 16.59L11.3478 19.2127C11.9038 19.7487 12.6185 20.018 13.3332 20.018C14.0478 20.018 14.7612 19.75 15.3172 19.2127L18.0425 16.5847C19.3052 15.3394 19.9998 13.6847 19.9998 11.9247C19.9998 10.1647 19.3052 8.51135 18.0425 7.26869C16.7838 6.02735 15.1105 5.34469 13.3332 5.34469ZM17.1132 15.63L14.3932 18.2527C13.8078 18.8194 12.8585 18.8167 12.2718 18.2527L9.5585 15.6354C8.55317 14.6447 7.99983 13.3274 7.99983 11.9274C7.99983 10.5274 8.55317 9.21135 9.55983 8.21935C10.5665 7.22602 11.9065 6.67935 13.3332 6.67935C14.7598 6.67935 16.0985 7.22602 17.1078 8.22069C18.1132 9.21135 18.6665 10.5274 18.6665 11.9274C18.6665 13.3274 18.1132 14.6447 17.1132 15.63ZM14.6665 11.9927C14.6665 12.7287 14.0692 13.326 13.3332 13.326C12.5972 13.326 11.9998 12.7287 11.9998 11.9927C11.9998 11.2567 12.5972 10.6594 13.3332 10.6594C14.0692 10.6594 14.6665 11.2567 14.6665 11.9927Z" fill="#FF9E52"/>
</g>
<defs>
<clipPath id="clip0_2097_4477">
<rect width="32" height="32" fill="white"/>
</clipPath>
</defs>
</svg>
