<svg width="16" height="16" viewBox="0 0 16 16" fill="none" xmlns="http://www.w3.org/2000/svg">
<path d="M12.7039 12.9118C11.8399 10.6438 9.4719 10.9918 9.4719 10.9918L5.1879 11.9558H5.1479C4.4399 11.4918 3.1359 11.7918 3.0959 12.8518C3.0559 13.9158 4.0559 14.1278 4.0559 14.1278C4.3599 14.9478 5.0999 14.9878 5.0999 14.9878H11.5799C13.1839 14.7758 12.7039 12.9118 12.7039 12.9118ZM4.3959 13.3758C4.1519 13.3758 3.9519 13.1918 3.9519 12.9638C3.9519 12.7358 4.1519 12.5518 4.3959 12.5518C4.6399 12.5518 4.8399 12.7358 4.8399 12.9638C4.8399 13.1918 4.6399 13.3758 4.3959 13.3758Z" fill="#424242"/>
<path d="M2.99211 11.4039C2.99211 11.4039 3.90011 10.5719 5.25211 11.0959L6.50411 10.7879L5.32811 6.86786C5.32811 6.86786 4.99611 5.90386 4.02411 5.59186C4.02411 5.59186 4.72411 4.88786 4.49211 3.91186C4.26011 2.93586 4.02411 1.11986 1.92811 1.08386C1.92811 1.08386 0.208111 1.15186 0.492111 2.72386L1.27211 5.46786C1.27211 5.46786 1.42811 5.95186 1.84411 6.19186C1.84411 6.19186 1.57211 6.55986 1.82411 7.43586L2.99211 11.4039Z" fill="#424242"/>
<path d="M11.1077 1.01184C8.66369 1.01184 6.67969 3.03984 6.67969 5.53984C6.67969 8.03984 8.66369 10.0678 11.1077 10.0678C13.5517 10.0678 15.5397 8.03984 15.5397 5.53984C15.5397 3.03984 13.5557 1.01184 11.1077 1.01184ZM10.4037 3.58784C10.4037 3.58784 9.15969 3.47184 9.02769 4.86384C9.02769 4.86384 8.98769 5.11184 8.71169 5.13584C8.43569 5.15584 8.35569 4.88784 8.35569 4.88784C8.35569 4.88784 8.30769 3.10784 10.3877 2.95984C10.3877 2.95984 10.6957 3.01184 10.7117 3.24384C10.7277 3.47984 10.5317 3.57184 10.4037 3.58784Z" fill="#424242"/>
</svg>
