<svg width="32" height="32" viewBox="0 0 32 32" fill="none" xmlns="http://www.w3.org/2000/svg">
<path d="M15.9998 10.9527C13.2384 10.9527 11.0467 13.1912 11.0467 15.9058C11.0467 18.6204 13.1925 20.9527 15.9998 20.9527C18.8071 20.9527 20.953 18.7141 20.953 15.9996C20.953 13.285 18.7603 10.9527 15.9998 10.9527ZM29.1925 20.7391L25.9009 15.9527L29.1899 11.2126C29.5197 10.7373 29.2474 10.0803 28.6782 9.97717L23.0011 8.95113L21.975 3.27404C21.8722 2.70477 21.2152 2.43238 20.7396 2.76238L15.9998 6.098L11.2134 2.80873C10.7381 2.47894 10.0811 2.75107 9.97797 3.3204L8.99984 8.99956L3.32067 10.0256C2.75156 10.1246 2.47922 10.786 2.80901 11.2131L6.09828 15.9996L2.80922 20.7397C2.47942 21.2149 2.75166 21.872 3.32088 21.9751L8.99797 23.0011L10.024 28.6782C10.1269 29.2475 10.7839 29.5199 11.2594 29.1899L15.9998 25.9006L20.7399 29.1897C21.2153 29.5196 21.8728 29.2473 21.9754 28.6781L23.0014 23.001L28.6785 21.975C29.2498 21.8746 29.5207 21.2131 29.1925 20.7391ZM15.9998 22.6194C12.3181 22.6194 9.38005 19.6345 9.38005 15.9996C9.38005 12.3178 12.3649 9.37977 15.9998 9.37977C19.6347 9.37977 22.6196 12.3641 22.6196 15.9996C22.6196 19.6819 19.6821 22.6194 15.9998 22.6194Z" fill="#FF9E52"/>
</svg>
