<svg width="16" height="16" viewBox="0 0 16 16" fill="none" xmlns="http://www.w3.org/2000/svg">
<g clip-path="url(#clip0_801_1846)">
<path d="M8 16C12.4183 16 16 12.4183 16 8C16 3.58173 12.4183 0 8 0C3.58173 0 0 3.58173 0 8C0 12.4183 3.58173 16 8 16Z" fill="#34AADF"/>
<path d="M3.32938 7.93065C3.32938 7.93065 7.32938 6.28905 8.71665 5.71101C9.24845 5.47981 11.0519 4.7399 11.0519 4.7399C11.0519 4.7399 11.8843 4.41622 11.8149 5.20233C11.7918 5.52605 11.6068 6.65897 11.4219 7.88441C11.1444 9.61853 10.8438 11.5145 10.8438 11.5145C10.8438 11.5145 10.7976 12.0463 10.4045 12.1387C10.0115 12.2312 9.36404 11.8151 9.24845 11.7226C9.15594 11.6532 7.51434 10.6127 6.91319 10.1041C6.75133 9.96534 6.56637 9.6879 6.93629 9.36419C7.76868 8.60118 8.76289 7.65321 9.36404 7.05206C9.64151 6.77459 9.91895 6.1272 8.76289 6.91331C7.12129 8.04627 5.50279 9.10985 5.50279 9.10985C5.50279 9.10985 5.13284 9.34105 4.43921 9.13296C3.74554 8.92489 2.93629 8.64742 2.93629 8.64742C2.93629 8.64742 2.38141 8.30061 3.32938 7.93065Z" fill="#FCFCFC"/>
</g>
<defs>
<clipPath id="clip0_801_1846">
<rect width="16" height="16" fill="white"/>
</clipPath>
</defs>
</svg>
