<svg width="32" height="32" viewBox="0 0 32 32" fill="none" xmlns="http://www.w3.org/2000/svg">
<g clip-path="url(#clip0_2097_3173)">
<path d="M23.116 13.8227C23.7267 14.4213 24.5307 14.72 25.3333 14.72C26.136 14.72 26.94 14.4213 27.5507 13.8227L30.0467 11.3813C31.3067 10.1227 32 8.448 32 6.66667C32 4.88533 31.3067 3.212 30.0467 1.952C28.788 0.693333 27.1133 0 25.3333 0C23.5533 0 21.8787 0.693333 20.6187 1.952C18.0187 4.552 18.0187 8.78133 20.624 11.3853L23.116 13.8227ZM21.5613 2.896C22.5693 1.88933 23.908 1.33467 25.3333 1.33467C26.7587 1.33467 28.0973 1.88933 29.104 2.896C30.112 3.90267 30.6667 5.24267 30.6667 6.668C30.6667 8.09333 30.112 9.432 29.1093 10.4347L26.6187 12.8707C25.9107 13.564 24.7573 13.564 24.048 12.8707L21.5613 10.44C19.4813 8.36 19.4813 4.976 21.5613 2.89733V2.896ZM2.66667 26.6667C1.196 26.6667 0 27.8627 0 29.3333C0 30.804 1.196 32 2.66667 32C4.13733 32 5.33333 30.804 5.33333 29.3333C5.33333 27.8627 4.13733 26.6667 2.66667 26.6667ZM2.66667 30.6667C1.932 30.6667 1.33333 30.068 1.33333 29.3333C1.33333 28.5987 1.932 28 2.66667 28C3.40133 28 4 28.5987 4 29.3333C4 30.068 3.40133 30.6667 2.66667 30.6667ZM14 21.3333C14 22.804 15.196 24 16.6667 24C18.1373 24 19.3333 22.804 19.3333 21.3333C19.3333 19.8627 18.1373 18.6667 16.6667 18.6667C15.196 18.6667 14 19.8627 14 21.3333ZM18 21.3333C18 22.068 17.4013 22.6667 16.6667 22.6667C15.932 22.6667 15.3333 22.068 15.3333 21.3333C15.3333 20.5987 15.932 20 16.6667 20C17.4013 20 18 20.5987 18 21.3333ZM11.3333 22.6667H7.33333C4.76 22.6667 2.66667 20.5733 2.66667 18C2.66667 15.4267 4.76 13.3333 7.33333 13.3333H19.3333C19.7013 13.3333 20 13.632 20 14C20 14.368 19.7013 14.6667 19.3333 14.6667H7.33333C5.496 14.6667 4 16.1627 4 18C4 19.8373 5.496 21.3333 7.33333 21.3333H11.3333C11.7013 21.3333 12 21.632 12 22C12 22.368 11.7013 22.6667 11.3333 22.6667ZM32 26C32 28.5733 29.9067 30.6667 27.3333 30.6667H8.66667C8.29867 30.6667 8 30.368 8 30C8 29.632 8.29867 29.3333 8.66667 29.3333H27.3333C29.1707 29.3333 30.6667 27.8373 30.6667 26C30.6667 24.1627 29.1707 22.6667 27.3333 22.6667H22C21.632 22.6667 21.3333 22.368 21.3333 22C21.3333 21.632 21.632 21.3333 22 21.3333H27.3333C29.9067 21.3333 32 23.4267 32 26ZM26.668 6.38267C26.668 7.11867 26.0707 7.716 25.3347 7.716C24.5987 7.716 24.0013 7.11867 24.0013 6.38267C24.0013 5.64667 24.5987 5.04933 25.3347 5.04933C26.0707 5.04933 26.668 5.64667 26.668 6.38267Z" fill="#FF9E52"/>
</g>
<defs>
<clipPath id="clip0_2097_3173">
<rect width="32" height="32" fill="white"/>
</clipPath>
</defs>
</svg>
