<svg width="32" height="32" viewBox="0 0 32 32" fill="none" xmlns="http://www.w3.org/2000/svg">
<path fill-rule="evenodd" clip-rule="evenodd" d="M12.1211 8.24207C12.1211 6.09989 13.8576 4.36328 15.9999 4.36328C18.1421 4.36328 19.8787 6.09989 19.8787 8.24207C19.8787 10.3843 18.1421 12.1209 15.9999 12.1209C13.8576 12.1209 12.1211 10.3843 12.1211 8.24207ZM15.9999 6.30267C14.9287 6.30267 14.0605 7.17097 14.0605 8.24207C14.0605 9.31321 14.9287 10.1815 15.9999 10.1815C17.071 10.1815 17.9393 9.31321 17.9393 8.24207C17.9393 7.17097 17.071 6.30267 15.9999 6.30267Z" fill="#757575"/>
<path fill-rule="evenodd" clip-rule="evenodd" d="M12.1211 23.7577C12.1211 21.6155 13.8576 19.8789 15.9999 19.8789C18.1421 19.8789 19.8787 21.6155 19.8787 23.7577C19.8787 25.8999 18.1421 27.6365 15.9999 27.6365C13.8576 27.6365 12.1211 25.8999 12.1211 23.7577ZM15.9999 21.8183C14.9287 21.8183 14.0605 22.6866 14.0605 23.7577C14.0605 24.8288 14.9287 25.6971 15.9999 25.6971C17.071 25.6971 17.9393 24.8288 17.9393 23.7577C17.9393 22.6866 17.071 21.8183 15.9999 21.8183Z" fill="#757575"/>
<path fill-rule="evenodd" clip-rule="evenodd" d="M3.39404 8.24207C3.39404 6.09988 5.13064 4.36328 7.27283 4.36328C9.41502 4.36328 11.1516 6.09988 11.1516 8.24207C11.1516 10.3843 9.41501 12.1209 7.27283 12.1209C5.13065 12.1209 3.39404 10.3843 3.39404 8.24207ZM7.27283 6.30267C6.20174 6.30267 5.33344 7.17098 5.33344 8.24207C5.33344 9.3132 6.20173 10.1815 7.27283 10.1815C8.34393 10.1815 9.21222 9.3132 9.21222 8.24207C9.21222 7.17098 8.34392 6.30267 7.27283 6.30267Z" fill="#757575"/>
<path fill-rule="evenodd" clip-rule="evenodd" d="M3.39404 23.7577C3.39404 21.6154 5.13065 19.8789 7.27283 19.8789C9.41501 19.8789 11.1516 21.6154 11.1516 23.7577C11.1516 25.8999 9.41501 27.6365 7.27283 27.6365C5.13065 27.6365 3.39404 25.8999 3.39404 23.7577ZM7.27283 21.8183C6.20173 21.8183 5.33344 22.6866 5.33344 23.7577C5.33344 24.8288 6.20173 25.6971 7.27283 25.6971C8.34393 25.6971 9.21222 24.8288 9.21222 23.7577C9.21222 22.6866 8.34393 21.8183 7.27283 21.8183Z" fill="#757575"/>
<path fill-rule="evenodd" clip-rule="evenodd" d="M20.8481 8.24207C20.8481 6.09989 22.5847 4.36328 24.7269 4.36328C26.8692 4.36328 28.6057 6.09989 28.6057 8.24207C28.6057 10.3843 26.8692 12.1209 24.7269 12.1209C22.5847 12.1209 20.8481 10.3843 20.8481 8.24207ZM24.7269 6.30267C23.6558 6.30267 22.7875 7.17097 22.7875 8.24207C22.7875 9.31321 23.6558 10.1815 24.7269 10.1815C25.7981 10.1815 26.6663 9.31321 26.6663 8.24207C26.6663 7.17097 25.7981 6.30267 24.7269 6.30267Z" fill="#757575"/>
<path fill-rule="evenodd" clip-rule="evenodd" d="M6.30273 20.8489V10.1823H8.24213V20.8489H6.30273Z" fill="#757575"/>
<path fill-rule="evenodd" clip-rule="evenodd" d="M15.0303 20.8489V10.1823H16.9697V20.8489H15.0303Z" fill="#757575"/>
<path fill-rule="evenodd" clip-rule="evenodd" d="M25.6967 10.1823V15.0307C25.6967 16.1018 24.8284 16.9701 23.7573 16.9701H7.27246V15.0307H23.7573V10.1823H25.6967Z" fill="#757575"/>
</svg>
