<svg width="65" height="64" viewBox="0 0 65 64" fill="none" xmlns="http://www.w3.org/2000/svg">
<g clip-path="url(#clip0_1001_4532)">
<path d="M32.5 0C14.8547 0 0.5 14.3547 0.5 32C0.5 49.6453 14.8547 64 32.5 64C50.1453 64 64.5 49.6453 64.5 32C64.5 14.3547 50.1453 0 32.5 0ZM32.5 61.3333C16.3267 61.3333 3.16667 48.1733 3.16667 32C3.16667 15.8267 16.3267 2.66667 32.5 2.66667C48.6733 2.66667 61.8333 15.8267 61.8333 32C61.8333 48.1733 48.6733 61.3333 32.5 61.3333ZM32.5 10.6667C20.7373 10.6667 11.1667 20.2373 11.1667 32C11.1667 43.7627 20.7373 53.3333 32.5 53.3333C44.2627 53.3333 53.8333 43.7627 53.8333 32C53.8333 20.2373 44.2627 10.6667 32.5 10.6667ZM36.076 36.704C34.9613 36.2453 33.7533 36 32.5 36C31.2467 36 30.036 36.2427 28.924 36.704C29.0467 35.512 28.9453 34.288 28.6093 33.0907C28.2813 31.9173 27.748 30.8427 27.044 29.9013C28.1587 29.6987 29.236 29.2667 30.204 28.6133C31.132 27.984 31.908 27.1867 32.5 26.2747C33.092 27.1867 33.868 27.984 34.796 28.6133C35.764 29.2693 36.8413 29.7013 37.956 29.904C37.2547 30.8453 36.7187 31.92 36.3907 33.0933C36.0547 34.2933 35.9533 35.5147 36.076 36.7093V36.704ZM49.2733 23.8187L41.5027 26.9653C39.7507 27.6667 37.8547 27.4613 36.2893 26.4027C34.7267 25.3467 33.8307 23.6587 33.8307 21.7707V13.384C40.62 13.8667 46.42 17.9947 49.2707 23.8213L49.2733 23.8187ZM31.1667 13.3813V21.768C31.1667 23.656 30.2707 25.344 28.708 26.4C27.1453 27.456 25.244 27.6613 23.5107 26.968L15.7533 23.7573C18.6173 17.9653 24.3987 13.8613 31.164 13.3813H31.1667ZM13.8333 32C13.8333 29.9867 14.156 28.0453 14.748 26.2267L21.892 29.192C23.9347 30.0107 25.4467 31.6933 26.0387 33.808C26.6307 35.9173 26.22 38.1307 24.916 39.8853L20.2093 46.0373C16.3027 42.6133 13.8333 37.5893 13.8333 32ZM22.3347 47.648L27.1667 41.3333C28.4387 39.6373 30.3827 38.6667 32.5 38.6667C34.6173 38.6667 36.5613 39.6373 37.8333 41.3333L42.6013 47.6907C39.6867 49.5733 36.22 50.6667 32.5 50.6667C28.7533 50.6667 25.2627 49.5573 22.3347 47.648ZM44.732 46.088L40.1 39.912C38.78 38.152 38.364 35.928 38.9587 33.8107C39.5533 31.6933 41.0653 30.0107 43.108 29.1947L50.2733 26.2933C50.852 28.0933 51.1667 30.0107 51.1667 32.0027C51.1667 37.6187 48.6733 42.664 44.732 46.088Z" fill="#FF9E52"/>
</g>
<defs>
<clipPath id="clip0_1001_4532">
<rect width="64" height="64" fill="white" transform="translate(0.5)"/>
</clipPath>
</defs>
</svg>
