<svg width="24" height="24" viewBox="0 0 24 24" fill="none" xmlns="http://www.w3.org/2000/svg">
<g clip-path="url(#clip0_702_2296)">
<path d="M6.56074 2C6.03581 2 5.61034 2.42548 5.61034 2.95041V5.14152C5.61034 5.66645 6.03578 6.09193 6.56074 6.09193H7.51115C8.03608 6.09193 8.46155 5.66649 8.46155 5.14152V2.95041C8.46151 2.42548 8.03608 2 7.51115 2H6.56074Z" fill="#757575"/>
<path d="M14.1442 2C13.6192 2 13.1937 2.42548 13.1937 2.95041V5.14152C13.1937 5.66645 13.6192 6.09193 14.1442 6.09193H15.0945C15.6195 6.09193 16.045 5.66649 16.045 5.14152V2.95041C16.0449 2.42548 15.6194 2 15.0945 2H14.1442Z" fill="#757575"/>
<path d="M19.6947 5.36469C19.6947 4.93514 19.3464 4.58691 18.9169 4.58691H16.6784V5.1413C16.6784 6.01471 15.9679 6.72526 15.0944 6.72526H14.144C13.2706 6.72526 12.5601 6.01467 12.5601 5.1413V4.58691H9.09511V5.1413C9.09511 6.01471 8.38453 6.72526 7.51115 6.72526H6.56075C5.68733 6.72526 4.97678 6.01467 4.97678 5.1413V4.58691H2.77792C2.34836 4.58691 2.00014 4.93514 2.00014 5.36469V18.9879C2.00014 19.4108 2.34291 19.7535 2.76575 19.7535C3.18858 19.7535 3.53136 20.0963 3.53136 20.5191V21.5034C3.53136 21.933 3.87958 22.2812 4.30914 22.2812H20.9585H21.4446C21.8741 22.2812 22.2224 21.933 22.2224 21.5034V21.0174V7.69547V6.92888C22.2224 6.49932 21.8741 6.1511 21.4446 6.1511H19.6947V5.36469ZM4.15075 18.3478C3.7212 18.3478 3.37297 17.9996 3.37297 17.57V9.30486C3.37297 8.8753 3.7212 8.52708 4.15075 8.52708H17.4648C17.8944 8.52708 18.2426 8.87531 18.2426 9.30486V17.57C18.2426 17.9996 17.8944 18.3478 17.4648 18.3478H4.15075ZM20.019 7.69547C20.4486 7.69547 20.7968 8.0437 20.7968 8.47325V20.0779C20.7968 20.5074 20.4486 20.8556 20.019 20.8556H5.85351C5.42396 20.8556 5.07573 20.5074 5.07573 20.0779V19.7535H18.9169C19.3464 19.7535 19.6947 19.4053 19.6947 18.9757V7.69547H20.019Z" fill="#757575"/>
<path d="M7.64637 9.80176H6.06572C5.71581 9.80176 5.43213 10.0854 5.43213 10.4353V12.0159C5.43213 12.3659 5.71581 12.6496 6.06572 12.6496H7.64637C7.99628 12.6496 8.27996 12.3659 8.27996 12.0159V10.4353C8.27996 10.0854 7.99628 9.80176 7.64637 9.80176Z" fill="#757575"/>
<path d="M11.7778 9.80176H10.1971C9.84716 9.80176 9.56348 10.0854 9.56348 10.4353V12.0159C9.56348 12.3659 9.84716 12.6496 10.1971 12.6496H11.7778C12.1276 12.6496 12.4113 12.3659 12.4113 12.0159V10.4353C12.4113 10.0854 12.1278 9.80176 11.7778 9.80176Z" fill="#757575"/>
<path d="M15.8831 9.80176H14.3025C13.9526 9.80176 13.6689 10.0854 13.6689 10.4353V12.0159C13.6689 12.3659 13.9526 12.6496 14.3025 12.6496H15.8831C16.233 12.6496 16.5167 12.3659 16.5167 12.0159V10.4353C16.5167 10.0854 16.2331 9.80176 15.8831 9.80176Z" fill="#757575"/>
<path d="M15.8831 13.9189H14.3025C13.9525 13.9189 13.6689 14.2026 13.6689 14.5525V16.1332C13.6689 16.4831 13.9525 16.7669 14.3025 16.7669H15.8831C16.233 16.7669 16.5166 16.4831 16.5166 16.1332V14.5525C16.5166 14.2027 16.2331 13.9189 15.8831 13.9189Z" fill="#757575"/>
<path d="M11.7779 13.9189H10.1972C9.84731 13.9189 9.56363 14.2026 9.56363 14.5525V16.1332C9.56363 16.4831 9.84731 16.7669 10.1972 16.7669H11.7779C12.1278 16.7669 12.4115 16.4831 12.4115 16.1332V14.5525C12.4115 14.2027 12.1279 13.9189 11.7779 13.9189Z" fill="#757575"/>
<path d="M7.64637 13.9189H6.06572C5.71581 13.9189 5.43213 14.2026 5.43213 14.5525V16.1332C5.43213 16.4831 5.71581 16.7669 6.06572 16.7669H7.64637C7.99628 16.7669 8.27996 16.4831 8.27996 16.1332V14.5525C8.27996 14.2027 7.99628 13.9189 7.64637 13.9189Z" fill="#757575"/>
</g>
<defs>
<clipPath id="clip0_702_2296">
<rect width="20.2222" height="21" fill="white" transform="translate(2 2)"/>
</clipPath>
</defs>
</svg>
