<svg width="24" height="24" viewBox="0 0 24 24" fill="none" xmlns="http://www.w3.org/2000/svg">
<g clip-path="url(#clip0_702_2332)">
<path d="M6.10281 11.5C5.77938 11.5 5.5166 11.7626 5.5166 12.0859C5.5166 12.4092 5.77938 12.6718 6.10281 12.6718C6.42623 12.6718 6.68901 12.4092 6.68901 12.0859C6.68901 11.7626 6.42623 11.5 6.10281 11.5Z" fill="#757575"/>
<path d="M21.5632 14.6351L16.9577 3.7686C16.2302 2.07841 14.1287 1.47056 12.6098 2.51434L3.78378 8.7025C2.66691 9.46867 2 10.7332 2 12.0859C2 13.5582 2.7963 14.9252 4.07806 15.6536L14.1114 21.3116C16.1596 22.4746 18.7596 22.1472 20.4508 20.4567C21.9891 18.9198 22.4253 16.6344 21.5632 14.6351ZM13.8528 4.51599C14.0818 4.28712 14.4529 4.28712 14.6818 4.51599C14.9108 4.74481 14.9108 5.11578 14.6818 5.34462C14.4529 5.57345 14.0818 5.57345 13.8528 5.34462C13.6239 5.11578 13.6239 4.74477 13.8528 4.51599ZM4.34482 12.0859C4.34482 11.1166 5.13369 10.3282 6.10344 10.3282C7.07318 10.3282 7.86205 11.1166 7.86205 12.0859C7.86205 13.0552 7.07318 13.8438 6.10344 13.8438C5.13369 13.8438 4.34482 13.0552 4.34482 12.0859ZM11.8416 18.6738L7.13136 16.0412C8.89491 15.5818 10.2068 13.9904 10.2068 12.0859C10.2068 10.0626 8.72972 8.38723 6.79898 8.05465L11.3539 4.79653C11.3197 5.59727 11.5997 6.40672 12.1948 7.00152C13.3152 8.12141 15.1938 8.15332 16.34 7.00152C16.5278 6.81372 16.6807 6.60321 16.8082 6.38133L19.1926 12.0972C17.1976 11.0356 14.6688 11.3205 12.9894 12.9992C11.4429 14.5494 11.098 16.7838 11.8416 18.6738ZM18.793 18.799C17.6503 19.9412 15.7905 19.9412 14.6478 18.799C13.5052 17.6569 13.5052 15.7984 14.6478 14.6562C15.7899 13.5147 17.6498 13.5135 18.793 14.6562C19.9368 15.7984 19.9408 17.6517 18.793 18.799Z" fill="#757575"/>
<path d="M17.9638 15.4849C17.2781 14.7993 16.1624 14.7993 15.4765 15.4849C14.7895 16.1716 14.7895 17.2837 15.4765 17.9705C16.1623 18.6565 17.2781 18.6554 17.9638 17.9705C18.6495 17.2851 18.6523 16.173 17.9638 15.4849ZM17.1348 17.1419C16.9058 17.3707 16.5347 17.3707 16.3058 17.1419C16.0768 16.9131 16.0768 16.5421 16.3058 16.3132C16.5347 16.0845 16.9058 16.0845 17.1348 16.3132C17.3638 16.5421 17.3638 16.9131 17.1348 17.1419Z" fill="#757575"/>
</g>
<defs>
<clipPath id="clip0_702_2332">
<rect width="20" height="20" fill="white" transform="translate(2 2)"/>
</clipPath>
</defs>
</svg>
