<svg width="24" height="24" viewBox="0 0 24 24" fill="none" xmlns="http://www.w3.org/2000/svg">
<g clip-path="url(#clip0_702_2344)">
<path d="M14.1739 10.1542L13.1496 9.31445C12.9084 10.0439 12.2206 10.5719 11.4113 10.5719C11.1791 10.5719 10.9571 10.5279 10.7524 10.4487V13.0421C11.4073 12.7905 12.1787 12.9278 12.7059 13.455C12.9139 13.663 13.0609 13.9092 13.1476 14.1711L14.1696 13.334C14.0318 13.2552 13.9019 13.1574 13.7844 13.0399C13.0707 12.3261 13.0707 11.1646 13.7844 10.4508C13.9031 10.332 14.0345 10.2335 14.1739 10.1542Z" fill="#757575"/>
<path d="M11.411 14.0908C11.2423 14.0908 11.0735 14.155 10.9451 14.2836C10.6882 14.5405 10.6882 14.9584 10.9451 15.2153C11.202 15.4722 11.6201 15.4722 11.8769 15.2153C12.1338 14.9584 12.1338 14.5405 11.8768 14.2836C11.7484 14.155 11.5797 14.0908 11.411 14.0908Z" fill="#757575"/>
<path d="M11.4109 9.40075C11.7748 9.40075 12.0697 9.10576 12.0697 8.74188C12.0697 8.37799 11.7748 8.08301 11.4109 8.08301C11.047 8.08301 10.752 8.37799 10.752 8.74188C10.752 9.10576 11.047 9.40075 11.4109 9.40075Z" fill="#757575"/>
<path d="M15.0788 11.0869C14.9101 11.0869 14.7414 11.1511 14.6129 11.2796C14.356 11.5365 14.356 11.9545 14.6129 12.2114C14.8334 12.4318 15.1723 12.4625 15.4264 12.3045L15.5577 12.197C15.8009 11.9391 15.7969 11.5319 15.5446 11.2796C15.4163 11.1511 15.2475 11.0869 15.0788 11.0869Z" fill="#757575"/>
<path d="M2.45835 16.2716C1.97222 16.7577 1.97222 17.5459 2.45835 18.032C2.94448 18.5181 3.73265 18.5181 4.21878 18.032L5.09261 17.1582C4.60948 17.6446 4.61038 18.4304 5.0955 18.9155C5.4766 19.2966 6.04323 19.3789 6.50452 19.1625V15.962L4.6362 14.0938L2.45835 16.2716Z" fill="#757575"/>
<path d="M16.3233 3.24481C16.3233 2.5573 15.766 2 15.0785 2H8.92128C8.23379 2 7.67648 2.5573 7.67648 3.24481V3.90367H16.3233V3.24481Z" fill="#757575"/>
<path d="M20.0683 8.44981L21.3646 7.15348L20.536 6.32485L19.2397 7.62117L17.8777 6.25918L16.3623 7.80868H16.3233V5.07617H7.67641V7.80868H7.63734L6.13629 6.24488L4.62762 7.75356L3.33129 6.45727L2.50266 7.2859L3.79899 8.58223L2.29031 10.0909L7.67641 15.477V18.3569H16.3233V15.477L21.7094 10.0909L20.0683 8.44981ZM16.373 13.0409C16.2947 13.1192 12.6772 16.0718 12.6772 16.0718C12.3239 16.4105 11.8676 16.5804 11.4109 16.5804C10.9421 16.5804 10.4732 16.402 10.1163 16.0451C9.75943 15.6881 9.58099 15.2194 9.58099 14.7505H9.5801V8.74211C9.5801 7.73262 10.4014 6.91137 11.4108 6.91137C11.8591 6.91137 12.2699 7.07352 12.5885 7.34184L12.5891 7.34102C12.5891 7.34102 16.3088 10.3876 16.373 10.4518C17.0868 11.1656 17.0868 12.327 16.373 13.0409Z" fill="#757575"/>
<path d="M7.67667 20.7554C7.67667 21.4428 8.23401 22.0002 8.92147 22.0002H15.0787C15.7662 22.0002 16.3235 21.4428 16.3235 20.7554V19.5283H7.67667V20.7554Z" fill="#757575"/>
<path d="M21.5413 16.2716L19.3634 14.0938L17.4951 15.962V19.1625C17.9564 19.3789 18.523 19.2966 18.9041 18.9156C19.3893 18.4305 19.3902 17.6446 18.907 17.1582L19.7808 18.032C20.267 18.5182 21.0551 18.5182 21.5413 18.032C22.0274 17.5459 22.0274 16.7577 21.5413 16.2716Z" fill="#757575"/>
</g>
<defs>
<clipPath id="clip0_702_2344">
<rect width="20" height="20" fill="white" transform="translate(2 2)"/>
</clipPath>
</defs>
</svg>
