<svg width="24" height="24" viewBox="0 0 24 24" fill="none" xmlns="http://www.w3.org/2000/svg">
<path d="M21.9997 17.833C21.9997 18.054 21.9039 18.266 21.7334 18.4223C21.5629 18.5786 21.3316 18.6664 21.0905 18.6664H10.1815C9.94036 18.6664 9.70913 18.5786 9.53864 18.4223C9.36815 18.266 9.27238 18.054 9.27238 17.833C9.27238 16.5069 9.84705 15.2352 10.87 14.2975C11.8929 13.3598 13.2803 12.833 14.7269 12.833H16.5451C17.9917 12.833 19.3791 13.3598 20.4021 14.2975C21.425 15.2352 21.9997 16.5069 21.9997 17.833ZM15.636 5.33301C14.9169 5.33301 14.2138 5.5285 13.6157 5.89478C13.0178 6.26105 12.5517 6.78164 12.2764 7.39073C12.0012 7.99982 11.9292 8.67004 12.0695 9.31664C12.2099 9.96325 12.5561 10.5572 13.0647 11.0234C13.5733 11.4895 14.2212 11.807 14.9266 11.9356C15.6319 12.0643 16.3632 11.9982 17.0275 11.7459C17.692 11.4936 18.2599 11.0664 18.6595 10.5182C19.0591 9.97008 19.2724 9.32561 19.2724 8.66634C19.2724 7.78229 18.8893 6.93444 18.2074 6.30932C17.5253 5.6842 16.6005 5.33301 15.636 5.33301ZM7.4542 5.33301C6.73499 5.33301 6.03194 5.5285 5.43394 5.89478C4.83594 6.26105 4.36986 6.78164 4.09463 7.39073C3.81941 7.99982 3.7474 8.67004 3.8877 9.31664C4.02801 9.96325 4.37434 10.5572 4.8829 11.0234C5.39145 11.4895 6.03939 11.807 6.74478 11.9356C7.45016 12.0643 8.18131 11.9982 8.84577 11.7459C9.51023 11.4936 10.0781 11.0664 10.4777 10.5182C10.8773 9.97008 11.0906 9.32561 11.0906 8.66634C11.0906 7.78229 10.7074 6.93444 10.0255 6.30932C9.34354 5.6842 8.41861 5.33301 7.4542 5.33301ZM7.4542 17.833C7.45284 16.9577 7.64097 16.0908 8.00769 15.2826C8.3744 14.4744 8.91242 13.7409 9.59056 13.1247C9.03559 12.9326 8.4474 12.8338 7.8542 12.833H7.05419C5.71438 12.8352 4.43014 13.3241 3.48274 14.1925C2.53535 15.061 2.00205 16.2382 1.99965 17.4664V17.833C1.99965 18.054 2.09543 18.266 2.26592 18.4223C2.43641 18.5786 2.66764 18.6664 2.90874 18.6664H7.61783C7.51199 18.3991 7.45665 18.1173 7.4542 17.833Z" fill="#757575"/>
<path d="M7.4542 5.33301C6.73499 5.33301 6.03193 5.5285 5.43394 5.89478C4.83594 6.26105 4.36986 6.78164 4.09463 7.39073C3.81941 7.99982 3.7474 8.67004 3.8877 9.31664C4.02801 9.96325 4.37434 10.5572 4.8829 11.0234C5.39145 11.4895 6.03939 11.807 6.74478 11.9356C7.45016 12.0643 8.18131 11.9982 8.84577 11.7459C9.51023 11.4936 10.0781 11.0664 10.4777 10.5182C10.8773 9.97008 11.0906 9.32561 11.0906 8.66634C11.0906 7.78229 10.7074 6.93444 10.0255 6.30932C9.34354 5.6842 8.41861 5.33301 7.4542 5.33301ZM7.4542 17.833C7.45284 16.9577 7.64097 16.0908 8.00769 15.2826C8.3744 14.4744 8.91241 13.7409 9.59056 13.1247C9.03559 12.9326 8.4474 12.8338 7.85419 12.833H7.05419C5.71438 12.8352 4.43013 13.3241 3.48274 14.1925C2.53535 15.061 2.00205 16.2382 1.99965 17.4664V17.833C1.99965 18.054 2.09543 18.266 2.26592 18.4223C2.43641 18.5786 2.66764 18.6664 2.90874 18.6664H7.61783C7.51199 18.3991 7.45665 18.1173 7.4542 17.833Z" fill="#757575"/>
</svg>
