<svg width="24" height="24" viewBox="0 0 24 24" fill="none" xmlns="http://www.w3.org/2000/svg">
<g clip-path="url(#clip0_702_2320)">
<path d="M15.9219 2H12.4482C12.1604 2 11.9272 2.22677 11.9272 2.5065V4.26023C11.9272 4.53996 12.1604 4.76673 12.4482 4.76673H15.9219C16.2097 4.76673 16.4429 4.53996 16.4429 4.26023V2.5065C16.4429 2.22677 16.2097 2 15.9219 2Z" fill="#757575"/>
<path d="M5.84758 10.1689H4.05731C3.91912 10.1689 3.78659 10.2224 3.68887 10.3173C3.59115 10.4123 3.53625 10.5411 3.53625 10.6755C3.53625 10.8098 3.59115 10.9386 3.68887 11.0336C3.78659 11.1286 3.91912 11.182 4.05731 11.182H5.84758C5.98577 11.182 6.11831 11.1286 6.21603 11.0336C6.31374 10.9386 6.36863 10.8098 6.36863 10.6755C6.36863 10.5411 6.31374 10.4123 6.21603 10.3173C6.11831 10.2224 5.98577 10.1689 5.84758 10.1689Z" fill="#757575"/>
<path d="M5.67408 14.7282C5.67408 14.5938 5.61919 14.465 5.52147 14.3701C5.42376 14.2751 5.29122 14.2217 5.15303 14.2217H2.52105C2.38286 14.2217 2.25033 14.2751 2.15261 14.3701C2.0549 14.465 2 14.5938 2 14.7282C2 14.8625 2.0549 14.9914 2.15261 15.0863C2.25033 15.1813 2.38286 15.2347 2.52105 15.2347H5.15303C5.29122 15.2347 5.42376 15.1813 5.52147 15.0863C5.61919 14.9914 5.67408 14.8625 5.67408 14.7282Z" fill="#757575"/>
<path d="M5.50033 16.2471H3.06875C2.93056 16.2471 2.79803 16.3004 2.70031 16.3954C2.6026 16.4904 2.5477 16.6192 2.5477 16.7536C2.5477 16.8879 2.6026 17.0167 2.70031 17.1117C2.79803 17.2067 2.93056 17.26 3.06875 17.26H5.50033C5.63852 17.26 5.77106 17.2067 5.86878 17.1117C5.96649 17.0167 6.02138 16.8879 6.02138 16.7536C6.02138 16.6192 5.96649 16.4904 5.86878 16.3954C5.77106 16.3004 5.63852 16.2471 5.50033 16.2471Z" fill="#757575"/>
<path d="M5.67425 12.7018C5.67425 12.5675 5.61936 12.4386 5.52164 12.3436C5.42393 12.2486 5.29139 12.1953 5.1532 12.1953H3.16253C3.02434 12.1953 2.89181 12.2486 2.79409 12.3436C2.69638 12.4386 2.64148 12.5675 2.64148 12.7018C2.64148 12.8361 2.69638 12.9649 2.79409 13.0599C2.89181 13.1549 3.02434 13.2083 3.16253 13.2083H5.1532C5.29139 13.2083 5.42393 13.1549 5.52164 13.0599C5.61936 12.9649 5.67425 12.8361 5.67425 12.7018Z" fill="#757575"/>
<path d="M14.1838 13.7149V7.97461C10.9275 7.97461 8.27847 10.5497 8.27847 13.7149C8.27847 16.8801 10.9275 19.4552 14.1838 19.4552C17.4399 19.4552 20.089 16.8801 20.089 13.7149H14.1838Z" fill="#757575"/>
<path d="M19.8993 8.53836L20.458 7.99522C20.5071 7.94833 20.546 7.89247 20.5728 7.83085C20.5994 7.76924 20.6133 7.70309 20.6136 7.63623C20.6139 7.56937 20.6005 7.50312 20.5744 7.4413C20.5482 7.37947 20.5096 7.3233 20.461 7.27602C20.4124 7.22874 20.3546 7.1913 20.291 7.16583C20.2274 7.14037 20.1592 7.12741 20.0905 7.12767C20.0216 7.12795 19.9536 7.14145 19.8902 7.16742C19.8268 7.19339 19.7693 7.23129 19.7211 7.27895L19.1396 7.84416C18.0198 6.94742 16.6644 6.37279 15.2264 6.18513V5.27344H13.1422V6.18513C11.7042 6.37272 10.3488 6.94726 9.22895 7.8439L8.64746 7.2787C8.59922 7.23104 8.54175 7.19313 8.47837 7.16716C8.41498 7.1412 8.34694 7.1277 8.27815 7.12742C8.20937 7.12715 8.14121 7.14012 8.07761 7.16558C8.01401 7.19104 7.95623 7.22849 7.90759 7.27577C7.85895 7.32304 7.82043 7.37922 7.79423 7.44104C7.76804 7.50287 7.7547 7.56912 7.75498 7.63598C7.75526 7.70284 7.76916 7.76899 7.79587 7.8306C7.82258 7.89222 7.86158 7.94807 7.91061 7.99497L8.4693 8.5381C7.11814 9.94184 6.36706 11.7927 6.3685 13.715C6.3685 17.9043 9.87468 21.3125 14.1843 21.3125C18.4939 21.3125 22.0001 17.9043 22.0001 13.715C22.0015 11.7928 21.2504 9.94199 19.8993 8.53836ZM14.1843 19.9618C12.9133 19.9618 11.6708 19.5955 10.614 18.909C9.5572 18.2227 8.73355 17.247 8.24715 16.1056C7.76076 14.9641 7.6335 13.7081 7.88146 12.4964C8.12942 11.2846 8.74146 10.1715 9.64023 9.2979C10.539 8.42427 11.684 7.82932 12.9306 7.58828C14.1772 7.34725 15.4693 7.47096 16.6436 7.94376C17.8178 8.41656 18.8215 9.21724 19.5276 10.2445C20.2337 11.2718 20.6106 12.4795 20.6106 13.715C20.6106 14.5354 20.4444 15.3477 20.1214 16.1056C19.7985 16.8635 19.3251 17.5521 18.7284 18.1322C18.1316 18.7123 17.4232 19.1724 16.6436 19.4864C15.8639 19.8003 15.0282 19.9618 14.1843 19.9618Z" fill="#757575"/>
</g>
<defs>
<clipPath id="clip0_702_2320">
<rect width="20" height="20" fill="white" transform="translate(2 2)"/>
</clipPath>
</defs>
</svg>
