<svg width="24" height="24" viewBox="0 0 24 24" fill="none" xmlns="http://www.w3.org/2000/svg">
<path d="M11.0654 3.85156C8.89038 3.97402 6.85071 4.80301 5.22266 6.22617L7.74051 8.69578C8.68805 7.92205 9.83858 7.45448 11.0654 7.34453V3.85156Z" fill="#757575"/>
<path d="M6.9423 9.47835L4.42448 7.00879C2.97229 8.6052 2.12605 10.6059 2.00041 12.7398H5.56176C5.67461 11.5363 6.15232 10.4077 6.9423 9.47835Z" fill="#757575"/>
<path d="M17.6975 12.7398H21.2589C21.1332 10.6059 20.2871 8.6052 18.8349 7.00879L16.317 9.47835C17.107 10.4076 17.5847 11.5363 17.6975 12.7398Z" fill="#757575"/>
<path d="M17.6967 13.8467C17.6176 14.6991 17.3696 15.4101 17.0762 15.9804C17.3624 16.4132 17.6009 16.779 17.7585 17.0219C18.1877 17.6835 18.0927 18.5327 17.5274 19.0872C17.3901 19.2219 17.2333 19.3303 17.0635 19.4105L17.6498 19.9856C17.7602 20.0939 17.9049 20.1481 18.0495 20.1481C18.1941 20.1481 18.3388 20.0939 18.4491 19.9856C20.139 18.3284 21.1243 16.1658 21.2592 13.8467H17.6967Z" fill="#757575"/>
<path d="M5.56259 13.8467H2C2.13485 16.1658 3.1202 18.3284 4.81001 19.9857C4.92038 20.0939 5.06501 20.1481 5.20964 20.1481C5.35427 20.1481 5.49894 20.0939 5.6093 19.9857L7.32127 18.3065C7.54196 18.0899 7.54196 17.7389 7.32127 17.5224C6.87451 17.0842 5.74916 15.8573 5.56259 13.8467Z" fill="#757575"/>
<path d="M18.0366 6.22617C16.4086 4.80298 14.3689 3.97402 12.1938 3.85156V7.34453C13.4207 7.45448 14.5712 7.92205 15.5187 8.69578L18.0366 6.22617Z" fill="#757575"/>
<path d="M12.8832 12.073C12.1919 11.3949 11.0671 11.3949 10.3759 12.073C9.68461 12.751 9.68461 13.8543 10.3759 14.5323C11.2491 15.3888 15.5409 18.0766 16.0274 18.3803C16.2505 18.5195 16.5423 18.4881 16.7293 18.3047C16.9163 18.1213 16.9484 17.8351 16.8064 17.6163C16.4968 17.1391 13.7565 12.9295 12.8832 12.073Z" fill="#757575"/>
</svg>
