<svg width="16" height="16" viewBox="0 0 16 16" fill="none" xmlns="http://www.w3.org/2000/svg">
<path d="M13.3535 10.3537C13.3071 10.4001 13.252 10.437 13.1913 10.4622C13.1306 10.4873 13.0655 10.5003 12.9998 10.5003C12.9341 10.5003 12.869 10.4873 12.8083 10.4622C12.7476 10.437 12.6925 10.4001 12.646 10.3537L7.99979 5.70678L3.35354 10.3537C3.25972 10.4475 3.13247 10.5002 2.99979 10.5002C2.86711 10.5002 2.73986 10.4475 2.64604 10.3537C2.55222 10.2598 2.49951 10.1326 2.49951 9.99991C2.49951 9.86722 2.55222 9.73998 2.64604 9.64615L7.64604 4.64615C7.69248 4.59967 7.74762 4.56279 7.80832 4.53763C7.86902 4.51246 7.93408 4.49951 7.99979 4.49951C8.0655 4.49951 8.13056 4.51246 8.19126 4.53763C8.25196 4.56279 8.3071 4.59967 8.35354 4.64615L13.3535 9.64615C13.4 9.69259 13.4369 9.74774 13.4621 9.80843C13.4872 9.86913 13.5002 9.9342 13.5002 9.99991C13.5002 10.0656 13.4872 10.1307 13.4621 10.1914C13.4369 10.2521 13.4 10.3072 13.3535 10.3537Z" fill="#424242"/>
</svg>
