<svg width="32" height="32" viewBox="0 0 32 32" fill="none" xmlns="http://www.w3.org/2000/svg">
<path d="M29.005 14.0104C28.9685 12.599 27.5935 12.6719 26.7342 12.6354C25.8748 12.599 25.505 13.0469 25.505 13.0469L23.9425 8.09896C23.6456 7.13542 22.8644 7.35417 22.8644 7.35417L16.6092 7.32292V7.31771H15.9998L15.3904 7.3125V7.31771L9.13521 7.34896C9.13521 7.34896 8.35396 7.125 8.05709 8.09375L6.49459 13.0417C6.49459 13.0417 6.1248 12.5938 5.26542 12.6302C4.40605 12.6667 3.03105 12.5937 2.99459 14.0104C2.95813 15.4271 5.15084 15.0521 5.15084 15.0521L5.33834 15.1615L4.40605 16.276V24.2812C4.40605 24.2812 4.51542 24.6146 4.9998 24.6146C5.48417 24.6146 8.76021 24.6875 8.76021 24.6875C8.76021 24.6875 9.24459 24.5365 9.24459 24.0156V23.0104H15.3904H16.6144H22.7602V24.0156C22.7602 24.5365 23.2446 24.6875 23.2446 24.6875C23.2446 24.6875 26.5206 24.6146 27.005 24.6146C27.4894 24.6146 27.5988 24.2812 27.5988 24.2812V16.2812L26.6665 15.1667L26.854 15.0573C26.8488 15.0521 29.0415 15.4219 29.005 14.0104ZM9.08313 8.65104C9.08313 8.65104 9.2498 8.36979 9.92167 8.35417C10.5935 8.33333 22.1613 8.35417 22.1613 8.35417C22.1613 8.35417 22.6456 8.26042 22.8852 8.85417C23.1248 9.44792 24.5415 13.7656 24.5415 13.7656C24.5415 13.7656 7.40605 13.7656 7.40605 13.8229L9.08313 8.65104ZM8.32271 19.099C7.45292 19.099 6.74459 18.3906 6.74459 17.5208C6.74459 16.651 7.45292 15.9427 8.32271 15.9427C9.19251 15.9427 9.90084 16.651 9.90084 17.5208C9.90084 18.3906 9.19251 19.099 8.32271 19.099ZM20.4633 19.5312C20.4477 19.6042 20.4165 19.6719 20.3748 19.7344L20.0883 20.1875C19.9581 20.3958 19.7446 20.4479 19.4946 20.4479L12.3071 20.4948C12.0258 20.4948 11.7758 20.3281 11.6613 20.0729L11.4217 19.5417C11.2967 19.2031 11.4373 19.0208 11.5883 18.9219C11.6977 18.849 11.8279 18.8177 11.9581 18.8177H20.156C20.5831 18.8385 20.5206 19.3021 20.4633 19.5312ZM23.6977 19.099C22.8279 19.099 22.1196 18.3906 22.1196 17.5208C22.1196 16.651 22.8279 15.9427 23.6977 15.9427C24.5675 15.9427 25.2758 16.651 25.2758 17.5208C25.2758 18.3906 24.5675 19.099 23.6977 19.099Z" fill="#757575"/>
</svg>
