<svg width="16" height="16" viewBox="0 0 16 16" fill="none" xmlns="http://www.w3.org/2000/svg">
<path d="M8.10014 8.49341C7.95639 8.56216 7.81264 8.63403 7.66576 8.70278C7.34701 8.85903 7.17826 9.21841 7.25951 9.56841C7.32201 9.84028 7.54389 10.0622 7.81576 10.1247C8.16889 10.2059 8.52514 10.0372 8.68139 9.71841C8.75014 9.57466 8.82201 9.43403 8.88764 9.28716C9.10326 8.83403 9.32826 8.36528 9.59076 7.92466L9.79076 7.58716L9.45326 7.78716C9.01576 8.05591 8.55014 8.27778 8.10014 8.49341Z" fill="#424242"/>
<path d="M5.97168 12.6842H10.0248V11.6686H5.97168V12.6842Z" fill="#424242"/>
<path d="M10.7504 6.98416L10.0285 8.19041C9.77539 8.61541 9.55977 9.06853 9.34727 9.51228C9.27852 9.65916 9.20664 9.79978 9.13789 9.94666C8.92227 10.3904 8.47539 10.656 7.99414 10.656C7.89727 10.656 7.80039 10.6467 7.70352 10.6217C7.24102 10.5154 6.86914 10.1498 6.76602 9.68416C6.63477 9.09978 6.91289 8.50916 7.44414 8.25291C7.59102 8.18416 7.73477 8.11228 7.88477 8.04353C8.32539 7.83416 8.78164 7.61541 9.20352 7.36228L10.4066 6.64041C10.5066 6.58103 10.6316 6.59978 10.716 6.67791C10.7941 6.75603 10.8098 6.88103 10.7504 6.98416ZM10.5285 12.9373C10.5285 13.0779 10.4129 13.1904 10.2754 13.1904H5.71914C5.57852 13.1904 5.46602 13.0748 5.46602 12.9373V11.4185C5.46602 11.2779 5.58164 11.1654 5.71914 11.1654H10.2816C10.4223 11.1654 10.5348 11.281 10.5348 11.4185L10.5285 12.9373ZM13.7316 12.0748C13.6066 12.0185 13.5473 11.8654 13.6066 11.7373C13.6629 11.6123 13.8129 11.5529 13.9441 11.6123L15.0848 12.1342C15.391 11.3435 15.5629 10.5029 15.591 9.63728H13.3223C13.1816 9.63728 13.0691 9.52166 13.0691 9.38416C13.0691 9.24666 13.1848 9.13103 13.3223 9.13103H15.6004C15.5691 8.27166 15.4004 7.44978 15.1098 6.68416L13.9816 7.22166C13.9441 7.24041 13.9098 7.24666 13.8691 7.24666C13.7754 7.24666 13.6816 7.19353 13.641 7.10291C13.5816 6.97791 13.6348 6.82478 13.7629 6.76541L14.9129 6.21541C14.5629 5.44978 14.0879 4.75916 13.5191 4.15916L12.6691 5.07791C12.6191 5.13103 12.5504 5.15916 12.4816 5.15916C12.4223 5.15916 12.3598 5.13416 12.3066 5.09353C12.2035 4.99666 12.1941 4.83728 12.2941 4.73103L13.1535 3.79978C12.5723 3.27166 11.916 2.82478 11.2035 2.49353L10.6848 3.65291C10.6441 3.74666 10.5535 3.80291 10.4566 3.80291C10.4223 3.80291 10.3879 3.79666 10.3535 3.77791C10.2285 3.72166 10.1691 3.57166 10.2285 3.44041L10.7473 2.29666C9.96914 1.99353 9.13164 1.81853 8.25664 1.79041V4.06228C8.25664 4.20291 8.14102 4.31541 8.00352 4.31541C7.86289 4.31541 7.75039 4.19978 7.75039 4.06228V1.79353C6.93164 1.82166 6.14102 1.97791 5.40352 2.24353L5.85039 3.43103C5.90039 3.55916 5.83164 3.70916 5.70352 3.75916C5.67227 3.76853 5.64414 3.77791 5.61289 3.77791C5.50977 3.77791 5.41289 3.71541 5.37539 3.61541L4.92852 2.43728C4.14414 2.78416 3.42539 3.26541 2.80352 3.84353L3.69414 4.73416C3.79414 4.83416 3.79414 4.99353 3.69414 5.09666C3.64414 5.14666 3.57852 5.16853 3.51289 5.16853C3.44727 5.16853 3.38477 5.14353 3.33164 5.09666L2.44102 4.20603C1.89727 4.79041 1.44102 5.45603 1.10352 6.18728L2.25664 6.70916C2.38164 6.76541 2.44102 6.91541 2.38164 7.04666C2.34102 7.14041 2.25039 7.19666 2.15352 7.19666C2.11914 7.19666 2.08477 7.19041 2.05039 7.17166L0.906641 6.65291C0.603516 7.42791 0.428516 8.26853 0.400391 9.14041H2.67227C2.81289 9.14041 2.92539 9.25603 2.92539 9.39353C2.92539 9.53103 2.80977 9.64666 2.67227 9.64666H0.403516C0.431641 10.481 0.591016 11.2873 0.872266 12.0498L2.02539 11.5498C2.15352 11.4935 2.30352 11.5529 2.35977 11.681C2.41602 11.806 2.35664 11.9592 2.22852 12.0154L1.06289 12.5185C1.31602 13.0779 1.64414 13.6123 2.03477 14.1092C2.08164 14.1685 2.15664 14.206 2.23477 14.206H13.7535C13.8285 14.206 13.9035 14.1685 13.9535 14.1092C14.3254 13.6404 14.6348 13.1373 14.8816 12.606L13.7316 12.0748Z" fill="#424242"/>
</svg>
