<svg width="80" height="80" viewBox="0 0 80 80" fill="none" xmlns="http://www.w3.org/2000/svg">
<path d="M10 25C4.46 25 0 29.46 0 35V70C0 75.54 4.46 80 10 80H55C60.54 80 65 75.54 65 70V51L80 35H65C65 29.46 60.54 25 55 25H10ZM32.19 35C38.75 34.63 44.63 39.68 45 46.25C45 51.855 43.46 53.97 38.595 57.655C38.0814 58.0178 37.6101 58.4371 37.19 58.905C36.99 59.155 37.03 59.07 37.03 59.06C37.06 61.175 35.08 62.97 32.97 62.97C31.9371 62.9583 30.9499 62.5424 30.2199 61.8115C29.49 61.0807 29.0754 60.0929 29.065 59.06C29.065 57.055 29.96 55.29 30.94 54.06C31.7539 53.0081 32.6981 52.0639 33.75 51.25C34.7751 50.4618 35.7182 49.5723 36.565 48.595C36.935 48.145 37.05 47.395 37.03 46.875V46.72C37.008 46.1941 36.8805 45.678 36.655 45.2024C36.4295 44.7268 36.1106 44.3014 35.7174 43.9516C35.3241 43.6017 34.8645 43.3345 34.3659 43.1659C33.8673 42.9973 33.3399 42.9306 32.815 42.97C30.56 43.095 28.75 44.78 28.56 46.76C28.4971 47.6596 28.0879 48.4998 27.4184 49.104C26.7489 49.7082 25.8713 50.0294 24.97 50C24.0851 49.9954 23.2256 49.7032 22.5212 49.1675C21.8168 48.6318 21.3057 47.8816 21.065 47.03C20.9435 46.1444 20.9603 45.2454 21.115 44.365C21.14 44.295 21.145 44.215 21.175 44.15C22.185 39.03 26.625 35.31 32.19 35ZM32.97 67.03C34.0444 67.0404 35.0718 67.4722 35.8311 68.2325C36.5904 68.9927 37.0209 70.0206 37.03 71.095C37.03 73.305 35.18 75 32.97 75C32.4548 75.0088 31.943 74.9138 31.4653 74.7207C30.9875 74.5275 30.5535 74.2402 30.1891 73.8759C29.8248 73.5115 29.5375 73.0775 29.3443 72.5997C29.1512 72.122 29.0562 71.6102 29.065 71.095C29.065 68.885 30.765 67.03 32.97 67.03ZM10 5C4.46 5 0 9.46 0 15V17.84C3.01675 16.0101 6.47173 15.0288 10 15H55C61.88 15 67.75 18.815 71.34 24.24L80 15H65C65 9.46 60.54 5 55 5H10Z" fill="#1C1C1C"/>
</svg>
