<svg width="33" height="32" viewBox="0 0 33 32" fill="none" xmlns="http://www.w3.org/2000/svg">
<path d="M19.3187 18.1129C19.3187 18.2192 19.3187 18.2754 19.3187 18.3379C19.3187 20.3379 19.3187 22.3442 19.3125 24.3442C19.3125 24.4942 19.3437 24.5629 19.5062 24.5817C20.425 24.7004 20.9125 25.5567 20.6187 26.4442C20.4375 26.9879 20.0125 27.2754 19.4437 27.3317C19.2375 27.3504 19.0312 27.3692 18.825 27.3692C14.8625 27.3692 10.9 27.3754 6.93747 27.3692C6.53122 27.3692 6.11872 27.3567 5.75622 27.1192C5.27497 26.8067 5.06247 26.2692 5.18122 25.6442C5.27497 25.1317 5.69372 24.7129 6.21872 24.6004C6.53122 24.5317 6.53122 24.5317 6.53122 24.2067C6.53122 18.7379 6.53122 13.2692 6.53747 7.80043C6.53747 7.02543 6.69997 6.29418 7.22497 5.68793C7.75622 5.07543 8.41872 4.73168 9.22497 4.66918C9.51247 4.64418 9.80622 4.63168 10.0937 4.63168C12.1125 4.63168 14.1312 4.62543 16.1562 4.63168C16.9625 4.63793 17.7125 4.81293 18.3375 5.37543C18.9312 5.90668 19.2312 6.57543 19.2812 7.35668C19.3062 7.72543 19.3187 8.08793 19.3187 8.45668C19.3187 10.9004 19.3187 13.3379 19.3187 15.7817C19.3187 15.8504 19.3187 15.9192 19.3187 15.9942C19.5875 16.0254 19.8375 16.0567 20.0875 16.0754C21.8687 16.2442 23.3562 17.7254 23.5125 19.5129C23.5625 20.0567 23.5562 20.6004 23.5812 21.1442C23.6 21.5317 23.6687 21.9004 24 22.1567C24.6375 22.6504 25.55 22.2942 25.6812 21.5004C25.7062 21.3317 25.7187 21.1567 25.7187 20.9879C25.7187 18.9192 25.7187 16.8504 25.725 14.7879C25.725 14.5692 25.6562 14.4567 25.4562 14.3817C24.8437 14.1442 24.375 13.7317 24.0125 13.1942C23.6562 12.6629 23.6 12.0567 23.5875 11.4442C23.575 10.6629 23.5812 9.88168 23.5875 9.10043C23.5875 8.96293 23.55 8.86293 23.4562 8.76918C23.0937 8.40668 22.7312 8.03793 22.375 7.66293C22.25 7.53168 22.1312 7.38793 22.0375 7.23168C21.8125 6.84418 21.8875 6.37543 22.2062 6.07543C22.525 5.77543 23.025 5.71918 23.3875 5.95043C23.5062 6.02543 23.6187 6.11918 23.7187 6.21918C24.7625 7.25668 25.8062 8.30668 26.85 9.34418C27.3 9.78793 27.6437 10.2879 27.7437 10.9192C27.7937 11.2317 27.8312 11.5567 27.8312 11.8754C27.8375 14.8754 27.8375 17.8692 27.8312 20.8692C27.8312 21.6379 27.7375 22.3942 27.3062 23.0629C26.65 24.0817 25.3875 24.7192 24.0812 24.4629C22.75 24.2004 21.775 23.2567 21.5562 21.9754C21.475 21.4942 21.475 21.0004 21.4437 20.5067C21.425 20.2442 21.4375 19.9879 21.4125 19.7254C21.3375 19.0067 20.7625 18.3629 20.0562 18.2067C19.8375 18.1379 19.5875 18.1379 19.3187 18.1129ZM12.9125 13.1629C13.8 13.1629 14.6875 13.1629 15.575 13.1629C16.2125 13.1629 16.4687 12.8942 16.475 12.2629C16.475 12.2129 16.475 12.1692 16.475 12.1192C16.475 11.5004 16.475 10.8754 16.475 10.2567C16.475 9.60668 16.4812 8.95668 16.4687 8.30043C16.4625 7.76918 16.2562 7.55043 15.7375 7.47543C15.65 7.46293 15.5625 7.46293 15.4687 7.46293C14.6187 7.46293 13.775 7.46293 12.925 7.46293C12.0375 7.46293 11.15 7.45668 10.2625 7.46293C9.63747 7.46918 9.36247 7.70668 9.35622 8.30043C9.34372 9.65043 9.34372 11.0004 9.35622 12.3504C9.36247 12.8504 9.56872 13.0692 10.0625 13.1442C10.1562 13.1567 10.25 13.1629 10.3437 13.1629C11.2125 13.1629 12.0625 13.1629 12.9125 13.1629Z" fill="#757575"/>
</svg>
