<svg width="65" height="64" viewBox="0 0 65 64" fill="none" xmlns="http://www.w3.org/2000/svg">
<g clip-path="url(#clip0_707_3242)">
<path d="M12.6668 27.9997V27.333C12.6668 26.0953 13.1585 24.9083 14.0336 24.0332C14.9088 23.158 16.0958 22.6663 17.3335 22.6663C18.5711 22.6663 19.7581 23.158 20.6333 24.0332C21.5085 24.9083 22.0001 26.0953 22.0001 27.333V27.573C22.0001 28.7117 21.6055 29.813 20.8801 30.693L12.6668 40.6663V41.333H23.3335M36.6668 35.9997H26.0001V35.333C28.6083 31.4208 30.0001 26.8242 30.0001 22.1223V21.333M36.6668 35.9997V26.6663M36.6668 35.9997V42.6663M43.3335 21.333V33.9997M43.3335 33.9997C43.3335 32.762 43.8251 31.575 44.7003 30.6998C45.5755 29.8247 46.7624 29.333 48.0001 29.333C49.2378 29.333 50.4248 29.8247 51.2999 30.6998C52.1751 31.575 52.6668 32.762 52.6668 33.9997V42.6663M43.3335 33.9997V42.6663M32.6668 62.6663C15.7308 62.6663 2.00012 48.9357 2.00012 31.9997C2.00012 15.0637 15.7308 1.33301 32.6668 1.33301C49.6028 1.33301 63.3335 15.0637 63.3335 31.9997C63.3335 48.9357 49.6028 62.6663 32.6668 62.6663Z" stroke="#FF9E52" stroke-width="2.66667"/>
</g>
<defs>
<clipPath id="clip0_707_3242">
<rect width="64" height="64" fill="white" transform="translate(0.666626)"/>
</clipPath>
</defs>
</svg>
