<svg width="16" height="16" viewBox="0 0 16 16" fill="none" xmlns="http://www.w3.org/2000/svg">
<path d="M14.3476 1.65203C14.2722 1.57627 14.1761 1.52447 14.0713 1.50312C13.9666 1.48177 13.8579 1.49183 13.7588 1.53203L1.83003 6.41203C1.72171 6.4567 1.63075 6.53521 1.57074 6.63584C1.51073 6.73647 1.48489 6.85382 1.49709 6.97035C1.50929 7.08688 1.55886 7.19634 1.63841 7.28236C1.71796 7.36839 1.82321 7.42637 1.93843 7.44763L7.53363 8.46483L8.55123 14.0596C8.57208 14.1751 8.62984 14.2806 8.71582 14.3604C8.8018 14.4402 8.91136 14.4899 9.02803 14.502C9.04683 14.502 9.06803 14.5048 9.08443 14.5048C9.19211 14.5048 9.29734 14.4727 9.38673 14.4126C9.47613 14.3526 9.54564 14.2673 9.58643 14.1676L14.4664 2.23963C14.5066 2.14085 14.5167 2.03244 14.4956 1.92793C14.4745 1.82342 14.423 1.72746 14.3476 1.65203Z" fill="#424242"/>
</svg>
