<svg width="16" height="16" viewBox="0 0 16 16" fill="none" xmlns="http://www.w3.org/2000/svg">
<g clip-path="url(#clip0_901_4329)">
<path d="M15.9719 11.4719C15.9719 12.8525 14.6288 13.9719 13 13.9719C11.3713 13.9719 10.0281 12.8525 10.0281 11.5C10.0281 10.1194 11.3713 9.02812 13 9.02812C13.3525 9.02812 13.6859 9.08813 14.0003 9.18119V4.62813L6 7L5.99993 13.5031C5.97188 14.8813 4.65625 16 2.97187 16C1.2875 16 0 14.8813 0 13.5C0 12.1194 1.34313 11.0281 2.97187 11.0281C3.32437 11.0281 3.65781 11.0881 3.97187 11.1812V3.95313C3.97187 3.54781 4.28625 3.12094 4.67219 2.99938L14.6441 0.0465625C14.7531 0.0206719 14.9156 0 15 0C15.5519 0 15.9991 0.448125 16 0.999688L15.9719 11.4719Z" fill="#424242"/>
</g>
<defs>
<clipPath id="clip0_901_4329">
<rect width="16" height="16" fill="white"/>
</clipPath>
</defs>
</svg>
