<svg width="65" height="64" viewBox="0 0 65 64" fill="none" xmlns="http://www.w3.org/2000/svg">
<path d="M60.4932 11.5195H41.2932C41.2932 11.5195 40.0132 21.7595 42.5732 31.9995C43.6023 33.7147 46.1444 34.6389 48.9732 34.8731V47.3595H48.5469L43.8532 51.1995H57.9332L53.3456 47.3595H52.8132V34.7797C55.5268 34.4277 58.0138 33.4818 59.2132 31.9995C61.7732 23.0395 60.4932 11.5195 60.4932 11.5195ZM59.2132 19.1995H42.5732V12.7995H59.2132V19.1995ZM27.8532 47.3595H20.8132V36.4795L34.8932 15.3595H1.61316L15.6932 36.4795V47.3595H8.65316C8.14394 47.3595 7.65558 47.5618 7.29551 47.9219C6.93544 48.282 6.73316 48.7703 6.73316 49.2795C6.73316 49.7887 6.93544 50.2771 7.29551 50.6372C7.65558 50.9972 8.14394 51.1995 8.65316 51.1995H27.8532C28.3624 51.1995 28.8507 50.9972 29.2108 50.6372C29.5709 50.2771 29.7732 49.7887 29.7732 49.2795C29.7732 48.7703 29.5709 48.282 29.2108 47.9219C28.8507 47.5618 28.3624 47.3595 27.8532 47.3595Z" fill="#FF9E52"/>
</svg>
