<svg width="16" height="16" viewBox="0 0 16 16" fill="none" xmlns="http://www.w3.org/2000/svg">
<g clip-path="url(#clip0_901_4196)">
<path d="M13.55 0H2.45C1.1 0 0 1.1 0 2.45V13.55C0 14.9 1.1 16 2.45 16H13.55C14.9 16 16 14.9 16 13.55V2.45C16 1.1 14.9 0 13.55 0ZM14.8 13.55C14.8 14.2406 14.2406 14.8 13.55 14.8H2.45C1.75938 14.8 1.2 14.2406 1.2 13.55V2.45C1.2 1.75938 1.75938 1.2 2.45 1.2H13.55C14.2406 1.2 14.8 1.75938 14.8 2.45V13.55Z" fill="#424242"/>
<path d="M12.4063 7.4062V8.5937H8.59375V12.425H7.40625V8.5937H3.59375V7.4062H7.40625V3.57495H8.59375V7.4062H12.4063Z" fill="#424242"/>
</g>
<defs>
<clipPath id="clip0_901_4196">
<rect width="16" height="16" fill="white"/>
</clipPath>
</defs>
</svg>
