<svg width="16" height="16" viewBox="0 0 16 16" fill="none" xmlns="http://www.w3.org/2000/svg">
<path d="M13.8668 6.80004L12.9335 7.06671L12.1335 6.60004V5.46671L12.9335 5.00004L13.8668 5.26671L14.0668 4.53337L13.3335 4.33337L13.5335 3.60004L12.8002 3.40004L12.5335 4.33337L11.7335 4.80004L10.7335 4.20004V3.33337L11.4002 2.66671L10.8668 2.13337L10.3335 2.66671L9.80016 2.13337L9.26683 2.66671L9.9335 3.33337V4.20004L8.9335 4.80004L8.1335 4.33337L7.9335 3.40004L7.20016 3.60004L7.40016 4.33337L6.66683 4.46671L6.86683 5.20004L7.80016 4.93337L8.60016 5.40004V6.53337L7.80016 7.00004L6.86683 6.73337L6.66683 7.60004L7.40016 7.80004L7.20016 8.46671L7.9335 8.66671L8.20016 7.73337L9.00016 7.26671L10.0002 7.86671V8.73337L9.3335 9.40004L9.86683 9.93337L10.4002 9.40004L10.9335 9.93337L11.4668 9.40004L10.8002 8.73337V7.86671L11.8002 7.26671L12.6002 7.73337L12.8668 8.66671L13.6002 8.46671L13.3335 7.73337L14.0668 7.53337L13.8668 6.80004ZM9.3335 5.46671L10.3335 4.86671L11.3335 5.46671V6.60004L10.3335 7.20004L9.3335 6.60004V5.46671ZM3.3335 12C3.3335 12 1.3335 6.66671 1.3335 4.00004C1.3335 1.33337 2.66683 1.33337 2.66683 1.33337H3.3335C3.3335 1.33337 4.00016 1.33337 4.00016 2.00004C4.00016 2.66671 3.3335 2.66671 3.3335 4.00004C3.3335 5.33337 5.3335 6.66671 5.3335 8.66671C5.3335 10.6667 3.3335 12 3.3335 12ZM10.0002 11.3334C10.7335 11.3334 11.3335 11.9334 11.3335 12.6667V13.3334C11.3335 14.0667 10.7335 14.6667 10.0002 14.6667H6.00016C4.66683 14.6667 4.00016 13.4667 4.00016 13.4667C3.86683 13.3334 3.80016 13.0667 4.00016 12.9334C4.00016 12.9334 6.00016 11.2667 6.66683 11.2667H10.0002V11.3334Z" fill="#424242"/>
</svg>
