<svg width="16" height="16" viewBox="0 0 16 16" fill="none" xmlns="http://www.w3.org/2000/svg">
<path d="M12.6238 10.6318C12.6238 10.6318 14.0038 10.3398 14.1158 12.4318C14.2278 14.5238 11.9758 14.8478 11.9758 14.8478H4.73582C4.73582 14.8478 3.55182 14.8318 3.29182 13.0958C3.29182 13.0958 3.07982 11.5558 4.96382 11.4878C4.96382 11.4878 7.65582 11.8278 8.48382 11.7318C9.31182 11.6358 10.8198 11.2758 11.5038 10.9198C12.1838 10.5638 12.6238 10.6318 12.6238 10.6318Z" fill="#424242"/>
<path d="M4.01585 4.95182C4.01585 4.95182 5.50785 6.43582 6.12385 8.09182C6.73985 9.74782 6.57185 10.9158 6.57185 10.9158C6.57185 10.9158 4.95585 10.6558 4.16385 10.7518C3.37185 10.8478 3.01985 11.3038 2.92385 11.6038C2.92385 11.6038 2.32385 9.33582 1.93585 5.45582C1.54785 1.57582 3.18385 1.26782 3.71585 1.15982C4.24785 1.05182 5.29985 2.37182 4.01585 4.95182Z" fill="#424242"/>
<path d="M8.11599 4.47193C8.11599 4.47193 7.91199 4.73193 8.17199 4.93593C8.23999 4.99193 8.32399 5.05193 8.40799 5.11993C8.79599 5.43593 8.93599 5.97193 8.74399 6.43593C8.73999 6.44393 8.73599 6.45193 8.73199 6.45993C8.66799 6.59993 8.87199 6.90393 9.04399 6.94793C9.21599 6.99193 9.61599 7.35993 9.53999 7.83593C9.46399 8.31193 9.30399 8.45193 9.52799 8.66793C9.75599 8.88393 9.92799 8.95993 9.69999 9.19993C9.47199 9.43593 8.91999 8.75593 8.91999 8.70393C8.91999 8.65193 8.82399 8.28393 9.04799 7.90393C9.20799 7.63593 8.89999 7.41193 8.70799 7.30393C8.55599 7.21993 8.42399 7.09993 8.32799 6.95593C8.24799 6.83993 8.17999 6.69993 8.18399 6.57193C8.19599 6.26793 8.45599 6.03193 8.30399 5.72793C8.15199 5.42393 7.84799 5.41593 7.77199 5.34793C7.69599 5.28393 7.42399 4.88393 7.63199 4.33993C7.83999 3.79593 8.26799 4.29593 8.11599 4.47193Z" fill="#424242"/>
<path d="M6.7117 4.89206C6.7117 4.89206 6.5077 5.15206 6.7677 5.35606C6.8357 5.41206 6.9197 5.47206 7.0037 5.54006C7.3917 5.85606 7.5317 6.39206 7.3397 6.85606C7.3357 6.86406 7.3317 6.87206 7.3277 6.88006C7.2637 7.02006 7.4677 7.32406 7.6397 7.36806C7.8117 7.41206 8.2117 7.78006 8.1357 8.25606C8.0597 8.73206 7.8997 8.87206 8.1237 9.08806C8.3517 9.30406 8.5237 9.38006 8.2957 9.62006C8.0677 9.85606 7.5157 9.17606 7.5157 9.12406C7.5157 9.07206 7.4197 8.70406 7.6437 8.32406C7.8037 8.05606 7.4957 7.83206 7.3037 7.72406C7.1517 7.64006 7.0197 7.52006 6.9237 7.37606C6.8437 7.26006 6.7757 7.12006 6.7797 6.99206C6.7917 6.68806 7.0517 6.45206 6.8997 6.14806C6.7477 5.84406 6.4437 5.83606 6.3677 5.76806C6.2917 5.70406 6.0197 5.30406 6.2277 4.76006C6.4357 4.21606 6.8637 4.72006 6.7117 4.89206Z" fill="#424242"/>
</svg>
