<svg width="16" height="16" viewBox="0 0 16 16" fill="none" xmlns="http://www.w3.org/2000/svg">
<g clip-path="url(#clip0_801_735)">
<path fill-rule="evenodd" clip-rule="evenodd" d="M15.9987 11.9397C15.9987 12.0273 15.996 12.2173 15.9908 12.364C15.9779 12.7231 15.9494 13.1865 15.9064 13.3976C15.8417 13.7149 15.744 14.0143 15.6167 14.2636C15.466 14.5585 15.2738 14.8226 15.0454 15.0505C14.8176 15.278 14.5537 15.4694 14.2593 15.6195C14.0088 15.7472 13.7074 15.8449 13.3884 15.9093C13.1793 15.9515 12.7194 15.9794 12.3627 15.9921C12.2157 15.9974 12.0257 16 11.9385 16L4.06026 15.9987C3.97265 15.9987 3.78269 15.996 3.63594 15.9908C3.27684 15.9779 2.8135 15.9494 2.60236 15.9064C2.28509 15.8417 1.98561 15.744 1.73637 15.6167C1.44151 15.466 1.17741 15.2738 0.949468 15.0455C0.721978 14.8176 0.530553 14.5538 0.380505 14.2594C0.252795 14.0088 0.155067 13.7075 0.0906564 13.3884C0.048473 13.1794 0.0205543 12.7195 0.00785289 12.3627C0.00263799 12.2158 0 12.0258 0 11.9385L0.00124572 4.06029C0.00124572 3.97269 0.00393255 3.78271 0.0091841 3.63595C0.0220809 3.27687 0.0505248 2.81351 0.093563 2.60239C0.158267 2.28512 0.255921 1.98565 0.383277 1.73639C0.533936 1.44154 0.72613 1.17743 0.954487 0.94948C1.18236 0.722002 1.44621 0.530565 1.74062 0.380505C1.99119 0.252819 2.29253 0.155104 2.61161 0.0906808C2.82061 0.048473 3.28051 0.0205543 3.63731 0.00787732C3.7842 0.00263799 3.97425 0 4.06149 0L11.9397 0.00127014C12.0273 0.00127014 12.2173 0.00394477 12.364 0.00919631C12.7231 0.0220931 13.1865 0.050537 13.3976 0.0935875C13.7149 0.158279 14.0143 0.255946 14.2636 0.38329C14.5584 0.533948 14.8225 0.726142 15.0505 0.954512C15.278 1.18237 15.4694 1.44622 15.6194 1.74064C15.7472 1.99122 15.8449 2.29253 15.9093 2.61161C15.9515 2.82062 15.9794 3.28051 15.9921 3.63732C15.9973 3.78422 16 3.97425 16 4.06152L15.9987 11.9397Z" fill="url(#paint0_linear_801_735)"/>
<path fill-rule="evenodd" clip-rule="evenodd" d="M12.2387 3.78494C11.1555 2.70081 9.71493 2.10345 8.1801 2.10284C5.0177 2.10284 2.44391 4.67568 2.44264 7.8381C2.44222 8.84897 2.70641 9.83574 3.2085 10.7055L2.39453 13.6777L5.43603 12.8801C6.27406 13.337 7.21755 13.5778 8.17782 13.5782H8.18019C11.3423 13.5782 13.9163 11.0051 13.9176 7.84265C13.9182 6.3101 13.322 4.86904 12.2387 3.78491V3.78493V3.78494ZM8.18017 12.6096H8.17822C7.32252 12.6092 6.48325 12.3794 5.75106 11.9451L5.57692 11.8418L3.77205 12.3151L4.2538 10.5559L4.14039 10.3755C3.66304 9.61653 3.41091 8.73923 3.41129 7.83848C3.41233 5.21001 5.55159 3.07155 8.18202 3.07155C9.45571 3.07204 10.6531 3.56858 11.5534 4.46966C12.4538 5.37072 12.9493 6.56849 12.9488 7.8423C12.9478 10.471 10.8086 12.6096 8.18017 12.6096Z" fill="#FCFCFC"/>
<path fill-rule="evenodd" clip-rule="evenodd" d="M6.2566 10.6163C6.29698 10.6407 6.37993 10.6407 6.57018 10.6405C7.37753 10.6398 8.07491 10.6373 8.57093 10.6373C10.8859 10.6373 10.825 8.20028 9.74265 7.89623C9.90117 7.61536 10.6235 7.08777 10.1768 5.99724C9.73501 4.91889 7.83533 5.1636 6.53607 5.16423C6.05533 5.16429 6.12722 5.51952 6.12968 6.07182C6.13363 6.94662 6.13039 9.31453 6.12981 10.3381C6.12968 10.5456 6.1923 10.5775 6.2566 10.6163ZM7.25824 9.72323C7.47683 9.72323 7.99242 9.72323 8.43436 9.72254C8.93484 9.72175 9.38051 9.48766 9.36938 8.98942C9.36119 8.52008 9.04895 8.36605 8.61557 8.32305C8.20278 8.327 7.73062 8.327 7.25823 8.327V9.72323H7.25824ZM7.25824 7.3844C8.129 7.37247 8.46491 7.4195 8.94032 7.30043C9.26697 7.11501 9.40968 6.42732 8.94216 6.19375C8.61737 6.03148 7.65758 6.087 7.25824 6.10363V7.38441V7.3844Z" fill="#FCFCFC"/>
</g>
<defs>
<linearGradient id="paint0_linear_801_735" x1="7.99996" y1="-0.0152783" x2="7.99996" y2="15.9996" gradientUnits="userSpaceOnUse">
<stop stop-color="#61FD7D"/>
<stop offset="1" stop-color="#2BB826"/>
</linearGradient>
<clipPath id="clip0_801_735">
<rect width="16" height="16" fill="white"/>
</clipPath>
</defs>
</svg>
