<svg width="41" height="40" viewBox="0 0 41 40" fill="none" xmlns="http://www.w3.org/2000/svg">
<g clip-path="url(#clip0_339_6211)">
<path d="M40.0935 24.8375C37.4222 35.5519 26.5697 42.0719 15.8541 39.4006C5.14347 36.7294 -1.37716 25.8769 1.29472 15.1631C3.96472 4.44752 14.8166 -2.07373 25.5291 0.597521C36.2441 3.26877 42.7647 14.1225 40.0935 24.8375Z" fill="#F7931A"/>
<path d="M29.5117 17.1506C29.9092 14.4894 27.883 13.0588 25.1124 12.1044L26.0111 8.49938L23.8161 7.9525L22.9411 11.4625C22.3649 11.3188 21.7724 11.1831 21.1836 11.0487L22.0649 7.51562L19.8717 6.96875L18.9724 10.5725C18.4949 10.4638 18.0261 10.3563 17.5711 10.2431L17.5736 10.2319L14.5474 9.47625L13.9636 11.82C13.9636 11.82 15.5917 12.1931 15.5574 12.2162C16.4461 12.4381 16.6074 13.0262 16.5799 13.4925L15.5561 17.5994C15.6174 17.615 15.6967 17.6375 15.7842 17.6725L15.553 17.615L14.1174 23.3681C14.0086 23.6381 13.733 24.0431 13.1117 23.8894C13.1336 23.9212 11.5167 23.4912 11.5167 23.4912L10.4274 26.0037L13.2836 26.7156C13.8149 26.8487 14.3355 26.9881 14.8474 27.1194L13.9392 30.7663L16.1311 31.3131L17.0311 27.7056C17.6292 27.8681 18.2105 28.0181 18.7792 28.1594L17.883 31.75L20.0774 32.2969L20.9855 28.6575C24.7274 29.3656 27.5417 29.08 28.7249 25.6962C29.6792 22.9712 28.678 21.3994 26.7092 20.3737C28.143 20.0419 29.2236 19.0988 29.5117 17.1506ZM24.4974 24.1812C23.8186 26.9062 19.2311 25.4338 17.743 25.0638L18.948 20.2331C20.4355 20.6044 25.2042 21.3394 24.4974 24.1812ZM25.1755 17.1112C24.5567 19.59 20.738 18.3306 19.4986 18.0219L20.5911 13.6406C21.8305 13.9494 25.8205 14.5256 25.1755 17.1112Z" fill="white"/>
</g>
<defs>
<clipPath id="clip0_339_6211">
<rect width="40" height="40" fill="white" transform="translate(0.69397)"/>
</clipPath>
</defs>
</svg>
