<svg width="25" height="24" viewBox="0 0 25 24" fill="none" xmlns="http://www.w3.org/2000/svg">
<g clip-path="url(#clip0_702_4737)">
<path d="M24.2358 14.9021C22.633 21.3307 16.1215 25.2427 9.69213 23.64C3.26576 22.0372 -0.646618 15.5257 0.956507 9.0975C2.55851 2.66812 9.06963 -1.24463 15.4971 0.358122C21.9261 1.96087 25.8385 8.47312 24.2358 14.9021Z" fill="#F7931A"/>
<path d="M17.8867 10.2908C18.1252 8.69402 16.9095 7.83564 15.2471 7.26302L15.7863 5.10002L14.4693 4.77189L13.9443 6.87789C13.5986 6.79164 13.2431 6.71027 12.8898 6.62964L13.4186 4.50977L12.1027 4.18164L11.5631 6.34389C11.2766 6.27864 10.9953 6.21414 10.7223 6.14627L10.7238 6.13952L8.9081 5.68614L8.55785 7.09239C8.55785 7.09239 9.53472 7.31627 9.5141 7.33014C10.0473 7.46327 10.1441 7.81614 10.1276 8.09589L9.51335 10.56C9.5501 10.5694 9.59772 10.5829 9.65022 10.6039L9.51147 10.5694L8.6501 14.0213C8.58485 14.1833 8.41947 14.4263 8.04672 14.334C8.05985 14.3531 7.08972 14.0951 7.08972 14.0951L6.4361 15.6026L8.14985 16.0298C8.4686 16.1096 8.78097 16.1933 9.0881 16.272L8.54322 18.4601L9.85835 18.7883L10.3983 16.6238C10.7572 16.7213 11.106 16.8113 11.4472 16.896L10.9095 19.0504L12.2261 19.3785L12.771 17.1949C15.0161 17.6198 16.7047 17.4484 17.4146 15.4181C17.9872 13.7831 17.3865 12.84 16.2052 12.2246C17.0655 12.0255 17.7138 11.4596 17.8867 10.2908ZM14.8781 14.5091C14.4708 16.1441 11.7183 15.2606 10.8255 15.0386L11.5485 12.1403C12.441 12.363 15.3022 12.804 14.8781 14.5091ZM15.285 10.2671C14.9137 11.7544 12.6225 10.9988 11.8788 10.8135L12.5343 8.18477C13.278 8.37002 15.672 8.71577 15.285 10.2671Z" fill="white"/>
</g>
<defs>
<clipPath id="clip0_702_4737">
<rect width="24" height="24" fill="white" transform="translate(0.596008)"/>
</clipPath>
</defs>
</svg>
