<svg width="51" height="40" viewBox="0 0 51 40" fill="none" xmlns="http://www.w3.org/2000/svg">
<g clip-path="url(#clip0_339_6182)">
<path d="M49.995 39.4574V39.5602H50.0901C50.108 39.5605 50.1256 39.556 50.1411 39.5471C50.1473 39.5427 50.1523 39.5368 50.1557 39.5299C50.159 39.523 50.1606 39.5154 50.1603 39.5078C50.1606 39.5003 50.159 39.4928 50.1556 39.4861C50.1523 39.4794 50.1473 39.4737 50.1411 39.4695C50.1258 39.4601 50.108 39.4556 50.0901 39.4563H49.995V39.4574ZM50.0911 39.3846C50.1319 39.3821 50.1723 39.3939 50.2054 39.418C50.2187 39.429 50.2292 39.4429 50.2361 39.4587C50.2431 39.4745 50.2463 39.4918 50.2454 39.509C50.246 39.5239 50.2435 39.5387 50.2379 39.5525C50.2324 39.5663 50.224 39.5787 50.2133 39.589C50.1878 39.6114 50.1557 39.6248 50.122 39.6273L50.2495 39.7738H50.1513L50.034 39.6283H49.996V39.7738H49.9139V39.3849H50.0924L50.0911 39.3846ZM50.0656 39.908C50.1087 39.9084 50.1514 39.8997 50.1908 39.8823C50.2289 39.8658 50.2635 39.8422 50.2929 39.8126C50.3222 39.7832 50.3457 39.7483 50.362 39.7098C50.3954 39.6283 50.3954 39.5368 50.362 39.4553C50.3455 39.417 50.322 39.3821 50.2929 39.3525C50.2635 39.323 50.2289 39.2994 50.1908 39.2828C50.1511 39.2664 50.1086 39.2582 50.0656 39.2587C50.022 39.2582 49.9787 39.2665 49.9381 39.2828C49.8992 39.299 49.8638 39.3227 49.8339 39.3525C49.7887 39.3991 49.7582 39.4581 49.7461 39.5221C49.734 39.5861 49.7409 39.6523 49.7658 39.7124C49.7813 39.751 49.8045 39.786 49.8339 39.8152C49.8638 39.845 49.8993 39.8686 49.9381 39.8849C49.9784 39.9022 50.0218 39.911 50.0656 39.9106M50.0656 39.1651C50.1777 39.165 50.2853 39.2093 50.3653 39.2885C50.4038 39.3265 50.4345 39.3718 50.4555 39.4219C50.4773 39.4733 50.4886 39.5286 50.4886 39.5845C50.4886 39.6404 50.4773 39.6957 50.4555 39.7471C50.434 39.7969 50.4034 39.8421 50.3653 39.8805C50.3261 39.9183 50.2806 39.9488 50.2309 39.9705C50.1786 39.9929 50.1224 40.0042 50.0656 40.0039C50.0082 40.0043 49.9513 39.9929 49.8984 39.9705C49.848 39.9493 49.8021 39.9188 49.763 39.8805C49.7249 39.8407 49.6946 39.7939 49.674 39.7427C49.6522 39.6913 49.6409 39.636 49.6409 39.5801C49.6409 39.5242 49.6522 39.4689 49.674 39.4175C49.695 39.3675 49.7257 39.3221 49.7642 39.2841C49.8029 39.2452 49.8489 39.2146 49.8996 39.1941C49.9526 39.1717 50.0095 39.1603 50.0669 39.1607M11.02 37.663C11.02 36.9214 11.502 36.3121 12.2897 36.3121C13.0425 36.3121 13.5504 36.8952 13.5504 37.663C13.5504 38.4309 13.0425 39.0139 12.2897 39.0139C11.502 39.0139 11.02 38.4047 11.02 37.663ZM14.4085 37.663V35.5525H13.4984V36.0666C13.2097 35.6867 12.7719 35.4484 12.1765 35.4484C11.0035 35.4484 10.0829 36.3759 10.0829 37.6641C10.0829 38.9522 11.003 39.8797 12.1765 39.8797C12.7716 39.8797 13.2097 39.6412 13.4984 39.2615V39.7738H14.4075V37.663H14.4085ZM45.1594 37.663C45.1594 36.9214 45.6414 36.3121 46.4293 36.3121C47.1829 36.3121 47.6901 36.8952 47.6901 37.663C47.6901 38.4309 47.1829 39.0139 46.4293 39.0139C45.6417 39.0139 45.1594 38.4047 45.1594 37.663ZM48.5489 37.663V33.8584H47.6381V36.0666C47.3494 35.6867 46.9116 35.4484 46.3161 35.4484C45.1431 35.4484 44.2226 36.3759 44.2226 37.6641C44.2226 38.9522 45.1426 39.8797 46.3161 39.8797C46.9116 39.8797 47.3494 39.6412 47.6381 39.2615V39.7738H48.5489V37.663ZM25.704 36.2687C26.2905 36.2687 26.6671 36.6394 26.7632 37.2921H24.5917C24.6888 36.6828 25.0558 36.2687 25.7042 36.2687M25.7223 35.4461C24.4958 35.4461 23.6377 36.3458 23.6377 37.6617C23.6377 39.0034 24.5302 39.8774 25.7833 39.8774C26.4136 39.8774 26.991 39.7188 27.4989 39.2862L27.0529 38.6062C26.702 38.889 26.2553 39.0476 25.8353 39.0476C25.2488 39.0476 24.7148 38.7738 24.5835 38.0142H27.6912C27.7001 37.9 27.7093 37.7849 27.7093 37.6615C27.7001 36.3461 26.8933 35.4458 25.7218 35.4458M36.7098 37.6615C36.7098 36.9198 37.1917 36.3106 37.9794 36.3106C38.7322 36.3106 39.2401 36.8936 39.2401 37.6615C39.2401 38.4294 38.7322 39.0124 37.9794 39.0124C37.1917 39.0124 36.7095 38.4031 36.7095 37.6615M40.0979 37.6615V35.5525H39.1884V36.0666C38.8987 35.6867 38.4619 35.4484 37.8664 35.4484C36.6934 35.4484 35.7729 36.3759 35.7729 37.6641C35.7729 38.9522 36.6929 39.8797 37.8664 39.8797C38.4619 39.8797 38.8987 39.6412 39.1884 39.2615V39.7738H40.0982V37.663L40.0979 37.6615ZM31.5702 37.6615C31.5702 38.9414 32.4541 39.8772 33.803 39.8772C34.4334 39.8772 34.8534 39.7358 35.3075 39.3741L34.8704 38.6324C34.5287 38.88 34.17 39.0124 33.7739 39.0124C33.0475 39.0034 32.5132 38.4738 32.5132 37.6615C32.5132 36.8491 33.0475 36.3198 33.7739 36.3106C34.1689 36.3106 34.5277 36.443 34.8704 36.6905L35.3075 35.9489C34.8526 35.5872 34.4326 35.4458 33.803 35.4458C32.4541 35.4458 31.5702 36.3813 31.5702 37.6615ZM43.3028 35.4458C42.7777 35.4458 42.4358 35.6934 42.1994 36.0641V35.5525H41.2975V39.7715H42.2086V37.4065C42.2086 36.7083 42.5062 36.3204 43.1011 36.3204C43.2959 36.3175 43.4893 36.3536 43.6702 36.4265L43.9507 35.5617C43.7493 35.4818 43.4866 35.4466 43.3023 35.4466M18.908 35.888C18.4701 35.597 17.8668 35.4466 17.2012 35.4466C16.141 35.4466 15.4583 35.9589 15.4583 36.7972C15.4583 37.4851 15.9665 37.9096 16.9024 38.0419L17.3323 38.1036C17.8314 38.1743 18.067 38.3067 18.067 38.545C18.067 38.8713 17.7355 39.0574 17.113 39.0574C16.4827 39.0574 16.0277 38.8543 15.721 38.616L15.2933 39.3314C15.7924 39.7021 16.4227 39.879 17.1054 39.879C18.3141 39.879 19.0146 39.3052 19.0146 38.5018C19.0146 37.7602 18.4632 37.3723 17.5524 37.2399L17.1235 37.1772C16.7295 37.1258 16.4138 37.0458 16.4138 36.763C16.4138 36.4545 16.7114 36.2689 17.2107 36.2689C17.7449 36.2689 18.262 36.472 18.5155 36.6306L18.9095 35.889L18.908 35.888ZM30.651 35.4473C30.1259 35.4473 29.784 35.6949 29.5486 36.0656V35.5525H28.6467V39.7715H29.5568V37.4065C29.5568 36.7083 29.8543 36.3204 30.4493 36.3204C30.6441 36.3175 30.8375 36.3536 31.0184 36.4265L31.2989 35.5617C31.0975 35.4818 30.8348 35.4466 30.6505 35.4466M22.8847 35.5525H21.3965V34.2725H20.4765V35.5525H19.6276V36.391H20.4765V38.3157C20.4765 39.2946 20.8534 39.8777 21.93 39.8777C22.325 39.8777 22.7799 39.7543 23.0685 39.5515L22.8056 38.7659C22.5341 38.9245 22.2365 39.0044 21.9998 39.0044C21.5449 39.0044 21.3965 38.7216 21.3965 38.2982V36.3918H22.8847V35.5525ZM9.27814 39.7725V37.1247C9.27814 36.1276 8.64778 35.4566 7.63161 35.4476C7.09738 35.4386 6.54633 35.6062 6.16051 36.1982C5.87185 35.7304 5.41693 35.4476 4.77739 35.4476C4.33038 35.4476 3.89356 35.58 3.55161 36.0741V35.5525H2.64075V39.7715H3.55875V37.4322C3.55875 36.6998 3.96165 36.3106 4.58385 36.3106C5.1882 36.3106 5.49394 36.7078 5.49394 37.4229V39.771H6.41398V37.4317C6.41398 36.6993 6.83397 36.3101 7.43806 36.3101C8.0595 36.3101 8.35606 36.7072 8.35606 37.4224V39.7705L9.27814 39.7725Z" fill="#231F20"/>
<path d="M50.5138 25.7381V25.1211H50.3545L50.1701 25.5445L49.9868 25.1211H49.8269V25.7381H49.9401V25.2733L50.1125 25.6743H50.2298L50.4022 25.2723V25.7381H50.5144H50.5138ZM49.5028 25.7381V25.2268H49.7068V25.1226H49.1855V25.2268H49.3895V25.7381H49.5017H49.5028Z" fill="#F79410"/>
<path d="M32.3994 28.3846H18.6074V3.39746H32.3996L32.3994 28.3846Z" fill="#FF5F00"/>
<path d="M19.482 15.8913C19.482 10.8226 21.8362 6.30747 25.502 3.3977C22.7272 1.19191 19.2951 -0.00524645 15.7613 1.7284e-05C7.05636 1.7284e-05 0 7.11467 0 15.8913C0 24.6679 7.05636 31.7825 15.7613 31.7825C19.2951 31.7879 22.7273 30.5907 25.5023 28.3849C21.8367 25.4756 19.482 20.9602 19.482 15.8913Z" fill="#EB001B"/>
<path d="M51.0064 15.8913C51.0064 24.6679 43.95 31.7825 35.2451 31.7825C31.7109 31.7878 28.2783 30.5906 25.5028 28.3848C29.1697 25.4751 31.5239 20.9602 31.5239 15.8913C31.5239 10.8224 29.1697 6.30747 25.5028 3.3977C28.2782 1.19198 31.7107 -0.00515419 35.2448 1.66811e-05C43.9498 1.66811e-05 51.0061 7.11467 51.0061 15.8913" fill="#F79E1B"/>
</g>
<defs>
<clipPath id="clip0_339_6182">
<rect width="51" height="40" fill="white"/>
</clipPath>
</defs>
</svg>
