<svg width="31" height="24" viewBox="0 0 31 24" fill="none" xmlns="http://www.w3.org/2000/svg">
<g clip-path="url(#clip0_702_4708)">
<path d="M29.997 23.6748V23.7365H30.0541C30.0648 23.7367 30.0754 23.734 30.0847 23.7286C30.0884 23.726 30.0914 23.7224 30.0934 23.7183C30.0954 23.7142 30.0964 23.7096 30.0962 23.705C30.0964 23.7005 30.0954 23.6961 30.0934 23.692C30.0914 23.688 30.0884 23.6846 30.0847 23.6821C30.0755 23.6765 30.0648 23.6737 30.0541 23.6742H29.997V23.6748ZM30.0547 23.6312C30.0792 23.6296 30.1034 23.6367 30.1233 23.6512C30.1312 23.6578 30.1375 23.6662 30.1417 23.6756C30.1459 23.6851 30.1478 23.6955 30.1473 23.7058C30.1476 23.7147 30.1461 23.7236 30.1428 23.7319C30.1395 23.7402 30.1344 23.7476 30.128 23.7538C30.1127 23.7672 30.0935 23.7753 30.0732 23.7768L30.1497 23.8647H30.0908L30.0204 23.7774H29.9976V23.8647H29.9484V23.6313H30.0555L30.0547 23.6312ZM30.0394 23.9452C30.0653 23.9454 30.0908 23.9402 30.1145 23.9298C30.1374 23.9199 30.1581 23.9057 30.1757 23.888C30.1934 23.8703 30.2074 23.8493 30.2172 23.8263C30.2373 23.7774 30.2373 23.7225 30.2172 23.6736C30.2073 23.6506 30.1932 23.6297 30.1757 23.6119C30.1581 23.5942 30.1374 23.58 30.1145 23.5701C30.0907 23.5602 30.0652 23.5553 30.0394 23.5556C30.0132 23.5553 29.9872 23.5603 29.9629 23.5701C29.9396 23.5798 29.9183 23.594 29.9003 23.6119C29.8733 23.6399 29.855 23.6753 29.8477 23.7137C29.8404 23.7521 29.8445 23.7918 29.8595 23.8278C29.8688 23.851 29.8827 23.872 29.9003 23.8895C29.9183 23.9074 29.9396 23.9216 29.9629 23.9313C29.9871 23.9417 30.0131 23.947 30.0394 23.9467M30.0394 23.4994C30.1067 23.4994 30.1712 23.526 30.2192 23.5735C30.2423 23.5963 30.2607 23.6235 30.2734 23.6535C30.2864 23.6844 30.2932 23.7176 30.2932 23.7511C30.2932 23.7846 30.2864 23.8178 30.2734 23.8486C30.2604 23.8785 30.2421 23.9057 30.2192 23.9287C30.1957 23.9514 30.1684 23.9697 30.1386 23.9827C30.1072 23.9961 30.0735 24.0029 30.0394 24.0027C30.005 24.003 29.9708 23.9962 29.939 23.9827C29.9088 23.97 29.8813 23.9517 29.8578 23.9287C29.8349 23.9048 29.8168 23.8768 29.8044 23.846C29.7913 23.8152 29.7846 23.782 29.7846 23.7485C29.7846 23.7149 29.7913 23.6817 29.8044 23.6509C29.817 23.6209 29.8354 23.5937 29.8586 23.5709C29.8817 23.5475 29.9094 23.5291 29.9398 23.5169C29.9716 23.5034 30.0057 23.4966 30.0402 23.4968M6.61205 22.5982C6.61205 22.1532 6.90122 21.7877 7.37384 21.7877C7.8255 21.7877 8.13027 22.1375 8.13027 22.5982C8.13027 23.0589 7.8255 23.4087 7.37384 23.4087C6.90122 23.4087 6.61205 23.0432 6.61205 22.5982ZM8.64512 22.5982V21.3319H8.09906V21.6404C7.92586 21.4124 7.66316 21.2694 7.30591 21.2694C6.60211 21.2694 6.04978 21.8259 6.04978 22.5988C6.04978 23.3717 6.6018 23.9282 7.30591 23.9282C7.66301 23.9282 7.92586 23.7851 8.09906 23.5573V23.8647H8.6445V22.5982H8.64512ZM27.0957 22.5982C27.0957 22.1532 27.3849 21.7877 27.8576 21.7877C28.3097 21.7877 28.6141 22.1375 28.6141 22.5982C28.6141 23.0589 28.3097 23.4087 27.8576 23.4087C27.385 23.4087 27.0957 23.0432 27.0957 22.5982ZM29.1294 22.5982V20.3154H28.5829V21.6404C28.4097 21.4124 28.147 21.2694 27.7897 21.2694C27.0859 21.2694 26.5336 21.8259 26.5336 22.5988C26.5336 23.3717 27.0856 23.9282 27.7897 23.9282C28.147 23.9282 28.4097 23.7851 28.5829 23.5573V23.8647H29.1294V22.5982ZM15.4224 21.7616C15.7743 21.7616 16.0003 21.984 16.058 22.3756H14.755C14.8133 22.0101 15.0335 21.7616 15.4226 21.7616M15.4334 21.268C14.6975 21.268 14.1826 21.8079 14.1826 22.5974C14.1826 23.4024 14.7181 23.9268 15.47 23.9268C15.8482 23.9268 16.1946 23.8317 16.4994 23.5721L16.2318 23.1641C16.0212 23.3338 15.7532 23.429 15.5012 23.429C15.1493 23.429 14.8289 23.2647 14.7501 22.8089H16.6147C16.6201 22.7404 16.6256 22.6713 16.6256 22.5973C16.6201 21.808 16.136 21.2679 15.4331 21.2679M22.0259 22.5973C22.0259 22.1523 22.3151 21.7867 22.7877 21.7867C23.2393 21.7867 23.5441 22.1366 23.5441 22.5973C23.5441 23.058 23.2393 23.4078 22.7877 23.4078C22.3151 23.4078 22.0257 23.0423 22.0257 22.5973M24.0588 22.5973V21.3319H23.513V21.6404C23.3392 21.4124 23.0771 21.2694 22.7199 21.2694C22.0161 21.2694 21.4638 21.8259 21.4638 22.5988C21.4638 23.3717 22.0158 23.9282 22.7199 23.9282C23.0771 23.9282 23.3392 23.7851 23.513 23.5573V23.8647H24.0589V22.5982L24.0588 22.5973ZM18.9422 22.5973C18.9422 23.3653 19.4725 23.9267 20.2818 23.9267C20.6601 23.9267 20.912 23.8419 21.1845 23.6248L20.9223 23.1799C20.7173 23.3284 20.502 23.4078 20.2644 23.4078C19.8285 23.4024 19.508 23.0847 19.508 22.5973C19.508 22.1099 19.8285 21.7923 20.2644 21.7867C20.5014 21.7867 20.7167 21.8662 20.9223 22.0147L21.1845 21.5697C20.9116 21.3527 20.6596 21.2679 20.2818 21.2679C19.4725 21.2679 18.9422 21.8292 18.9422 22.5973ZM25.9817 21.2679C25.6667 21.2679 25.4615 21.4164 25.3197 21.6388V21.3319H24.7785V23.8633H25.3252V22.4443C25.3252 22.0254 25.5037 21.7926 25.8607 21.7926C25.9776 21.7909 26.0936 21.8126 26.2022 21.8563L26.3705 21.3374C26.2496 21.2895 26.092 21.2683 25.9814 21.2683M11.3448 21.5332C11.0821 21.3586 10.7201 21.2683 10.3208 21.2683C9.6846 21.2683 9.27502 21.5757 9.27502 22.0787C9.27502 22.4915 9.57995 22.7461 10.1415 22.8256L10.3994 22.8626C10.6988 22.905 10.8402 22.9844 10.8402 23.1274C10.8402 23.3231 10.6413 23.4348 10.2678 23.4348C9.88962 23.4348 9.61667 23.313 9.43261 23.17L9.17603 23.5992C9.47545 23.8217 9.85366 23.9278 10.2632 23.9278C10.9885 23.9278 11.4088 23.5835 11.4088 23.1015C11.4088 22.6565 11.078 22.4238 10.5315 22.3443L10.2741 22.3067C10.0377 22.2758 9.84831 22.2279 9.84831 22.0582C9.84831 21.8731 10.0269 21.7618 10.3264 21.7618C10.647 21.7618 10.9573 21.8836 11.1093 21.9788L11.3457 21.5338L11.3448 21.5332ZM18.3906 21.2688C18.0756 21.2688 17.8704 21.4173 17.7292 21.6397V21.3319H17.188V23.8633H17.7341V22.4443C17.7341 22.0254 17.9126 21.7926 18.2696 21.7926C18.3865 21.7909 18.5025 21.8126 18.6111 21.8563L18.7794 21.3374C18.6585 21.2895 18.5009 21.2683 18.3903 21.2683M13.7308 21.3319H12.8379V20.5639H12.2859V21.3319H11.7766V21.835H12.2859V22.9898C12.2859 23.5772 12.512 23.927 13.158 23.927C13.395 23.927 13.668 23.853 13.8412 23.7313L13.6834 23.2599C13.5205 23.3551 13.3419 23.403 13.1999 23.403C12.927 23.403 12.8379 23.2334 12.8379 22.9793V21.8355H13.7308V21.3319ZM5.56691 23.8639V22.2752C5.56691 21.6769 5.18869 21.2744 4.57899 21.269C4.25845 21.2636 3.92782 21.3641 3.69633 21.7193C3.52314 21.4386 3.25018 21.269 2.86646 21.269C2.59825 21.269 2.33616 21.3484 2.13099 21.6448V21.3319H1.58447V23.8633H2.13527V22.4597C2.13527 22.0203 2.37701 21.7867 2.75033 21.7867C3.11294 21.7867 3.29639 22.025 3.29639 22.4541V23.863H3.84841V22.4594C3.84841 22.02 4.1004 21.7864 4.46286 21.7864C4.83572 21.7864 5.01366 22.0247 5.01366 22.4538V23.8627L5.56691 23.8639Z" fill="#231F20"/>
<path d="M30.3083 15.4424V15.0723H30.2127L30.1021 15.3263L29.9921 15.0723H29.8961V15.4424H29.9641V15.1636L30.0675 15.4042H30.1379L30.2413 15.163V15.4424H30.3086H30.3083ZM29.7017 15.4424V15.1357H29.8241V15.0732H29.5114V15.1357H29.6338V15.4424H29.7011H29.7017Z" fill="#F79410"/>
<path d="M19.4396 17.0304H11.1644V2.03809H19.4397L19.4396 17.0304Z" fill="#FF5F00"/>
<path d="M11.6892 9.53476C11.6892 6.49358 13.1017 3.78448 15.3012 2.03862C13.6363 0.715147 11.577 -0.00314787 9.45678 1.03704e-05C4.23382 1.03704e-05 0 4.2688 0 9.53476C0 14.8007 4.23382 19.0695 9.45678 19.0695C11.5771 19.0727 13.6364 18.3544 15.3014 17.0309C13.102 15.2854 11.6892 12.5761 11.6892 9.53476Z" fill="#EB001B"/>
<path d="M30.6039 9.53476C30.6039 14.8007 26.37 19.0695 21.1471 19.0695C19.0265 19.0727 16.967 18.3544 15.3017 17.0309C17.5019 15.285 18.9143 12.5761 18.9143 9.53476C18.9143 6.49343 17.5019 3.78448 15.3017 2.03862C16.967 0.715187 19.0264 -0.00309251 21.1469 1.00087e-05C26.3699 1.00087e-05 30.6037 4.2688 30.6037 9.53476" fill="#F79E1B"/>
</g>
<defs>
<clipPath id="clip0_702_4708">
<rect width="30.6" height="24" fill="white"/>
</clipPath>
</defs>
</svg>
