<svg width="136" height="36" viewBox="0 0 136 36" fill="none" xmlns="http://www.w3.org/2000/svg">
<g clip-path="url(#clip0_339_6192)">
<path d="M50.6163 8.87012H43.1297C42.8819 8.86996 42.6421 8.95833 42.4536 9.11929C42.2652 9.28026 42.1404 9.50324 42.1018 9.74806L39.0739 28.9456C39.06 29.0347 39.0655 29.1257 39.0902 29.2125C39.1148 29.2992 39.1579 29.3796 39.2166 29.448C39.2753 29.5165 39.3481 29.5714 39.4301 29.609C39.512 29.6466 39.6011 29.666 39.6913 29.6659H43.2654C43.5135 29.666 43.7533 29.5775 43.9418 29.4163C44.1303 29.2551 44.255 29.0319 44.2934 28.7869L45.11 23.609C45.1483 23.3642 45.2729 23.1411 45.4611 22.9799C45.6494 22.8188 45.889 22.7301 46.1368 22.73H48.5068C53.4384 22.73 56.2846 20.3435 57.0279 15.6145C57.3629 13.5455 57.0421 11.9199 56.0733 10.7814C55.0093 9.53131 53.122 8.87012 50.6163 8.87012ZM51.48 15.8816C51.0706 18.568 49.018 18.568 47.0334 18.568H45.9036L46.6962 13.551C46.7194 13.4042 46.7942 13.2705 46.9072 13.174C47.0202 13.0775 47.1639 13.0245 47.3125 13.0245H47.8303C49.1822 13.0245 50.4576 13.0245 51.1166 13.7951C51.5095 14.2549 51.63 14.938 51.48 15.8816ZM72.995 15.7951H69.4099C69.2613 15.7951 69.1176 15.8482 69.0046 15.9447C68.8916 16.0412 68.8168 16.1749 68.7936 16.3217L68.6349 17.3244L68.3842 16.961C67.608 15.8345 65.8773 15.458 64.1499 15.458C60.1882 15.458 56.8046 18.4585 56.1456 22.6676C55.8029 24.7672 56.2901 26.7748 57.4811 28.1749C58.5736 29.4623 60.1368 29.9987 61.9967 29.9987C65.1888 29.9987 66.9589 27.9462 66.9589 27.9462L66.7991 28.9423C66.7848 29.0314 66.7901 29.1225 66.8144 29.2093C66.8388 29.2962 66.8817 29.3767 66.9401 29.4454C66.9986 29.5141 67.0713 29.5692 67.1531 29.6071C67.235 29.645 67.3241 29.6647 67.4143 29.6648H70.6436C70.8916 29.6649 71.1315 29.5764 71.32 29.4152C71.5085 29.254 71.6331 29.0308 71.6715 28.7858L73.6091 16.5154C73.6234 16.4266 73.6182 16.3357 73.5939 16.249C73.5696 16.1623 73.5267 16.082 73.4683 16.0135C73.41 15.945 73.3374 15.89 73.2557 15.8523C73.1739 15.8146 73.085 15.7951 72.995 15.7951ZM67.9977 22.7727C67.6518 24.8208 66.0262 26.1958 63.9529 26.1958C62.9118 26.1958 62.0799 25.8619 61.5457 25.2291C61.0158 24.6008 60.8144 23.7064 60.983 22.7103C61.3059 20.6796 62.9589 19.2598 65.0005 19.2598C66.0186 19.2598 66.8461 19.5981 67.3913 20.2363C67.9375 20.881 68.1543 21.7809 67.9977 22.7727ZM92.0886 15.7951H88.4859C88.316 15.7954 88.1488 15.8371 87.9986 15.9167C87.8485 15.9962 87.7201 16.1112 87.6244 16.2516L82.6556 23.5707L80.5494 16.5373C80.4848 16.3228 80.3528 16.1348 80.173 16.0011C79.9932 15.8675 79.7751 15.7952 79.5511 15.7951H76.0109C75.9115 15.7949 75.8135 15.8183 75.725 15.8636C75.6366 15.9088 75.5602 15.9746 75.5022 16.0553C75.4443 16.1361 75.4065 16.2295 75.392 16.3278C75.3774 16.4261 75.3866 16.5265 75.4186 16.6205L79.3869 28.2658L75.6562 33.5324C75.5899 33.6257 75.5506 33.7355 75.5425 33.8498C75.5345 33.964 75.558 34.0783 75.6106 34.18C75.6632 34.2818 75.7427 34.3671 75.8405 34.4266C75.9384 34.4862 76.0507 34.5176 76.1652 34.5176H79.7635C79.9315 34.5178 80.097 34.4773 80.2459 34.3995C80.3948 34.3217 80.5226 34.209 80.6184 34.0709L92.6009 16.7749C92.6658 16.6813 92.7039 16.5717 92.711 16.458C92.7181 16.3444 92.694 16.2309 92.6412 16.13C92.5884 16.029 92.509 15.9445 92.4116 15.8854C92.3142 15.8264 92.2025 15.7952 92.0886 15.7951Z" fill="#253B80"/>
<path d="M104.016 8.87024H96.5283C96.2807 8.87034 96.0412 8.95882 95.853 9.11976C95.6647 9.28071 95.5401 9.50354 95.5015 9.74818L92.4736 28.9457C92.4595 29.0347 92.4649 29.1256 92.4893 29.2122C92.5138 29.2989 92.5567 29.3792 92.6152 29.4477C92.6737 29.5162 92.7463 29.5711 92.8281 29.6088C92.9098 29.6465 92.9988 29.666 93.0888 29.666H96.9312C97.1045 29.6658 97.2721 29.6037 97.4037 29.4909C97.5354 29.3781 97.6225 29.2221 97.6493 29.0508L98.5086 23.6091C98.547 23.3643 98.6715 23.1412 98.8598 22.98C99.048 22.8189 99.2876 22.7302 99.5354 22.7301H101.904C106.837 22.7301 109.682 20.3437 110.426 15.6146C110.763 13.5456 110.44 11.92 109.471 10.7816C108.408 9.53143 106.522 8.87024 104.016 8.87024ZM104.88 15.8817C104.471 18.5681 102.419 18.5681 100.433 18.5681H99.3045L100.098 13.5511C100.121 13.4043 100.195 13.2706 100.308 13.174C100.421 13.0774 100.565 13.0244 100.713 13.0246H101.231C102.582 13.0246 103.858 13.0246 104.517 13.7952C104.91 14.255 105.03 14.9381 104.88 15.8817ZM126.394 15.7952H122.811C122.662 15.7948 122.518 15.8477 122.405 15.9444C122.293 16.041 122.218 16.1749 122.195 16.3218L122.037 17.3245L121.785 16.9611C121.009 15.8346 119.279 15.4581 117.552 15.4581C113.59 15.4581 110.208 18.4586 109.549 22.6677C109.207 24.7673 109.692 26.775 110.883 28.1751C111.978 29.4624 113.539 29.9988 115.399 29.9988C118.591 29.9988 120.361 27.9463 120.361 27.9463L120.201 28.9424C120.187 29.0317 120.192 29.123 120.216 29.21C120.241 29.297 120.284 29.3776 120.343 29.4463C120.401 29.515 120.474 29.5702 120.557 29.6079C120.639 29.6457 120.728 29.6651 120.818 29.6649H124.047C124.294 29.6648 124.534 29.5762 124.722 29.415C124.911 29.2538 125.035 29.0307 125.073 28.7859L127.012 16.5155C127.026 16.4264 127.02 16.3353 126.995 16.2486C126.971 16.1619 126.927 16.0815 126.869 16.0131C126.81 15.9447 126.737 15.8898 126.655 15.8522C126.573 15.8145 126.484 15.7951 126.394 15.7952ZM121.396 22.7728C121.053 24.8209 119.425 26.1959 117.352 26.1959C116.313 26.1959 115.478 25.862 114.944 25.2293C114.414 24.6009 114.215 23.7065 114.382 22.7104C114.707 20.6797 116.358 19.2599 118.399 19.2599C119.417 19.2599 120.245 19.5982 120.79 20.2364C121.338 20.8812 121.555 21.781 121.396 22.7728ZM130.62 9.39678L127.547 28.9457C127.533 29.0347 127.539 29.1256 127.563 29.2122C127.588 29.2989 127.631 29.3792 127.689 29.4477C127.747 29.5162 127.82 29.5711 127.902 29.6088C127.984 29.6465 128.073 29.666 128.163 29.666H131.252C131.765 29.666 132.201 29.2938 132.28 28.787L135.31 9.59054C135.324 9.50156 135.319 9.41058 135.294 9.32387C135.27 9.23716 135.227 9.15677 135.168 9.08822C135.11 9.01968 135.037 8.9646 134.955 8.92678C134.874 8.88896 134.785 8.8693 134.695 8.86914H131.235C131.087 8.86967 130.943 8.92305 130.831 9.01974C130.718 9.11642 130.643 9.25008 130.62 9.39678Z" fill="#179BD7"/>
<path d="M7.98297 33.3971L8.55549 29.7606L7.28018 29.731H1.19043L5.4225 2.8969C5.43509 2.81491 5.47674 2.74017 5.53983 2.68632C5.60293 2.63247 5.68328 2.60308 5.76623 2.60352H16.0344C19.4433 2.60352 21.7957 3.31288 23.024 4.71299C23.5998 5.3698 23.9665 6.05617 24.1439 6.8115C24.33 7.60406 24.3332 8.55096 24.1515 9.70586L24.1384 9.79015V10.5302L24.7142 10.8564C25.1538 11.0791 25.5489 11.3803 25.88 11.7453C26.3726 12.3068 26.6912 13.0206 26.8258 13.8668C26.9649 14.737 26.9189 15.7726 26.6912 16.945C26.4285 18.2937 26.0037 19.4683 25.4301 20.4294C24.924 21.2904 24.2435 22.0362 23.4323 22.6188C22.6704 23.1596 21.7651 23.5701 20.7416 23.8328C19.7498 24.0912 18.619 24.2214 17.3787 24.2214H16.5796C16.0081 24.2214 15.4531 24.4272 15.0174 24.7961C14.5824 25.169 14.2938 25.6841 14.203 26.2499L14.1428 26.5772L13.1313 32.9866L13.0853 33.222C13.0733 33.2964 13.0525 33.3336 13.0218 33.3588C12.9921 33.3831 12.9551 33.3966 12.9167 33.3971H7.98297Z" fill="#253B80"/>
<path d="M25.2598 9.875C25.2291 10.0709 25.1941 10.2713 25.1547 10.4771C23.8006 17.4294 19.1678 19.8312 13.251 19.8312H10.2385C9.51487 19.8312 8.90513 20.3566 8.79237 21.0704L7.24996 30.8525L6.81318 33.6254C6.79578 33.7353 6.80242 33.8478 6.83265 33.955C6.86288 34.0622 6.91597 34.1615 6.98828 34.2462C7.06058 34.3309 7.15038 34.3989 7.2515 34.4455C7.35261 34.4922 7.46263 34.5164 7.57399 34.5164H12.9172C13.5499 34.5164 14.0874 34.0567 14.187 33.4327L14.2395 33.1612L15.2456 26.777L15.3101 26.4267C15.4087 25.8005 15.9473 25.3408 16.58 25.3408H17.3791C22.5559 25.3408 26.6084 23.239 27.7929 17.1569C28.2877 14.6161 28.0315 12.4946 26.7223 11.0025C26.3073 10.541 25.8117 10.1589 25.2598 9.875Z" fill="#179BD7"/>
<path d="M23.8429 9.31065C23.4105 9.18557 22.9706 9.08795 22.526 9.01837C21.6473 8.88333 20.7592 8.81854 19.8702 8.82461H11.8221C11.5158 8.82437 11.2195 8.93372 10.9868 9.13288C10.7542 9.33205 10.6004 9.60789 10.5533 9.91054L8.84125 20.7545L8.79199 21.0709C8.84533 20.7257 9.02046 20.411 9.2857 20.1837C9.55094 19.9564 9.88877 19.8315 10.2381 19.8317H13.2507C19.1674 19.8317 23.8002 17.4289 25.1543 10.4776C25.1948 10.2718 25.2287 10.0715 25.2594 9.87551C24.9021 9.68813 24.5297 9.53104 24.1461 9.40589C24.0455 9.37252 23.9444 9.34077 23.8429 9.31065Z" fill="#222D65"/>
<path d="M10.5537 9.91043C10.6003 9.60769 10.754 9.33172 10.9868 9.13266C11.2196 8.93359 11.5161 8.82464 11.8224 8.82559H19.8706C20.824 8.82559 21.714 8.88799 22.5263 9.01935C23.0759 9.10574 23.618 9.23494 24.1475 9.40578C24.5471 9.53823 24.9182 9.69477 25.2608 9.8754C25.6636 7.30616 25.2575 5.55685 23.8684 3.97284C22.3369 2.229 19.5728 1.48242 16.0359 1.48242H5.76768C5.04518 1.48242 4.42887 2.00787 4.31721 2.7227L0.040267 29.8327C0.0203457 29.9585 0.0279251 30.0872 0.0624838 30.2099C0.0970425 30.3325 0.15776 30.4462 0.240461 30.5432C0.323161 30.6402 0.425881 30.718 0.541555 30.7715C0.657229 30.825 0.783112 30.8527 0.910544 30.8529H7.24989L8.84156 20.7544L10.5537 9.91043Z" fill="#253B80"/>
</g>
<defs>
<clipPath id="clip0_339_6192">
<rect width="135.338" height="36" fill="white"/>
</clipPath>
</defs>
</svg>
