<svg width="92" height="24" viewBox="0 0 92 24" fill="none" xmlns="http://www.w3.org/2000/svg">
<g clip-path="url(#clip0_702_4718)">
<path d="M34.5442 5.91309H29.5532C29.3879 5.91298 29.2281 5.97189 29.1025 6.0792C28.9768 6.18651 28.8936 6.33517 28.8679 6.49838L26.8493 19.2967C26.84 19.3561 26.8437 19.4168 26.8601 19.4747C26.8766 19.5325 26.9053 19.586 26.9444 19.6317C26.9836 19.6773 27.0321 19.7139 27.0867 19.739C27.1414 19.7641 27.2008 19.777 27.2609 19.777H29.6437C29.809 19.777 29.9689 19.718 30.0946 19.6106C30.2202 19.5031 30.3034 19.3543 30.3289 19.1909L30.8734 15.739C30.8989 15.5758 30.9819 15.4271 31.1074 15.3196C31.2329 15.2122 31.3927 15.1531 31.5579 15.153H33.1379C36.4256 15.153 38.3231 13.562 38.8186 10.4093C39.0419 9.03003 38.8281 7.94629 38.1822 7.1873C37.4729 6.35388 36.2147 5.91309 34.5442 5.91309ZM35.12 10.5874C34.8471 12.3783 33.4787 12.3783 32.1556 12.3783H31.4025L31.9308 9.03368C31.9463 8.93583 31.9962 8.84671 32.0715 8.78236C32.1468 8.71801 32.2426 8.68265 32.3417 8.68265H32.6869C33.5882 8.68265 34.4384 8.68265 34.8777 9.19642C35.1397 9.50293 35.22 9.95832 35.12 10.5874ZM49.4634 10.5298H47.0733C46.9742 10.5298 46.8784 10.5651 46.8031 10.6295C46.7278 10.6938 46.6779 10.7829 46.6624 10.8808L46.5566 11.5493L46.3895 11.307C45.8721 10.556 44.7183 10.305 43.5666 10.305C40.9255 10.305 38.6697 12.3053 38.2304 15.1114C38.002 16.5111 38.3267 17.8496 39.1207 18.783C39.8491 19.6412 40.8912 19.9988 42.1311 19.9988C44.2592 19.9988 45.4393 18.6304 45.4393 18.6304L45.3327 19.2946C45.3232 19.3539 45.3267 19.4147 45.343 19.4726C45.3592 19.5305 45.3878 19.5841 45.4268 19.6299C45.4658 19.6757 45.5142 19.7125 45.5688 19.7378C45.6234 19.763 45.6828 19.7761 45.7429 19.7762H47.8958C48.0611 19.7763 48.221 19.7173 48.3467 19.6098C48.4723 19.5024 48.5555 19.3535 48.581 19.1902L49.8728 11.01C49.8823 10.9507 49.8788 10.8901 49.8626 10.8323C49.8464 10.7746 49.8179 10.721 49.7789 10.6753C49.74 10.6297 49.6916 10.593 49.6371 10.5679C49.5827 10.5427 49.5234 10.5297 49.4634 10.5298ZM46.1319 15.1814C45.9012 16.5469 44.8175 17.4635 43.4353 17.4635C42.7412 17.4635 42.1866 17.2409 41.8305 16.8191C41.4772 16.4002 41.343 15.804 41.4554 15.1399C41.6706 13.7861 42.7726 12.8395 44.1337 12.8395C44.8124 12.8395 45.3641 13.0651 45.7276 13.4905C46.0917 13.9204 46.2362 14.5203 46.1319 15.1814ZM62.1924 10.5298H59.7907C59.6774 10.5299 59.5659 10.5577 59.4658 10.6108C59.3657 10.6638 59.2801 10.7405 59.2163 10.8341L55.9038 15.7135L54.4997 11.0246C54.4566 10.8815 54.3686 10.7562 54.2487 10.6671C54.1288 10.578 53.9835 10.5298 53.8341 10.5298H51.4739C51.4077 10.5296 51.3424 10.5452 51.2834 10.5754C51.2244 10.6056 51.1735 10.6494 51.1349 10.7032C51.0962 10.7571 51.071 10.8193 51.0613 10.8849C51.0516 10.9504 51.0577 11.0173 51.0791 11.08L53.7246 18.8435L51.2375 22.3546C51.1933 22.4168 51.1671 22.49 51.1617 22.5662C51.1563 22.6424 51.1721 22.7185 51.2071 22.7864C51.2421 22.8542 51.2952 22.9111 51.3604 22.9507C51.4256 22.9904 51.5005 23.0114 51.5768 23.0114H53.9757C54.0877 23.0115 54.198 22.9845 54.2973 22.9327C54.3966 22.8808 54.4818 22.8057 54.5456 22.7136L62.5339 11.1829C62.5772 11.1205 62.6026 11.0475 62.6074 10.9717C62.6121 10.8959 62.596 10.8203 62.5608 10.753C62.5256 10.6857 62.4727 10.6293 62.4078 10.59C62.3428 10.5506 62.2683 10.5298 62.1924 10.5298Z" fill="#253B80"/>
<path d="M70.1439 5.91382H65.1522C64.9871 5.91389 64.8274 5.97287 64.7019 6.08017C64.5764 6.18746 64.4933 6.33602 64.4676 6.49911L62.449 19.2975C62.4396 19.3568 62.4432 19.4174 62.4595 19.4752C62.4758 19.5329 62.5044 19.5865 62.5434 19.6321C62.5824 19.6778 62.6308 19.7144 62.6853 19.7395C62.7398 19.7647 62.7991 19.7777 62.8592 19.7777H65.4207C65.5363 19.7775 65.648 19.7361 65.7358 19.6609C65.8235 19.5857 65.8816 19.4817 65.8995 19.3675L66.4724 15.7397C66.4979 15.5765 66.5809 15.4278 66.7064 15.3203C66.832 15.2129 66.9917 15.1538 67.1569 15.1537H68.7362C72.0246 15.1537 73.9214 13.5628 74.4176 10.4101C74.6417 9.03076 74.4264 7.94702 73.7805 7.18803C73.0719 6.35461 71.8144 5.91382 70.1439 5.91382ZM70.7198 10.5881C70.4475 12.379 69.0792 12.379 67.7553 12.379H67.0029L67.532 9.03441C67.5472 8.93655 67.5969 8.84736 67.6721 8.78297C67.7473 8.71858 67.8431 8.68325 67.9422 8.68338H68.2874C69.1879 8.68338 70.0389 8.68338 70.4782 9.19715C70.7402 9.50366 70.8197 9.95905 70.7198 10.5881ZM85.0624 10.5305H82.6738C82.5747 10.5302 82.4788 10.5655 82.4036 10.6299C82.3283 10.6943 82.2786 10.7836 82.2636 10.8815L82.1578 11.55L81.9899 11.3077C81.4725 10.5568 80.3194 10.3057 79.1678 10.3057C76.5267 10.3057 74.2717 12.3061 73.8323 15.1121C73.6046 16.5119 73.9279 17.8503 74.7219 18.7837C75.4517 19.6419 76.4924 19.9995 77.7323 19.9995C79.8604 19.9995 81.0405 18.6312 81.0405 18.6312L80.9339 19.2953C80.9244 19.3548 80.9279 19.4156 80.9443 19.4736C80.9606 19.5316 80.9893 19.5854 81.0284 19.6312C81.0676 19.677 81.1162 19.7138 81.171 19.7389C81.2257 19.7641 81.2853 19.7771 81.3455 19.777H83.4977C83.6629 19.7769 83.8226 19.7178 83.9482 19.6103C84.0737 19.5029 84.1567 19.3541 84.1822 19.1909L85.4747 11.0107C85.4839 10.9513 85.48 10.8905 85.4635 10.8327C85.447 10.7749 85.4182 10.7213 85.379 10.6757C85.3398 10.6301 85.2912 10.5935 85.2366 10.5684C85.1819 10.5434 85.1225 10.5304 85.0624 10.5305ZM81.7309 15.1822C81.5017 16.5476 80.4165 17.4642 79.0343 17.4642C78.3417 17.4642 77.7856 17.2417 77.4295 16.8198C77.0762 16.4009 76.9434 15.8047 77.0544 15.1406C77.2711 13.7868 78.3716 12.8403 79.7327 12.8403C80.4114 12.8403 80.9631 13.0658 81.3266 13.4912C81.6922 13.9211 81.8367 14.521 81.7309 15.1822ZM87.8801 6.26485L85.8316 19.2975C85.8222 19.3568 85.8258 19.4174 85.842 19.4752C85.8583 19.5329 85.887 19.5865 85.926 19.6321C85.9649 19.6778 86.0133 19.7144 86.0679 19.7395C86.1224 19.7647 86.1817 19.7777 86.2417 19.7777H88.3012C88.6435 19.7777 88.9339 19.5296 88.9865 19.1917L91.0065 6.39402C91.0159 6.3347 91.0123 6.27405 90.996 6.21624C90.9797 6.15843 90.9511 6.10484 90.9122 6.05914C90.8732 6.01344 90.8248 5.97673 90.7703 5.95151C90.7158 5.9263 90.6564 5.91319 90.5964 5.91309H88.2902C88.1912 5.91344 88.0956 5.94903 88.0204 6.01348C87.9453 6.07794 87.8955 6.16705 87.8801 6.26485Z" fill="#179BD7"/>
<path d="M6.12193 22.2644L6.50361 19.84L5.6534 19.8203H1.59357L4.41494 1.93094C4.42334 1.87628 4.45111 1.82646 4.49317 1.79056C4.53523 1.75465 4.5888 1.73506 4.6441 1.73535H11.4896C13.7621 1.73535 15.3304 2.20826 16.1493 3.14166C16.5331 3.57954 16.7776 4.03712 16.8959 4.54068C17.0199 5.06905 17.0221 5.70032 16.901 6.47025L16.8922 6.52644V7.01978L17.2761 7.23726C17.5691 7.38573 17.8325 7.58657 18.0533 7.82985C18.3817 8.20423 18.5941 8.68006 18.6838 9.24419C18.7765 9.82437 18.7459 10.5148 18.5941 11.2964C18.4189 12.1955 18.1358 12.9785 17.7534 13.6193C17.416 14.1933 16.9623 14.6905 16.4215 15.0789C15.9136 15.4394 15.31 15.7131 14.6277 15.8882C13.9665 16.0604 13.2126 16.1473 12.3857 16.1473H11.853C11.472 16.1473 11.102 16.2845 10.8116 16.5304C10.5215 16.779 10.3291 17.1224 10.2686 17.4996L10.2285 17.7178L9.55414 21.9907L9.52349 22.1476C9.51546 22.1973 9.5016 22.2221 9.48116 22.2389C9.46137 22.2551 9.43667 22.2641 9.4111 22.2644H6.12193Z" fill="#253B80"/>
<path d="M17.6398 6.58301C17.6194 6.71364 17.596 6.84719 17.5697 6.98439C16.667 11.6193 13.5785 13.2205 9.63397 13.2205H7.62559C7.14319 13.2205 6.7367 13.5708 6.66153 14.0466L5.63325 20.568L5.34206 22.4166C5.33047 22.4899 5.33489 22.5649 5.35505 22.6363C5.3752 22.7078 5.41059 22.774 5.4588 22.8305C5.507 22.8869 5.56687 22.9323 5.63428 22.9634C5.70169 22.9945 5.77503 23.0106 5.84927 23.0106H9.41139C9.83321 23.0106 10.1915 22.7041 10.2579 22.2881L10.293 22.1071L10.9637 17.851L11.0067 17.6175C11.0724 17.2 11.4315 16.8935 11.8533 16.8935H12.386C15.8372 16.8935 18.5389 15.4923 19.3285 11.4376C19.6584 9.74374 19.4876 8.3294 18.6148 7.33469C18.3382 7.02699 18.0078 6.77226 17.6398 6.58301Z" fill="#179BD7"/>
<path d="M16.6952 6.2071C16.407 6.12372 16.1138 6.05863 15.8173 6.01225C15.2315 5.92222 14.6395 5.87903 14.0468 5.88307H8.68138C8.47719 5.88291 8.27968 5.95581 8.12455 6.08859C7.96942 6.22136 7.86691 6.40526 7.83555 6.60703L6.69416 13.8363L6.66132 14.0473C6.69687 13.8171 6.81363 13.6073 6.99045 13.4558C7.16728 13.3043 7.3925 13.221 7.62537 13.2211H9.63376C13.5783 13.2211 16.6668 11.6192 17.5695 6.98506C17.5965 6.84786 17.6191 6.71431 17.6396 6.58367C17.4014 6.45875 17.1531 6.35403 16.8974 6.27059C16.8303 6.24835 16.7629 6.22718 16.6952 6.2071Z" fill="#222D65"/>
<path d="M7.83577 6.60695C7.86686 6.40513 7.96932 6.22115 8.12452 6.08844C8.27973 5.95573 8.47739 5.88309 8.6816 5.88373H14.047C14.6827 5.88373 15.276 5.92533 15.8175 6.0129C16.1839 6.07049 16.5453 6.15663 16.8983 6.27052C17.1647 6.35882 17.4121 6.46318 17.6405 6.5836C17.9091 4.87078 17.6383 3.70457 16.7122 2.64856C15.6913 1.486 13.8485 0.988281 11.4906 0.988281H4.64512C4.16345 0.988281 3.75258 1.33858 3.67814 1.81514L0.826843 19.8884C0.813562 19.9724 0.818615 20.0581 0.841654 20.1399C0.864693 20.2217 0.905171 20.2975 0.960305 20.3621C1.01544 20.4268 1.08392 20.4787 1.16103 20.5143C1.23815 20.55 1.32207 20.5685 1.40703 20.5686H5.63325L6.69437 13.8363L7.83577 6.60695Z" fill="#253B80"/>
</g>
<defs>
<clipPath id="clip0_702_4718">
<rect width="90.2256" height="24" fill="white" transform="translate(0.799988)"/>
</clipPath>
</defs>
</svg>
