<svg width="41" height="40" viewBox="0 0 41 40" fill="none" xmlns="http://www.w3.org/2000/svg">
<g clip-path="url(#clip0_339_6207)">
<path d="M20.694 0C31.7384 0 40.694 8.95556 40.694 20C40.694 31.0444 31.7384 40 20.694 40C9.64953 40 0.69397 31.05 0.69397 20C0.69397 8.95 9.64953 0 20.694 0Z" fill="#26A17B"/>
<path d="M23.5105 17.7699V14.7921H30.316V10.2588H11.7882V14.7921H18.5938V17.7699C13.066 18.0255 8.90491 19.1199 8.90491 20.431C8.90491 21.7421 13.066 22.8366 18.5938 23.0921V32.6199H23.516V23.0921C29.0382 22.8366 33.1882 21.7421 33.1882 20.431C33.1827 19.1199 29.0327 18.0255 23.5105 17.7699ZM23.516 22.2866C23.3771 22.2921 22.666 22.3366 21.0771 22.3366C19.8049 22.3366 18.916 22.3032 18.5994 22.2866V22.2921C13.716 22.0755 10.066 21.2255 10.066 20.2088C10.066 19.1921 13.7105 18.3421 18.5994 18.1255V21.4366C18.9216 21.4588 19.8327 21.5143 21.0994 21.5143C22.616 21.5143 23.3771 21.4532 23.5216 21.4366V18.1143C28.3994 18.331 32.0382 19.181 32.0382 20.1977C32.0271 21.2143 28.3882 22.0643 23.516 22.2866Z" fill="white"/>
</g>
<defs>
<clipPath id="clip0_339_6207">
<rect width="40" height="40" fill="white" transform="translate(0.69397)"/>
</clipPath>
</defs>
</svg>
