<svg width="25" height="24" viewBox="0 0 25 24" fill="none" xmlns="http://www.w3.org/2000/svg">
<g clip-path="url(#clip0_702_4733)">
<path d="M12.596 0C19.2227 0 24.596 5.37333 24.596 12C24.596 18.6267 19.2227 24 12.596 24C5.96934 24 0.596008 18.63 0.596008 12C0.596008 5.37 5.96934 0 12.596 0Z" fill="#26A17B"/>
<path d="M14.2859 10.6619V8.87527H18.3693V6.15527H7.25258V8.87527H11.3359V10.6619C8.01925 10.8153 5.52258 11.4719 5.52258 12.2586C5.52258 13.0453 8.01925 13.7019 11.3359 13.8553V19.5719H14.2893V13.8553C17.6026 13.7019 20.0926 13.0453 20.0926 12.2586C20.0893 11.4719 17.5993 10.8153 14.2859 10.6619ZM14.2893 13.3719C14.2059 13.3753 13.7793 13.4019 12.8259 13.4019C12.0626 13.4019 11.5292 13.3819 11.3392 13.3719V13.3753C8.40925 13.2453 6.21925 12.7353 6.21925 12.1253C6.21925 11.5153 8.40592 11.0053 11.3392 10.8753V12.8619C11.5326 12.8753 12.0793 12.9086 12.8393 12.9086C13.7493 12.9086 14.2059 12.8719 14.2926 12.8619V10.8686C17.2193 10.9986 19.4026 11.5086 19.4026 12.1186C19.3959 12.7286 17.2126 13.2386 14.2893 13.3719Z" fill="white"/>
</g>
<defs>
<clipPath id="clip0_702_4733">
<rect width="24" height="24" fill="white" transform="translate(0.596008)"/>
</clipPath>
</defs>
</svg>
