<svg width="57" height="36" viewBox="0 0 57 36" fill="none" xmlns="http://www.w3.org/2000/svg">
<g clip-path="url(#clip0_339_6199)">
<path d="M53.9122 0.0104595L40.0353 0.00683594H40.0314C40.0206 0.00683594 40.0103 0.00874306 39.9998 0.00874306C38.0934 0.067101 35.7189 1.59623 35.2865 3.48161L28.7239 32.52C28.2914 34.4232 29.4677 35.9715 31.3603 36H45.9389C47.8024 35.9079 49.6138 34.3963 50.0387 32.5322L56.6017 3.49363C57.0411 1.57144 55.8365 0.0104595 53.9122 0.0104595Z" fill="#01798A"/>
<path d="M28.7237 32.5205L35.2863 3.48212C35.7186 1.59674 38.0932 0.0676042 39.9996 0.00924619L34.4819 0.00581337L24.541 0.00390625C22.6293 0.0430023 20.224 1.58281 19.7917 3.48231L13.2272 32.5205C12.7931 34.4237 13.9713 35.9721 15.8626 36.0005H31.3601C29.4675 35.9721 28.2912 34.4237 28.7237 32.5205Z" fill="#024381"/>
<path d="M13.2277 32.5201L19.7922 3.48164C20.2246 1.58215 22.6298 0.0423381 24.5415 0.00324211L11.8067 0C9.88434 0 7.41957 1.55755 6.98017 3.48164L0.415663 32.5201C0.375805 32.6972 0.353491 32.871 0.340332 33.0407V33.5793C0.468872 34.9665 1.52828 35.9767 3.05112 35.9998H15.8632C13.9719 35.9716 12.7937 34.4232 13.2277 32.5201Z" fill="#DD0228"/>
<path d="M24.8099 21.1629H25.0509C25.2724 21.1629 25.4213 21.0883 25.4913 20.9413L26.1176 20.0041H27.7945L27.445 20.6205H29.4556L29.2005 21.5651H26.8078C26.5322 21.9797 26.1929 22.1744 25.7852 22.1513H24.5389L24.8099 21.1629ZM24.5345 22.5164H28.9401L28.6592 23.5424H26.8873L26.6171 24.5326H28.3411L28.0604 25.5586H26.3363L25.9358 27.0219C25.8367 27.2666 25.9671 27.3765 26.3249 27.3517H27.7299L27.4696 28.3052H24.7719C24.2606 28.3052 24.0852 28.0127 24.2456 27.4262L24.7576 25.5588H23.6557L23.9357 24.5328H25.0378L25.308 23.5426H24.2545L24.5345 22.5164ZM31.5661 19.9969L31.4968 20.5976C31.4968 20.5976 32.3278 19.9738 33.0824 19.9738H35.8712L34.8047 23.8346C34.7162 24.2759 34.3369 24.4954 33.6671 24.4954H30.5061L29.7657 27.2063C29.7228 27.3517 29.7833 27.426 29.9427 27.426H30.5648L30.3362 28.2677H28.755C28.1481 28.2677 27.8956 28.0851 27.9957 27.7184L30.088 19.9969H31.5661ZM33.9278 21.0883H31.4385L31.1406 22.1302C31.1406 22.1302 31.5552 21.8309 32.248 21.8203C32.939 21.8094 33.7276 21.8203 33.7276 21.8203L33.9278 21.0883ZM33.0258 23.505C33.2098 23.53 33.313 23.4573 33.3252 23.2853L33.4776 22.7362H30.9846L30.7756 23.505H33.0258ZM31.3444 24.7525H32.7815L32.7546 25.3744H33.1371C33.3305 25.3744 33.4265 25.3124 33.4265 25.1901L33.5397 24.7879H34.7342L34.5747 25.3744C34.4397 25.8634 34.0821 26.1185 33.5008 26.1435H32.7353L32.7317 27.2063C32.7178 27.3767 32.8715 27.4634 33.1886 27.4634H33.908L33.6759 28.3052H31.9501C31.4663 28.3281 31.2291 28.0977 31.2342 27.6088L31.3444 24.7525ZM13.9309 14.8533C13.736 15.8084 13.2842 16.5419 12.5833 17.0627C11.8887 17.5748 10.9932 17.8317 9.89637 17.8317C8.86424 17.8317 8.10768 17.5695 7.6248 17.0433C7.2899 16.6695 7.12341 16.1946 7.12341 15.6206C7.12341 15.3831 7.15183 15.128 7.20847 14.8535L8.37696 9.21932H10.1416L8.98934 14.7895C8.95638 14.9294 8.94037 15.0727 8.94166 15.2165C8.93976 15.5018 9.0107 15.7356 9.15412 15.9181C9.36314 16.1893 9.70242 16.3237 10.1748 16.3237C10.7178 16.3237 11.1652 16.191 11.5125 15.9232C11.8598 15.6574 12.0865 15.2802 12.1884 14.7893L13.3444 9.21875H15.1003L13.9309 14.8533ZM21.3424 12.6367H22.7244L21.6418 17.6652H20.2623L21.3424 12.6367ZM21.7774 10.8047H23.1719L22.9113 12.0253H21.517L21.7774 10.8047ZM23.9479 17.2824C23.5863 16.9369 23.4038 16.471 23.402 15.8792C23.402 15.7781 23.4081 15.6631 23.4217 15.5372C23.435 15.4097 23.4518 15.2857 23.4757 15.1705C23.6395 14.3537 23.9887 13.7053 24.5263 13.2268C25.0631 12.7465 25.7108 12.5057 26.4693 12.5057C27.0902 12.5057 27.5828 12.6794 27.9435 13.0265C28.3039 13.3757 28.4845 13.8468 28.4845 14.4458C28.4845 14.5484 28.4767 14.6672 28.4634 14.7948C28.4479 14.9206 28.4287 15.0459 28.4058 15.1705C28.2456 15.9749 27.8975 16.6163 27.3597 17.0858C26.8219 17.5588 26.176 17.7943 25.423 17.7943C24.7994 17.7945 24.3085 17.6244 23.9479 17.2824ZM26.5818 16.2867C26.8255 16.0228 26.9998 15.6223 27.1062 15.0891C27.1223 15.0057 27.1364 14.9189 27.1452 14.8322C27.1539 14.7471 27.1576 14.6674 27.1576 14.5947C27.1576 14.2846 27.0786 14.0438 26.9201 13.8737C26.7626 13.7018 26.5385 13.6168 26.2488 13.6168C25.866 13.6168 25.554 13.7512 25.3097 14.0207C25.0633 14.2902 24.8886 14.6975 24.7788 15.2397C24.7637 15.3231 24.7513 15.4064 24.7399 15.4878C24.7311 15.5712 24.7284 15.649 24.7302 15.7199C24.7302 16.0283 24.8091 16.2658 24.9676 16.434C25.1253 16.6024 25.3485 16.6855 25.6418 16.6855C26.0264 16.6853 26.3381 16.5524 26.5818 16.2867Z" fill="white"/>
<path d="M40.0313 0.00757579L34.4819 0.00585938L39.9996 0.00948291C40.0099 0.00948291 40.0204 0.00757579 40.0313 0.00757579Z" fill="#E02F41"/>
<path d="M34.4823 0.00533994L24.6177 0C24.5929 0 24.5671 0.00171641 24.5414 0.00343282L34.4823 0.00533994Z" fill="#2E4F7D"/>
<path d="M37.4514 21.2044L37.7846 20.0315H39.4697L39.3971 20.4621C39.3971 20.4621 40.2579 20.0315 40.8781 20.0315H42.9617L42.6306 21.2044H42.3027L40.7311 26.7362H41.0589L40.7471 27.8347H40.4193L40.2829 28.3113H38.651L38.7872 27.8347H35.5679L35.8817 26.7362H36.2041L37.7773 21.2044H37.4514ZM39.2695 21.2044L38.8407 22.7015C38.8407 22.7015 39.5746 22.4198 40.207 22.3401C40.3466 21.8175 40.5291 21.2044 40.5291 21.2044H39.2695ZM38.6422 23.4033L38.2118 24.9715C38.2118 24.9715 39.025 24.571 39.583 24.5375C39.7442 23.9314 39.9055 23.4035 39.9055 23.4035L38.6422 23.4033ZM38.9575 26.7362L39.2798 25.5986H38.0222L37.6978 26.7362H38.9575ZM43.0326 19.9588H44.6168L44.6842 20.5434C44.6735 20.6921 44.7622 20.7633 44.95 20.7633H45.23L44.9468 21.7534H43.7825C43.3381 21.7763 43.1095 21.6064 43.0881 21.2397L43.0326 19.9588ZM42.5684 22.0834H47.6995L47.3984 23.1466H45.7647L45.4846 24.1351H47.1169L46.8137 25.1964H44.996L44.5848 25.8185H45.4747L45.6801 27.064C45.7045 27.188 45.8143 27.2482 46.0024 27.2482H46.2785L45.9883 28.2739H45.0101C44.5032 28.2989 44.2413 28.1288 44.2198 27.762L43.9841 26.6244L43.1745 27.8347C42.983 28.1766 42.6887 28.3361 42.2921 28.3113H40.7984L41.0889 27.2852H41.555C41.7464 27.2852 41.9057 27.2004 42.0491 27.0284L43.3164 25.1964H41.6827L41.9856 24.1351H43.7575L44.0392 23.1466H42.2657L42.5684 22.0834ZM15.5561 12.6342H16.8026L16.66 13.3606L16.8388 13.1533C17.243 12.7209 17.7337 12.5066 18.313 12.5066C18.8375 12.5066 19.2157 12.6589 19.4533 12.9654C19.6871 13.2719 19.751 13.6955 19.6402 14.2394L18.9535 17.6661H17.6724L18.2924 14.5602C18.3563 14.2394 18.3386 14.0002 18.2402 13.8459C18.1429 13.6918 17.9568 13.6157 17.6883 13.6157C17.3587 13.6157 17.0814 13.7184 16.8554 13.9222C16.6287 14.1278 16.479 14.4131 16.4054 14.7762L15.834 17.6661H14.5503L15.5561 12.6342ZM29.8502 12.6342H31.0978L30.9561 13.3606L31.1329 13.1533C31.5374 12.7209 32.0298 12.5066 32.6075 12.5066C33.132 12.5066 33.5107 12.6589 33.7466 12.9654C33.9791 13.2719 34.046 13.6955 33.9328 14.2394L33.2487 17.6661H31.9659L32.5863 14.5602C32.65 14.2394 32.6321 14.0002 32.5347 13.8459C32.4336 13.6918 32.2511 13.6157 31.9837 13.6157C31.6539 13.6157 31.3778 13.7184 31.1491 13.9222C30.9224 14.1278 30.7717 14.4131 30.701 14.7762L30.1267 17.6661H28.8448L29.8502 12.6342ZM36.0165 9.51562H39.6381C40.3342 9.51562 40.873 9.67334 41.2431 9.98325C41.6116 10.2972 41.796 10.7471 41.796 11.3335V11.3512C41.796 11.4628 41.7888 11.5887 41.7781 11.725C41.7597 11.8635 41.7361 12.0012 41.7073 12.1379C41.5477 12.9139 41.1775 13.5377 40.6054 14.0107C40.031 14.482 39.3509 14.7194 38.5678 14.7194H36.6256L36.0251 17.6659H34.3436L36.0165 9.51562ZM36.9216 13.3022H38.5322C38.9519 13.3022 39.2851 13.2046 39.5283 13.0116C39.7693 12.8167 39.9288 12.519 40.0169 12.115C40.031 12.0405 40.0399 11.9731 40.0506 11.9112C40.056 11.8528 40.063 11.7941 40.063 11.7376C40.063 11.4487 39.9604 11.2397 39.7546 11.1085C39.5492 10.9753 39.2267 10.9118 38.7803 10.9118H37.4125L36.9216 13.3022ZM49.3227 18.6389C48.791 19.7693 48.2844 20.4282 47.9869 20.7347C47.689 21.0379 47.099 21.743 45.678 21.6897L45.8006 20.8272C46.9964 20.4585 47.6429 18.7982 48.0117 18.063L47.5721 12.6483L48.4971 12.6359H49.2731L49.3566 16.0325L50.811 12.6359H52.2837L49.3227 18.6389ZM45.2052 13.0451L44.6203 13.4473C44.009 12.969 43.451 12.6731 42.3739 13.1727C40.9067 13.853 39.6806 19.0713 43.7205 17.3526L43.9507 17.6255L45.5401 17.6663L46.5839 12.9248L45.2052 13.0451ZM44.3012 15.6373C44.046 16.3904 43.4758 16.8882 43.0292 16.7465C42.5827 16.6082 42.4231 15.8818 42.6821 15.127C42.9372 14.3721 43.5113 13.8761 43.9541 14.0178C44.4006 14.156 44.5617 14.8825 44.3012 15.6373Z" fill="white"/>
</g>
<defs>
<clipPath id="clip0_339_6199">
<rect width="56.3557" height="36" fill="white" transform="translate(0.338379)"/>
</clipPath>
</defs>
</svg>
