<svg width="38" height="24" viewBox="0 0 38 24" fill="none" xmlns="http://www.w3.org/2000/svg">
<g clip-path="url(#clip0_702_4725)">
<path d="M35.7415 0.0072985L26.4902 0.00488281H26.4876C26.4804 0.00488281 26.4735 0.00615423 26.4665 0.00615423C25.1956 0.0450595 23.6126 1.06448 23.3243 2.3214L18.9493 21.6804C18.6609 22.9491 19.4451 23.9814 20.7069 24.0003H30.426C31.6683 23.9389 32.8758 22.9312 33.1591 21.6885L37.5344 2.32941C37.8274 1.04795 37.0243 0.0072985 35.7415 0.0072985Z" fill="#01798A"/>
<path d="M18.9492 21.6807L23.3242 2.32174C23.6125 1.06482 25.1955 0.045395 26.4664 0.00648965L22.7879 0.0042011L16.1607 0.00292969C14.8862 0.0289937 13.2827 1.05553 12.9945 2.32186L8.61815 21.6807C8.32877 22.9494 9.11425 23.9817 10.3751 24.0006H20.7068C19.445 23.9817 18.6608 22.9494 18.9492 21.6807Z" fill="#024381"/>
<path d="M8.61847 21.68L12.9948 2.32109C13.283 1.05477 14.8866 0.0282254 16.161 0.00216141L7.67114 0C6.38956 0 4.74638 1.03836 4.45345 2.32109L0.0771069 21.68C0.0505343 21.7982 0.0356588 21.914 0.026886 22.0271V22.3862C0.112579 23.311 0.818851 23.9845 1.83408 23.9999H10.3754C9.11458 23.981 8.3291 22.9488 8.61847 21.68Z" fill="#DD0228"/>
<path d="M16.3399 14.1083H16.5006C16.6482 14.1083 16.7475 14.0585 16.7942 13.9605L17.2117 13.3357H18.3297L18.0966 13.7467H19.4371L19.267 14.3764H17.6719C17.4881 14.6528 17.262 14.7826 16.9901 14.7672H16.1593L16.3399 14.1083ZM16.1563 15.0106H19.0934L18.9062 15.6946H17.7249L17.5447 16.3547H18.6941L18.5069 17.0387H17.3576L17.0906 18.0143C17.0245 18.1774 17.1114 18.2506 17.3499 18.2341H18.2866L18.113 18.8698H16.3146C15.9738 18.8698 15.8568 18.6748 15.9637 18.2838L16.3051 17.0389H15.5705L15.7571 16.3548H16.4919L16.672 15.6947H15.9697L16.1563 15.0106ZM20.844 13.3309L20.7979 13.7314C20.7979 13.7314 21.3518 13.3155 21.8549 13.3155H23.7141L23.0032 15.8894C22.9442 16.1836 22.6913 16.3299 22.2448 16.3299H20.1374L19.6438 18.1372C19.6152 18.2341 19.6555 18.2837 19.7618 18.2837H20.1766L20.0241 18.8448H18.97C18.5654 18.8448 18.3971 18.7231 18.4638 18.4786L19.8587 13.3309H20.844ZM22.4186 14.0585H20.759L20.5604 14.7531C20.5604 14.7531 20.8368 14.5536 21.2987 14.5465C21.7593 14.5393 22.2851 14.5465 22.2851 14.5465L22.4186 14.0585ZM21.8172 15.6697C21.9399 15.6863 22.0087 15.6379 22.0168 15.5232L22.1184 15.1572H20.4564L20.317 15.6697H21.8172ZM20.6963 16.5013H21.6543L21.6364 16.9159H21.8914C22.0204 16.9159 22.0843 16.8746 22.0843 16.7931L22.1598 16.525H22.9561L22.8498 16.9159C22.7598 17.2419 22.5214 17.412 22.1339 17.4287H21.6235L21.6211 18.1372C21.6119 18.2508 21.7143 18.3086 21.9258 18.3086H22.4053L22.2506 18.8698H21.1001C20.7775 18.8851 20.6194 18.7315 20.6228 18.4055L20.6963 16.5013ZM9.08727 9.9019C8.95733 10.5386 8.65613 11.0276 8.18888 11.3748C7.72584 11.7162 7.12878 11.8875 6.39759 11.8875C5.7095 11.8875 5.20513 11.7127 4.88321 11.3619C4.65994 11.1127 4.54895 10.7961 4.54895 10.4134C4.54895 10.2551 4.56789 10.085 4.60566 9.90203L5.38465 6.14589H6.56109L5.7929 9.85931C5.77093 9.95258 5.76026 10.0482 5.76112 10.144C5.75985 10.3342 5.80714 10.4901 5.90275 10.6117C6.0421 10.7925 6.26829 10.8822 6.58321 10.8822C6.94519 10.8822 7.24346 10.7937 7.47499 10.6152C7.70651 10.4379 7.85768 10.1864 7.92557 9.85918L8.69631 6.14551H9.8669L9.08727 9.9019ZM14.0282 8.42414H14.9496L14.2279 11.7765H13.3082L14.0282 8.42414ZM14.3183 7.20282H15.2479L15.0742 8.01652H14.1447L14.3183 7.20282ZM15.7652 11.5213C15.5242 11.2909 15.4025 10.9803 15.4014 10.5858C15.4014 10.5184 15.4054 10.4417 15.4145 10.3578C15.4234 10.2728 15.4346 10.1901 15.4504 10.1133C15.5597 9.56879 15.7925 9.13651 16.1509 8.81751C16.5088 8.49737 16.9405 8.33679 17.4462 8.33679C17.8602 8.33679 18.1886 8.45262 18.429 8.68401C18.6693 8.91681 18.7897 9.23085 18.7897 9.6302C18.7897 9.6986 18.7845 9.77781 18.7756 9.86287C18.7652 9.94672 18.7524 10.0302 18.7372 10.1133C18.6304 10.6496 18.3984 11.0772 18.0398 11.3902C17.6813 11.7055 17.2506 11.8626 16.7487 11.8626C16.3329 11.8627 16.0057 11.7493 15.7652 11.5213ZM17.5212 10.8575C17.6837 10.6815 17.7999 10.4145 17.8708 10.0591C17.8815 10.0035 17.8909 9.94564 17.8968 9.88779C17.9026 9.83109 17.905 9.77794 17.905 9.7295C17.905 9.52277 17.8524 9.36219 17.7467 9.24878C17.6417 9.13422 17.4923 9.07752 17.2992 9.07752C17.044 9.07752 16.836 9.16715 16.6732 9.3468C16.5089 9.52645 16.3924 9.79803 16.3192 10.1595C16.3092 10.2151 16.3009 10.2706 16.2933 10.3249C16.2874 10.3805 16.2856 10.4323 16.2868 10.4796C16.2868 10.6852 16.3394 10.8435 16.4451 10.9557C16.5502 11.0679 16.699 11.1234 16.8945 11.1234C17.151 11.1232 17.3587 11.0346 17.5212 10.8575Z" fill="white"/>
<path d="M26.4875 0.00505052L22.7879 0.00390625L26.4664 0.00632194C26.4733 0.00632194 26.4803 0.00505052 26.4875 0.00505052Z" fill="#E02F41"/>
<path d="M22.7882 0.00355996L16.2118 0C16.1952 0 16.1781 0.00114427 16.1609 0.00228855L22.7882 0.00355996Z" fill="#2E4F7D"/>
<path d="M24.7676 14.1363L24.9897 13.3543H26.1131L26.0647 13.6414C26.0647 13.6414 26.6386 13.3543 27.0521 13.3543H28.4411L28.2204 14.1363H28.0018L26.954 17.8241H27.1726L26.9647 18.5565H26.7462L26.6553 18.8742H25.5673L25.6581 18.5565H23.5119L23.7211 17.8241H23.9361L24.9849 14.1363H24.7676ZM25.9796 14.1363L25.6938 15.1343C25.6938 15.1343 26.1831 14.9465 26.6047 14.8934C26.6977 14.545 26.8194 14.1363 26.8194 14.1363H25.9796ZM25.5615 15.6022L25.2745 16.6477C25.2745 16.6477 25.8166 16.3807 26.1887 16.3583C26.2961 15.9543 26.4036 15.6023 26.4036 15.6023L25.5615 15.6022ZM25.7716 17.8241L25.9865 17.0657H25.1481L24.9319 17.8241H25.7716ZM28.4884 13.3059H29.5446L29.5894 13.6956C29.5823 13.7948 29.6414 13.8422 29.7667 13.8422H29.9533L29.7645 14.5023H28.9883C28.6921 14.5176 28.5396 14.4043 28.5254 14.1598L28.4884 13.3059ZM28.1789 14.7222H31.5997L31.3989 15.4311H30.3098L30.123 16.09H31.2113L31.0091 16.7976H29.7973L29.5232 17.2123H30.1164L30.2534 18.0427C30.2696 18.1253 30.3429 18.1655 30.4682 18.1655H30.6523L30.4588 18.8493H29.8067C29.4688 18.8659 29.2942 18.7525 29.2798 18.508L29.1227 17.7496L28.583 18.5565C28.4553 18.7844 28.2592 18.8907 27.9947 18.8742H26.9989L27.1926 18.1902H27.5033C27.6309 18.1902 27.7371 18.1336 27.8327 18.0189L28.6776 16.7976H27.5885L27.7904 16.09H28.9717L29.1594 15.4311H27.9772L28.1789 14.7222ZM10.1707 8.42277H11.0017L10.9066 8.90705L11.0259 8.76885C11.2953 8.48062 11.6224 8.33771 12.0087 8.33771C12.3583 8.33771 12.6104 8.4393 12.7689 8.64361C12.9247 8.84793 12.9673 9.13031 12.8935 9.49292L12.4356 11.7774H11.5816L11.995 9.70677C12.0375 9.49292 12.0257 9.33348 11.9601 9.23063C11.8953 9.1279 11.7712 9.07717 11.5922 9.07717C11.3725 9.07717 11.1876 9.14557 11.0369 9.28148C10.8858 9.41854 10.786 9.60874 10.7369 9.85082L10.356 11.7774H9.50018L10.1707 8.42277ZM19.7001 8.42277H20.5319L20.4374 8.90705L20.5553 8.76885C20.8249 8.48062 21.1532 8.33771 21.5383 8.33771C21.888 8.33771 22.1405 8.4393 22.2977 8.64361C22.4527 8.84793 22.4974 9.13031 22.4218 9.49292L21.9658 11.7774H21.1106L21.5242 9.70677C21.5667 9.49292 21.5547 9.33348 21.4898 9.23063C21.4224 9.1279 21.3007 9.07717 21.1224 9.07717C20.9026 9.07717 20.7185 9.14557 20.5661 9.28148C20.4149 9.41854 20.3145 9.60874 20.2673 9.85082L19.8845 11.7774H19.0298L19.7001 8.42277ZM23.811 6.34375H26.2254C26.6895 6.34375 27.0486 6.4489 27.2954 6.6555C27.5411 6.86478 27.664 7.1647 27.664 7.55566V7.56749C27.664 7.64186 27.6592 7.72578 27.6521 7.81668C27.6398 7.90899 27.624 8.00081 27.6049 8.09195C27.4985 8.60928 27.2517 9.02516 26.8703 9.34048C26.4873 9.65464 26.0339 9.81293 25.5119 9.81293H24.2171L23.8167 11.7773H22.6957L23.811 6.34375ZM24.4144 8.86815H25.4881C25.7679 8.86815 25.9901 8.80305 26.1522 8.67438C26.3129 8.54444 26.4192 8.34597 26.4779 8.07669C26.4873 8.02698 26.4933 7.9821 26.5004 7.94077C26.504 7.90187 26.5087 7.86271 26.5087 7.82508C26.5087 7.63246 26.4403 7.49311 26.3031 7.40564C26.1661 7.31689 25.9512 7.27455 25.6535 7.27455H24.7417L24.4144 8.86815ZM32.6818 12.4259C32.3273 13.1795 31.9896 13.6188 31.7913 13.8231C31.5927 14.0253 31.1993 14.4953 30.252 14.4598L30.3337 13.8848C31.1309 13.639 31.5619 12.5321 31.8078 12.042L31.5147 8.43218L32.1314 8.42391H32.6487L32.7044 10.6883L33.674 8.42391H34.6558L32.6818 12.4259ZM29.9368 8.69676L29.5468 8.9649C29.1394 8.64603 28.7673 8.44871 28.0492 8.78182C27.0711 9.23533 26.2537 12.7142 28.947 11.5684L29.1004 11.7503L30.16 11.7775L30.8559 8.61653L29.9368 8.69676ZM29.3341 10.4249C29.164 10.9269 28.7839 11.2588 28.4861 11.1643C28.1885 11.0721 28.082 10.5879 28.2547 10.0846C28.4248 9.58141 28.8075 9.25071 29.1027 9.34518C29.4004 9.43736 29.5078 9.92164 29.3341 10.4249Z" fill="white"/>
</g>
<defs>
<clipPath id="clip0_702_4725">
<rect width="37.5704" height="24" fill="white" transform="translate(0.0255737)"/>
</clipPath>
</defs>
</svg>
