<svg width="46" height="20" viewBox="0 0 46 20" fill="none" xmlns="http://www.w3.org/2000/svg">
<g clip-path="url(#clip0_339_6188)">
<path d="M18.6044 10.6789L16.3055 16.942L16.0592 15.6677C15.4844 14.1067 14.2402 12.4692 12.7939 11.8002L14.9034 19.8474H17.3981L21.1054 10.6661H18.6044V10.6789ZM20.5812 19.8665L22.0527 10.6661H24.4085L22.9369 19.8665H20.5812ZM31.4757 10.8955C31.0084 10.7107 30.2757 10.5068 29.3663 10.5068C27.0358 10.5068 25.4 11.7556 25.3874 13.5396C25.3748 14.8649 26.5558 15.5976 27.4463 16.0373C28.3684 16.4896 28.6716 16.7763 28.6716 17.1777C28.6652 17.7958 27.9389 18.0761 27.2632 18.0761C26.3221 18.0761 25.8232 17.936 25.0464 17.5983L24.7432 17.4517L24.4148 19.5097C24.9643 19.7646 25.9811 19.9876 27.0421 20.0003C29.5115 20.0003 31.122 18.7642 31.141 16.8592C31.1536 15.8079 30.5221 15.0178 29.1642 14.3616C28.3431 13.9347 27.8379 13.6543 27.8442 13.2211C27.8442 12.8388 28.2674 12.431 29.1958 12.431C29.9663 12.4183 30.5221 12.5967 30.9578 12.7878L31.1663 12.8961L31.4757 10.8955ZM37.5135 10.6789H35.6946C35.1325 10.6789 34.7094 10.8382 34.4567 11.4434L30.9642 19.8729H33.4336C33.4336 19.8729 33.8378 18.7388 33.9325 18.4903C34.2041 18.4903 36.6041 18.4966 36.9451 18.4966C37.0209 18.8152 37.2293 19.8729 37.2293 19.8729H39.4208L37.5135 10.6789ZM34.6083 16.6043C34.8041 16.0755 35.543 14.0303 35.543 14.0303C35.5304 14.0557 35.7388 13.5014 35.8588 13.151L36.0167 13.9411C36.0167 13.9411 36.4714 16.1392 36.5662 16.5979C36.1998 16.6043 35.0693 16.6043 34.6083 16.6043Z" fill="#11559C"/>
<path d="M14.1647 10.6719H10.369L10.3438 10.8312C13.2932 11.5957 15.2447 13.4626 16.0531 15.6735L15.2321 11.4428C15.0931 10.863 14.6763 10.691 14.1647 10.6719Z" fill="#F2A724"/>
<path d="M3.24437 8.44855H1.74755L0.0107422 0.573431L1.67177 0.293087L2.85911 6.45428L5.87801 0.375915H7.46956L3.24437 8.44855ZM11.0569 5.87448H7.47587C7.37482 6.97037 7.88008 7.44823 8.73901 7.44823C9.45268 7.44823 10.0842 7.18063 10.76 6.74737L10.7537 7.84326C10.0906 8.26378 9.32005 8.53138 8.41691 8.53138C6.85694 8.53138 5.82748 7.633 6.13695 5.60688C6.41484 3.77827 7.67166 2.66964 9.12426 2.66964C10.7979 2.66964 11.3537 3.93756 11.1137 5.53679C11.1011 5.65148 11.0632 5.79165 11.0569 5.87448ZM8.94743 3.6381C8.39165 3.6381 7.87376 4.07773 7.63376 5.00159H9.85057C9.88846 4.1287 9.61689 3.6381 8.94743 3.6381ZM13.3873 5.18636L12.8947 8.41032H11.5116L12.3705 2.78433H13.5516V3.91207C14.0189 3.26218 14.6568 2.71424 15.5347 2.66327L15.541 4.05225C14.6568 4.11596 13.8737 4.58108 13.3873 5.18636ZM15.5157 8.41032L16.3747 2.78433H17.7578L16.9052 8.41032H15.5157ZM17.221 1.84135C16.7599 1.84135 16.4378 1.51641 16.5136 1.05129C16.5894 0.573431 17.0062 0.235744 17.4673 0.235744C17.9157 0.235744 18.2378 0.573431 18.162 1.05129C18.0925 1.51641 17.6757 1.84135 17.221 1.84135ZM21.5977 1.24881C21.1241 1.24881 20.8398 1.45906 20.7641 1.96241L20.6377 2.7907H21.6988V3.93119H20.4609L19.7788 8.41032H18.402L19.0841 3.92482H18.2757L18.4525 2.78433H19.2609L19.4062 1.81586C19.5957 0.56706 20.4546 0.101944 21.5977 0.101944C21.8377 0.101944 22.0209 0.127429 22.1598 0.146544L22.1725 1.28703C22.0335 1.27429 21.8314 1.24881 21.5977 1.24881ZM21.6104 8.41032L22.4693 2.78433H23.8524L22.9998 8.41032H21.6104ZM23.3219 1.84135C22.8609 1.84135 22.5388 1.51641 22.6082 1.05129C22.684 0.573431 23.1009 0.235744 23.5619 0.235744C24.0103 0.235744 24.3324 0.573431 24.2566 1.05129C24.1872 1.51641 23.7703 1.84135 23.3219 1.84135ZM29.2334 5.87448H25.6524C25.5577 6.97037 26.0566 7.44823 26.9155 7.44823C27.6292 7.44823 28.2608 7.18063 28.9365 6.74737L28.9302 7.84326C28.2671 8.26378 27.4966 8.53138 26.5934 8.53138C25.0335 8.53138 24.004 7.633 24.3135 5.60688C24.5914 3.77827 25.8482 2.66964 27.3008 2.66964C28.9744 2.66964 29.5302 3.93756 29.2902 5.53679C29.2776 5.65148 29.2397 5.79165 29.2334 5.87448ZM27.1239 3.6381C26.5682 3.6381 26.0503 4.07773 25.8103 5.00159H28.0271C28.065 4.1287 27.7934 3.6381 27.1239 3.6381ZM33.3323 8.41032L33.3386 7.62663C32.8712 8.10449 32.2649 8.52501 31.4944 8.52501C30.326 8.52501 29.5239 7.65212 29.8144 5.75342C30.1365 3.65721 31.4186 2.72698 32.7133 2.72698C33.2438 2.72698 33.6607 2.82256 33.9765 2.93724L34.3933 0.223001L35.8143 0L34.5322 8.41032H33.3323ZM33.7996 4.09048C33.4775 3.92482 33.2249 3.84836 32.7512 3.84836C32.0249 3.84836 31.3997 4.44091 31.2165 5.67697C31.0523 6.77286 31.4312 7.28257 32.0439 7.28257C32.5491 7.28257 32.9912 6.97674 33.4333 6.51163L33.7996 4.09048ZM38.7701 8.46766C38.1132 8.46766 37.5764 8.35935 37.0838 8.18732L37.9932 2.2109L39.0669 2.04524L38.6753 4.63205C38.9911 4.35171 39.4269 4.06499 39.9574 4.06499C40.8479 4.06499 41.4479 4.73399 41.2269 6.16757C40.9869 7.73495 40.0269 8.46766 38.7701 8.46766ZM39.5469 4.99522C39.1995 4.99522 38.8458 5.23097 38.5364 5.54954L38.2395 7.48009C38.448 7.55655 38.5869 7.59478 38.8837 7.59478C39.5469 7.59478 40.0142 7.187 40.1595 6.21854C40.2858 5.40299 40.0142 4.99522 39.5469 4.99522ZM43.7026 8.64607C43.1658 9.69736 42.6353 10.0223 41.8205 10.0223C41.6374 10.0223 41.5363 10.0032 41.4416 9.9777L41.4353 9.10481C41.5679 9.14304 41.7132 9.16852 41.9153 9.16852C42.2184 9.16852 42.49 9.02835 42.6668 8.71615L42.8058 8.43581L41.9153 4.23702L43.0331 4.09685L43.551 7.12966L44.9468 4.15419H45.9889L43.7026 8.64607Z" fill="#11559C"/>
</g>
<defs>
<clipPath id="clip0_339_6188">
<rect width="46" height="20" fill="white"/>
</clipPath>
</defs>
</svg>
