<svg width="24" height="24" viewBox="0 0 24 24" fill="none" xmlns="http://www.w3.org/2000/svg">
<g clip-path="url(#clip0_702_4701)">
<path fill-rule="evenodd" clip-rule="evenodd" d="M0 0H24V24H0V0Z" fill="white"/>
<path d="M22.5693 19.365H1.05872V4.63477H22.9411V19.365H22.5693Z" fill="#1D5B99"/>
<path fill-rule="evenodd" clip-rule="evenodd" d="M22.5694 18.9935H1.43066V5.00684H22.5694V18.9935Z" fill="white"/>
<path fill-rule="evenodd" clip-rule="evenodd" d="M9.07067 14.2713L10.4435 9.74474H11.6684L10.2955 14.2713H9.07067ZM8.52308 9.74599L7.42117 11.6649C7.14077 12.1676 6.97667 12.4215 6.89785 12.7388H6.88104C6.90059 12.3364 6.84444 11.842 6.83921 11.5626L6.71744 9.74599H4.65556L4.63451 9.86776C5.16418 9.86776 5.47832 10.1338 5.56473 10.6782L5.96664 14.2713H7.23565L9.80167 9.74599H8.52308ZM18.0488 14.2713L18.0151 13.5982L16.4857 13.5969L16.1727 14.2713H14.8429L17.2543 9.75333H18.8865L19.2948 14.2713H18.0488ZM17.9085 11.6012C17.8947 11.2666 17.8835 10.8127 17.906 10.5377H17.888C17.8135 10.7625 17.4933 11.4373 17.3524 11.7691L16.8967 12.7612H17.9706L17.9085 11.6012ZM12.9544 14.3999C12.0897 14.3999 11.5157 14.1256 11.106 13.881L11.6895 12.99C12.0574 13.1957 12.3461 13.4331 13.0108 13.4331C13.2243 13.4331 13.4303 13.3777 13.5473 13.1751C13.7175 12.8809 13.508 12.7223 13.0296 12.4515L12.7933 12.2978C12.0839 11.8132 11.777 11.3528 12.111 10.5492C12.3247 10.0352 12.8881 9.64551 13.8181 9.64551C14.4591 9.64551 15.0603 9.92292 15.4105 10.1938L14.7397 10.9805C14.3978 10.7041 14.1146 10.5643 13.7903 10.5643C13.5319 10.5643 13.3354 10.664 13.2675 10.7985C13.1399 11.0512 13.3089 11.2235 13.6816 11.4549L13.9625 11.6337C14.8239 12.1769 15.0288 12.7464 14.8132 13.2787C14.4416 14.1955 13.7148 14.3999 12.9544 14.3999ZM19.6595 10.3582H19.6064V10.0352H19.729C19.807 10.0352 19.8466 10.0625 19.8466 10.1281C19.8466 10.1866 19.8109 10.2109 19.7624 10.2163L19.853 10.3582H19.793L19.7095 10.2202H19.6595V10.3582ZM19.7187 10.1748C19.7586 10.1748 19.7937 10.1709 19.7937 10.1241C19.7937 10.0852 19.7555 10.0804 19.7237 10.0804H19.6595V10.1748H19.7187ZM19.7172 10.4831C19.5494 10.4831 19.43 10.3575 19.43 10.1912C19.43 10.0158 19.5625 9.89951 19.7172 9.89951C19.87 9.89951 20.0028 10.0158 20.0028 10.1912C20.0028 10.3668 19.87 10.4831 19.7172 10.4831ZM19.7172 9.95018C19.5907 9.95018 19.4925 10.0493 19.4925 10.1912C19.4925 10.3238 19.5783 10.4323 19.7172 10.4323C19.842 10.4323 19.9402 10.3339 19.9402 10.1912C19.9402 10.0493 19.842 9.95018 19.7172 9.95018Z" fill="#1D5B99"/>
<path fill-rule="evenodd" clip-rule="evenodd" d="M22.0488 15.6768H1.98816V18.3608H22.0488V15.6768Z" fill="#E7A83A"/>
<path fill-rule="evenodd" clip-rule="evenodd" d="M22.0119 5.67578H1.95142V8.35996H22.0119V5.67578ZM21.5535 18.1703H21.5004V17.8474H21.623C21.701 17.8474 21.7406 17.8746 21.7406 17.9402C21.7406 17.9986 21.7049 18.0229 21.6565 18.0283L21.747 18.1703H21.687L21.6035 18.0323H21.5535V18.1703ZM21.6129 17.9869C21.6527 17.9869 21.6878 17.9831 21.6878 17.9361C21.6878 17.8973 21.6496 17.8926 21.6179 17.8926H21.5536V17.9869H21.6129ZM21.6114 18.2951C21.4435 18.2951 21.3241 18.1696 21.3241 18.0032C21.3241 17.8279 21.4569 17.7116 21.6114 17.7116C21.7644 17.7116 21.8969 17.8279 21.8969 18.0032C21.8969 18.1788 21.7644 18.2951 21.6114 18.2951ZM21.6114 17.7622C21.4849 17.7622 21.3866 17.8614 21.3866 18.0032C21.3866 18.136 21.4724 18.2443 21.6114 18.2443C21.7361 18.2443 21.8344 18.1461 21.8344 18.0032C21.8344 17.8614 21.7361 17.7622 21.6114 17.7622Z" fill="#1D5B99"/>
</g>
<defs>
<clipPath id="clip0_702_4701">
<rect width="24" height="24" fill="white"/>
</clipPath>
</defs>
</svg>
