<svg width="46" height="46" viewBox="0 0 46 46" fill="none" xmlns="http://www.w3.org/2000/svg">
<g clip-path="url(#clip0_339_6175)">
<path fill-rule="evenodd" clip-rule="evenodd" d="M0 0H46V46H0V0Z" fill="white"/>
<path d="M43.2579 37.1168H2.0293V8.88379H43.9704V37.1168H43.2579Z" fill="#1D5B99"/>
<path fill-rule="evenodd" clip-rule="evenodd" d="M43.2582 36.4035H2.74219V9.5957H43.2582V36.4035Z" fill="white"/>
<path fill-rule="evenodd" clip-rule="evenodd" d="M17.3854 27.3534L20.0167 18.6775H22.3645L19.733 27.3534H17.3854ZM16.3359 18.6799L14.2239 22.3579C13.6865 23.3213 13.3719 23.8079 13.2209 24.4162H13.1887C13.2261 23.6449 13.1185 22.6972 13.1085 22.1617L12.8751 18.6799H8.92314L8.88281 18.9133C9.898 18.9133 10.5001 19.4233 10.6657 20.4666L11.4361 27.3534H13.8683L18.7865 18.6799H16.3359ZM34.5936 27.3534L34.5289 26.0633L31.5976 26.0609L30.9977 27.3534H28.449L33.0708 18.694H36.1992L36.9817 27.3534H34.5936ZM34.3246 22.2357C34.2981 21.5944 34.2766 20.7244 34.3198 20.1974H34.2852C34.1425 20.6282 33.5287 21.9216 33.2588 22.5576L32.3854 24.4591H34.4437L34.3246 22.2357ZM24.8292 27.5999C23.1718 27.5999 22.0717 27.0742 21.2866 26.6052L22.4048 24.8975C23.11 25.2918 23.6634 25.7468 24.9373 25.7468C25.3466 25.7468 25.7413 25.6406 25.9656 25.2524C26.2919 24.6885 25.8902 24.3844 24.9734 23.8654L24.5204 23.5709C23.1609 22.6421 22.5726 21.7596 23.2126 20.2194C23.6224 19.2343 24.7023 18.4873 26.4847 18.4873C27.7132 18.4873 28.8656 19.019 29.5367 19.5383L28.2511 21.046C27.5958 20.5163 27.0529 20.2483 26.4315 20.2483C25.9361 20.2483 25.5595 20.4394 25.4294 20.6971C25.1848 21.1816 25.5086 21.5119 26.2231 21.9553L26.7615 22.298C28.4125 23.3392 28.8053 24.4307 28.3919 25.4509C27.6798 27.2081 26.2866 27.5999 24.8292 27.5999ZM37.6807 19.8533H37.579V19.2343H37.8138C37.9635 19.2343 38.0393 19.2865 38.0393 19.4123C38.0393 19.5244 37.9708 19.571 37.878 19.5812L38.0515 19.8533H37.9365L37.7766 19.5889H37.6807V19.8533ZM37.7943 19.5018C37.8706 19.5018 37.9379 19.4944 37.9379 19.4047C37.9379 19.33 37.8647 19.3209 37.8038 19.3209H37.6807V19.5018H37.7943ZM37.7914 20.0927C37.4697 20.0927 37.2408 19.8519 37.2408 19.5333C37.2408 19.197 37.4948 18.9741 37.7914 18.9741C38.0842 18.9741 38.3386 19.197 38.3386 19.5333C38.3386 19.8698 38.0842 20.0927 37.7914 20.0927ZM37.7914 19.0713C37.5489 19.0713 37.3606 19.2612 37.3606 19.5333C37.3606 19.7874 37.5251 19.9953 37.7914 19.9953C38.0305 19.9953 38.2188 19.8068 38.2188 19.5333C38.2188 19.2612 38.0305 19.0713 37.7914 19.0713Z" fill="#1D5B99"/>
<path fill-rule="evenodd" clip-rule="evenodd" d="M42.2601 30.0479H3.81055V35.1923H42.2601V30.0479Z" fill="#E7A83A"/>
<path fill-rule="evenodd" clip-rule="evenodd" d="M42.1895 10.8789H3.74023V16.0236H42.1895V10.8789ZM41.3109 34.8268H41.2092V34.2078H41.444C41.5937 34.2078 41.6695 34.26 41.6695 34.3858C41.6695 34.4977 41.6011 34.5442 41.5082 34.5545L41.6817 34.8268H41.5667L41.4068 34.5621H41.3109V34.8268ZM41.4247 34.4753C41.5011 34.4753 41.5684 34.4679 41.5684 34.3779C41.5684 34.3035 41.4951 34.2944 41.4342 34.2944H41.3111V34.4753H41.4247ZM41.4218 35.0659C41.1001 35.0659 40.8713 34.8254 40.8713 34.5065C40.8713 34.1705 41.1257 33.9476 41.4218 33.9476C41.7151 33.9476 41.969 34.1705 41.969 34.5065C41.969 34.843 41.7151 35.0659 41.4218 35.0659ZM41.4218 34.0445C41.1794 34.0445 40.9911 34.2347 40.9911 34.5065C40.9911 34.7609 41.1555 34.9686 41.4218 34.9686C41.6609 34.9686 41.8492 34.7803 41.8492 34.5065C41.8492 34.2347 41.6609 34.0445 41.4218 34.0445Z" fill="#1D5B99"/>
</g>
<defs>
<clipPath id="clip0_339_6175">
<rect width="46" height="46" fill="white"/>
</clipPath>
</defs>
</svg>
