<svg width="56" height="24" viewBox="0 0 56 24" fill="none" xmlns="http://www.w3.org/2000/svg">
<g clip-path="url(#clip0_702_4714)">
<path d="M22.9252 12.8148L20.1665 20.3306L19.871 18.8015C19.1813 16.9282 17.6883 14.9633 15.9527 14.1605L18.484 23.8171H21.4777L25.9264 12.7995H22.9252V12.8148ZM25.2974 23.84L27.0633 12.7995H29.8902L28.1243 23.84H25.2974ZM38.3709 13.0748C37.81 12.8531 36.9309 12.6084 35.8395 12.6084C33.0429 12.6084 31.08 14.107 31.0649 16.2478C31.0497 17.8381 32.467 18.7174 33.5356 19.2449C34.6421 19.7878 35.0059 20.1318 35.0059 20.6135C34.9983 21.3551 34.1267 21.6915 33.3158 21.6915C32.1865 21.6915 31.5878 21.5233 30.6556 21.1181L30.2918 20.9423L29.8977 23.4118C30.5571 23.7177 31.7773 23.9853 33.0505 24.0006C36.0138 24.0006 37.9464 22.5173 37.9692 20.2312C37.9843 18.9697 37.2264 18.0216 35.597 17.2341C34.6118 16.7218 34.0055 16.3854 34.013 15.8655C34.013 15.4067 34.5208 14.9174 35.6349 14.9174C36.5595 14.9021 37.2264 15.1162 37.7494 15.3456L37.9995 15.4756L38.3709 13.0748ZM45.6162 12.8148H43.4335C42.759 12.8148 42.2512 13.006 41.9481 13.7323L37.757 23.8477H40.7203C40.7203 23.8477 41.2053 22.4867 41.319 22.1885C41.6449 22.1885 44.5248 22.1962 44.9341 22.1962C45.025 22.5785 45.2751 23.8477 45.2751 23.8477H47.905L45.6162 12.8148ZM42.1299 19.9254C42.3649 19.2908 43.2516 16.8365 43.2516 16.8365C43.2364 16.8671 43.4865 16.2019 43.6305 15.7814L43.82 16.7295C43.82 16.7295 44.3657 19.3672 44.4794 19.9177C44.0398 19.9254 42.6832 19.9254 42.1299 19.9254Z" fill="#11559C"/>
<path d="M17.5977 12.8066H13.0428L13.0125 12.9978C16.5518 13.9153 18.8936 16.1555 19.8637 18.8086L18.8785 13.7318C18.7117 13.036 18.2115 12.8296 17.5977 12.8066Z" fill="#F2A724"/>
<path d="M4.49325 10.1383H2.69707L0.6129 0.688117L2.60613 0.351705L4.03094 7.74514L7.65362 0.451099H9.56348L4.49325 10.1383ZM13.8682 7.04938H9.57106C9.4498 8.36445 10.0561 8.93788 11.0868 8.93788C11.9432 8.93788 12.7011 8.61676 13.512 8.09684L13.5045 9.41191C12.7087 9.91653 11.7841 10.2377 10.7003 10.2377C8.82833 10.2377 7.59299 9.1596 7.96435 6.72826C8.29782 4.53393 9.806 3.20357 11.5491 3.20357C13.5575 3.20357 14.2244 4.72507 13.9365 6.64415C13.9213 6.78178 13.8758 6.94998 13.8682 7.04938ZM11.3369 4.36572C10.67 4.36572 10.0485 4.89328 9.76053 6.00191H12.4207C12.4662 4.95444 12.1403 4.36572 11.3369 4.36572ZM16.6648 6.22364L16.0737 10.0924H14.4139L15.4446 3.34119H16.8619V4.69449C17.4227 3.91462 18.1882 3.25709 19.2416 3.19592L19.2492 4.8627C18.1882 4.93915 17.2484 5.49729 16.6648 6.22364ZM19.2189 10.0924L20.2496 3.34119H21.9094L20.8862 10.0924H19.2189ZM21.2652 2.20962C20.7119 2.20962 20.3254 1.81969 20.4163 1.26155C20.5073 0.688117 21.0075 0.282892 21.5607 0.282892C22.0988 0.282892 22.4854 0.688117 22.3944 1.26155C22.311 1.81969 21.8108 2.20962 21.2652 2.20962ZM26.5173 1.49857C25.9489 1.49857 25.6078 1.75087 25.5169 2.35489L25.3653 3.34884H26.6385V4.71743H25.1531L24.3346 10.0924H22.6824L23.5009 4.70978H22.5308L22.743 3.34119H23.7131L23.8874 2.17904C24.1148 0.680471 25.1455 0.122332 26.5173 0.122332C26.8053 0.122332 27.0251 0.152915 27.1918 0.175852L27.207 1.54444C27.0402 1.52915 26.7977 1.49857 26.5173 1.49857ZM26.5324 10.0924L27.5632 3.34119H29.2229L28.1998 10.0924H26.5324ZM28.5863 2.20962C28.033 2.20962 27.6465 1.81969 27.7299 1.26155C27.8208 0.688117 28.321 0.282892 28.8743 0.282892C29.4124 0.282892 29.7989 0.688117 29.708 1.26155C29.6246 1.81969 29.1244 2.20962 28.5863 2.20962ZM35.6801 7.04938H31.3829C31.2692 8.36445 31.8679 8.93788 32.8986 8.93788C33.7551 8.93788 34.5129 8.61676 35.3239 8.09684L35.3163 9.41191C34.5205 9.91653 33.5959 10.2377 32.5121 10.2377C30.6402 10.2377 29.4048 9.1596 29.7762 6.72826C30.1096 4.53393 31.6178 3.20357 33.361 3.20357C35.3693 3.20357 36.0363 4.72507 35.7483 6.64415C35.7331 6.78178 35.6876 6.94998 35.6801 7.04938ZM33.1487 4.36572C32.4818 4.36572 31.8603 4.89328 31.5724 6.00191H34.2325C34.278 4.95444 33.9521 4.36572 33.1487 4.36572ZM40.5987 10.0924L40.6063 9.15196C40.0455 9.72539 39.3179 10.23 38.3933 10.23C36.9912 10.23 36.0287 9.18254 36.3773 6.90411C36.7638 4.38866 38.3023 3.27238 39.856 3.27238C40.4926 3.27238 40.9928 3.38707 41.3718 3.52469L41.872 0.267601L43.5772 0L42.0387 10.0924H40.5987ZM41.1596 4.90857C40.773 4.70978 40.4699 4.61803 39.9015 4.61803C39.0299 4.61803 38.2796 5.32909 38.0598 6.81236C37.8628 8.12743 38.3175 8.73909 39.0526 8.73909C39.6589 8.73909 40.1895 8.37209 40.72 7.81395L41.1596 4.90857ZM47.1241 10.1612C46.3359 10.1612 45.6917 10.0312 45.1005 9.82478L46.1919 2.65307L47.4803 2.45429L47.0104 5.55846C47.3893 5.22205 47.9123 4.87799 48.5489 4.87799C49.6175 4.87799 50.3375 5.68079 50.0722 7.40108C49.7842 9.28194 48.6323 10.1612 47.1241 10.1612ZM48.0563 5.99426C47.6394 5.99426 47.215 6.27716 46.8437 6.65945L46.4875 8.97611C46.7376 9.06785 46.9043 9.11373 47.2605 9.11373C48.0563 9.11373 48.6171 8.6244 48.7914 7.46225C48.943 6.48359 48.6171 5.99426 48.0563 5.99426ZM53.0431 10.3753C52.3989 11.6368 51.7623 12.0268 50.7846 12.0268C50.5649 12.0268 50.4436 12.0038 50.3299 11.9732L50.3223 10.9258C50.4815 10.9716 50.6558 11.0022 50.8983 11.0022C51.2621 11.0022 51.588 10.834 51.8002 10.4594L51.9669 10.123L50.8983 5.08442L52.2398 4.91621L52.8612 8.55559L54.5362 4.98503H55.7867L53.0431 10.3753Z" fill="#11559C"/>
</g>
<defs>
<clipPath id="clip0_702_4714">
<rect width="55.2" height="24" fill="white" transform="translate(0.600006)"/>
</clipPath>
</defs>
</svg>
