<svg width="190" height="40" viewBox="0 0 190 40" fill="none" xmlns="http://www.w3.org/2000/svg">
<path d="M75.5017 34.7613C73.7065 34.7287 71.9603 34.5818 70.263 34.3207C68.5657 34.0269 67.1949 33.6353 66.1504 33.1457V28.9841C67.2601 29.5063 68.68 29.9633 70.4099 30.355C72.1398 30.7466 73.837 30.9588 75.5017 30.9914V21.1016C73.9023 20.6446 72.4988 20.155 71.2911 19.6328C70.1161 19.0779 69.1532 18.4578 68.4025 17.7723C67.6518 17.0869 67.0806 16.3036 66.6889 15.4223C66.3299 14.5084 66.1504 13.4639 66.1504 12.2889C66.1504 10.6895 66.5257 9.31865 67.2765 8.17626C68.0598 7.03386 69.1532 6.13627 70.5568 5.48348C71.9603 4.79804 73.6086 4.40637 75.5017 4.30845V0H78.6351V4.25949C80.365 4.29213 81.9317 4.48797 83.3352 4.847C84.7714 5.1734 86.077 5.5814 87.252 6.07099L85.9301 9.694C84.8856 9.26969 83.7269 8.91065 82.4539 8.61689C81.2136 8.29049 79.9407 8.07834 78.6351 7.98042V17.8213C80.7893 18.4415 82.5845 19.1106 84.0206 19.8286C85.4568 20.5141 86.5339 21.379 87.252 22.4235C88.0027 23.4353 88.3781 24.7572 88.3781 26.3892C88.3781 28.674 87.5294 30.5345 85.8322 31.9706C84.1349 33.3741 81.7359 34.2391 78.6351 34.5655V40H75.5017V34.7613ZM78.6351 30.7466C80.5608 30.5508 81.9643 30.1102 82.8456 29.4247C83.7269 28.7067 84.1675 27.7927 84.1675 26.683C84.1675 25.867 84.0043 25.1979 83.6779 24.6756C83.3515 24.1208 82.7803 23.6475 81.9643 23.2558C81.181 22.8641 80.0712 22.4888 78.6351 22.1297V30.7466ZM75.5017 8.07834C74.3266 8.14362 73.3638 8.35577 72.6131 8.71481C71.8623 9.04121 71.2911 9.48184 70.8995 10.0367C70.5404 10.5916 70.3609 11.2281 70.3609 11.9461C70.3609 12.7948 70.5078 13.5292 70.8016 14.1493C71.128 14.7368 71.6665 15.2428 72.4172 15.6671C73.1679 16.0588 74.1961 16.4178 75.5017 16.7442V8.07834Z" fill="#FD853A"/>
<path d="M102.625 28.5924H92.7842V11.1138H102.625V13.366H95.428V18.3599H102.184V20.5875H95.428V26.3158H102.625V28.5924Z" fill="white"/>
<path d="M113.877 13.1457C113.012 13.1457 112.237 13.3007 111.551 13.6108C110.866 13.9045 110.278 14.3452 109.789 14.9327C109.316 15.5202 108.948 16.2301 108.687 17.0624C108.442 17.8947 108.32 18.8331 108.32 19.8776C108.32 21.2485 108.524 22.4398 108.932 23.4517C109.34 24.4472 109.952 25.2142 110.768 25.7528C111.584 26.2913 112.612 26.5606 113.852 26.5606C114.603 26.5606 115.321 26.4953 116.007 26.3647C116.708 26.2179 117.418 26.0302 118.136 25.8017V28.0783C117.451 28.3395 116.749 28.5271 116.031 28.6414C115.313 28.7719 114.481 28.8372 113.534 28.8372C111.755 28.8372 110.27 28.47 109.079 27.7356C107.904 27.0012 107.023 25.9568 106.435 24.6022C105.848 23.2477 105.554 21.6646 105.554 19.8531C105.554 18.5312 105.733 17.3235 106.092 16.2301C106.468 15.1204 107.006 14.1656 107.708 13.366C108.41 12.5663 109.275 11.9543 110.303 11.53C111.347 11.0894 112.547 10.869 113.901 10.869C114.783 10.869 115.648 10.967 116.496 11.1628C117.345 11.3423 118.112 11.6034 118.797 11.9461L117.818 14.1493C117.247 13.8882 116.627 13.6597 115.958 13.4639C115.305 13.2517 114.611 13.1457 113.877 13.1457Z" fill="white"/>
<path d="M135.464 22.4235C135.464 23.6312 135.211 24.7246 134.705 25.7038C134.215 26.6667 133.456 27.4337 132.428 28.0049C131.4 28.5598 130.102 28.8372 128.536 28.8372C126.316 28.8372 124.627 28.2497 123.468 27.0747C122.326 25.8833 121.755 24.3166 121.755 22.3745V11.1138H124.399V22.2521C124.399 23.6883 124.75 24.7736 125.451 25.508C126.153 26.226 127.222 26.5851 128.658 26.5851C129.637 26.5851 130.437 26.4055 131.057 26.0465C131.677 25.6875 132.126 25.1897 132.404 24.5532C132.697 23.9004 132.844 23.1253 132.844 22.2277V11.1138H135.464V22.4235Z" fill="white"/>
<path d="M144.871 11.1138C146.372 11.1138 147.604 11.3015 148.567 11.6769C149.53 12.0522 150.248 12.6153 150.721 13.366C151.195 14.1004 151.431 15.0306 151.431 16.1567C151.431 17.0543 151.26 17.8131 150.917 18.4333C150.591 19.0371 150.166 19.5349 149.644 19.9266C149.122 20.3019 148.575 20.6038 148.004 20.8323L152.9 28.5924H149.865L145.654 21.5177H142.619V28.5924H139.975V11.1138H144.871ZM144.699 13.366H142.619V19.3146H144.822C145.719 19.3146 146.454 19.2003 147.025 18.9718C147.612 18.7434 148.037 18.4007 148.298 17.9437C148.575 17.4867 148.714 16.9237 148.714 16.2546C148.714 15.5528 148.567 14.998 148.273 14.59C147.996 14.1656 147.555 13.8556 146.951 13.6597C146.364 13.4639 145.613 13.366 144.699 13.366Z" fill="white"/>
<path d="M160.851 28.5924H154.071V27.0747L156.151 26.4627V13.2681L154.071 12.6316V11.1138H160.851V12.6316L158.795 13.2681V26.4627L160.851 27.0747V28.5924Z" fill="white"/>
<path d="M169.995 28.5924H167.351V13.3905H162.113V11.1138H175.234V13.3905H169.995V28.5924Z" fill="white"/>
<path d="M182.736 19.2901L187.02 11.1138H189.86L184.034 21.8115V28.5924H181.414V21.9094L175.588 11.1138H178.452L182.736 19.2901Z" fill="white"/>
<path d="M7.8825 28.5924H5.23868V13.3905H0V11.1138H13.1212V13.3905H7.8825V28.5924Z" fill="white"/>
<path d="M20.6971 11.1138C22.1985 11.1138 23.4307 11.3015 24.3935 11.6769C25.3564 12.0522 26.0745 12.6153 26.5478 13.366C27.021 14.1004 27.2577 15.0306 27.2577 16.1567C27.2577 17.0543 27.0863 17.8131 26.7436 18.4333C26.4172 19.0371 25.9929 19.5349 25.4707 19.9266C24.9484 20.3019 24.4017 20.6038 23.8305 20.8323L28.7265 28.5924H25.691L21.4805 21.5178H18.445V28.5924H15.8011V11.1138H20.6971ZM20.5257 13.366H18.445V19.3146H20.6481C21.5457 19.3146 22.2801 19.2003 22.8513 18.9719C23.4388 18.7434 23.8632 18.4007 24.1243 17.9437C24.4017 17.4867 24.5404 16.9237 24.5404 16.2546C24.5404 15.5528 24.3935 14.998 24.0998 14.59C23.8224 14.1657 23.3817 13.8556 22.7779 13.6597C22.1904 13.4639 21.4397 13.366 20.5257 13.366Z" fill="white"/>
<path d="M42.1858 28.5924L40.3253 23.5496H33.5689L31.7084 28.5924H28.9667L35.6007 11.0404H38.3424L44.952 28.5924H42.1858ZM37.8284 16.328C37.7794 16.1485 37.6897 15.8792 37.5591 15.5202C37.4449 15.1448 37.3306 14.7695 37.2164 14.3941C37.1021 14.0025 37.0124 13.6842 36.9471 13.4394C36.8655 13.7658 36.7676 14.1249 36.6533 14.5165C36.5554 14.8919 36.4575 15.2428 36.3596 15.5692C36.2617 15.8792 36.1801 16.1322 36.1148 16.328L34.3522 21.2485H39.5909L37.8284 16.328Z" fill="white"/>
<path d="M61.6545 28.5924H58.4476L49.6104 14.4676H49.5125C49.5288 14.794 49.5451 15.1448 49.5615 15.5202C49.5941 15.8956 49.6186 16.2954 49.6349 16.7197C49.6512 17.1277 49.6675 17.552 49.6839 17.9927C49.7002 18.417 49.7083 18.8495 49.7083 19.2901V28.5924H47.3093V11.1138H50.4917L59.3044 25.1652H59.3779C59.3615 24.9204 59.3452 24.6185 59.3289 24.2595C59.3126 23.8841 59.2963 23.4843 59.2799 23.06C59.2799 22.6357 59.2718 22.2032 59.2555 21.7626C59.2391 21.3219 59.2228 20.9058 59.2065 20.5141V11.1138H61.6545V28.5924Z" fill="white"/>
</svg>
